<?xml version="1.0" standalone="no"?>
<!DOCTYPE svg PUBLIC "-//W3C//DTD SVG 1.1//EN" "http://www.w3.org/Graphics/SVG/1.1/DTD/svg11.dtd" >
<svg xmlns="http://www.w3.org/2000/svg">
<metadata>
This is a custom SVG webfont generated by Font Squirrel.
Copyright   : Haley Fiege kingdomofawesomecom
Designer    : Haley Fiege
Foundry     : Haley Fiege
</metadata>
<defs>
<font id="webfontQ5bSrAXR" horiz-adv-x="1527" >
<font-face units-per-em="2048" ascent="1536" descent="-512" />
<missing-glyph horiz-adv-x="876" />
<glyph unicode=" "  horiz-adv-x="876" />
<glyph unicode="&#x09;" horiz-adv-x="876" />
<glyph unicode="&#xa0;" horiz-adv-x="876" />
<glyph unicode="!" horiz-adv-x="913" d="M109 1077q2 68 8 140q12 92 51 163q16 31 42 60.5t60.5 52.5t81.5 37t107 14q72 -6 137 -39q55 -29 108.5 -85t79.5 -160q23 -100 27 -189.5t-2 -159.5q-8 -82 -25 -151q-25 -72 -67 -127q-37 -47 -99.5 -86t-158.5 -39q-109 0 -174.5 51t-100.5 113q-41 72 -57 164 q-14 53 -17 117.5t-1 123.5zM193 158q0 45 20 86t56 70.5t84 47t104 17.5q55 0 103 -17.5t85 -47t57.5 -70.5t20.5 -86q0 -47 -20.5 -87t-57.5 -70t-85 -47t-103 -17t-103.5 17t-84.5 47t-56 70t-20 87z" />
<glyph unicode="&#x22;" horiz-adv-x="917" d="M69 1344.5q1 62.5 17 117.5q14 49 40 74t55.5 34t59 7t52.5 -10q18 -8 37.5 -19.5t36 -30t29 -49t16.5 -79.5q2 -35 -1 -80t-12.5 -89t-20.5 -83t-24 -64q-12 -27 -32 -47q-16 -18 -42 -32.5t-61 -12.5q-37 2 -60.5 21.5t-35.5 41.5q-16 27 -23 60q-16 61 -24 125 q-8 53 -7 115.5zM484 1344.5q1 62.5 18 117.5q14 49 39.5 74t55.5 34t59.5 7t52.5 -10q18 -8 37.5 -19.5t36 -30t28.5 -49t16 -79.5q2 -35 -1 -80t-12 -89t-20.5 -83t-23.5 -64q-12 -27 -33 -47q-16 -18 -41.5 -32.5t-60.5 -12.5q-37 2 -60.5 21.5t-35.5 41.5q-16 27 -23 60 q-16 61 -24 125q-9 53 -8 115.5z" />
<glyph unicode="#" horiz-adv-x="1554" d="M80 508q0 37 14 70q12 29 41 54t82 36q51 12 127 18q6 51 18 105h-20q-4 0 -6 2q-57 4 -88 26.5t-47 48.5q-18 31 -23 68q0 37 15 70q12 29 39.5 54t80.5 36q51 8 123 18q18 74 43 141q18 57 48 83t59 34q33 8 69 2q41 -2 72 -20q27 -16 46.5 -50t14.5 -94l-4 -40l-4 -37 q41 0 80 -1.5t80 -1.5l19 65q9 32 20 60q18 57 48 83t58 34q33 8 70 2q41 -2 72 -20q27 -16 46 -50t15 -94l-4 -52q-2 -26 -6 -52l55 -6q59 -10 90 -35t43 -51q14 -31 15 -68q4 -39 -8 -74q-10 -29 -40 -55t-90 -31q-29 -4 -57.5 -5t-56.5 -3q-4 -27 -9.5 -52.5t-11.5 -49.5 q8 -2 14.5 -3t12.5 -1q59 -10 90 -35t43 -51q14 -31 14 -68q4 -39 -8 -74q-10 -29 -39.5 -55.5t-89.5 -30.5l-53 -4l-53 -4l-15 -54l-10 -40l-10 -35q-14 -55 -42 -82.5t-56 -38.5q-35 -12 -72 -10q-37 6 -66 27q-25 16 -45 49t-20 86q-4 41 0 90h-85q-42 0 -83 2 q-8 -29 -13.5 -51.5l-9.5 -38.5q-6 -18 -8 -33q-14 -55 -41.5 -82.5t-56.5 -38.5q-35 -12 -72 -10q-37 6 -65 27q-25 16 -45.5 49t-22.5 86v50q0 28 2 56q-16 2 -27.5 2t-19.5 2q-8 0 -16 3q-57 4 -88 26.5t-48 48.5q-18 31 -24 68zM715 705q33 0 65.5 -1.5t65.5 -1.5 q4 16 6 33t6 33q-35 2 -67.5 2t-63.5 2q-6 -36 -12 -67z" />
<glyph unicode="$" horiz-adv-x="1196" d="M78 444q0 47 14 80t39 56.5t56.5 37t64.5 19.5q78 16 176 6q-119 31 -179.5 88t-84.5 115q-29 68 -27 141q4 76 34 131.5t75 92t99 58t106 34.5q4 39 5 70.5t3 58.5q6 72 29.5 110.5t50.5 54.5q31 20 65 21q39 -2 70 -25q27 -18 49 -56t27 -110q2 -29 3 -56.5t1 -55.5 q102 -12 166.5 -38t100.5 -58.5t48 -69.5t12 -70q0 -61 -32.5 -100t-80.5 -60.5t-104.5 -29.5t-103.5 -10v-17q133 -33 200.5 -89t96.5 -109q35 -66 33 -136q0 -104 -39 -173.5t-94.5 -111.5t-117 -62.5t-106.5 -28.5q-4 -27 -5 -45.5t-3 -32.5q-2 -16 -2 -27 q-8 -59 -30.5 -89t-47.5 -42q-29 -14 -61 -14q-37 -4 -68 10q-27 12 -49.5 42t-24.5 93q-2 29 -2 56.5t-2 56.5q-147 23 -222 71t-105 95q-37 55 -33 118z" />
<glyph unicode="%" horiz-adv-x="1521" d="M78 1141q10 55 36.5 104t68.5 83t98.5 47.5t128.5 0.5q68 -12 114.5 -44t73.5 -75t34 -96t-3 -108q-12 -70 -45 -115t-79 -70.5t-100.5 -31t-109.5 5.5q-113 23 -175 103.5t-42 195.5zM305 150.5q-8 35.5 8 89.5q18 61 59.5 151t94.5 194l113 213l115 208l105 179 q48 81 79 126q35 53 72.5 71.5t70.5 18.5q37 0 74 -19q31 -10 49 -34q16 -23 22.5 -61t-16.5 -99q-66 -178 -165 -365.5t-195 -347.5q-113 -186 -232 -362q-31 -43 -63.5 -58.5t-59.5 -15.5q-31 0 -59 14q-29 14 -47 39q-17 23 -25 58.5zM813 330q10 55 37 104t69 83 t98 48.5t128 1.5q68 -12 115 -43.5t73.5 -74.5t33.5 -96.5t-3 -108.5q-12 -70 -45 -116t-79 -70.5t-100.5 -31t-109.5 4.5q-57 10 -101 37.5t-74 66.5t-41 89.5t-1 105.5z" />
<glyph unicode="&#x26;" horiz-adv-x="1634" d="M80 399.5q-2 65.5 14 143.5q12 68 45 137q29 59 80 133t139 143q-41 86 -55 170q-12 72 0 155t82 153q61 61 137 90.5t153 30.5t149.5 -26.5t125.5 -82.5q57 -63 80 -141q20 -66 10 -155t-90 -194q41 -41 78 -88q33 -41 70 -95t65 -116q63 59 129 91q55 27 118 25.5 t116 -66.5q25 -35 33 -69t1.5 -66.5t-21.5 -64.5t-36 -58q-49 -66 -127 -125q74 -74 109 -152q14 -33 21 -69.5t1 -73.5t-29.5 -75t-68.5 -71q-41 -31 -80 -40t-75.5 -5t-69.5 18.5t-62 34.5q-68 47 -123 125q-94 -66 -202 -98q-47 -14 -100.5 -22.5t-114 -5t-125 21.5 t-131.5 55q-88 51 -148 133q-25 35 -47 79t-35.5 99.5t-15.5 121zM555 436q2 -23 18 -47q23 -31 48.5 -32t46.5 12q23 12 47 41l-84 118q-47 -23 -62.5 -47.5t-13.5 -44.5z" />
<glyph unicode="'" horiz-adv-x="458" d="M62 1344.5q1 62.5 18 117.5q14 49 39.5 74t55.5 34t59.5 7t52.5 -10q18 -8 37.5 -19.5t36 -30t28.5 -49t17 -79.5q2 -35 -1.5 -80t-12.5 -89t-20.5 -83t-23.5 -64q-12 -27 -33 -47q-16 -18 -41.5 -32.5t-60.5 -12.5q-37 2 -60.5 21.5t-35.5 41.5q-16 27 -23 60 q-16 61 -24 125q-9 53 -8 115.5z" />
<glyph unicode="(" horiz-adv-x="909" d="M85 663.5q-7 124.5 5 236.5t37 208q55 225 172 420q27 45 64.5 78.5t83 52t99.5 16.5t116 -28q74 -35 101.5 -84.5t31.5 -96.5q4 -55 -15 -114q-45 -127 -67.5 -246t-28.5 -227.5t0 -204.5t21 -178q33 -190 102 -351q23 -53 16 -106q-4 -45 -35.5 -92t-113.5 -80 q-80 -33 -151.5 -14.5t-130 63.5t-101.5 105.5t-68 109.5q-68 139 -99.5 273.5t-38.5 259z" />
<glyph unicode=")" horiz-adv-x="915" d="M90 1483q4 45 35 91t115 81q80 33 151.5 14.5t130 -63.5t101.5 -105.5t67 -109.5q68 -139 99.5 -274.5t39 -259.5t-5 -236.5t-37.5 -208.5q-55 -225 -172 -418q-29 -45 -65.5 -79t-81.5 -52.5t-99.5 -16.5t-115.5 29q-76 33 -102.5 83t-30.5 97q-4 55 14 115 q45 127 67.5 246t29 227.5t0 204.5t-20.5 178q-33 190 -103 350q-22 54 -16 107z" />
<glyph unicode="*" horiz-adv-x="1280" d="M141 1115q4 30 27 65q45 72 102.5 85t108.5 1q59 -14 121 -58q-12 68 0 121q6 23 16 45.5t30.5 40t49.5 27.5t72 10q68 -4 112 -35q39 -27 59.5 -82t-12.5 -155q80 23 146 14q27 -4 53.5 -13.5t48 -30t33.5 -52t12 -78.5t-11 -80t-28.5 -54.5t-40 -32.5t-45.5 -17 q-55 -12 -125 2q41 -53 58 -107q14 -45 2 -95t-80 -91q-72 -41 -123 -23.5t-86 53.5q-39 43 -66 113q-33 -57 -77 -86q-39 -25 -93.5 -26t-121.5 59q-35 41 -45 86q-10 39 5 87t85 99q-76 29 -123 68q-20 16 -36.5 37.5t-24 47t-3.5 55.5z" />
<glyph unicode="+" horiz-adv-x="1265" d="M90 705q2 43 16 81q12 35 39 69t78 56q29 14 69 23.5t85 17.5q4 35 9 67t13 60q16 66 50 102t69 52q41 20 88 22q53 2 101 -16q41 -16 79.5 -52t55.5 -108l12 -57q6 -29 10 -57q82 -10 140 -25q66 -16 102.5 -50t52.5 -69q20 -41 21 -88q2 -53 -17 -100q-16 -41 -52 -80 t-107 -55l-58 -13q-29 -6 -57 -10q-6 -66 -12 -98l-7 -35q-10 -72 -49 -108.5t-80 -53.5q-49 -18 -106 -16q-43 2 -82 16q-35 12 -68.5 39t-56.5 78q-14 31 -23.5 70t-17.5 86q-29 2 -51.5 4t-38.5 6l-31 6q-72 10 -107.5 49t-52.5 80q-18 50 -16 107z" />
<glyph unicode="," horiz-adv-x="667" d="M43 227q0 106 65.5 181t190.5 75q123 0 188.5 -70.5t69.5 -172.5q4 -96 -6 -167t-31.5 -120t-49.5 -81t-58 -50q-70 -43 -164 -33q-29 4 -39 16.5t-14 26.5q-4 16 2 35q8 27 30 35q8 4 21 4q29 0 32 21.5t1 41.5q-117 8 -177.5 81t-60.5 177z" />
<glyph unicode="-" horiz-adv-x="1077" d="M98 586q-4 53 15 100q16 41 54 80t120 57q104 23 198.5 26t165.5 -1q84 -6 158 -21q70 -18 108.5 -53t55.5 -69q20 -41 22 -87q4 -51 -8 -94q-10 -39 -42 -75.5t-97 -55.5q-152 -41 -283 -41t-276 23q-72 10 -112 45t-56 72q-23 43 -23 94z" />
<glyph unicode="." horiz-adv-x="720" d="M100 238q0 53 17.5 100t50.5 82t81 55.5t109 20.5q63 0 111.5 -20.5t81.5 -55.5t49 -82t16 -100t-16 -100.5t-49 -82.5t-81 -55t-112 -20q-61 0 -109 20t-81 55t-50.5 82.5t-17.5 100.5z" />
<glyph unicode="/" horiz-adv-x="878" d="M78 123q8 74 34.5 183.5t63.5 238.5t81 264l87 258l80 223q37 100 61 158q29 68 69 95.5t75 35.5q41 8 86 -4q39 -6 63 -29q23 -20 36 -62t3 -116q-16 -106 -45 -220t-62.5 -227.5t-70.5 -224t-74 -209.5q-86 -233 -182 -454q-27 -55 -60.5 -78t-62.5 -29q-37 -8 -72 2 t-61 33q-23 20 -40 58t-9 104z" />
<glyph unicode="0" horiz-adv-x="1212" d="M78 635q0 150 20.5 295t79 260t163.5 185.5t275 70.5q184 0 292 -70.5t162 -185.5t69.5 -260.5t15.5 -294.5q0 -150 -41 -266.5t-113.5 -196.5t-171 -122t-213.5 -42t-214 42t-170.5 122t-112.5 196.5t-41 266.5zM551 692q0 -35 20.5 -56.5t59.5 -21.5q43 0 58.5 24 t15.5 52q0 47 -20.5 69.5t-53.5 22.5q-37 0 -58.5 -22.5t-21.5 -67.5z" />
<glyph unicode="1" horiz-adv-x="1007" d="M45 1023q-4 44 7 83t32.5 72.5t48.5 62.5q61 68 158 119q104 51 189 57t145 -6q70 -14 125 -51q49 -35 83.5 -96.5t56 -138t34 -164t16.5 -173.5q10 -201 -10 -432q-6 -72 -20.5 -124t-36 -91t-47 -64.5t-52.5 -39.5q-61 -37 -135 -37q-80 0 -130 38t-79 85 q-33 53 -47 123q-25 123 -23 244.5t17 220.5q16 115 45 219q-70 -49 -137 -72q-57 -18 -116.5 -9t-94.5 81q-25 49 -29 93z" />
<glyph unicode="2" horiz-adv-x="1191" d="M59 1126q-2 51 14.5 93.5t44 74t63.5 56t75 41.5q90 39 207 55q143 10 237.5 -18.5t149.5 -69.5q66 -47 98 -111q37 -68 49.5 -134t8 -129.5t-21.5 -123t-40 -110.5q-55 -121 -149 -230q92 -2 166 -31q31 -12 60.5 -32.5t52 -50t36.5 -70.5t12 -96q-2 -53 -27.5 -92 t-67.5 -66t-94 -44.5t-106 -27.5q-127 -23 -286 -18q-164 0 -254 38t-135 83q-53 53 -64 120q-10 86 11.5 148.5t62.5 112t97 93.5l116 93q29 25 53.5 53.5t39.5 60t15 63.5t-20 61q-27 35 -61.5 46t-65.5 7q-37 -4 -76 -19q-70 -14 -108.5 11.5t-59.5 62.5q-23 41 -33 100z " />
<glyph unicode="3" horiz-adv-x="1265" d="M56 284.5q-1 28.5 5 53.5q14 57 64 111q43 43 94 48t94 -5q51 -12 103 -43q47 -29 85 -34t64 -1q31 6 53 22q23 20 30 43t5 41q-2 23 -14 41q-14 23 -36.5 34t-45.5 15q-27 6 -55 4q-98 0 -145.5 31t-67.5 68q-23 43 -23 100t36 96t81 62q51 27 117 43q-84 -10 -145.5 -6 t-105.5 15t-73 28.5t-47 38.5q-41 47 -39 112q0 45 18.5 81t48 61.5t66.5 44t76 30.5q90 27 205 33q121 6 223 -8q88 -12 173 -45t124 -101q41 -76 36 -145.5t-28 -122.5q-27 -63 -74 -119q78 -37 126.5 -94t72.5 -112q29 -66 39 -134q14 -145 -20.5 -243.5t-85.5 -157.5 q-59 -70 -140 -113q-154 -66 -293 -67.5t-245 22.5q-125 29 -230 88q-47 31 -73.5 63t-39 62.5t-13.5 59z" />
<glyph unicode="4" horiz-adv-x="1329" d="M66.5 701.5q5.5 56.5 21.5 113.5q37 133 121 291q47 82 98 140.5t103.5 96t102.5 59t97 32.5q109 23 213 -2q59 -16 103.5 -54.5t75 -87.5t50 -107.5t29.5 -115.5q25 -135 17 -297q59 -2 90 -29.5t47 -62.5q18 -39 20 -88q0 -63 -25.5 -98t-53.5 -52q-35 -20 -78 -26 q14 -121 -8 -215q-10 -41 -30 -79t-52.5 -67.5t-80.5 -48t-116 -18.5q-61 0 -106.5 18.5t-76 48t-49 67.5t-26.5 79q-23 94 -10 215q-82 0 -143.5 6t-104.5 14q-51 8 -86 23q-61 16 -93 53t-43.5 86t-6 105.5zM430 799q4 -43 25.5 -59.5t56.5 -16.5t57.5 20.5t22.5 55.5 q0 33 -20.5 59.5t-59.5 26.5q-35 0 -60.5 -26.5t-21.5 -59.5z" />
<glyph unicode="5" horiz-adv-x="1210" d="M90 410q27 74 70 98t84 24q49 0 102 -24q68 -35 107 -36t59 13q23 16 29 50q10 39 -10.5 66.5t-51.5 45.5q-37 23 -86 35q-66 23 -118 49.5t-87.5 71.5t-54 111.5t-14.5 168.5q4 94 35.5 154.5t70.5 95.5q45 41 101 64q66 27 143.5 35t142.5 6q78 -2 152 -15 q117 -18 176 -60t84 -83q29 -49 27 -104q0 -49 -19.5 -85t-49.5 -63t-69 -43t-77 -24q-94 -23 -213 -19q129 -8 215 -40t139 -68q61 -43 94 -97q66 -106 73 -205.5t-11 -177.5q-23 -92 -70 -172q-35 -53 -81 -89t-99.5 -57.5t-109.5 -32.5t-111 -13q-127 -8 -269 18 q-76 20 -128 49t-88 62t-55.5 66.5t-29.5 66.5q-22 76 -2 158z" />
<glyph unicode="6" horiz-adv-x="1257" d="M92 678q8 90 30.5 169t56.5 146.5t71 122.5q86 127 203 225q86 76 160.5 91.5t134.5 5.5q68 -12 126 -56q35 -27 54.5 -55.5t27 -56t5 -54t-10.5 -51.5q-18 -55 -65 -110l-58 -68q-23 -27 -36 -45l-25 -35q80 0 140.5 -18.5t104.5 -49t73.5 -69.5t48.5 -78 q43 -94 47 -213q0 -94 -22.5 -164.5t-58.5 -123t-82 -88t-95 -58.5q-113 -53 -256 -57q-94 0 -168 21.5t-132.5 56t-100.5 79.5t-72 93q-70 111 -97 249q-12 101 -4 191zM563 475q4 -43 25.5 -59.5t56.5 -16.5t57.5 20.5t22.5 55.5q0 33 -20.5 59.5t-59.5 26.5 q-35 0 -60.5 -26.5t-21.5 -59.5z" />
<glyph unicode="7" horiz-adv-x="1228" d="M80 1116q-4 78 19.5 134.5t63.5 95t92 63.5t107 39q127 33 295 22q129 -6 212 -37.5t135 -68.5q57 -43 90 -96q35 -53 46 -125t5 -155t-26.5 -170t-47.5 -171q-63 -197 -166 -411q-25 -59 -53.5 -101.5t-61 -70t-65.5 -44t-63 -22.5q-72 -16 -150 4q-78 25 -114 69 t-50 87q-16 51 -10 106q8 117 51 239t90 222q55 117 125 227q-145 -37 -258 -34q-49 0 -96 9t-84 31.5t-60.5 60.5t-25.5 97z" />
<glyph unicode="8" horiz-adv-x="1280" d="M82 438q0 133 48 231.5t153 157.5q-57 51 -83 116t-24 138q0 88 35 158t95.5 118t143 72.5t181.5 24.5q96 0 178 -24.5t142.5 -71.5t94 -117t33.5 -160q0 -170 -92 -256q111 -66 163 -166t52 -221q0 -117 -42 -206t-116.5 -148t-177 -90t-225.5 -31t-225.5 31t-176 90 t-115.5 148t-42 206zM565 473q4 -43 25.5 -59.5t56.5 -16.5t57.5 20.5t22.5 55.5q0 33 -20.5 59.5t-59.5 26.5q-35 0 -60.5 -26.5t-21.5 -59.5zM565 1014q4 -43 25.5 -59.5t56.5 -16.5t57.5 20.5t22.5 55.5q0 33 -20.5 59.5t-59.5 26.5q-35 0 -60.5 -26.5t-21.5 -59.5z" />
<glyph unicode="9" horiz-adv-x="1247" d="M72 958q0 94 23.5 165t62.5 123t88 88t100 59q121 53 275 59q94 0 166.5 -21.5t129 -56.5t97.5 -80t69 -90q68 -109 88 -246q12 -100 3 -191t-33.5 -171t-59 -147.5t-71.5 -122.5q-90 -131 -211 -230q-92 -80 -169 -98t-134 -8q-68 12 -123 55q-35 27 -53.5 55.5 t-24.5 58t-4 58.5t10 53q18 59 66 115l55 67l37 46l24 34q-80 0 -140 18.5t-104 48.5t-74 68t-48 78q-43 94 -45 213zM555 881q4 -43 25.5 -59.5t56.5 -16.5t57.5 20.5t22.5 55.5q0 33 -20.5 59.5t-59.5 26.5q-35 0 -60.5 -26.5t-21.5 -59.5z" />
<glyph unicode=":" horiz-adv-x="694" d="M106 193q0 49 15.5 91t45.5 73.5t72 50t97 18.5q115 0 174 -68.5t59 -164.5q0 -98 -58 -164t-175 -66q-111 0 -170.5 66t-59.5 164zM106 836q0 96 59.5 163.5t170.5 67.5q57 0 101 -18.5t73 -50t44 -73.5t15 -89q0 -98 -58 -164t-175 -66q-111 0 -170.5 66t-59.5 164z " />
<glyph unicode=";" horiz-adv-x="690" d="M102 188q0 -92 52.5 -154.5t154.5 -70.5q2 -18 0 -37.5t-26 -19.5q-10 0 -19 -4q-8 -4 -15 -10.5t-11 -18.5q-4 -18 -2 -31q2 -12 11 -21t36 -14q82 -10 143 27q27 14 50.5 42t42 71t27.5 105.5t5 146.5q-4 88 -60.5 150.5t-162.5 62.5q-111 0 -168.5 -65t-57.5 -159z M106 817q0 92 58.5 159.5t167.5 67.5q113 0 170 -67.5t57 -159.5q0 -98 -57.5 -162.5t-169.5 -64.5q-109 0 -167.5 64.5t-58.5 162.5z" />
<glyph unicode="&#x3c;" horiz-adv-x="970" d="M70 745q0 63 30.5 128t77.5 124.5t102.5 110.5t102.5 89t80 59.5t35 23.5q33 25 78 31t90 -3.5t85 -35t66 -66.5q55 -88 31.5 -168t-98.5 -135l-50 -41l-52 -49l-62 -63q45 -45 85 -81l70 -63l66 -57q39 -37 55 -84q14 -41 7 -96.5t-62 -120.5q-27 -31 -67 -49.5 t-83 -22.5t-86 6.5t-73 34.5q-2 2 -35 23.5t-80 58.5t-102.5 86t-102.5 107.5t-77.5 121.5t-30.5 131z" />
<glyph unicode="=" horiz-adv-x="1097" d="M109 483q-6 41 12 78q16 31 55 61.5t119 45.5q102 18 196.5 21t165.5 -1q84 -6 158 -16q70 -16 108 -43t54 -54q20 -31 22 -65q4 -39 -8 -74q-10 -29 -40.5 -58.5t-96.5 -43.5q-152 -33 -282 -33t-275 18q-72 10 -111 36t-55 55q-20 32 -22 73zM109 938q-6 41 12 78 q16 31 55 61.5t119 44.5q102 18 196.5 21.5t165.5 -0.5q84 -6 158 -17q70 -16 108 -42.5t54 -53.5q20 -31 22 -65q4 -39 -8 -74q-10 -29 -40.5 -58.5t-96.5 -44.5q-152 -33 -282 -32.5t-275 18.5q-72 10 -111 36t-55 54q-20 33 -22 74z" />
<glyph unicode="&#x3e;" horiz-adv-x="958" d="M86 1118.5q6 55.5 64 120.5q27 31 66.5 49.5t82.5 22.5t86 -6.5t74 -34.5q2 -2 34.5 -23.5t80 -58.5t102.5 -86t102 -107.5t78 -123t31 -130.5q0 -63 -31 -127.5t-78 -124t-102 -110.5t-102.5 -89t-80 -60.5t-34.5 -22.5q-35 -25 -79 -31t-89 3t-85 35t-67 67 q-55 88 -31.5 167.5t99.5 135.5l49 41q23 20 51 49l64 63l-85 80l-71 64q-37 31 -65 57q-39 37 -56 84q-14 41 -8 96.5z" />
<glyph unicode="?" horiz-adv-x="1323" d="M121 1090q-2 43 10 92t44 103t89 114q92 78 209 114q49 14 109.5 21.5t129 -1.5t145.5 -37t161 -81q78 -49 118 -120.5t53 -152.5t5 -165t-27.5 -159t-45 -134t-46.5 -90q-49 -80 -117 -125q-29 -18 -64.5 -32.5t-77.5 -16.5t-90 11t-101 48q-35 20 -52.5 52t-22.5 67 t1 74t18 76q27 86 84 182q-68 -63 -137 -96q-59 -29 -134 -31t-149 59q-72 68 -98 150q-12 35 -14 78zM512 129q0 111 70.5 170t189.5 59t194.5 -64.5t75.5 -168.5q0 -106 -75.5 -164.5t-194.5 -58.5t-189.5 66.5t-70.5 160.5z" />
<glyph unicode="@" horiz-adv-x="1454" d="M86 768q-4 74 18 135q18 53 61.5 98.5t131.5 53.5q55 4 90 -6.5t53 -26.5q23 -18 33 -45q8 23 23 43q12 16 34.5 29.5t57.5 13.5q55 0 84.5 -41t44.5 -88q16 -55 20 -127q4 -115 -16.5 -172t-48.5 -82q-33 -29 -78 -27q-29 0 -51 9q-20 8 -39 26.5t-23 56.5 q-12 -29 -37 -51q-23 -18 -62.5 -30.5t-105.5 -4.5q-55 4 -96 31q-35 23 -64.5 71t-29.5 134zM104 381q2 -23 13 -43q10 -16 29.5 -31.5t58.5 -17.5q70 -4 162 -7t192 -3h205q104 0 199.5 2t176.5 5t134 9q29 2 45 17.5t24 31.5q8 20 11 43q0 27 -11 49q-10 18 -29.5 34.5 t-60.5 16.5q-184 4 -368 7h-165q-87 0 -174 -1t-173 -3.5t-162 -4.5q-41 -2 -62.5 -18t-31.5 -35q-13 -22 -13 -51zM385 768q0 -18 10.5 -27.5t26.5 -9.5t26.5 9.5t10.5 27.5q0 20 -10.5 30.5t-26.5 10.5t-26.5 -10.5t-10.5 -30.5zM735 975q0 41 18.5 67.5t46 42t59.5 20.5 t59 5q-6 51 4 88q10 33 38.5 59.5t94.5 26.5q61 0 91 -27.5t42 -60.5q12 -39 10 -88q53 4 94 -8q35 -10 64.5 -39t29.5 -86q0 -53 -27.5 -79t-60.5 -36q-39 -12 -88 -10q8 -94 0 -168q-8 -63 -36.5 -114.5t-92.5 -51.5q-66 0 -97.5 27.5t-43.5 75t-10 108.5t6 129 q-57 -8 -100 0q-39 8 -70 34t-31 85z" />
<glyph unicode="A" d="M70 406q6 145 32.5 267t66.5 223t87 182t92 147q68 98 138.5 149t131 75t100.5 27t46 3t46 -3t100.5 -27t132 -75t139.5 -149q45 -66 91 -147t86 -182t66.5 -223t32.5 -267q2 -24 2 -48q0 -62 -12 -118q-6 -33 -19.5 -67t-34 -63.5t-50 -53t-70.5 -38.5q-49 -16 -103 -20 q-15 -1 -31 -1q-32 0 -68 5q-54 8 -107 39q-61 37 -99.5 85t-61 94t-30.5 84t-10 50q-2 -12 -10.5 -50t-31 -84t-60 -94t-99.5 -85q-53 -31 -107 -39q-36 -5 -69 -5q-16 0 -31 1q-53 4 -102 20q-41 14 -70.5 38t-49 53.5t-33 63.5t-19.5 67q-13 62 -13 131q0 17 1 35z M716 610q22 -16 56 -16q35 0 57.5 20.5t22.5 55.5q0 33 -20.5 59.5t-59.5 26.5q-35 0 -60 -27q-22 -23 -22 -50q0 -49 26 -69z" />
<glyph unicode="B" horiz-adv-x="1368" d="M76 690q0 106 12 192.5t29 145.5q18 70 41 125q27 70 67.5 120t88.5 86t100.5 56.5t101.5 32.5q80 18 167 18q40 0 81 -4q145 -6 234 -50t141 -95q59 -59 86 -135q18 -65 17 -118q0 -39 -9 -72q-23 -77 -64 -126q-47 -57 -116 -94q94 -29 145 -80t74 -100q27 -57 31 -123 q1 -14 0 -27q0 -67 -17 -123q-20 -66 -57 -113.5t-86 -82.5t-101 -57q-123 -53 -280 -66q-37 -3 -71 -3q-46 0 -87 5q-72 8 -129 24.5t-102 38t-78 46.5q-80 55 -121 129q-61 104 -79.5 225t-18.5 225zM610 975q0 -33 17.5 -60.5t64.5 -27.5q41 0 61.5 27.5t20.5 60.5 q0 31 -20.5 54.5t-61.5 23.5q-35 0 -58.5 -21.5t-23.5 -56.5zM654 416q22 -16 57 -17q35 0 57.5 20.5t22.5 55.5q0 33 -20.5 59.5t-59.5 26.5q-35 0 -61 -26q-22 -23 -22 -51q0 -48 26 -68z" />
<glyph unicode="C" horiz-adv-x="1423" d="M57 745q2 160 58 299q25 59 62.5 120t96 114t137 96t185.5 68q104 25 217 26q9 0 18 1q87 0 190 -18q114 -19 220 -83q55 -39 88 -94q14 -25 24.5 -54.5t13.5 -64.5q1 -12 1 -24q0 -25 -4 -52q-6 -41 -27 -88q-23 -47 -63 -78q-35 -27 -97 -43q-29 -8 -67 -7q-41 0 -92 9 q-35 6 -67 6q-25 0 -48 -4q-43 -8 -80 -34q-41 -30 -41 -100q0 -44 23 -78q23 -31 72 -53q33 -15 89 -14q27 0 58 3q33 4 63 4q55 0 103 -12q31 -8 62.5 -22.5t57 -40t45 -63.5t25.5 -89q1 -14 1 -27q0 -47 -11 -92q-12 -49 -46 -104.5t-105 -94.5q-76 -41 -183 -59 q-74 -13 -173 -13q-25 0 -52 1q-133 4 -313 53q-127 41 -226 131q-43 39 -82.5 91t-70.5 123t-48 161q-14 73 -14 159q-1 20 0 41z" />
<glyph unicode="D" horiz-adv-x="1400" d="M82 523v116q0 109 6 200t16 158q8 80 23 144q10 63 34.5 110t56.5 81t68 56.5t72 34.5q74 27 163 27h24q98 0 180 -13.5t147.5 -35t117.5 -50t93 -57.5q94 -70 148 -157q51 -88 76 -203q10 -49 17 -110q6 -47 6 -100q0 -15 -1 -32q-2 -72 -13 -152.5t-38 -170.5 q-25 -82 -68 -142.5t-96 -103.5t-113.5 -69.5t-119.5 -43.5q-127 -33 -270 -33h-31h-17q-112 0 -186 26q-80 28 -129 63q-57 39 -92 88q-31 51 -46.5 114.5t-21.5 128t-6 126.5zM629 700q0 -49 23.5 -62t58.5 -13t57.5 20.5t22.5 54.5q0 33 -20.5 59.5t-59.5 26.5 q-35 0 -58.5 -17.5t-23.5 -68.5z" />
<glyph unicode="E" horiz-adv-x="1368" d="M75 564q-1 40 -1 79q0 103 6 195q8 145 29 286q12 70 43.5 122t75.5 89t96.5 60.5t105.5 36.5q102 26 223 25q24 0 49 -1q115 -4 200 -16.5t147.5 -31.5t103.5 -42t66 -47q57 -53 57 -118q0 -66 -22.5 -110t-59.5 -75t-86 -49.5t-100 -28.5q-89 -17 -195 -17q-39 0 -80 3 q117 -20 176.5 -56.5t81.5 -70.5q23 -35 23 -77v-13q0 -66 -35 -106t-76 -64q-49 -29 -110 -43h31q77 0 137 -9q72 -10 124 -28.5t86.5 -42t57.5 -47.5q51 -57 51 -134q-4 -49 -28.5 -84.5t-62.5 -62.5t-87 -44t-98 -30q-117 -27 -267 -28q-28 -1 -54 -1q-79 0 -144 9 q-86 12 -151.5 32.5t-113 47t-77.5 55.5q-74 68 -93 154q-26 135 -29 283z" />
<glyph unicode="F" horiz-adv-x="1306" d="M53 649q-1 35 0 68q0 99 4 184q8 131 25 256q12 74 48 127t85 91t106.5 61.5t116.5 36.5q108 24 234 24q33 0 67 -2q98 -6 173 -20.5t128.5 -34t90 -43t59.5 -47.5q53 -55 55 -125v-11q0 -49 -17 -87q-19 -42 -52 -70.5t-76 -48t-88 -29.5q-91 -21 -207 -21h-39 q102 -16 154.5 -47.5t74.5 -66.5q27 -39 27 -84q0 -86 -47 -133t-103 -70q-66 -27 -147 -31q22 -108 22 -187q0 -86 -19 -148q-17 -58 -47 -95t-63 -57q-64 -41 -151 -41q-21 0 -43 2q-57 0 -102.5 15.5t-80 42t-59 60.5t-43.5 68q-41 82 -57 189q-27 135 -29 274z" />
<glyph unicode="G" horiz-adv-x="1544" d="M18 723q2 156 56 297q23 59 59.5 121.5t92 120t132 105.5t179.5 83q108 27 216 27h29q51 -2 109.5 -11.5t117 -31t116 -57.5t108.5 -89q33 -39 51 -88q17 -44 18 -102q0 -56 -30 -121q-25 -47 -72 -72q-41 -23 -109 -26q-6 0 -13 -1q-66 0 -165 37q-54 15 -98 15 q-18 0 -35 -2q-51 -8 -92 -46t-43 -137q4 -74 33 -122q12 -20 31.5 -38t48.5 -27q23 -8 53 -7h13q38 2 89 20q-47 20 -64.5 47t-21.5 50q-4 27 7 55q14 37 66 54.5t120 23.5q41 4 83 3q28 0 57 -1q73 -4 126 -12q35 -6 59.5 -17.5t40.5 -21.5q18 -12 31 -29 q18 -25 30.5 -63.5t20 -85t10.5 -96.5t3 -99q0 -115 -13 -246q-6 -84 -39.5 -129t-72.5 -65q-45 -25 -101 -27q-45 0 -88 9t-77.5 32.5t-55 63.5t-20.5 100q-23 -29 -65 -57.5t-101.5 -48t-136.5 -24.5l-38 -2q-63 0 -136 13q-147 29 -261 117q-49 37 -95 90t-82 128 t-58.5 171t-22.5 219z" />
<glyph unicode="H" horiz-adv-x="1568" d="M69 697q1 136 7 233q8 113 22 194q16 96 56 172q16 33 39.5 64t55.5 55.5t71.5 38.5t89.5 14q68 0 116.5 -20.5t85.5 -53t60.5 -74.5t40.5 -85q37 -102 37 -234h77q2 131 39 234q14 43 39 86t62 76t86 53t116 20q78 -6 146 -51q57 -39 109.5 -122t70.5 -232 q16 -145 18 -274q1 -43 1 -83q0 -79 -3 -145q-6 -115 -16 -213q-12 -100 -51 -180q-16 -35 -41 -66.5t-58.5 -57.5t-76.5 -40t-99 -14q-61 0 -108 20.5t-82 54t-58.5 75.5t-39.5 85q-37 102 -45 232h-76q-12 -131 -53 -232q-18 -43 -44 -85t-61 -73.5t-82 -52t-106 -20.5 q-84 2 -152 43q-29 18 -58.5 45t-54 69t-42 98t-23.5 132q-15 168 -15 298v16z" />
<glyph unicode="I" horiz-adv-x="860" d="M63 784q2 100 9 203q10 127 51 227q18 43 45 84t64.5 73t89 52.5t118.5 20.5q82 -6 150 -49q29 -18 58.5 -47t55 -72t45 -100.5t29.5 -131.5q16 -143 19 -271q1 -43 0 -82q0 -79 -2 -144q-6 -113 -17 -211q-14 -100 -53 -178q-18 -33 -43 -65t-59.5 -57.5t-79.5 -39.5 t-103 -14q-63 0 -112 19t-87 50t-63.5 70t-44.5 80q-41 96 -53 215q-12 84 -15 183q-2 60 -2 114q-1 37 0 71z" />
<glyph unicode="J" horiz-adv-x="1120" d="M57 230v11q0 38 14 71q15 38 44.5 64.5t70.5 31.5q72 6 108 24.5t50 38.5q16 23 14 51q-6 82 -9 171t-3 163q0 86 2 170q2 119 37 215q14 39 37.5 78t57.5 69.5t80 50t108 19.5q88 0 161 -37q31 -16 62 -42.5t56.5 -66.5t44 -96.5t24.5 -132.5q10 -141 14 -252 q3 -74 3 -132q0 -30 -1 -56q-2 -92 -6 -162q-4 -72 -22 -141q-16 -59 -48 -128t-92 -126q-33 -31 -93 -55.5t-134 -36.5q-68 -11 -143 -11h-13q-82 1 -157.5 18t-139 53t-100.5 96q-25 36 -27 80z" />
<glyph unicode="K" horiz-adv-x="1499" d="M78 754q2 135 26 293q25 158 79.5 241.5t111.5 122.5q66 45 141 49h21q67 0 116 -11q57 -13 95.5 -38t62 -57.5t35.5 -65.5q18 -51 18 -110q0 -34 -6 -70q6 37 25 74q16 33 41.5 70.5t68.5 74.5q76 66 145 74q23 3 44 3q42 0 76 -11q59 -20 110 -66q47 -49 67 -98 q18 -44 17 -89q0 -53 -19 -105q-17 -46 -42 -87q-59 -96 -168 -184q96 -104 154.5 -190.5t89 -157t37.5 -125.5q4 -30 4 -56q0 -22 -3 -42q-16 -98 -102 -154q-72 -43 -134 -53q-27 -4 -53 -5q-34 0 -65 8q-55 13 -101 43.5t-85 69.5q-90 90 -158 234q2 -24 2 -47 q0 -57 -14 -105q-18 -59 -67.5 -114.5t-153.5 -75.5q-34 -7 -66 -8q-20 0 -39 4q-47 8 -84 27.5t-64.5 49t-47.5 60.5q-49 74 -74 176q-23 98 -33 215q-9 84 -9 192q1 21 1 44z" />
<glyph unicode="L" horiz-adv-x="1333" d="M72 854q6 131 26 264q23 131 76 201t109 98q63 35 137 35h9q80 0 136 -34q59 -36 97 -96t57.5 -139t25.5 -161q5 -62 6 -129q0 -143 -24 -311q88 47 160 65q65 17 116 17h11q55 -2 97 -21.5t71 -46.5q68 -63 96 -174q3 -15 3 -43v-14q-1 -39 -16.5 -87.5t-49 -99.5 t-96 -94t-159 -72.5t-233.5 -34.5q-19 -1 -38 0q-74 0 -135 13q-77 16 -137.5 43.5t-106.5 64.5t-79 76q-78 90 -112 207q-37 104 -45 232q-5 73 -5 142q0 51 3 99z" />
<glyph unicode="M" horiz-adv-x="2021" d="M61 420q0 166 24 304t52 239q35 117 78 211q53 123 127 183t139 85q68 25 138 25q10 0 20 -1q70 0 124 -19.5t93 -50t65.5 -70.5t43.5 -81q39 -98 43 -221q14 125 61 223q20 41 49 81t68 72t90 51t117 19q100 0 174.5 -49t124.5 -108q57 -68 98 -156q55 -129 85 -257 t44 -232q16 -123 18 -236q0 -13 1 -26q0 -70 -10 -125q-11 -66 -31.5 -113t-48 -79t-58.5 -52q-70 -47 -160 -49q-80 0 -140 27.5t-104.5 73.5t-74 104.5t-47.5 119.5q-45 143 -47 326q-10 -121 -42 -182.5t-67 -85.5q-36 -27 -79 -27h-11q-80 0 -125 46t-68 104 q-27 66 -32 149q0 -125 -15.5 -220t-40 -164t-56.5 -116t-65 -77q-78 -70 -176 -78q-78 0 -134 18.5t-97 48t-67.5 68.5t-43.5 80q-37 96 -37 217z" />
<glyph unicode="N" horiz-adv-x="1685" d="M69 546q-2 54 -2 104q0 101 7 188q10 152 39 292q20 88 69 160q41 61 116 113.5t196 58.5q14 1 27 1q69 0 123 -18q65 -22 114 -58.5t82.5 -86t56.5 -100.5q53 -121 59 -278v27q0 88 12 156q13 79 35.5 135t52 94t60.5 61q72 53 166 53h10q89 0 145 -34q58 -36 89 -81 q37 -53 49 -119q35 -180 35 -342.5t-11 -289.5q-14 -147 -40 -279q-14 -66 -36 -114t-47.5 -81.5t-54 -55t-55.5 -34.5q-54 -24 -111 -23q-12 0 -24 1h-13q-76 0 -138 22q-67 25 -118 68t-87.5 98.5t-63.5 112.5q-63 135 -86 309q2 -48 2 -90q0 -71 -6 -130 q-10 -93 -32.5 -159.5t-52.5 -109.5t-63 -68q-69 -54 -154 -54q-11 0 -24 1q-9 0 -17 -1q-76 0 -126 33q-55 36 -86 78q-37 51 -53 117q-39 162 -44 323z" />
<glyph unicode="O" horiz-adv-x="1531" d="M68 670q0 160 31.5 276.5t84 201.5t118 139t134.5 87q146 68 329 69q20 0 40 -1q123 0 216 -30t162.5 -79t117 -111.5t77.5 -127.5q72 -154 82 -346q0 -145 -28.5 -255t-74.5 -191t-104.5 -136t-119.5 -92q-143 -84 -328 -97q-139 0 -243.5 30t-182.5 78t-131 110.5 t-88 128.5q-82 151 -92 346zM718 639q22 -16 56 -16q35 0 57.5 20.5t22.5 54.5q0 33 -20.5 59.5t-59.5 26.5q-35 0 -60 -26q-22 -23 -22 -51q0 -48 26 -68z" />
<glyph unicode="P" horiz-adv-x="1509" d="M118 598l-2 74q0 101 11 184q16 129 51 244q27 80 69 138t90 100t101.5 68t104.5 42q99 30 207 30q24 0 49 -1q115 -4 201.5 -29t151.5 -62.5t110 -85t75 -96.5q68 -113 82 -256q1 -16 1 -31q0 -93 -21 -164q-25 -83 -68 -141.5t-99 -95.5t-116 -57q-112 -41 -250 -42 q-33 0 -67 3q16 -76 16 -133.5t-12 -100.5t-32.5 -72.5t-45.5 -50.5q-57 -47 -141 -57q-27 -3 -52 -3q-87 0 -149 34q-80 43 -127 100q-55 68 -86 156q-47 160 -52 305zM738 844q22 -16 57 -17q35 0 57 20.5t22 55.5q0 33 -20 59.5t-59 26.5q-35 0 -61 -26q-22 -23 -22 -51 q0 -48 26 -68z" />
<glyph unicode="Q" horiz-adv-x="1705" d="M117 662q0 160 32.5 277.5t85 202.5t120 139t139.5 87q150 68 337 68h41q125 0 221.5 -31t167 -80t120 -111.5t79.5 -128.5q74 -154 84 -348q0 -113 -18.5 -184.5t-46.5 -130.5q41 -31 79.5 -69t59.5 -85q16 -38 16 -82q0 -11 -1 -23q-5 -58 -54 -132q-57 -86 -126 -112 q-48 -18 -93 -18q-20 0 -39 4q-63 11 -114.5 46t-71.5 72q-53 -23 -101.5 -34.5t-83.5 -17.5q-43 -8 -78 -8q-141 0 -249.5 30t-188.5 79t-134 111.5t-89 127.5q-82 154 -94 351zM816 612q22 -16 56 -16q35 0 57.5 20.5t22.5 55.5q0 33 -20.5 59.5t-59.5 26.5q-35 0 -60 -27 q-22 -23 -22 -50q0 -49 26 -69z" />
<glyph unicode="R" horiz-adv-x="1406" d="M76 558q-4 66 -4 125q0 73 6 134q12 127 45 232q20 84 57 145t83 106.5t97.5 74t100.5 44.5q101 34 214 34q18 0 36 -1q90 0 161.5 -17.5t128 -45t98.5 -61.5t70 -71q68 -84 97 -194q12 -65 12 -122q0 -40 -6 -75q-14 -86 -37 -145q-29 -70 -70 -121q74 -63 118 -121.5 t65 -109.5q22 -54 21 -105q0 -38 -7 -71q-23 -86 -100 -156q-59 -47 -115 -59q-25 -5 -50 -5q-28 0 -55 8q-49 13 -93 46.5t-81 76.5q-86 98 -157 258q7 -48 7 -88q0 -16 -1 -30q-4 -51 -18.5 -90t-35 -67t-45.5 -46q-55 -45 -135 -57q-28 -4 -53 -4q-67 0 -117 27 q-68 38 -106 87q-47 57 -70 135q-53 181 -61 329zM654 776q22 -16 57 -16t57.5 20.5t22.5 55.5q0 33 -20.5 59.5t-59.5 26.5q-35 0 -61 -27q-22 -23 -22 -50q0 -49 26 -69z" />
<glyph unicode="S" horiz-adv-x="1280" d="M72 283q0 68 18.5 114.5t51 78.5t74.5 51.5t85 29.5q59 13 128 13q50 0 106 -7q-90 20 -155 52t-110 72t-72.5 83t-43.5 84q-28 74 -28 154q0 27 3 55q10 76 35.5 133t60.5 98t75 69t81 44q96 39 211 39q44 2 83 2q133 0 219 -22q112 -28 168 -72.5t70 -99.5 q10 -42 10 -77q0 -11 -1 -22q-6 -51 -31 -87t-61.5 -60.5t-82.5 -40t-94 -21.5q-62 -10 -132 -10q-54 0 -113 6q115 -16 200.5 -43t148 -61.5t103.5 -73.5t68 -78q61 -90 63 -197q0 -92 -22.5 -163.5t-60 -123.5t-86 -88t-97.5 -61q-117 -55 -266 -65q-57 -4 -108 -4t-95 4 q-88 8 -152.5 27.5t-108.5 46t-71 57.5q-67 70 -71 164z" />
<glyph unicode="T" horiz-adv-x="1507" d="M74 1120q0 102 42 162.5t93 91.5q59 37 135 49q164 35 320 40q60 2 115 2q89 0 165 -5q143 -8 277 -30q94 -20 142 -63.5t71 -88.5q25 -53 24 -113q-2 -66 -19.5 -112.5t-45 -80.5t-62.5 -54.5t-69 -32.5q-63 -20 -139 -21q-23 0 -48 2q27 -156 30 -275q1 -40 1 -76 q0 -72 -4 -128q-8 -98 -27 -168q-20 -98 -66 -145t-94 -70q-55 -25 -118 -24q-6 0 -12 -1q-65 0 -121 21q-53 20 -102.5 69.5t-72.5 149.5q-23 104 -25 216q-1 37 -1 72q0 70 4 132q8 109 22 211q-29 -2 -56 -2q-83 0 -152 18q-39 10 -76 29.5t-66.5 49.5t-47 73t-17.5 102z " />
<glyph unicode="U" horiz-adv-x="1570" d="M55 834v26q0 144 21 285q25 129 80 193.5t112 91.5q60 27 128 27q9 0 18 -1q74 -4 131 -39q49 -29 91 -92t42 -180q0 -88 -2 -167q-1 -20 -1 -38q0 -56 5 -101q6 -60 23.5 -96t54.5 -36t54 35.5t24 96.5q5 45 4 101v38q-2 79 -4 167q0 9 -1 17q0 47 10 84q11 44 31.5 77 t46 54.5t52.5 33.5q63 31 145 31q16 1 31 1q84 0 138 -30q65 -35 102 -78q41 -53 61 -118q35 -156 36 -301v-19q0 -133 -13 -238q-16 -131 -48 -247q-43 -125 -127 -224q-37 -41 -85 -80.5t-112.5 -70.5t-145 -49.5t-179.5 -18.5q-84 0 -152.5 13.5t-126 34t-102.5 47 t-80 53.5q-82 63 -129 143q-39 66 -63.5 138.5t-39.5 147.5t-22.5 147.5t-7.5 140.5z" />
<glyph unicode="V" horiz-adv-x="1650" d="M60 1167q5 70 35 129.5t90.5 102.5t160.5 61q31 5 61 5q41 0 77 -10q62 -17 113.5 -56t90.5 -93.5t68 -113.5q68 -139 102 -324q27 190 92 334q27 61 66 115.5t91 93.5t118 55q31 8 65 8q39 0 84 -10q80 -18 128 -60t72.5 -99.5t30.5 -125.5q2 -31 2 -63q0 -37 -3 -74 q-14 -160 -86 -352q-72 -197 -170 -350q-41 -66 -93.5 -129.5t-114 -112.5t-132 -78.5t-150.5 -29.5q-115 0 -209 44t-170 115.5t-133 159.5t-100 175t-72 165t-45 129q-16 49 -35.5 114.5t-28.5 135.5q-6 45 -6 90q-1 24 1 49z" />
<glyph unicode="W" horiz-adv-x="2072" d="M90 1018q-1 22 -1 43q0 58 8 104q11 63 33 110.5t50.5 79t59.5 52.5q72 49 166 55q82 0 144 -28.5t107 -75.5t76 -107.5t49 -122.5q45 -145 47 -331v27q0 103 28 158q32 62 73 91q47 33 108 33q45 0 79 -14.5t58.5 -36t42 -49t27.5 -56.5q23 -68 25 -153q0 125 15 219 t41 164.5t58.5 119t67.5 78.5q82 74 184 84q70 0 123 -18.5t92 -49t66 -69.5t43 -82q39 -98 43 -225q0 -168 -22.5 -303t-51.5 -234q-33 -113 -74 -202q-27 -59 -58.5 -102.5t-66 -75t-70.5 -53t-69 -34.5q-78 -31 -159 -30q-74 0 -129.5 19.5t-96.5 50t-68.5 70.5t-43.5 81 q-41 98 -43 221q-16 -125 -66 -223q-20 -43 -50 -83t-70 -71t-93 -50t-121 -19q-104 0 -181 48t-128 107q-59 68 -102 158q-57 127 -87 256t-44 233q-17 123 -19 236z" />
<glyph unicode="X" horiz-adv-x="1705" d="M71 1277q32 58 105 118q68 53 131 69q38 10 74 10q25 0 48 -5q58 -11 110.5 -41.5t95.5 -71.5q102 -96 188 -252q74 164 170 262q41 41 90.5 72.5t105.5 40.5q17 2 34 2q41 0 86 -14q63 -19 133 -81q55 -49 79.5 -103t25.5 -111v-6q0 -53 -16 -105q-17 -55 -44 -105 q-63 -117 -180 -233q125 -100 192 -209q29 -47 47 -99q17 -47 17 -98v-11q-2 -56 -28 -115.5t-87 -116.5q-82 -78 -159 -93q-30 -6 -59 -7q-45 0 -87 15q-70 24 -129.5 76t-104.5 108t-73.5 106.5t-36.5 72.5q-76 -168 -170 -266q-41 -43 -88 -73.5t-103 -39.5 q-15 -2 -31 -2q-41 0 -85 16q-61 22 -129 85q-63 59 -90 119.5t-29 118.5v11q0 52 17 102q19 54 50 101q70 113 203 215q-152 100 -231 211q-35 47 -57 101q-20 49 -19 100q0 64 34 126z" />
<glyph unicode="Y" horiz-adv-x="1622" d="M96 1232q8 52 26.5 92t44.5 68.5t54 47.5q68 45 158 57q15 1 29 1q51 0 96 -11q57 -14 103 -40t82 -59.5t63 -70.5q63 -84 98 -197q43 156 109.5 233t132.5 105q59 27 120 27q18 0 37 -2q66 -8 112 -28.5t76.5 -48.5t48 -60.5t27.5 -65.5q11 -43 12 -92q0 -39 -7 -80 q-27 -113 -88.5 -196t-124.5 -136q-74 -63 -160 -106q37 -117 37 -213v-19q-4 -102 -23 -174q-23 -84 -63 -149q-47 -66 -106.5 -93.5t-139.5 -27.5q-66 0 -114 14.5t-79 32.5q-37 20 -61 47q-33 37 -54.5 80t-33.5 90t-16.5 95t-4.5 91q0 102 23 211q-104 45 -191 113 q-37 29 -72.5 64.5t-66 78.5t-52.5 93.5t-30 107.5q-6 38 -5 70q-1 27 3 50z" />
<glyph unicode="Z" horiz-adv-x="1488" d="M74 1108q0 94 67 168q29 31 74 60.5t113.5 53t163.5 35.5q81 11 185 11h36q168 -4 279.5 -23.5t176 -57.5t86.5 -94q15 -39 16 -86q0 -21 -3 -45q-18 -82 -62 -169q-37 -78 -103.5 -173.5t-176.5 -195.5q53 6 102 5q78 0 146 -13q47 -10 92 -28.5t79.5 -51.5t56 -80 t21.5 -113q0 -131 -59 -202.5t-152.5 -104.5t-207 -38t-220.5 -5q-106 0 -208.5 2t-188.5 22.5t-149.5 66.5t-94.5 136q-17 49 -17 99q0 10 1 19q4 58 25.5 112.5t55.5 103.5t73 92q90 98 219 189q-14 0 -28 -1q-102 0 -185 27q-41 12 -79 34t-67.5 54.5t-48 80t-18.5 110.5 z" />
<glyph unicode="[" horiz-adv-x="1263" d="M123 645v207q2 240 8 512q-4 43 2 88q4 39 18.5 86t45.5 94q6 14 24.5 32.5t43 36t51 33t49.5 21.5q66 20 152.5 32.5t181 15.5t186.5 -3t170 -22q66 -14 99.5 -39t47.5 -47q16 -27 15 -58q0 -35 -19 -63q-16 -27 -51 -51.5t-105 -34.5t-174 -16.5l-198 -12.5 q4 -23 5 -52.5t5 -57.5q6 -94 9 -217t3 -254.5t-3 -263.5t-6 -244.5t-7 -197.5t-6 -124q45 4 98 5t102.5 0t90 -2t63.5 -3q72 -6 107.5 -29.5t52.5 -50.5q18 -31 16 -69q0 -39 -18 -76q-16 -31 -52 -60.5t-108 -44.5q-186 -35 -331.5 -29.5t-231.5 23.5q-59 12 -103.5 38 t-77 59.5t-56 72.5t-38.5 78q-37 90 -43 197q-6 45 -10 121.5t-6 171t-2 198.5z" />
<glyph unicode="\" horiz-adv-x="1013" d="M137 1372q-12 74 2.5 116t36.5 62q25 23 64 29q45 12 86 4q35 -8 74.5 -35.5t68.5 -95.5q25 -57 61 -158l80 -223l87 -258q44 -135 81 -264t63.5 -239.5t35.5 -182.5q6 -66 -10.5 -103.5t-39.5 -58.5q-27 -23 -61 -33q-37 -10 -72 -2q-31 6 -63.5 29t-59.5 78 q-100 221 -184 455q-37 98 -74 208.5t-70.5 224t-61.5 227.5t-44 220z" />
<glyph unicode="]" horiz-adv-x="1191" d="M23 -115q0 33 18 64q16 25 51 50.5t105 35.5t174 16t198 12q-4 23 -5 52.5t-5 58.5q-6 94 -9 217t-3 254t3 263t6 245t7 198t6 124q-47 -4 -99 -5.5t-101.5 -0.5t-90 2.5t-63.5 3.5q-72 4 -107.5 28.5t-52.5 50.5q-18 31 -16 70q0 39 18 76q16 31 52 60.5t108 43.5 q186 35 331.5 30t231.5 -24q57 -12 101.5 -38.5t78 -60.5t56 -71.5t39.5 -76.5q37 -90 43 -197q6 -47 10 -124t6 -170t2 -198v-206q-2 -240 -8 -512q4 -43 -2 -88q-4 -39 -19.5 -87.5t-44.5 -93.5q-6 -14 -24.5 -32.5t-43 -36t-51 -32.5t-49.5 -22q-66 -20 -152.5 -32.5 t-181 -15.5t-187.5 3.5t-169 22.5q-66 14 -99.5 38.5t-47.5 47.5q-16 26 -14 57z" />
<glyph unicode="^" horiz-adv-x="1300" d="M76 956q-4 43 6 86t35 74q2 2 23.5 35t58.5 80t86 102.5t107.5 102.5t122 77.5t130.5 30.5q66 0 129.5 -30.5t122.5 -77.5t110.5 -102.5t89.5 -102.5t59.5 -80t23.5 -35q25 -35 31 -79t-3.5 -89t-35 -85t-66.5 -66q-88 -55 -168 -32t-135 99l-41 49q-20 23 -49 52l-64 63 q-45 -45 -81 -85l-62 -71q-31 -37 -57 -65q-37 -39 -84 -55q-41 -14 -96.5 -8t-121.5 63q-31 27 -49 66.5t-22 82.5z" />
<glyph unicode="_" horiz-adv-x="1404" d="M125 115q-4 45 16 82q16 33 56.5 63.5t121.5 42.5q147 20 294 22.5t264 -1.5q137 -6 264 -21q72 -8 109.5 -33.5t54.5 -54.5q20 -35 20 -74q2 -41 -12 -78q-12 -31 -42 -59.5t-91 -38.5q-78 -12 -184.5 -19t-224.5 -9.5t-237.5 2t-220.5 12.5q-72 6 -110.5 32.5 t-55.5 55.5q-20 35 -22 76z" />
<glyph unicode="`" horiz-adv-x="770" d="M114 1435.5q3 30.5 17 57.5t31 43q14 14 32.5 27.5t42 20.5t56.5 5t80 -16q33 -10 72.5 -31.5t76.5 -47.5t69 -53.5t48 -47.5q18 -25 29 -50q10 -23 13 -51t-13 -59q-16 -35 -43 -47t-54 -17q-31 -4 -63 5q-63 10 -125 28q-53 16 -109.5 40t-99.5 63q-39 33 -51 66.5 t-9 64z" />
<glyph unicode="a" horiz-adv-x="1441" d="M61 461v26q0 138 39 252q18 53 49 105.5t78 95.5t113 72.5t156 38.5q35 3 65 3q70 0 119 -17q70 -24 111 -56q47 -37 67 -90q16 49 47 86q27 33 71 60.5t116 27.5q57 0 100 -22.5t75.5 -59.5t55.5 -84t37 -96q35 -115 39 -260q2 -44 2 -84q0 -66 -6 -120 q-10 -87 -29.5 -149.5t-46.5 -104.5t-55 -67q-63 -56 -147 -55h-11h-10q-50 0 -95 19q-41 16 -79.5 56t-49.5 118q-20 -61 -73 -105q-45 -37 -127 -63q-51 -16 -122 -17q-44 0 -95 6q-111 12 -197 66q-37 23 -72.5 57.5t-63.5 86t-44.5 119t-16.5 155.5zM712 424 q22 -16 56 -16q35 0 57.5 20.5t22.5 54.5q0 33 -20.5 59.5t-59.5 26.5q-35 0 -60 -26q-22 -23 -22 -51q0 -48 26 -68z" />
<glyph unicode="b" horiz-adv-x="1392" d="M49 840q2 190 35 397q16 98 57 174q18 33 43 62.5t57.5 52t74.5 34.5q31 8 68 8q13 0 28 -1q66 -6 110.5 -34t73.5 -70t43 -93t18 -102q3 -32 3 -67q0 -96 -21 -208q94 39 192 41q41 0 88.5 -6t95.5 -25.5t96 -52t95 -84.5q43 -49 68.5 -121.5t32.5 -150.5q2 -27 2 -55 q0 -51 -7 -102q-11 -79 -40 -140q-35 -76 -78 -125t-82 -78q-45 -35 -90 -53q-117 -53 -239 -61q-29 -2 -57 -2q-91 0 -174 20q-110 27 -200 81t-145 126q-47 59 -76 135t-45.5 160t-21.5 171t-5 169zM634 446q22 -16 56 -16q35 0 57.5 20.5t22.5 55.5q0 33 -20.5 59.5 t-59.5 26.5q-35 0 -60 -27q-22 -23 -22 -50q0 -49 26 -69z" />
<glyph unicode="c" horiz-adv-x="1167" d="M78 522q2 119 41 223q16 45 42.5 90.5t65.5 87.5t93.5 75.5t125.5 56.5q100 29 205 30q6 0 13 1q83 0 179 -25q103 -27 193 -109q27 -27 43 -63q14 -33 20 -80q1 -9 1 -18q0 -40 -19 -89q-20 -45 -59 -75q-35 -27 -91 -43q-28 -8 -64.5 -8.5t-80.5 8.5q-35 11 -62 10h-9 q-29 -2 -50.5 -16.5t-21.5 -53.5q2 -29 19 -45q14 -14 43 -19q5 -1 11 -1q27 0 72 18q59 23 117 23q49 -2 104.5 -26.5t100.5 -96.5q25 -53 25 -107q0 -47 -25 -104t-102 -113q-82 -55 -185 -80q-72 -18 -166 -18q-22 0 -45 1q-123 5 -272 73q-74 37 -131 104 q-49 57 -90 152.5t-41 236.5z" />
<glyph unicode="d" horiz-adv-x="1544" d="M85 437q-2 23 -2 46q0 55 9 111q12 80 45 154.5t94 132.5q94 88 197.5 116.5t192.5 28.5q102 -2 200 -31q-13 89 -13 167q0 57 7 108q6 51 22.5 101t46 89t76 62.5t111.5 23.5q57 0 102.5 -16.5t80 -43t60 -60t42.5 -68.5q39 -82 51 -189q12 -113 12 -233 q0 -104 -13 -232.5t-48 -257.5q59 -29 89 -78t34 -104q1 -10 0 -20q0 -45 -15 -89q-18 -54 -55 -94q-53 -55 -114 -64q-27 -4 -53 -4q-31 0 -60 6q-53 11 -88 30l-35 18q-80 -41 -176.5 -63.5t-195.5 -26.5q-20 -1 -39 -1q-79 0 -154 13q-94 16 -168 56q-49 29 -92 67 q-37 35 -75 85t-55 120q-16 63 -21 140zM755 424q22 -16 56 -16q35 0 57.5 20.5t22.5 54.5q0 33 -20.5 59.5t-59.5 26.5q-35 0 -60 -26q-22 -23 -22 -51q0 -48 26 -68z" />
<glyph unicode="e" horiz-adv-x="1198" d="M63 535q6 111 43 210q16 43 41 87.5t61 85t84 75.5t111 58q104 31 213 32q45 0 97.5 -5t104.5 -20.5t105.5 -44t102.5 -71.5q33 -33 57 -74q23 -37 39.5 -89t18.5 -124q0 -80 -36 -131t-94.5 -77.5t-130.5 -31.5l-39 -2q-53 0 -106 11q59 -47 125 -58.5t122 -19.5 t96 -30.5t50 -94.5q0 -6 1 -11q0 -35 -11 -69q-12 -35 -41.5 -70.5t-93.5 -60.5q-90 -29 -195 -37q-38 -3 -80 -3q-58 0 -124 6q-115 11 -240 63q-82 37 -145 104q-27 29 -52.5 67t-45 86t-30.5 107q-8 44 -9 94q0 19 1 38zM626 539q22 -16 56 -17q35 0 57.5 20.5t22.5 55.5 q0 33 -20.5 59.5t-59.5 26.5q-35 0 -60 -27q-22 -23 -23 -50q1 -48 27 -68z" />
<glyph unicode="f" horiz-adv-x="1312" d="M67 901q0 56 28 90q30 37 75 53.5t96 17.5h11q44 0 79 -7q-1 19 -1 38q0 39 5 81q8 53 32 118.5t75 130.5q55 66 137 105q72 35 181 47q25 3 54 3q93 0 214 -32q45 -16 82 -41q31 -23 53 -58q18 -28 18 -67q0 -11 -2 -22q-2 -37 -18 -66q-14 -25 -42 -44q-25 -18 -70 -17 h-9q-29 0 -51 -8q-20 -6 -41 -20.5t-31 -43.5q-4 -10 -6 -26q-5 -23 -5 -58q0 -12 1 -24q69 19 127 19q10 0 20 -1q55 -4 102.5 -36t51.5 -115v-9q0 -78 -37 -112q-39 -37 -88 -49q-33 -8 -73 -9q-28 0 -58 4q18 -136 18 -253q0 -67 -6 -130q-6 -72 -24.5 -141t-52 -124.5 t-86 -90.5t-128.5 -37q-14 -1 -27 0q-113 0 -176 46q-71 52 -103 154.5t-36 248.5q-2 73 -2 154.5t2 172.5q-57 -17 -105 -16q-18 0 -34 2q-27 2 -52.5 12.5t-47 28.5t-34.5 48q-16 35 -16 83z" />
<glyph unicode="g" horiz-adv-x="1392" d="M96 537q4 74 27 137q29 78 65.5 132t71.5 89q39 41 82 70q100 59 215 77q63 10 124 10q51 0 101 -6q111 -15 208 -59.5t165 -107.5q57 -55 96 -122t62.5 -140.5t34 -148.5t14.5 -144q1 -27 1 -55q0 -138 -26 -281q-25 -139 -76 -236.5t-117.5 -161t-143 -98.5t-152.5 -49 q-77 -16 -160 -16q-111 0 -231 28q-51 18 -85 41t-54.5 47.5t-31 50t-12.5 50.5q-1 10 -1 19q0 46 24 95q23 49 63.5 70.5t81.5 30.5q27 5 56 4q22 0 45 -2q92 4 138 28.5t67 53.5q23 33 22 73q-87 -19 -170 -19q-15 0 -31 1q-86 4 -179 32.5t-167 106.5q-45 47 -74.5 113.5 t-43.5 139.5q-10 56 -10 112q0 18 1 35zM687 385q22 -16 56 -16q35 0 57.5 20.5t22.5 54.5q0 33 -20.5 59.5t-59.5 26.5q-35 0 -60 -26q-22 -23 -22 -51q0 -48 26 -68z" />
<glyph unicode="h" horiz-adv-x="1497" d="M73 843q3 173 27 380q8 92 45 163q14 31 37 60t55.5 51.5t75.5 35.5t99 13q94 -2 159.5 -43t105.5 -116.5t56 -182.5q12 -77 12 -169q0 -34 -2 -70q148 72 273 72q24 0 47 -3q61 -6 121.5 -36.5t109.5 -95t84 -169t47 -262.5q1 -16 1 -32q0 -102 -23 -187 q-12 -43 -31.5 -85t-52.5 -78t-77 -62.5t-105 -36.5l-25 -2q-25 -2 -62.5 2t-81.5 17t-83 45t-66.5 85t-32.5 135q-8 80 -16 144q-10 53 -22.5 99t-32.5 46q6 -76 7 -131v-35q0 -33 -1 -59q-2 -45 -4 -78q-10 -78 -47 -137q-31 -53 -91.5 -95t-166.5 -42t-168 44t-94 97 q-37 63 -50 143q-16 123 -24 273q-4 86 -4 191q0 53 1 111z" />
<glyph unicode="i" horiz-adv-x="796" d="M85 376q-3 48 -3 93q0 65 6 123q10 113 37 221q25 94 73 142.5t95 70.5q55 25 117 27h19q81 0 133 -32q58 -36 93 -83q39 -53 58 -127q14 -68 22 -158q4 -52 4 -118q0 -33 -1 -71q-3 -112 -27 -257q-16 -92 -63.5 -140.5t-96.5 -70.5q-59 -25 -127 -27q-11 -1 -22 0 q-73 0 -121 24q-55 28 -88 62q-37 39 -60 92q-41 111 -48 229zM127 1307q-1 9 -1 18q0 35 12 69q15 42 46 75.5t74 56t94 28.5q16 2 32 2q34 0 66 -9q46 -13 82.5 -39.5t61 -65.5t29.5 -84q1 -9 0 -19q0 -35 -12 -69q-15 -43 -44.5 -77t-72.5 -55.5t-95 -27.5q-17 -2 -33 -2 q-35 0 -66 9q-46 13 -83 40t-60.5 65t-29.5 85z" />
<glyph unicode="j" horiz-adv-x="1052" d="M86 -406q2 -41 25 -77q18 -31 57 -60.5t113 -40.5q57 -9 113 -9q32 0 65 3q76 6 159.5 33t149.5 92q51 49 83 105.5t50 105.5q23 55 33 113q31 193 37 361q3 84 3 159t-3 139q-8 150 -25 277q-6 70 -43 123q-31 47 -96.5 85.5t-181.5 38.5q-78 -2 -140 -26 q-53 -23 -99 -72t-50 -145q-8 -172 -11 -292t-3 -204v-142q0 -58 -5 -104q0 -76 -10 -135q-10 -51 -31.5 -95t-64.5 -50q-41 -8 -70 -31q-25 -18 -43 -55q-14 -28 -14 -68q0 -14 2 -29zM390 1438q24 41 61.5 70.5t86.5 44.5q42 14 90 14h13q55 -2 102.5 -22.5t82 -54.5 t53.5 -77q17 -39 16 -81v-9q-2 -47 -25.5 -88t-60.5 -70.5t-86 -46.5q-44 -15 -92 -14h-13q-55 2 -102 23.5t-82 54t-53 75.5q-17 39 -17 83q0 53 26 98z" />
<glyph unicode="k" horiz-adv-x="1511" d="M84 589q-2 66 -2 128q0 104 6 196q10 172 41 332q10 41 25.5 90t46 92t80 73t129.5 34h14q55 0 98 -14q49 -16 85 -46t59.5 -68t38.5 -77q35 -94 34 -217q47 63 94.5 102t90.5 57.5t82 21.5q11 1 20 1q27 0 53 -6q80 -18 150 -82q37 -41 53 -83q17 -45 18 -91 q0 -38 -11 -76q-11 -41 -29 -77q-41 -86 -121 -168q55 -35 108 -88.5t95 -115t69 -128t30 -129.5v-15q0 -55 -21 -104q-24 -55 -81 -94q-72 -49 -135 -57q-18 -2 -35 -3q-44 0 -84 15q-55 20 -103 61t-87 90q-92 117 -160 299q1 -23 1 -45q0 -112 -25 -200q-12 -45 -36 -88 t-59.5 -75t-88.5 -49q-42 -14 -96 -14h-25q-78 4 -129.5 47t-83.5 93q-37 57 -60 129q-43 172 -49 349z" />
<glyph unicode="l" horiz-adv-x="806" d="M66 658q0 128 6 239q6 127 18 250q12 113 49 203q16 37 40 73.5t56.5 65.5t76.5 46t100 17q78 -2 145 -49q27 -20 55.5 -51t52 -78t41 -110.5t23.5 -147.5q12 -164 12 -313.5t-4 -265.5q-6 -137 -18 -256q-10 -90 -47 -158q-16 -29 -40 -57.5t-57.5 -50t-78.5 -33.5 q-39 -11 -87 -11h-16q-53 2 -95 21.5t-75 50.5t-55.5 71t-38.5 81q-37 96 -49 219q-14 116 -14 244z" />
<glyph unicode="m" horiz-adv-x="2035" d="M88 229q-9 95 -9 183t9 168q8 68 24.5 137t45 129.5t72.5 106.5t108 71q109 41 199 41h9q93 -2 165.5 -33t126 -81t90.5 -102t56.5 -99.5t25.5 -69.5q6 23 25.5 68t54 95t86 98t123 79t161.5 36q11 1 23 0q82 0 182 -32q76 -25 127 -72t84 -108.5t50.5 -132t23.5 -140.5 q5 -55 4 -112q0 -116 -19 -244q-18 -70 -53 -123q-31 -47 -82 -84t-135 -37q-78 0 -131 31t-88 77t-54.5 100t-28.5 103.5t-10 85t-1 44.5q0 -8 -4.5 -45t-16.5 -86.5t-33.5 -104.5t-59.5 -102t-94.5 -78t-133.5 -31q-78 0 -134.5 32t-95.5 79t-62.5 103.5t-35.5 107.5 t-17.5 88t-5.5 45q0 -8 -2 -45t-10 -86t-26.5 -105.5t-51 -103.5t-83 -78t-119.5 -31q-94 0 -149.5 40t-84.5 89q-35 55 -45 129z" />
<glyph unicode="n" horiz-adv-x="1466" d="M74 543q0 14 -1 29q0 75 9 167q10 86 47 156q14 29 36.5 57.5t53.5 52t71 39t91 19.5q27 2 51 2q56 0 97 -10q58 -14 95.5 -38t56.5 -51.5t34 -52.5q174 95 318 95h18q63 -2 126.5 -28t116 -86t89 -162.5t49.5 -260.5q1 -16 0 -32q0 -102 -23 -187q-12 -43 -31.5 -85 t-52.5 -78t-77 -62.5t-105 -36.5l-25 -2q-25 -2 -62.5 2t-81.5 17t-83 45t-66.5 85t-31.5 135q-8 80 -17 144q-10 53 -22.5 99t-32.5 46q6 -76 7 -131v-35q0 -33 -1 -59q-2 -45 -4 -78q-10 -76 -47 -135q-31 -51 -91.5 -94t-166.5 -45q-51 0 -91 11t-71 31.5t-54.5 46 t-39.5 52.5q-39 63 -56 143q-14 55 -22 127q-8 62 -10 148z" />
<glyph unicode="o" horiz-adv-x="1200" d="M43 481q0 119 25.5 206t67.5 149.5t96.5 103.5t109.5 66q118 52 267 51h32q98 0 174 -22.5t132.5 -59.5t94 -83t62.5 -95q57 -113 65 -258q0 -96 -17 -170t-46 -131q-33 -59 -77 -103.5t-85 -73.5q-47 -35 -96 -55q-41 -16 -79 -25.5t-67 -13.5q-35 -6 -61 -6 q-113 0 -198 22.5t-148.5 58.5t-107.5 83t-70 96q-68 113 -74 260zM572 416q22 -16 57 -17q35 0 57.5 20.5t22.5 55.5q0 33 -20.5 59.5t-59.5 26.5q-35 0 -61 -26q-22 -23 -22 -51q0 -48 26 -68z" />
<glyph unicode="p" horiz-adv-x="1404" d="M59 238q4 82 17.5 169t38 172t62.5 163.5t93 142.5q72 82 180.5 129t228.5 59q44 4 87 5q77 0 155 -14q122 -22 220 -77q49 -31 92 -74q37 -37 72.5 -92t56.5 -129q17 -70 17 -159q0 -79 -15 -157q-16 -83 -51 -156t-88 -118q-49 -41 -100.5 -65.5t-101.5 -36.5t-96 -14 q-15 -1 -30 -1q-30 0 -57 3q-96 8 -185 49q19 -104 19 -192q0 -44 -4 -85q-6 -51 -22.5 -100t-47.5 -88t-79 -62.5t-118 -23.5q-55 0 -98 15.5t-76.5 40t-58.5 56t-43 66.5q-41 80 -55 180q-15 139 -16 273q0 61 3 121zM695 416q22 -16 57 -17q35 0 57 20.5t22 55.5 q0 33 -20 59.5t-59 26.5q-35 0 -61 -26q-22 -23 -22 -51q0 -48 26 -68z" />
<glyph unicode="q" horiz-adv-x="1478" d="M91 551q5 84 28 156q25 78 67.5 134t83.5 95q49 45 103 78q115 59 252 76q59 7 117 7q76 0 151 -13q131 -22 241.5 -78t172.5 -142q43 -61 72.5 -140t47 -164t25.5 -173t10 -170q1 -26 1 -52q0 -170 -23 -347q-16 -90 -56 -160q-35 -59 -100 -108.5t-176 -49.5 q-66 0 -114 23.5t-79.5 62.5t-51 88.5t-29.5 100.5q-14 74 -14 160q0 55 5 116q-88 -45 -186 -57q-35 -5 -75 -5h-13q-47 1 -97.5 12t-101.5 35.5t-100 65.5q-61 49 -98 124t-53 158q-12 62 -11 125q0 21 1 42zM716 416q22 -16 56 -17q35 0 57.5 20.5t22.5 55.5 q0 33 -20.5 59.5t-59.5 26.5q-35 0 -60 -26q-22 -23 -22 -51q0 -48 26 -68z" />
<glyph unicode="r" horiz-adv-x="1247" d="M49 631q2 115 19 225q23 98 72.5 148.5t103.5 72.5q61 25 135 25h20q72 0 119 -26q53 -30 82 -64q35 -41 49 -94q53 76 115.5 107.5t116.5 39.5q25 3 50 3q38 0 75 -7q61 -16 100 -47t59.5 -68t28.5 -73.5t8 -63.5v-12q0 -58 -17 -102q-19 -48 -42 -77q-27 -37 -64 -57 q-62 -37 -121 -37h-7q-62 2 -113 19q-59 20 -113 57q12 -94 12 -169q0 -24 -1 -46q-5 -92 -24.5 -158.5t-50 -110.5t-65.5 -71q-77 -60 -183 -60q-7 0 -14 1q-10 0 -20 -1q-74 0 -123 27q-55 31 -90 70q-39 45 -62 102q-37 111 -48 230q-8 87 -8 163q0 28 1 54z" />
<glyph unicode="s" horiz-adv-x="1148" d="M100 184v12q0 44 14 78q15 39 42.5 68t62.5 48.5t72 31.5q86 29 198 33q-139 33 -210.5 84t-102.5 98q-37 55 -37 117q2 66 26.5 115t62.5 84.5t84 59t96 40.5q113 37 256 37q143 -4 232 -23.5t138 -53.5t66 -78q15 -39 14 -82v-11q-2 -47 -22.5 -80t-51 -54.5t-69.5 -35 t-80 -19.5q-52 -8 -110 -7q-50 0 -105 5q88 -12 155.5 -32.5t115.5 -47t80 -56.5t50 -58q45 -68 45 -150q0 -68 -19.5 -120t-51 -90t-71.5 -64.5t-81 -44.5q-98 -41 -223 -51l-73 -2q-70 0 -127 6q-85 8 -146.5 24.5t-103.5 39t-66 46.5q-60 57 -60 133z" />
<glyph unicode="t" horiz-adv-x="1417" d="M47 918q0 86 38 139t95.5 83.5t122 42t117.5 11.5q-6 39 -6 75q0 56 14 105q10 33 28.5 66t51.5 57.5t80 39.5t112 15q63 0 110.5 -15t79.5 -42t52.5 -59.5t32.5 -65.5q22 -65 21 -143q0 -18 -1 -37q22 1 43 1q83 0 152 -20q37 -10 71.5 -29.5t62.5 -49t44 -72.5t16 -102 q0 -55 -15 -95.5t-42 -69t-59.5 -47t-65.5 -28.5q-70 -21 -154 -21h-28q10 -96 10 -181.5t-10 -160.5q-8 -63 -25.5 -124.5t-48.5 -108.5t-78 -77t-112 -30q-131 0 -197.5 56.5t-92.5 152.5q-22 83 -22 188v34q4 125 15 264q-55 -8 -104 -8q-55 0 -103 10q-39 8 -76 24.5 t-65.5 45t-46 72t-17.5 104.5z" />
<glyph unicode="u" horiz-adv-x="1392" d="M86 594q0 115 23 231q23 100 73.5 149.5t104.5 65.5q44 15 93 15q20 0 40 -2q59 -8 106 -39q41 -27 75 -80t38 -148q0 -35 1 -77.5t6 -79.5t18.5 -62.5t40.5 -25.5q47 0 54 58t9 187q0 100 37 155.5t80 80.5q51 29 116 33h22q87 0 139 -30q58 -34 91 -77q37 -51 52 -117 q17 -82 17 -158q0 -24 -2 -48q-7 -98 -24 -176q-20 -90 -53 -170q-39 -90 -108 -160q-31 -31 -70 -59.5t-90 -50t-113 -34.5q-53 -11 -116 -10h-21q-160 4 -263.5 38t-164.5 73q-72 45 -109 102q-63 92 -84 205q-19 102 -18 193v18z" />
<glyph unicode="v" horiz-adv-x="1368" d="M59 834q12 74 61.5 133t155.5 82q31 6 59.5 6t53.5 -6q51 -12 93 -40t74 -68t56 -83q55 -100 84 -237q16 141 70 245q23 43 54.5 83t74.5 67.5t99 38.5q23 4 50 4q37 0 78 -8q63 -14 103.5 -46t60 -74t24.5 -92q2 -23 2 -46q0 -27 -3 -54q-12 -117 -74 -256 q-66 -139 -148 -247q-35 -47 -77.5 -91.5t-92 -79t-104.5 -56t-117 -21.5q-86 0 -159.5 31.5t-136 83t-111.5 114t-87 126t-63.5 118.5t-40.5 92q-23 53 -37 130q-8 41 -7 82q-1 35 5 69z" />
<glyph unicode="w" horiz-adv-x="1792" d="M80 735q-2 25 -2 49q0 90 32 144q40 68 93 102q61 37 143 47q74 0 130 -20.5t96 -54t67 -77.5t43 -89q37 -106 39 -242q-1 12 -1 22q0 76 25 117q29 47 66 70q43 25 98 26q82 -2 124 -37.5t61 -80.5q23 -53 22 -117q0 94 14.5 165.5t37 124t52 86.5t60.5 56q72 51 164 51 q57 0 101 -15t75 -39t52.5 -53.5t33.5 -60.5q29 -74 29 -166q-4 -129 -26.5 -230t-45.5 -171q-29 -82 -61 -143q-49 -90 -107.5 -135.5t-112.5 -65.5q-61 -23 -120 -25q-66 0 -116 12.5t-88 33t-63.5 46t-42.5 54.5q-39 66 -45 147q-12 -82 -51 -147q-35 -55 -104.5 -101.5 t-190.5 -46.5q-86 0 -148.5 37t-103.5 82q-49 53 -80 119q-51 98 -79.5 191.5t-45.5 168.5q-18 86 -24 166z" />
<glyph unicode="x" horiz-adv-x="1277" d="M62 220q-4 22 -3.5 43t3.5 40q7 39 24 74q37 80 123 147q-72 72 -107 150q-14 33 -22 70q-5 25 -6 52q0 13 2 26q4 40 23.5 81t62.5 82q53 51 102 72.5t93 23.5q6 0 11 1q38 0 72 -13q39 -14 70 -37q74 -53 131 -153q61 92 137 143q33 20 71 35q35 13 75 13h6 q43 -1 90 -20.5t98 -64.5q41 -37 60.5 -76t22.5 -78q1 -10 1 -19q0 -29 -7 -56q-9 -37 -26 -70q-37 -78 -112 -149q90 -78 131 -160q18 -37 27 -78q5 -23 6 -47q0 -19 -3 -38q-7 -44 -34 -90t-82 -91q-68 -57 -128 -75q-40 -11 -75 -11q-19 0 -36 3q-50 9 -92 37.5 t-71.5 62.5t-49 65.5t-25.5 48.5q-55 -100 -123 -156q-29 -25 -65 -40t-76 -16h-4q-38 0 -82 17q-46 18 -95 64q-55 49 -83 96t-35 91z" />
<glyph unicode="y" horiz-adv-x="1456" d="M61 777q2 38 14.5 77t40 79t74.5 77q66 37 138 41q8 1 15 0q24 0 50 -4q35 -6 73 -24.5t78 -50.5t81 -83q35 -43 63 -85l57 -83l66 112.5t104.5 131t143.5 87.5q31 11 65 10q55 0 117 -28q63 -29 100 -96q14 -29 24.5 -69t10.5 -93t-13 -121.5t-44 -154.5 q-59 -160 -119.5 -290t-112.5 -222q-59 -109 -114 -193q-57 -100 -131 -168q-31 -29 -69 -52.5t-82 -34.5q-32 -8 -67 -8q-13 0 -25 1q-48 4 -101 31q-68 33 -98.5 84t-37.5 111q-2 19 -1 39q0 42 9 87q13 66 32.5 123.5t40.5 103.5l34 70q-12 12 -25.5 23.5t-23.5 21.5 q-12 10 -22 21q-68 51 -121.5 104.5t-87.5 98.5q-41 53 -72 100q-47 76 -59 156q-5 25 -5 52q-1 9 0 18z" />
<glyph unicode="z" horiz-adv-x="1230" d="M57 889q4 74 60 131q25 25 62.5 47.5t94 39.5t134.5 27q64 8 143 7h37q139 -4 232 -24.5t148.5 -54.5t74.5 -82q13 -32 13 -67q0 -19 -3 -39q-12 -51 -43 -108q-27 -49 -75 -113.5t-130 -134.5q98 -2 178 -29q33 -12 65.5 -31.5t58.5 -47t41 -67.5t15 -91 q0 -104 -47 -161.5t-121.5 -83t-166 -31t-179.5 -5.5t-175 3t-159.5 20.5t-126 54.5t-71.5 105q-10 39 -10 76q0 9 1 19q3 46 18 88t39.5 80t51.5 70q63 76 152 140h-13q-84 0 -149 24q-31 12 -58.5 30.5t-49 46.5t-33.5 68q-9 30 -10 67q0 13 1 26z" />
<glyph unicode="{" horiz-adv-x="1163" d="M217 700v5v4q2 86 32 133t64 69q41 25 93 31q47 8 62 41t11 70q-4 43 -22 94q-25 61 -33 123q-8 53 0 114.5t49 114.5q25 31 64 53q35 18 89 31.5t138 7.5q51 -8 94 -24q37 -14 72 -38t47 -63q14 -41 10 -77q-4 -31 -24.5 -60t-75.5 -39q-39 -12 -60 -47q-16 -29 -15 -84 t46 -149q31 -66 26 -119t-25.5 -91t-47.5 -62.5t-39 -32.5q12 -8 39 -33t47.5 -64t25.5 -91t-26 -118q-45 -96 -46 -151t15 -84q20 -35 60 -45q55 -12 75.5 -41t24.5 -60q4 -37 -10 -77q-12 -39 -47 -62.5t-72 -38.5q-43 -16 -94 -22q-84 -8 -138.5 6t-88.5 33 q-39 23 -64 51q-41 53 -49 114.5t0 114.5q8 61 33 123q18 51 22 94q4 37 -11 69t-62 42q-51 4 -93 31q-35 23 -64.5 70.5t-31.5 133.5z" />
<glyph unicode="|" horiz-adv-x="528" d="M67 407.5q-1 204.5 3 395t11 348.5t17 250q8 72 35 110.5t57 55.5q35 20 78 20q45 -2 82 -24q31 -18 58.5 -56.5t31.5 -109.5q16 -293 13.5 -543t-13.5 -436q-10 -217 -30 -402q-10 -59 -37 -88.5t-56 -42.5q-35 -14 -73 -14q-43 -4 -80 10q-31 12 -56.5 42t-29.5 93 q-10 187 -11 391.5z" />
<glyph unicode="}" horiz-adv-x="1058" d="M152 37q4 31 24.5 59.5t75.5 40.5q39 10 59 45q16 29 15.5 84.5t-45.5 149.5q-31 66 -26 119t26.5 91t48 62.5t39.5 32.5q-12 8 -39 32.5t-48.5 63.5t-26.5 91.5t26 117.5q45 94 46 150.5t-16 85.5q-20 35 -59 45q-55 10 -75.5 39.5t-24.5 60.5q-4 37 12 78 q10 39 45 62.5t72 37.5q43 16 94 25q82 6 138 -8.5t91 -32.5q39 -23 64 -51q41 -53 48 -115t-1 -115q-8 -61 -33 -123q-20 -51 -23 -94q-4 -37 11.5 -69.5t62.5 -40.5q53 -6 94 -33q35 -23 65 -70t32 -133v-4v-4q-2 -86 -32 -133t-65 -70q-41 -27 -94 -31 q-47 -10 -62.5 -41.5t-11.5 -68.5q2 -43 23 -94q25 -61 33 -123q8 -53 1 -114.5t-48 -115.5q-25 -31 -64 -53q-35 -18 -91 -32.5t-138 -6.5q-51 8 -94 25q-37 14 -72 37.5t-45 62.5q-16 41 -12 78z" />
<glyph unicode="~" horiz-adv-x="1015" d="M66.5 452.5q-3.5 28.5 7.5 55.5q37 111 106 164q31 23 71 36t92 7t117.5 -36t145.5 -91q2 -2 2 -4t2 -4q20 59 67.5 93t110.5 13q51 -18 82 -51q27 -29 34 -77t-34 -120q-31 -55 -69.5 -83.5t-79.5 -39t-83 -4.5t-81 21q-92 35 -188 114q-18 -70 -52 -97t-69 -34 q-39 -8 -84 7q-27 8 -48.5 28.5t-33.5 47t-15.5 55z" />
<glyph unicode="&#xa1;" horiz-adv-x="913" d="M107.5 -20.5q3.5 -90.5 27.5 -188.5q25 -104 79 -161.5t110 -86.5q66 -33 137 -37q59 0 106 14.5t82 37t60.5 52.5t42.5 60q39 72 51 164q6 70 8 137q2 59 -2 125t-16 119q-16 92 -58 164q-35 61 -101.5 112.5t-172.5 51.5q-98 0 -159.5 -40t-98.5 -87q-43 -55 -68 -125 q-16 -70 -24 -152q-7 -69 -3.5 -159.5zM197 893q0 45 20.5 86t57 70.5t85 47t103.5 17.5t103 -17.5t84 -47t56.5 -70.5t20.5 -86q0 -47 -20.5 -87t-56.5 -69.5t-84 -47t-103 -17.5t-103.5 17.5t-85 47t-57 69.5t-20.5 87z" />
<glyph unicode="&#xa2;" horiz-adv-x="1136" d="M84 780q0 111 37 209q14 41 39.5 84t62.5 82t88 72t119 53q4 2 12 4q6 2 14.5 3t20.5 5q2 18 2 36t2 34q6 68 27.5 103.5t46.5 52.5q29 18 63 18q37 -2 66 -23q25 -16 45.5 -53t24.5 -102q0 -16 1 -30.5t1 -29.5q59 -12 116.5 -38.5t110.5 -75.5q25 -25 41 -60 q12 -29 17.5 -72.5t-15.5 -101.5q-18 -43 -55 -71q-31 -25 -84 -41.5t-137 0.5q-39 10 -68 8q-27 -2 -47.5 -14.5t-20.5 -49.5q2 -27 17 -41q12 -14 39.5 -18t81.5 16q55 23 108 21q47 -2 99.5 -25.5t93.5 -91.5q25 -49 24 -100q0 -45 -24.5 -97.5t-96.5 -105.5 q-23 -16 -53 -31q-27 -12 -64.5 -25.5t-84.5 -23.5q-2 -25 -2 -46t-4 -40q-6 -70 -29 -104.5t-45 -51.5q-29 -18 -62 -18q-37 2 -65 23q-25 16 -46.5 52t-25.5 103q-2 23 -2 44.5t-2 43.5l-69 23q-36 12 -72 28q-70 35 -123 99q-47 53 -85 142t-38 222z" />
<glyph unicode="&#xa3;" horiz-adv-x="1443" d="M80 692q-2 37 8 80q18 51 52 73.5t69 31.5q39 8 84 4q2 90 14 156.5t29 113.5q18 53 39 92q33 59 77 98t94 62.5t104.5 35t107.5 13.5q121 6 256 -27q98 -35 155.5 -100t87.5 -125q37 -72 32 -127t-25 -92q-23 -43 -66 -74q-37 -25 -75 -32t-70.5 -2.5t-57 17.5t-37.5 32 l-25 36q-13 18 -29.5 33t-37 21t-49.5 -2t-41 -28.5t-16 -43.5q-6 -27 -2 -57q70 8 112.5 -2.5t69.5 -26.5q29 -18 45 -45q25 -39 26 -77t-10 -66q-10 -37 -32 -68q-27 -33 -64 -43t-71 -10q-41 0 -86 10q-6 -41 -4.5 -63.5t6.5 -34.5q6 -14 14 -19q43 -20 90 -30 q39 -10 86 -9.5t90 25.5q59 35 105.5 38t76.5 -5q37 -10 60 -33q63 -57 76.5 -111.5t3.5 -97.5q-10 -51 -47 -96q-37 -41 -80 -69t-89 -43t-92.5 -21.5t-89.5 -6.5q-98 0 -200 27q-43 16 -97 23q-47 4 -109.5 -3.5t-135.5 -39.5q-96 -43 -157.5 -21.5t-96.5 64.5 q-41 51 -62 127q-8 45 -3 80.5t19.5 63.5t34 47.5t41.5 31.5q53 31 123 39q-8 16 -9 38.5t-1 43.5q0 23 4 45q-47 -4 -83 -3t-70 23q-41 25 -55.5 59.5t-16.5 69.5z" />
<glyph unicode="&#xa5;" d="M45 1087q-4 66 5 117t28.5 90t45.5 67t54 46q66 43 152 57q72 2 129 -12t103 -40t80 -59.5t58 -70.5q57 -84 82 -195q43 156 114 234t138 106q80 35 166 27q59 -8 102.5 -27.5t73 -47t48 -60.5t28.5 -66q23 -78 12 -170q-20 -115 -79.5 -183.5t-124.5 -104.5 q-76 -43 -168 -60q16 -47 26 -104q47 -2 83 -2h65q31 0 57 -2q41 0 60.5 -16.5t29.5 -35.5q10 -23 10 -49q-2 -25 -10 -45q-8 -16 -24.5 -30.5t-45.5 -18.5q-41 -4 -95 -6t-120 -4q-2 -12 -3 -24.5t-3 -22.5q45 -2 82 -2h64q31 0 55 -2q41 0 60.5 -16.5t29.5 -35.5 q10 -23 10 -49q-2 -23 -10 -43q-8 -16 -24.5 -31.5t-45.5 -17.5q-47 -4 -115 -7l-155 -7q-6 -18 -12 -31.5t-10 -23.5q-6 -10 -9 -19q-35 -63 -100 -92t-145 -29q-66 0 -114 14.5t-79 32.5q-37 20 -61 47q-39 45 -60 101q-59 2 -111.5 3t-97.5 5q-39 2 -58 16.5t-30 30.5 q-10 20 -12 43q0 29 10 51q10 20 32 37t65 19q39 2 77.5 3t79.5 1q0 12 -1 24.5t-1 22.5q-45 2 -86 3t-76 3q-39 2 -58 17.5t-30 31.5q-10 20 -12 43q0 33 12 55q10 20 33 37t68 17q39 0 76.5 1t80.5 1q2 23 4.5 39l4.5 28q2 14 4 25q-111 20 -199 67q-37 20 -74 47 t-66.5 64t-49 83t-23.5 105z" />
<glyph unicode="&#xaa;" horiz-adv-x="479" d="M29.9717 1169.2v7.625q0 40.4717 11.4902 73.9053q5.30273 15.5439 14.4355 30.9404q9.13379 15.3965 22.9805 28.0078q13.8467 12.6104 33.292 21.2617q19.4443 8.65234 45.96 11.291q10.3115 0.879883 19.1504 0.879883q20.623 0 35.0596 -4.98535 q20.623 -7.03809 32.7021 -16.4229q13.8467 -10.8516 19.7393 -26.3955q4.71387 14.3711 13.8467 25.2217q7.95508 9.67871 20.918 17.7432q12.9629 8.06543 34.1758 8.06543q16.793 0 29.4619 -6.59863q12.668 -6.59863 22.2432 -17.4502q9.5752 -10.8506 16.3516 -24.6348 q6.77539 -13.7842 10.9004 -28.1543q10.3115 -33.7266 11.4902 -76.251q0.588867 -12.9043 0.588867 -24.6357q0 -19.3555 -1.76758 -35.1924q-2.94629 -25.5146 -8.69141 -43.8447q-5.74512 -18.3291 -13.6992 -30.6465q-7.95508 -12.3184 -16.2041 -19.6494 q-18.5605 -16.4238 -43.3086 -16.1309h-3.24121h-2.94531q-14.7314 0 -27.9893 5.57227q-12.0791 4.69238 -23.4219 16.4238q-11.3428 11.7305 -14.583 34.6064q-5.89258 -17.8896 -21.5078 -30.7939q-13.2578 -10.8516 -37.416 -18.4766 q-15.0254 -4.69238 -35.9434 -4.98535q-12.9629 0 -27.9883 1.75977q-32.7031 3.51953 -58.04 19.3555q-10.9004 6.74609 -21.3594 16.8633q-10.459 10.1182 -18.708 25.2217t-13.1104 34.8994q-4.86133 19.7969 -4.86133 45.6045zM221.768 1158.35 q6.48145 -4.69141 16.498 -4.69141q10.3115 0 16.9404 6.01172t6.62891 15.9834q0 9.67773 -6.04004 17.4502q-6.03906 7.77148 -17.5293 7.77148q-10.3115 0 -17.6768 -7.625q-6.48145 -6.74609 -6.48145 -14.957q0 -14.0771 7.66016 -19.9434z" />
<glyph unicode="&#xad;" horiz-adv-x="1077" d="M98 586q-4 53 15 100q16 41 54 80t120 57q104 23 198.5 26t165.5 -1q84 -6 158 -21q70 -18 108.5 -53t55.5 -69q20 -41 22 -87q4 -51 -8 -94q-10 -39 -42 -75.5t-97 -55.5q-152 -41 -283 -41t-276 23q-72 10 -112 45t-56 72q-23 43 -23 94z" />
<glyph unicode="&#xb0;" horiz-adv-x="798" d="M104 1167q0 63 23 118.5t63.5 96.5t97 66t124.5 25t123 -25t96 -66t63.5 -96t22.5 -119q0 -63 -22.5 -118.5t-63.5 -97.5t-96.5 -65.5t-122.5 -23.5q-68 0 -124.5 23.5t-97 65.5t-63.5 97.5t-23 118.5zM238 1161q0 -66 43 -110.5t131 -44.5q86 0 127 45t41 110 q0 82 -47.5 130t-120.5 48q-43 0 -76 -16t-54.5 -42t-32.5 -57.5t-11 -62.5z" />
<glyph unicode="&#xb2;" horiz-adv-x="397" d="M28.6719 1367.11q-0.632812 16.083 4.58887 29.4863t13.9238 23.3379q8.70312 9.93359 20.0957 17.6602q11.3936 7.72656 23.7354 13.0879q28.4824 12.2998 65.5088 17.3457q45.2549 3.15332 75.1611 -5.83496q29.9062 -8.9873 47.3115 -21.918 q20.8867 -14.8223 31.0137 -35.0059q11.71 -21.4453 15.665 -42.2598q3.95605 -20.8135 2.53223 -40.8398t-6.80371 -38.79q-5.38086 -18.7646 -12.6592 -34.8486q-17.4053 -38.1592 -47.1533 -72.5342q29.1143 -0.630859 52.5332 -9.77734 q9.81055 -3.78418 19.1465 -10.249t16.4561 -15.7686t11.5508 -22.2334t3.79785 -30.2754q-0.632812 -16.7148 -8.70312 -29.0137q-8.06934 -12.2998 -21.3613 -20.8145q-13.291 -8.51465 -29.748 -14.0342q-16.4561 -5.51855 -33.5449 -8.67285 q-40.1914 -7.25293 -90.5098 -5.67676q-51.9004 0 -80.3828 11.9844t-42.7227 26.1758q-16.7734 16.7148 -20.2539 37.8438q-3.16504 27.1221 3.63867 46.833q6.80469 19.71 19.7793 35.3213q12.9756 15.6104 30.6973 29.4863l36.71 29.3301 q9.17773 7.88379 16.9316 16.8721q7.75293 8.9873 12.5 18.9219q4.74707 9.93359 4.74707 20.0254t-6.3291 19.2383q-8.54492 11.0371 -19.4629 14.5068q-10.918 3.46875 -20.7285 2.20703q-11.709 -1.26074 -24.0518 -5.99219q-22.1523 -4.41504 -34.3369 3.62695 q-12.1836 8.04199 -18.8291 19.7109q-7.2793 12.9297 -10.4434 31.5371z" />
<glyph unicode="&#xb3;" horiz-adv-x="430" d="M75.8262 1101.49q-0.299805 8.56348 1.50293 16.0752q4.20703 17.1279 19.2305 33.3535q12.9209 12.9199 28.2451 14.4229q15.3242 1.50195 28.2441 -1.50293q15.3242 -3.60547 30.9492 -12.9199q14.1221 -8.71387 25.54 -10.2168q11.4189 -1.50195 19.2305 -0.299805 q9.31543 1.80273 15.9258 6.61035q6.91113 6.00977 9.01465 12.9199q2.10254 6.91113 1.50195 12.3203q-0.600586 6.91016 -4.20703 12.3193q-4.20605 6.91113 -10.9668 10.2158q-6.76074 3.30566 -13.6719 4.50684q-8.11328 1.80371 -16.5264 1.20215 q-29.4463 0 -43.7188 9.31445q-14.2734 9.31543 -20.2822 20.4326q-6.91113 12.9209 -6.91113 30.0479t10.8174 28.8457q10.8164 11.7188 24.3379 18.6299q15.3242 8.1123 35.1562 12.9199q-25.2402 -3.00488 -43.7197 -1.80273t-31.7002 4.50684 q-13.2207 3.30566 -21.9346 8.56348q-8.71387 5.25879 -14.1221 11.5684q-12.3203 14.123 -11.7188 33.6533q0 13.5215 5.55859 24.3389t14.4229 18.4795t19.9814 13.2207q11.1182 5.55859 22.8369 9.16504q27.042 8.1123 61.5967 9.91504q36.3584 1.80273 67.0068 -2.40332 q26.4414 -3.60645 51.9824 -13.5215q25.54 -9.91602 37.2588 -30.3486q12.3193 -22.8359 10.8174 -43.7188q-1.50293 -20.8828 -8.41309 -36.8086q-8.11328 -18.9297 -22.2354 -35.7568q23.4365 -11.1172 38.0098 -28.2441q14.5732 -17.1279 21.7842 -33.6533 q8.71387 -19.832 11.7188 -40.2637q4.20703 -43.5693 -6.15918 -73.166q-10.3672 -29.5977 -25.6914 -47.3252q-17.7275 -21.0332 -42.0664 -33.9541q-46.2734 -19.8311 -88.0391 -20.2822q-41.7666 -0.450195 -73.6172 6.76074q-37.5596 8.71387 -69.1094 26.4424 q-14.1221 9.31445 -22.085 18.9297t-11.7188 18.7803q-3.75586 9.16406 -4.05664 17.7275z" />
<glyph unicode="&#xb4;" horiz-adv-x="700" d="M57 1265.5q2 28.5 13 51.5q10 25 30 49q16 20 48 48t69 53.5t77 47t73 31.5q45 14 78.5 16.5t57 -5t41 -20.5t34.5 -28q16 -16 30.5 -42.5t17.5 -57.5t-9.5 -64.5t-51.5 -66.5q-43 -39 -100 -62.5t-111 -39.5q-61 -18 -123 -29q-33 -8 -63 -4q-27 4 -53.5 16t-42.5 47 q-17 31 -15 59.5z" />
<glyph unicode="&#xb5;" horiz-adv-x="1705" d="M176 207q-4 162 0 280q6 139 19 252q10 76 45 135q29 51 86 93.5t157 42.5q51 0 89 -13.5t64 -35t40 -48t22 -55.5q18 -68 9 -149q0 -63 -1 -118.5t6 -95.5t25.5 -63.5t55.5 -23.5q39 0 53 47t18 106q4 68 -6 154q-10 121 22.5 180t75.5 86q51 29 117 29q51 -8 90 -32 t66.5 -57.5t45 -73.5t28.5 -79q23 -94 20 -209q-4 -129 -29.5 -221t-65.5 -154.5t-91.5 -100.5t-102.5 -58q-123 -47 -276 -21q0 -94 -12.5 -177t-45 -144.5t-92 -97.5t-153.5 -36q-84 0 -133.5 47.5t-75.5 104.5q-31 68 -43 152q-23 192 -27 354z" />
<glyph unicode="&#x3bc;" horiz-adv-x="1705" d="M176 207q-4 162 0 280q6 139 19 252q10 76 45 135q29 51 86 93.5t157 42.5q51 0 89 -13.5t64 -35t40 -48t22 -55.5q18 -68 9 -149q0 -63 -1 -118.5t6 -95.5t25.5 -63.5t55.5 -23.5q39 0 53 47t18 106q4 68 -6 154q-10 121 22.5 180t75.5 86q51 29 117 29q51 -8 90 -32 t66.5 -57.5t45 -73.5t28.5 -79q23 -94 20 -209q-4 -129 -29.5 -221t-65.5 -154.5t-91.5 -100.5t-102.5 -58q-123 -47 -276 -21q0 -94 -12.5 -177t-45 -144.5t-92 -97.5t-153.5 -36q-84 0 -133.5 47.5t-75.5 104.5q-31 68 -43 152q-23 192 -27 354z" />
<glyph unicode="&#xb6;" horiz-adv-x="1437" d="M102 981q0 92 32 158.5t84 112.5t117.5 75t135.5 45q162 37 371 23q141 -6 219 -34t115 -56q43 -37 51 -78q8 -55 -13.5 -93t-50.5 -61q-35 -27 -82 -43q25 -358 25 -637q0 -119 -6 -233.5t-19.5 -203.5t-37 -143.5t-60.5 -54.5t-62.5 54.5t-43 143.5t-27.5 203.5 t-14 233.5q-10 279 0 637h-50q8 -358 -4 -637q-6 -119 -16 -233.5t-26.5 -203.5t-41 -143.5t-59.5 -54.5q-37 0 -62.5 38t-43 99.5t-26.5 140.5t-13 163q-10 193 0 440q-74 0 -129.5 14.5t-97.5 38t-69.5 54t-45.5 63.5q-44 76 -50 172z" />
<glyph unicode="&#xb9;" horiz-adv-x="348" d="M23.8867 1331.19q-1.23438 13.5566 2.16016 25.5732t10.0293 22.3379t14.9668 19.2568q18.8242 20.9512 48.7578 36.6641q32.0938 15.7129 58.3242 17.5625q26.2305 1.84766 44.7461 -1.84961q21.6016 -4.3125 38.5742 -15.7129q15.1211 -10.7832 25.7676 -29.7324 q10.6465 -18.9482 17.2812 -42.5186q6.63477 -23.5693 10.4922 -50.5293q3.85742 -26.959 5.0918 -53.4561q3.08594 -61.9297 -3.08594 -133.102q-1.85156 -22.1836 -6.32617 -38.2051t-11.1094 -28.0371q-6.63477 -12.0166 -14.5039 -19.873 q-7.86914 -7.85742 -16.2012 -12.1699q-18.8242 -11.4004 -41.6602 -11.4004q-24.6875 0 -40.1172 11.708t-24.3789 26.1885q-10.1836 16.3301 -14.5039 37.8975q-7.71484 37.8975 -7.09766 75.332t5.24609 67.9365q4.9375 35.4326 13.8867 67.4756 q-21.6016 -15.0967 -42.2773 -22.1836q-17.5898 -5.5459 -35.9512 -2.77246q-18.3613 2.77246 -29.1621 24.9561q-7.71484 15.0967 -8.94922 28.6533z" />
<glyph unicode="&#xba;" horiz-adv-x="1200" d="M43 481q0 119 25.5 206t67.5 149.5t96.5 103.5t109.5 66q118 52 267 51h32q98 0 174 -22.5t132.5 -59.5t94 -83t62.5 -95q57 -113 65 -258q0 -96 -17 -170t-46 -131q-33 -59 -77 -103.5t-85 -73.5q-47 -35 -96 -55q-41 -16 -79 -25.5t-67 -13.5q-35 -6 -61 -6 q-113 0 -198 22.5t-148.5 58.5t-107.5 83t-70 96q-68 113 -74 260zM572 416q22 -16 57 -17q35 0 57.5 20.5t22.5 55.5q0 33 -20.5 59.5t-59.5 26.5q-35 0 -61 -26q-22 -23 -22 -51q0 -48 26 -68z" />
<glyph unicode="&#xbc;" horiz-adv-x="3213" d="M1950.5 701.5q5.5 56.5 21.5 113.5q37 133 121 291q47 82 98 140.5t103.5 96t102.5 59t97 32.5q109 23 213 -2q59 -16 103.5 -54.5t75 -87.5t50 -107.5t29.5 -115.5q25 -135 17 -297q59 -2 90 -29.5t47 -62.5q18 -39 20 -88q0 -63 -25.5 -98t-53.5 -52q-35 -20 -78 -26 q14 -121 -8 -215q-10 -41 -30 -79t-52.5 -67.5t-80.5 -48t-116 -18.5q-61 0 -106.5 18.5t-76 48t-49 67.5t-26.5 79q-23 94 -10 215q-82 0 -143.5 6t-104.5 14q-51 8 -86 23q-61 16 -93 53t-43.5 86t-6 105.5zM2314 799q4 -43 25.5 -59.5t56.5 -16.5t57.5 20.5t22.5 55.5 q0 33 -20.5 59.5t-59.5 26.5q-35 0 -60.5 -26.5t-21.5 -59.5zM1389 53q-27 -55 -60.5 -77.5t-62.5 -28.5q-37 -8 -72 2t-61 33q-23 20 -40 58t-9 103q8 72 34.5 182.5t63.5 239.5t81 264l87 258l80 224q37 100 61 157q29 68 69 95.5t75 35.5q41 8 86 -4q39 -6 63 -28 q23 -20 36 -62.5t3 -115.5q-16 -106 -45 -220t-62.5 -228t-70.5 -224.5t-74 -208.5q-86 -234 -182 -455zM45 1023q-4 44 7 83t32.5 72.5t48.5 62.5q61 68 158 119q104 51 189 57t145 -6q70 -14 125 -51q49 -35 83.5 -96.5t56 -138t34 -164t16.5 -173.5q10 -201 -10 -432 q-6 -72 -20.5 -124t-36 -91t-47 -64.5t-52.5 -39.5q-61 -37 -135 -37q-80 0 -130 38t-79 85q-33 53 -47 123q-25 123 -23 244.5t17 220.5q16 115 45 219q-70 -49 -137 -72q-57 -18 -116.5 -9t-94.5 81q-25 49 -29 93z" />
<glyph unicode="&#xbd;" horiz-adv-x="3076" d="M1943 1126q-2 51 14.5 93.5t44 74t63.5 56t75 41.5q90 39 207 55q143 10 237.5 -18.5t149.5 -69.5q66 -47 98 -111q37 -68 49.5 -134t8 -129.5t-21.5 -123t-40 -110.5q-55 -121 -149 -230q92 -2 166 -31q31 -12 60.5 -32.5t52 -50t36.5 -70.5t12 -96q-2 -53 -27.5 -92 t-67.5 -66t-94 -44.5t-106 -27.5q-127 -23 -286 -18q-164 0 -254 38t-135 83q-53 53 -64 120q-10 86 11.5 148.5t62.5 112t97 93.5l116 93q29 25 53.5 53.5t39.5 60t15 63.5t-20 61q-27 35 -61.5 46t-65.5 7q-37 -4 -76 -19q-70 -14 -108.5 11.5t-59.5 62.5q-23 41 -33 100z M1389 53q-27 -55 -60.5 -77.5t-62.5 -28.5q-37 -8 -72 2t-61 33q-23 20 -40 58t-9 103q8 72 34.5 182.5t63.5 239.5t81 264l87 258l80 224q37 100 61 157q29 68 69 95.5t75 35.5q41 8 86 -4q39 -6 63 -28q23 -20 36 -62.5t3 -115.5q-16 -106 -45 -220t-62.5 -228 t-70.5 -224.5t-74 -208.5q-86 -234 -182 -455zM45 1023q-4 44 7 83t32.5 72.5t48.5 62.5q61 68 158 119q104 51 189 57t145 -6q70 -14 125 -51q49 -35 83.5 -96.5t56 -138t34 -164t16.5 -173.5q10 -201 -10 -432q-6 -72 -20.5 -124t-36 -91t-47 -64.5t-52.5 -39.5 q-61 -37 -135 -37q-80 0 -130 38t-79 85q-33 53 -47 123q-25 123 -23 244.5t17 220.5q16 115 45 219q-70 -49 -137 -72q-57 -18 -116.5 -9t-94.5 81q-25 49 -29 93z" />
<glyph unicode="&#xbe;" horiz-adv-x="3471" d="M2208.5 701.5q5.5 56.5 21.5 113.5q37 133 121 291q47 82 98 140.5t103.5 96t102.5 59t97 32.5q109 23 213 -2q59 -16 103.5 -54.5t75 -87.5t50 -107.5t29.5 -115.5q25 -135 17 -297q59 -2 90 -29.5t47 -62.5q18 -39 20 -88q0 -63 -25.5 -98t-53.5 -52q-35 -20 -78 -26 q14 -121 -8 -215q-10 -41 -30 -79t-52.5 -67.5t-80.5 -48t-116 -18.5q-61 0 -106.5 18.5t-76 48t-49 67.5t-26.5 79q-23 94 -10 215q-82 0 -143.5 6t-104.5 14q-51 8 -86 23q-61 16 -93 53t-43.5 86t-6 105.5zM2572 799q4 -43 25.5 -59.5t56.5 -16.5t57.5 20.5t22.5 55.5 q0 33 -20.5 59.5t-59.5 26.5q-35 0 -60.5 -26.5t-21.5 -59.5zM1647 53q-27 -55 -60.5 -77.5t-62.5 -28.5q-37 -8 -72 2t-61 33q-23 20 -40 58t-9 103q8 72 34.5 182.5t63.5 239.5t81 264l87 258l80 224q37 100 61 157q29 68 69 95.5t75 35.5q41 8 86 -4q39 -6 63 -28 q23 -20 36 -62.5t3 -115.5q-16 -106 -45 -220t-62.5 -228t-70.5 -224.5t-74 -208.5q-86 -234 -182 -455zM56 284.5q-1 28.5 5 53.5q14 57 64 111q43 43 94 48t94 -5q51 -12 103 -43q47 -29 85 -34t64 -1q31 6 53 22q23 20 30 43t5 41q-2 23 -14 41q-14 23 -36.5 34t-45.5 15 q-27 6 -55 4q-98 0 -145.5 31t-67.5 68q-23 43 -23 100t36 96t81 62q51 27 117 43q-84 -10 -145.5 -6t-105.5 15t-73 28.5t-47 38.5q-41 47 -39 112q0 45 18.5 81t48 61.5t66.5 44t76 30.5q90 27 205 33q121 6 223 -8q88 -12 173 -45t124 -101q41 -76 36 -145.5t-28 -122.5 q-27 -63 -74 -119q78 -37 126.5 -94t72.5 -112q29 -66 39 -134q14 -145 -20.5 -243.5t-85.5 -157.5q-59 -70 -140 -113q-154 -66 -293 -67.5t-245 22.5q-125 29 -230 88q-47 31 -73.5 63t-39 62.5t-13.5 59z" />
<glyph unicode="&#xbf;" horiz-adv-x="1323" d="M131 53q-8 -84 5.5 -165t53 -152.5t117.5 -120.5q84 -53 161 -82t145.5 -38t129 -3t109.5 23q117 35 209 116q57 59 89 113.5t44 104t10 92.5t-14 77q-27 82 -98 150q-37 31 -75 44t-75 14t-70.5 -8t-64.5 -23q-70 -33 -135 -95q57 96 84 183q12 37 17 74.5t1 73.5 t-21.5 66.5t-52.5 53.5q-55 33 -103 46t-90 12t-77 -15t-63 -33q-68 -45 -117 -125q-20 -33 -46 -91t-45.5 -133t-27.5 -159zM283 905q0 106 75.5 164.5t194.5 58.5t189.5 -66.5t70.5 -160.5q0 -111 -70.5 -170t-189.5 -59t-194.5 64.5t-75.5 168.5z" />
<glyph unicode="&#xc0;" d="M70 406q6 145 32.5 267t66.5 223t87 182t92 147q68 98 138.5 149t131 75t100.5 27t46 3t46 -3t100.5 -27t132 -75t139.5 -149q45 -66 91 -147t86 -182t66.5 -223t32.5 -267q6 -88 -10 -166q-6 -33 -19.5 -67t-34 -63.5t-50 -53t-70.5 -38.5q-49 -16 -103 -20 q-45 -4 -99 4t-107 39q-61 37 -99.5 85t-61 94t-30.5 84t-10 50q-2 -12 -10.5 -50t-31 -84t-60 -94t-99.5 -85q-53 -31 -107.5 -39t-99.5 -4q-53 4 -102 20q-41 14 -70.5 38t-49 53.5t-33 63.5t-19.5 67q-16 78 -12 166zM468 1798q3 31 17.5 57.5t30.5 42.5q14 14 32.5 27.5 t42 21t56.5 5.5t80 -17q33 -10 73 -31.5t76.5 -47t68.5 -53t48 -48.5q18 -25 29 -49q10 -23 13 -51.5t-13 -59.5q-16 -35 -43 -47t-53 -16q-31 -4 -64 4q-63 10 -125 29q-53 16 -109.5 39.5t-99.5 62.5q-39 33 -51 66.5t-9 64.5zM690 670q4 -43 25.5 -59.5t56.5 -16.5 t57.5 20.5t22.5 55.5q0 33 -20.5 59.5t-59.5 26.5q-35 0 -60.5 -26.5t-21.5 -59.5z" />
<glyph unicode="&#xc1;" d="M70 406q6 145 32.5 267t66.5 223t87 182t92 147q68 98 138.5 149t131 75t100.5 27t46 3t46 -3t100.5 -27t132 -75t139.5 -149q45 -66 91 -147t86 -182t66.5 -223t32.5 -267q6 -88 -10 -166q-6 -33 -19.5 -67t-34 -63.5t-50 -53t-70.5 -38.5q-49 -16 -103 -20 q-45 -4 -99 4t-107 39q-61 37 -99.5 85t-61 94t-30.5 84t-10 50q-2 -12 -10.5 -50t-31 -84t-60 -94t-99.5 -85q-53 -31 -107.5 -39t-99.5 -4q-53 4 -102 20q-41 14 -70.5 38t-49 53.5t-33 63.5t-19.5 67q-16 78 -12 166zM451 1644.5q2 28.5 12 51.5q10 25 31 49 q16 20 47.5 48t68.5 53.5t77 47t73 31.5q45 14 78.5 16.5t57.5 -5t41 -20.5t34 -28q16 -16 30.5 -42.5t17.5 -57.5t-9.5 -64.5t-51.5 -66.5q-43 -39 -100 -62.5t-110 -40.5q-61 -18 -123 -28q-33 -8 -64 -4q-27 4 -53.5 16t-42.5 47q-16 31 -14 59.5zM690 670 q4 -43 25.5 -59.5t56.5 -16.5t57.5 20.5t22.5 55.5q0 33 -20.5 59.5t-59.5 26.5q-35 0 -60.5 -26.5t-21.5 -59.5z" />
<glyph unicode="&#xc2;" d="M70 406q6 145 32.5 267t66.5 223t87 182t92 147q68 98 138.5 149t131 75t100.5 27t46 3t46 -3t100.5 -27t132 -75t139.5 -149q45 -66 91 -147t86 -182t66.5 -223t32.5 -267q6 -88 -10 -166q-6 -33 -19.5 -67t-34 -63.5t-50 -53t-70.5 -38.5q-49 -16 -103 -20 q-45 -4 -99 4t-107 39q-61 37 -99.5 85t-61 94t-30.5 84t-10 50q-2 -12 -10.5 -50t-31 -84t-60 -94t-99.5 -85q-53 -31 -107.5 -39t-99.5 -4q-53 4 -102 20q-41 14 -70.5 38t-49 53.5t-33 63.5t-19.5 67q-16 78 -12 166zM427 1639.5q-5 48.5 26 84.5q2 2 28.5 33t69.5 66 t98.5 64.5t114.5 29.5q57 0 110.5 -29.5t96.5 -66.5t68.5 -69t27.5 -34q29 -39 20.5 -86t-49.5 -76t-88 -20.5t-76 49.5h3l-10 10q-9 10 -24.5 25.5t-35 33t-43.5 29.5q-29 -18 -53.5 -36.5t-40.5 -34.5q-20 -18 -35 -33q-23 -25 -47 -37q-23 -10 -52.5 -10t-64.5 29 q-39 30 -44 78.5zM690 670q4 -43 25.5 -59.5t56.5 -16.5t57.5 20.5t22.5 55.5q0 33 -20.5 59.5t-59.5 26.5q-35 0 -60.5 -26.5t-21.5 -59.5z" />
<glyph unicode="&#xc3;" d="M70 406q6 145 32.5 267t66.5 223t87 182t92 147q68 98 138.5 149t131 75t100.5 27t46 3t46 -3t100.5 -27t132 -75t139.5 -149q45 -66 91 -147t86 -182t66.5 -223t32.5 -267q6 -88 -10 -166q-6 -33 -19.5 -67t-34 -63.5t-50 -53t-70.5 -38.5q-49 -16 -103 -20 q-45 -4 -99 4t-107 39q-61 37 -99.5 85t-61 94t-30.5 84t-10 50q-2 -12 -10.5 -50t-31 -84t-60 -94t-99.5 -85q-53 -31 -107.5 -39t-99.5 -4q-53 4 -102 20q-41 14 -70.5 38t-49 53.5t-33 63.5t-19.5 67q-16 78 -12 166zM322.5 1683.5q-3.5 28.5 7.5 55.5q37 111 106 164 q31 23 71 36t92 6.5t117.5 -36t145.5 -90.5q2 -2 2 -4.5t2 -4.5q20 59 67.5 93t110.5 14q51 -18 82 -51q27 -29 34 -77t-34 -120q-31 -55 -69.5 -84t-79.5 -39t-83 -4t-81 21q-92 35 -188 114q-18 -70 -52 -97.5t-69 -33.5q-39 -8 -84 6q-27 8 -48.5 29t-33.5 47.5t-15.5 55 zM690 670q4 -43 25.5 -59.5t56.5 -16.5t57.5 20.5t22.5 55.5q0 33 -20.5 59.5t-59.5 26.5q-35 0 -60.5 -26.5t-21.5 -59.5z" />
<glyph unicode="&#xc4;" d="M70 406q6 145 32.5 267t66.5 223t87 182t92 147q68 98 138.5 149t131 75t100.5 27t46 3t46 -3t100.5 -27t132 -75t139.5 -149q45 -66 91 -147t86 -182t66.5 -223t32.5 -267q6 -88 -10 -166q-6 -33 -19.5 -67t-34 -63.5t-50 -53t-70.5 -38.5q-49 -16 -103 -20 q-45 -4 -99 4t-107 39q-61 37 -99.5 85t-61 94t-30.5 84t-10 50q-2 -12 -10.5 -50t-31 -84t-60 -94t-99.5 -85q-53 -31 -107.5 -39t-99.5 -4q-53 4 -102 20q-41 14 -70.5 38t-49 53.5t-33 63.5t-19.5 67q-16 78 -12 166zM412 1686q0 66 40 111.5t117 45.5q78 0 118 -46 t40 -111q0 -66 -40 -113t-118 -47t-117.5 47t-39.5 113zM690 670q4 -43 25.5 -59.5t56.5 -16.5t57.5 20.5t22.5 55.5q0 33 -20.5 59.5t-59.5 26.5q-35 0 -60.5 -26.5t-21.5 -59.5zM786 1686q0 66 40 111.5t118 45.5t118 -46t40 -111q0 -66 -40 -113t-118 -47t-118 47 t-40 113z" />
<glyph unicode="&#xc5;" d="M70 406q6 145 32.5 267t66.5 223t87 182t92 147q68 98 138.5 149t131 75t100.5 27t46 3t46 -3t100.5 -27t132 -75t139.5 -149q45 -66 91 -147t86 -182t66.5 -223t32.5 -267q6 -88 -10 -166q-6 -33 -19.5 -67t-34 -63.5t-50 -53t-70.5 -38.5q-49 -16 -103 -20 q-45 -4 -99 4t-107 39q-61 37 -99.5 85t-61 94t-30.5 84t-10 50q-2 -12 -10.5 -50t-31 -84t-60 -94t-99.5 -85q-53 -31 -107.5 -39t-99.5 -4q-53 4 -102 20q-41 14 -70.5 38t-49 53.5t-33 63.5t-19.5 67q-16 78 -12 166zM506 1642q0 49 19.5 91.5t54 75t80 51t98.5 18.5 q51 0 97 -18.5t80 -51t53.5 -74.5t19.5 -92q0 -49 -19.5 -92t-53.5 -74.5t-80 -50t-97 -18.5q-53 0 -98.5 18.5t-80 50t-54 74.5t-19.5 92zM651 1638q0 -51 30 -76.5t77 -25.5q43 0 74.5 25.5t31.5 76.5q0 63 -32.5 87t-73.5 24q-55 0 -81 -32t-26 -79zM690 670 q4 -43 25.5 -59.5t56.5 -16.5t57.5 20.5t22.5 55.5q0 33 -20.5 59.5t-59.5 26.5q-35 0 -60.5 -26.5t-21.5 -59.5z" />
<glyph unicode="&#xc6;" horiz-adv-x="2332" d="M51 387q6 145 33 267t66.5 223.5t87 182.5t92.5 146q68 98 138.5 149.5t130.5 75t100 26.5t46 3t43 -3t93.5 -22.5t124 -64.5t133.5 -131q25 51 65.5 88t89.5 63.5t104.5 44t108.5 27.5q127 23 269 21q98 2 171.5 -7.5t127 -26.5t89.5 -38.5t58 -44.5q53 -53 55 -125 q0 -61 -19.5 -106t-53 -78t-77.5 -53.5t-89 -32.5q-109 -29 -246 -25q115 -10 171 -42t81 -66q27 -41 27 -88q0 -68 -32 -108t-75 -61.5t-85 -28.5t-60 -7q88 2 155.5 -8.5t116.5 -29t82 -43t55 -48.5q49 -61 53 -140q-2 -49 -24.5 -86.5t-57 -66.5t-78.5 -48.5t-89 -31.5 q-106 -31 -242 -37q-154 -12 -262.5 3.5t-186.5 43.5q-35 -35 -86 -53q-49 -16 -102 -20q-45 -4 -99.5 4t-107.5 39q-61 37 -99 85t-60.5 94t-30.5 84t-11 50q-2 -12 -10 -50t-30.5 -84t-60.5 -94.5t-99 -84.5q-53 -31 -107.5 -39.5t-99.5 -3.5q-53 4 -102 20 q-41 14 -71 37.5t-49.5 53.5t-32.5 63.5t-20 66.5q-16 78 -12 166zM670 639q4 -43 25.5 -59.5t56.5 -16.5t57 20.5t22 55.5q0 33 -20 59.5t-59 26.5q-35 0 -60.5 -26.5t-21.5 -59.5z" />
<glyph unicode="&#xc7;" horiz-adv-x="1372" d="M51 700q2 154 55 285q23 55 60 112.5t91 108.5t130 92t176 64t205 24q90 2 197.5 -16t210.5 -78q53 -37 84 -90q27 -45 36 -111.5t-28 -156.5q-23 -45 -62 -74q-35 -27 -92 -41t-149 2q-59 10 -109 2q-41 -8 -77 -33.5t-40 -87.5q0 -45 23 -79q20 -29 67.5 -50.5 t139.5 -11.5q88 12 157 -6q31 -8 61 -22.5t54.5 -39t43 -60.5t24.5 -85q4 -57 -11 -112q-12 -47 -43.5 -99.5t-99.5 -89.5q-45 -25 -106 -41q-53 -14 -132 -23.5t-184 1.5v-68q41 0 83 -8t75 -31q29 -20 58.5 -61t29.5 -105q0 -59 -20.5 -95t-53.5 -62q-35 -29 -77 -40.5 t-80 -15.5q-45 -4 -93 2q-39 0 -67.5 27t-24.5 70q4 35 25.5 54t66.5 19q37 -6 66 -4q25 2 46 11.5t21 33.5q0 39 -28.5 50.5t-108.5 11.5q-16 0 -33.5 4t-33 12t-25.5 23.5t-10 40.5v157q-18 4 -39 9.5t-41 11.5q-119 39 -213 125q-41 37 -78 87t-66.5 116.5t-46 151.5 t-14.5 189z" />
<glyph unicode="&#xc8;" horiz-adv-x="1368" d="M75 564.5q-3 148.5 5 273.5q8 145 29 286q12 70 43.5 122t75.5 89t96.5 60.5t105.5 36.5q123 31 272 24q115 -4 200 -16.5t147.5 -31.5t103.5 -42t66 -47q59 -55 57 -123q0 -61 -22.5 -105t-59.5 -75t-86 -49.5t-100 -28.5q-121 -23 -275 -14q117 -20 176.5 -56.5 t81.5 -70.5q27 -41 23 -90q0 -66 -35 -106t-76 -64q-49 -29 -110 -43q96 2 167.5 -8.5t124 -29t87 -42t57.5 -47.5q51 -57 51 -134q-4 -49 -28.5 -84.5t-62.5 -62.5t-87 -44t-98 -30q-117 -27 -267 -28q-113 -4 -198.5 8t-151 32.5t-113 47t-77.5 55.5q-74 68 -93 154 q-26 135 -29 283.5zM361.5 1802.5q3.5 30.5 17.5 57t31 43.5q14 14 32.5 27.5t42 20.5t56 5t80.5 -17q33 -10 72.5 -31.5t76.5 -47t68.5 -53t48.5 -48.5q18 -25 28 -49q10 -23 13.5 -51.5t-13.5 -59.5q-16 -35 -42.5 -47t-53.5 -16q-31 -4 -63 4q-63 10 -125 29 q-53 16 -109.5 39.5t-99.5 62.5q-39 33 -51.5 67t-9 64.5z" />
<glyph unicode="&#xc9;" horiz-adv-x="1368" d="M75 564.5q-3 148.5 5 273.5q8 145 29 286q12 70 43.5 122t75.5 89t96.5 60.5t105.5 36.5q123 31 272 24q115 -4 200 -16.5t147.5 -31.5t103.5 -42t66 -47q59 -55 57 -123q0 -61 -22.5 -105t-59.5 -75t-86 -49.5t-100 -28.5q-121 -23 -275 -14q117 -20 176.5 -56.5 t81.5 -70.5q27 -41 23 -90q0 -66 -35 -106t-76 -64q-49 -29 -110 -43q96 2 167.5 -8.5t124 -29t87 -42t57.5 -47.5q51 -57 51 -134q-4 -49 -28.5 -84.5t-62.5 -62.5t-87 -44t-98 -30q-117 -27 -267 -28q-113 -4 -198.5 8t-151 32.5t-113 47t-77.5 55.5q-74 68 -93 154 q-26 135 -29 283.5zM430 1644.5q2 28.5 12 51.5q10 25 31 49q16 20 48 48t69 53.5t77 47t72 31.5q45 14 79 16.5t57.5 -5t41 -20.5t33.5 -28q16 -16 30.5 -42.5t17.5 -57.5t-9 -64.5t-51 -66.5q-43 -39 -100.5 -62.5t-110.5 -40.5q-61 -18 -123 -28q-33 -8 -63 -4 q-27 4 -53.5 16t-43.5 47q-16 31 -14 59.5z" />
<glyph unicode="&#xca;" horiz-adv-x="1368" d="M75 564.5q-3 148.5 5 273.5q8 145 29 286q12 70 43.5 122t75.5 89t96.5 60.5t105.5 36.5q123 31 272 24q115 -4 200 -16.5t147.5 -31.5t103.5 -42t66 -47q59 -55 57 -123q0 -61 -22.5 -105t-59.5 -75t-86 -49.5t-100 -28.5q-121 -23 -275 -14q117 -20 176.5 -56.5 t81.5 -70.5q27 -41 23 -90q0 -66 -35 -106t-76 -64q-49 -29 -110 -43q96 2 167.5 -8.5t124 -29t87 -42t57.5 -47.5q51 -57 51 -134q-4 -49 -28.5 -84.5t-62.5 -62.5t-87 -44t-98 -30q-117 -27 -267 -28q-113 -4 -198.5 8t-151 32.5t-113 47t-77.5 55.5q-74 68 -93 154 q-26 135 -29 283.5zM363.5 1623q-5.5 48 25.5 85q2 2 28.5 33t69.5 65.5t98.5 64.5t114.5 30q57 0 110.5 -30t96.5 -67t68.5 -68.5t28.5 -33.5q29 -39 20.5 -86t-49.5 -76t-88 -20.5t-76 49.5h2l-9 10q-9 10 -24.5 25.5t-35 33t-44.5 29.5q-29 -18 -53 -36.5t-41 -35.5 l-35 -32q-23 -25 -47 -37q-23 -10 -52.5 -10t-63.5 28q-39 31 -44.5 79z" />
<glyph unicode="&#xcb;" horiz-adv-x="1368" d="M75 564.5q3 -148.5 29 -283.5q18 -86 93 -154q31 -29 78 -55.5t112.5 -47t151.5 -32.5t198 -8q150 2 267 28q49 12 98 29.5t87 44.5t62.5 62.5t28.5 84.5q0 76 -51 134q-23 25 -57.5 48t-87 41.5t-124 29t-167.5 8.5q61 14 110 43q41 25 76 64.5t35 105.5q4 49 -23 90 q-23 35 -82 70.5t-176 56.5q154 -8 275 14q51 10 100 28.5t86 49.5t59.5 75t22.5 105q2 68 -57 123q-25 25 -66 47.5t-103.5 41.5t-147.5 31.5t-200 16.5q-150 6 -272 -24q-53 -12 -105.5 -36t-96.5 -61t-75.5 -89t-43.5 -122q-20 -141 -29 -286q-8 -125 -5 -273.5z M313 1683q0 66 40 112t118 46t118 -46t40 -112t-40 -112.5t-118 -46.5t-118 46.5t-40 112.5zM688 1683q0 66 40 112t118 46t118 -46t40 -112t-40 -112.5t-118 -46.5t-118 46.5t-40 112.5z" />
<glyph unicode="&#xcc;" horiz-adv-x="860" d="M63 784q2 100 9 203q10 127 51 227q18 43 45 84t64.5 73t89 52.5t118.5 20.5q82 -6 150 -49q29 -18 58.5 -47t55 -72t45 -100.5t29.5 -131.5q16 -143 18.5 -271t-1.5 -226q-6 -113 -17 -211q-14 -100 -53 -178q-18 -33 -43 -65t-59.5 -57.5t-79.5 -39.5t-103 -14 q-63 0 -112 19t-87 50t-63.5 70t-44.5 80q-41 96 -53 215q-12 84 -15.5 183t-1.5 185zM150.5 1792q3.5 31 17.5 57.5t31 42.5q14 14 32.5 27.5t42 21t56 5.5t80.5 -17q33 -10 72.5 -31.5t76.5 -47t68.5 -53.5t48.5 -48q18 -25 29 -49q10 -23 13 -51.5t-13 -59.5 q-16 -35 -43 -47t-54 -16q-31 -4 -63 4q-63 10 -125 29q-53 16 -109.5 39.5t-99.5 62.5q-39 33 -51.5 66.5t-9 64.5z" />
<glyph unicode="&#xcd;" horiz-adv-x="860" d="M63 784q2 100 9 203q10 127 51 227q18 43 45 84t64.5 73t89 52.5t118.5 20.5q82 -6 150 -49q29 -18 58.5 -47t55 -72t45 -100.5t29.5 -131.5q16 -143 18.5 -271t-1.5 -226q-6 -113 -17 -211q-14 -100 -53 -178q-18 -33 -43 -65t-59.5 -57.5t-79.5 -39.5t-103 -14 q-63 0 -112 19t-87 50t-63.5 70t-44.5 80q-41 96 -53 215q-12 84 -15.5 183t-1.5 185zM156 1642.5q2 28.5 12 51.5q10 25 31 49q16 20 48 48t68.5 53.5t76.5 47t73 31.5q45 14 79 16.5t57.5 -5t40.5 -20.5t34 -28q16 -16 30.5 -42.5t17.5 -57.5t-9.5 -64.5t-50.5 -66.5 q-43 -39 -100.5 -62.5t-110.5 -40.5q-61 -18 -123 -28q-33 -8 -64 -4q-27 4 -53.5 16t-42.5 47q-16 31 -14 59.5z" />
<glyph unicode="&#xce;" horiz-adv-x="860" d="M63 784q2 100 9 203q10 127 51 227q18 43 45 84t64.5 73t89 52.5t118.5 20.5q82 -6 150 -49q29 -18 58.5 -47t55 -72t45 -100.5t29.5 -131.5q16 -143 18.5 -271t-1.5 -226q-6 -113 -17 -211q-14 -100 -53 -178q-18 -33 -43 -65t-59.5 -57.5t-79.5 -39.5t-103 -14 q-63 0 -112 19t-87 50t-63.5 70t-44.5 80q-41 96 -53 215q-12 84 -15.5 183t-1.5 185zM95 1621q-5 48 26 85q2 2 28.5 32.5t69.5 65.5t98.5 64.5t114.5 29.5q57 0 110.5 -29.5t96.5 -66.5t68.5 -68.5t27.5 -33.5q29 -39 21 -86t-49 -76t-88.5 -20.5t-75.5 49.5h2l-9 10 q-9 10 -24.5 25.5t-35 33t-44.5 29.5q-29 -18 -53.5 -36.5t-40.5 -35.5l-35 -32q-23 -25 -47 -37q-23 -10 -52.5 -10.5t-64.5 28.5q-39 31 -44 79z" />
<glyph unicode="&#xcf;" horiz-adv-x="860" d="M63 784q-2 -86 1.5 -185t15.5 -183q12 -119 53 -215q18 -41 44 -80t64 -70t87 -50t112 -19q57 0 102.5 14t80 39.5t59.5 57.5t43 65q39 78 53 178q10 98 17 211q4 98 2 226t-19 271q-10 74 -29.5 131.5t-45 100.5t-55.5 71.5t-58 47.5q-68 43 -150 49q-68 0 -119 -20.5 t-88.5 -52.5t-64.5 -73t-45 -84q-41 -100 -51 -227q-7 -103 -9 -203zM74 1645q0 66 40 111.5t117 45.5q78 0 118 -46t40 -111q0 -66 -40 -113t-118 -47t-117.5 47t-39.5 113zM449 1645q0 66 39.5 111.5t117.5 45.5t118 -46t40 -111q0 -66 -40 -113t-118 -47t-117.5 47 t-39.5 113z" />
<glyph unicode="&#xd0;" horiz-adv-x="1710" d="M100 692q-4 53 15 101q16 41 54 79.5t120 57.5q27 6 45 8t33 2h30q16 0 41 2q4 45 9 83l10 67q4 33 8 59q10 63 34.5 110.5t56.5 81t67.5 56t72.5 35.5q84 31 187 26q98 0 180 -13t147.5 -34.5t117.5 -50.5t93 -57q94 -70 148 -158q51 -88 76 -203q10 -49 17 -109.5 t5 -132t-13.5 -152.5t-37.5 -171q-25 -82 -68 -142.5t-96 -103.5t-113.5 -69.5t-119.5 -43.5q-141 -37 -301 -32q-123 -2 -203 25.5t-129 62.5q-57 39 -92 88q-35 63 -48.5 145t-17.5 160q-25 0 -39 1l-28 2q-13 1 -29.5 3t-40.5 6q-72 10 -112 45t-56 72q-23 43 -23 94z M928 686q0 -29 6 -44t17.5 -22.5t26.5 -8.5t32 -1q35 0 57.5 20.5t22.5 55.5q0 33 -20.5 59.5t-59.5 26.5q-35 0 -58.5 -17.5t-23.5 -68.5z" />
<glyph unicode="&#xd1;" horiz-adv-x="1705" d="M89 546q5 -161 44 -323q16 -66 53 -117q31 -43 86.5 -78.5t143.5 -31.5q100 -8 178 53q33 25 62.5 68t52 109.5t33 159.5t3.5 220q23 -174 86 -309q27 -57 64 -112.5t88 -98.5t117.5 -67.5t150.5 -22.5q70 -6 135 22q27 12 55.5 34t54.5 55.5t47.5 82t35.5 113.5 q27 131 41 279q10 127 10 289.5t-35 342.5q-12 66 -49 119q-31 45 -89 81t-154 34q-94 0 -166 -53q-31 -23 -60.5 -61t-52.5 -94t-36 -135t-11 -183q-6 158 -59 278q-23 51 -57 100.5t-83 86t-113.5 58t-150.5 17.5q-121 -6 -195.5 -58t-115.5 -114q-49 -72 -70 -160 q-29 -141 -39 -292q-10 -131 -5 -292zM423 1681.5q-3 28.5 7 55.5q37 111 107 164q31 23 70.5 36t92 6.5t118 -36t145.5 -90.5q2 -2 2 -4.5t2 -4.5q20 59 67 93t111 14q51 -18 82 -51q27 -29 34 -77t-34 -120q-31 -55 -70 -84t-80 -39t-83 -4t-81 21q-92 35 -188 114 q-18 -70 -52 -97.5t-69 -33.5q-39 -8 -84 6q-27 8 -48 28.5t-33.5 47.5t-15.5 55.5z" />
<glyph unicode="&#xd2;" horiz-adv-x="1579" d="M90 670q0 160 32 276.5t84 201.5t117.5 139t135.5 87q162 76 368 68q123 0 216.5 -30t163 -79t116.5 -111.5t78 -127.5q72 -154 82 -346q0 -145 -29 -255t-75 -191t-104 -136t-120 -92q-143 -84 -328 -97q-139 0 -243.5 30t-182 78t-131 110.5t-88.5 128.5 q-82 151 -92 346zM488.5 1798q3.5 31 17.5 57.5t31 42.5q14 14 32.5 27.5t42 21t56 5.5t80.5 -17q33 -10 72.5 -31.5t76.5 -47t68.5 -53t48.5 -48.5q18 -25 28 -49q10 -23 13.5 -51.5t-13.5 -59.5q-16 -35 -42.5 -47t-53.5 -16q-31 -4 -63 4q-63 10 -125 29 q-53 16 -109.5 39.5t-99.5 62.5q-39 33 -51.5 66.5t-9 64.5zM715 698q4 -43 25.5 -59t56.5 -16t57.5 20.5t22.5 54.5q0 33 -20.5 59.5t-59.5 26.5q-35 0 -60.5 -26.5t-21.5 -59.5z" />
<glyph unicode="&#xd3;" horiz-adv-x="1579" d="M90 670q0 160 32 276.5t84 201.5t117.5 139t135.5 87q162 76 368 68q123 0 216.5 -30t163 -79t116.5 -111.5t78 -127.5q72 -154 82 -346q0 -145 -29 -255t-75 -191t-104 -136t-120 -92q-143 -84 -328 -97q-139 0 -243.5 30t-182 78t-131 110.5t-88.5 128.5 q-82 151 -92 346zM467 1644.5q2 28.5 12 51.5q10 25 31 49q16 20 48 48t69 53.5t76.5 47t72.5 31.5q45 14 79 16.5t57.5 -5t41 -20.5t33.5 -28q16 -16 30.5 -42.5t17.5 -57.5t-9 -64.5t-51 -66.5q-43 -39 -100.5 -62.5t-110.5 -40.5q-61 -18 -123 -28q-33 -8 -63 -4 q-27 4 -53.5 16t-43.5 47q-16 31 -14 59.5zM715 698q4 -43 25.5 -59t56.5 -16t57.5 20.5t22.5 54.5q0 33 -20.5 59.5t-59.5 26.5q-35 0 -60.5 -26.5t-21.5 -59.5z" />
<glyph unicode="&#xd4;" horiz-adv-x="1579" d="M90 670q0 160 32 276.5t84 201.5t117.5 139t135.5 87q162 76 368 68q123 0 216.5 -30t163 -79t116.5 -111.5t78 -127.5q72 -154 82 -346q0 -145 -29 -255t-75 -191t-104 -136t-120 -92q-143 -84 -328 -97q-139 0 -243.5 30t-182 78t-131 110.5t-88.5 128.5 q-82 151 -92 346zM478 1617q-5 48 26 85q2 2 28.5 32.5t69.5 65.5t98.5 64.5t114.5 29.5q57 0 110.5 -29.5t96.5 -66.5t68.5 -68.5t27.5 -33.5q29 -39 20.5 -86t-48.5 -76q-41 -29 -88.5 -20.5t-75.5 49.5h2l-9 10q-9 10 -24.5 25.5t-35 33t-44.5 29.5q-29 -18 -53.5 -36.5 t-40.5 -35.5q-20 -18 -35 -33q-23 -25 -47 -36q-23 -10 -52.5 -10.5t-64.5 28.5q-39 31 -44 79zM715 698q4 -43 25.5 -59t56.5 -16t57.5 20.5t22.5 54.5q0 33 -20.5 59.5t-59.5 26.5q-35 0 -60.5 -26.5t-21.5 -59.5z" />
<glyph unicode="&#xd5;" horiz-adv-x="1579" d="M90 670q10 -195 92 -346q35 -66 88.5 -128.5t131 -110.5t182 -78t243.5 -30q184 12 328 97q61 37 119.5 92t104.5 136t75 190.5t29 255.5q-10 193 -82 346q-31 66 -78 128t-116.5 111t-163 79t-216.5 30q-207 8 -368 -68q-70 -33 -135.5 -87t-117.5 -139t-84 -201.5 t-32 -276.5zM343 1667q-3 29 7 55q37 111 107 164q31 23 70.5 36t92 7t118 -35.5t145.5 -91.5q2 -2 2 -4t2 -4q20 59 67 93t111 14q51 -18 82 -52q27 -29 34 -77t-34 -119q-31 -55 -70 -84t-80 -39t-83 -4t-80 20q-92 35 -189 115q-18 -70 -52 -97.5t-69 -33.5q-39 -8 -84 6 q-27 8 -48 28.5t-33.5 47t-15.5 55.5zM715 698q-4 33 21.5 59.5t60.5 26.5q39 0 59.5 -26.5t20.5 -59.5q0 -35 -23 -55t-57 -20q-35 0 -56.5 16t-25.5 59z" />
<glyph unicode="&#xd6;" horiz-adv-x="1579" d="M90 670q10 -195 92 -346q35 -66 88.5 -128.5t131 -110.5t182 -78t243.5 -30q184 12 328 97q61 37 119.5 92t104.5 136t75 190.5t29 255.5q-10 193 -82 346q-31 66 -78 128t-116.5 111t-163 79t-216.5 30q-207 8 -368 -68q-70 -33 -135.5 -87t-117.5 -139t-84 -201.5 t-32 -276.5zM432 1679q0 66 40 112t118 46t118 -46t40 -112t-40 -112.5t-118 -46.5t-118 46.5t-40 112.5zM715 698q-4 33 21.5 59.5t60.5 26.5q39 0 59.5 -26.5t20.5 -59.5q0 -35 -23 -55t-57 -20q-35 0 -56.5 16t-25.5 59zM807 1679q0 66 40 112t118 46t117.5 -46 t39.5 -112t-40 -112.5t-117 -46.5q-78 0 -118 46.5t-40 112.5z" />
<glyph unicode="&#xd7;" horiz-adv-x="1097" d="M89 932q1 51 20 92q23 47 65 88q31 27 68 45q33 14 75.5 20.5t96.5 -14.5q31 -10 65.5 -30.5t71.5 -47.5q59 45 106 74q57 35 106.5 36t86.5 -11q43 -16 78 -47q39 -39 59 -84q16 -39 18.5 -92.5t-36.5 -114.5l-32 -49q-15 -25 -32 -47q49 -66 80 -117q35 -59 37 -109.5 t-10 -85.5q-14 -43 -47 -76q-39 -39 -84 -61q-41 -18 -93.5 -20t-115.5 38l-49 33l-48 33q-25 -23 -44 -38t-33 -25q-16 -12 -29 -19q-59 -43 -111.5 -42t-93.5 20q-47 23 -88 63q-27 33 -45 70q-16 33 -22.5 75.5t14.5 96.5q25 59 82 137q-20 23 -32.5 41t-22.5 31l-19 26 q-43 60 -42 111z" />
<glyph unicode="&#xd8;" horiz-adv-x="1505" d="M45 668q0 160 32 276.5t84 201.5t117.5 139t135.5 87q162 76 368 68q59 0 115 -6q18 35 35.5 63.5l30.5 50.5q39 63 81.5 85t79.5 24q43 2 84 -17q35 -12 58 -38q18 -23 27.5 -67t-13.5 -116l-25 -70q-12 -36 -26 -73q78 -78 120 -170t62 -172q23 -94 27 -189 q0 -145 -29 -254.5t-75 -190.5t-104.5 -136t-119.5 -92q-143 -84 -328 -97q-37 0 -71.5 3.5t-67.5 7.5l-34 -67l-25 -50l-23 -41q-31 -53 -66.5 -72.5t-66.5 -23.5q-37 -4 -70 10q-37 12 -59 39q-23 23 -35 61.5t0 102.5q8 35 19.5 76.5t27.5 93.5q-100 76 -154.5 171 t-78.5 181q-29 99 -33 201zM709 668q4 -43 25.5 -59.5t56.5 -16.5t57 20.5t22 55.5q0 33 -20.5 59.5t-58.5 26.5q-35 0 -60.5 -26.5t-21.5 -59.5z" />
<glyph unicode="&#xd9;" horiz-adv-x="1570" d="M55 834q-2 158 21 311q25 129 80 193.5t112 91.5q68 31 146 26q74 -4 131 -39q49 -29 91 -92t42 -180q0 -88 -2 -167t4 -139.5t23.5 -96t54.5 -35.5t54 35.5t23.5 96t4.5 139.5t-4 167q-2 57 9 101t31.5 77t46 54.5t52.5 33.5q63 31 145 31q104 6 169 -29t102 -78 q41 -53 61 -118q35 -156 36 -300.5t-13 -257.5q-16 -131 -48 -247q-43 -125 -127 -224q-37 -41 -85 -80.5t-112.5 -70.5t-145 -49.5t-179.5 -18.5q-84 0 -152.5 13.5t-126 34t-102.5 47t-80 53.5q-82 63 -129 143q-39 66 -63.5 138.5t-39.5 147.5t-22.5 147.5t-7.5 140.5z M419 1781.5q3 30.5 17.5 57.5t30.5 43q14 14 32.5 27.5t42 20.5t56.5 5t80 -16q33 -10 73 -31.5t76.5 -47t68.5 -53.5t48 -48q18 -25 29 -49q10 -23 13 -51.5t-13 -59.5q-16 -35 -43 -47t-53 -16q-31 -4 -64 4q-63 10 -125 28q-53 16 -109.5 40t-99.5 63q-39 33 -51 66.5 t-9 64z" />
<glyph unicode="&#xda;" horiz-adv-x="1570" d="M55 834q-2 158 21 311q25 129 80 193.5t112 91.5q68 31 146 26q74 -4 131 -39q49 -29 91 -92t42 -180q0 -88 -2 -167t4 -139.5t23.5 -96t54.5 -35.5t54 35.5t23.5 96t4.5 139.5t-4 167q-2 57 9 101t31.5 77t46 54.5t52.5 33.5q63 31 145 31q104 6 169 -29t102 -78 q41 -53 61 -118q35 -156 36 -300.5t-13 -257.5q-16 -131 -48 -247q-43 -125 -127 -224q-37 -41 -85 -80.5t-112.5 -70.5t-145 -49.5t-179.5 -18.5q-84 0 -152.5 13.5t-126 34t-102.5 47t-80 53.5q-82 63 -129 143q-39 66 -63.5 138.5t-39.5 147.5t-22.5 147.5t-7.5 140.5z M512 1644.5q2 28.5 12 51.5q10 25 31 49q16 20 48 48t69 53.5t76.5 47t72.5 31.5q45 14 79 16.5t57.5 -5t41 -20.5t33.5 -28q16 -16 30.5 -42.5t17.5 -57.5t-9 -64.5t-51 -66.5q-43 -39 -100.5 -62.5t-110.5 -40.5q-61 -18 -123 -28q-33 -8 -63 -4q-27 4 -53.5 16t-43.5 47 q-16 31 -14 59.5z" />
<glyph unicode="&#xdb;" horiz-adv-x="1570" d="M55 834q-2 158 21 311q25 129 80 193.5t112 91.5q68 31 146 26q74 -4 131 -39q49 -29 91 -92t42 -180q0 -88 -2 -167t4 -139.5t23.5 -96t54.5 -35.5t54 35.5t23.5 96t4.5 139.5t-4 167q-2 57 9 101t31.5 77t46 54.5t52.5 33.5q63 31 145 31q104 6 169 -29t102 -78 q41 -53 61 -118q35 -156 36 -300.5t-13 -257.5q-16 -131 -48 -247q-43 -125 -127 -224q-37 -41 -85 -80.5t-112.5 -70.5t-145 -49.5t-179.5 -18.5q-84 0 -152.5 13.5t-126 34t-102.5 47t-80 53.5q-82 63 -129 143q-39 66 -63.5 138.5t-39.5 147.5t-22.5 147.5t-7.5 140.5z M439 1615q-5 48 26 85q2 2 28.5 32.5t69.5 65.5t98.5 64.5t114.5 29.5q57 0 110.5 -29.5t96.5 -66.5t68.5 -68.5t27.5 -33.5q29 -39 21 -86t-49 -76t-88.5 -20.5t-75.5 49.5h2l-9 10q-9 10 -24.5 25.5t-35 33t-44.5 29.5q-29 -18 -53.5 -36.5t-40.5 -35.5q-20 -18 -35 -33 q-23 -25 -47 -36q-23 -10 -52.5 -10.5t-64.5 28.5q-39 31 -44 79z" />
<glyph unicode="&#xdc;" horiz-adv-x="1570" d="M55 834q0 -68 7.5 -140.5t22.5 -147.5t40 -147.5t63 -138.5q47 -80 129 -143q35 -27 80 -53.5t102.5 -47t126 -34t152.5 -13.5q98 0 179 18.5t145.5 49.5t113 70.5t84.5 80.5q84 98 127 224q31 117 48 247q14 113 13 257.5t-36 300.5q-20 66 -61 118q-37 43 -101.5 78 t-169.5 29q-82 0 -145 -31q-27 -12 -52.5 -33.5t-46 -54.5t-31.5 -77t-9 -101q2 -88 4 -167t-4.5 -139.5t-23.5 -96t-54 -35.5t-54.5 35.5t-23.5 96t-4 139.5t2 167q0 117 -42 180.5t-91 91.5q-57 35 -131 39q-78 4 -146 -26q-57 -27 -112.5 -91.5t-79.5 -193.5 q-23 -153 -21 -311zM410 1679q0 66 39.5 112t117.5 46t118 -46t40 -112t-40 -112.5t-118 -46.5t-117.5 46.5t-39.5 112.5zM784 1679q0 66 40 112t118 46t118 -46t40 -112t-40 -112.5t-118 -46.5t-118 46.5t-40 112.5z" />
<glyph unicode="&#xdd;" horiz-adv-x="1705" d="M162 1232q8 52 26.5 92t44 68.5t54.5 47.5q68 45 157 57q68 4 125.5 -10t103.5 -40t82 -59.5t62 -70.5q63 -84 98 -197q43 156 110 233t132 105q76 35 158 25q66 -8 112 -28.5t76.5 -48.5t48 -60.5t27.5 -65.5q20 -78 4 -172q-27 -113 -88 -196t-125 -136 q-74 -63 -160 -106q41 -129 37 -231.5t-22 -174.5q-23 -84 -64 -149q-47 -66 -106.5 -93.5t-139.5 -27.5q-66 0 -113.5 14.5t-78.5 32.5q-37 20 -61 47q-33 37 -54.5 80t-34 90t-16.5 95t-4 91q0 102 22 211q-104 45 -190 113q-37 29 -73 64.5t-66.5 78.5t-52 93.5 t-29.5 107.5q-10 68 -2 120zM661.5 1644.5q2.5 28.5 12.5 51.5q10 25 31 49q16 20 47.5 48t68.5 53.5t77 47t73 31.5q45 14 78.5 16.5t57 -5t41 -20.5t34.5 -28q16 -16 30.5 -42.5t17.5 -57.5t-9.5 -64.5t-51.5 -66.5q-43 -39 -100 -62.5t-111 -40.5q-61 -18 -122 -28 q-33 -8 -64 -4q-27 4 -53.5 16t-42.5 47q-17 31 -14.5 59.5z" />
<glyph unicode="&#xde;" horiz-adv-x="1449" d="M53 752q0 68 3 129t12.5 124.5t23.5 131t39 147.5q27 80 78 139q43 51 114.5 89t182.5 28q88 -8 153 -45q27 -16 51.5 -40.5t40 -60.5t19.5 -83t-8 -109q115 -4 201 -24.5t149.5 -53t106.5 -71.5t71 -80q66 -96 72 -215q4 -96 -19.5 -166t-65.5 -119t-96.5 -80 t-111.5 -49q-135 -43 -309 -33q12 -66 9 -116t-17.5 -86.5t-38 -61t-49.5 -41.5q-63 -37 -152 -41q-109 -4 -180.5 31t-114.5 80q-51 53 -80 121q-29 82 -46 152.5t-25.5 137t-10.5 132t-2 133.5zM709 735q4 -43 25.5 -59.5t56.5 -16.5t57 20.5t22 55.5q0 33 -20.5 59.5 t-58.5 26.5q-35 0 -60.5 -26.5t-21.5 -59.5z" />
<glyph unicode="&#xdf;" horiz-adv-x="1345" d="M61 659q0 111 9.5 198t19.5 149q12 72 31 127q25 72 62.5 124t80.5 89.5t90 62.5t92 39q106 35 226 31q145 -6 239.5 -49.5t149.5 -92.5q66 -57 98 -131q39 -100 30 -178t-38 -131q-33 -63 -86 -109q80 -27 127 -70.5t74 -86.5q29 -51 41 -105q12 -106 -4 -202 q-14 -82 -60.5 -165t-146.5 -130q-80 -37 -146.5 -39t-119 19.5t-89 57t-59.5 74.5q-23 37 -26 81t8.5 84t35 72t56.5 44q29 10 41 30.5t14 41.5q2 23 -6 49q-20 59 -94 59q-35 0 -58.5 -22.5t-23.5 -67.5q0 -47 2 -69.5t2 -45t-4 -58.5t-15 -108q-12 -72 -35.5 -114.5 t-55 -66t-69.5 -32t-77 -8.5q-49 0 -104.5 24.5t-102.5 95.5t-78 197.5t-31 331.5zM623 991q0 -33 17 -60.5t65 -27.5q41 0 61 27.5t20 60.5q0 31 -16 54.5t-65 23.5q-35 0 -58.5 -21.5t-23.5 -56.5z" />
<glyph unicode="&#xe0;" horiz-adv-x="1441" d="M61 461q-4 154 39 278q18 53 49 105.5t78 95.5t113 72.5t156 38.5q115 10 184.5 -13.5t110.5 -56.5q47 -37 67 -90q16 49 47 86q27 33 71 60.5t116 27.5q57 0 100 -22.5t75.5 -59.5t55.5 -84t37 -96q35 -115 39 -260q6 -117 -4.5 -204t-29.5 -149.5t-46 -104.5t-55 -67 q-68 -59 -158 -55q-55 -2 -105 19q-41 16 -79.5 56t-49.5 118q-20 -61 -73 -105q-45 -37 -127 -63.5t-217 -10.5q-111 12 -197 66q-37 23 -72.5 57.5t-63.5 86t-44.5 119t-16.5 155.5zM427 1411q3 31 17.5 57.5t30.5 42.5q14 14 32.5 27.5t42 21t56.5 5.5t80 -17 q33 -10 73 -31.5t76.5 -47t68.5 -53t48 -48.5q18 -25 29 -49q10 -23 13 -51.5t-13 -59.5q-16 -35 -43 -47t-53 -16q-31 -4 -64 4q-63 10 -125 29q-53 16 -109.5 39.5t-99.5 62.5q-39 33 -51 66.5t-9 64.5zM686 483q4 -43 25.5 -59t56.5 -16t57.5 20.5t22.5 54.5 q0 33 -20.5 59.5t-59.5 26.5q-35 0 -60.5 -26.5t-21.5 -59.5z" />
<glyph unicode="&#xe1;" horiz-adv-x="1441" d="M61 461q-4 154 39 278q18 53 49 105.5t78 95.5t113 72.5t156 38.5q115 10 184.5 -13.5t110.5 -56.5q47 -37 67 -90q16 49 47 86q27 33 71 60.5t116 27.5q57 0 100 -22.5t75.5 -59.5t55.5 -84t37 -96q35 -115 39 -260q6 -117 -4.5 -204t-29.5 -149.5t-46 -104.5t-55 -67 q-68 -59 -158 -55q-55 -2 -105 19q-41 16 -79.5 56t-49.5 118q-20 -61 -73 -105q-45 -37 -127 -63.5t-217 -10.5q-111 12 -197 66q-37 23 -72.5 57.5t-63.5 86t-44.5 119t-16.5 155.5zM471 1265.5q2 28.5 12 51.5q10 25 31 49q16 20 48 48t69 53.5t77 47t72 31.5 q45 14 79 16.5t57.5 -5t41 -20.5t33.5 -28q16 -16 30.5 -42.5t17.5 -57.5t-9 -64.5t-51 -66.5q-43 -39 -100.5 -62.5t-110.5 -39.5q-61 -18 -123 -29q-33 -8 -63 -4q-27 4 -53.5 16t-43.5 47q-16 31 -14 59.5zM686 483q4 -43 25.5 -59t56.5 -16t57.5 20.5t22.5 54.5 q0 33 -20.5 59.5t-59.5 26.5q-35 0 -60.5 -26.5t-21.5 -59.5z" />
<glyph unicode="&#xe2;" horiz-adv-x="1441" d="M61 461q-4 154 39 278q18 53 49 105.5t78 95.5t113 72.5t156 38.5q115 10 184.5 -13.5t110.5 -56.5q47 -37 67 -90q16 49 47 86q27 33 71 60.5t116 27.5q57 0 100 -22.5t75.5 -59.5t55.5 -84t37 -96q35 -115 39 -260q6 -117 -4.5 -204t-29.5 -149.5t-46 -104.5t-55 -67 q-68 -59 -158 -55q-55 -2 -105 19q-41 16 -79.5 56t-49.5 118q-20 -61 -73 -105q-45 -37 -127 -63.5t-217 -10.5q-111 12 -197 66q-37 23 -72.5 57.5t-63.5 86t-44.5 119t-16.5 155.5zM388 1256.5q-5 48.5 26 84.5q2 2 28.5 33t69.5 66t98.5 64.5t114.5 29.5 q57 0 110.5 -29.5t96.5 -66.5t68.5 -69t27.5 -34q29 -39 20.5 -86t-49.5 -75q-41 -29 -88 -21t-75 49h2l-10 10q-9 10 -24.5 25.5l-34.5 33t-44 29.5q-29 -18 -53.5 -36.5t-40.5 -34.5q-20 -18 -35 -33q-23 -25 -47 -37q-23 -10 -52.5 -10t-64.5 29q-39 30 -44 78.5z M686 483q4 -43 25.5 -59t56.5 -16t57.5 20.5t22.5 54.5q0 33 -20.5 59.5t-59.5 26.5q-35 0 -60.5 -26.5t-21.5 -59.5z" />
<glyph unicode="&#xe3;" horiz-adv-x="1482" d="M61 461q-4 154 39 278q18 53 49 105.5t78 95.5t113 72.5t156 38.5q115 10 184.5 -13.5t110.5 -56.5q47 -37 67 -90q16 49 47 86q27 33 71 60.5t116 27.5q57 0 100 -22.5t75.5 -59.5t55.5 -84t37 -96q35 -115 39 -260q6 -117 -4.5 -204t-29.5 -149.5t-46 -104.5t-55 -67 q-68 -59 -158 -55q-55 -2 -105 19q-41 16 -79.5 56t-49.5 118q-20 -61 -73 -105q-45 -37 -127 -63.5t-217 -10.5q-111 12 -197 66q-37 23 -72.5 57.5t-63.5 86t-44.5 119t-16.5 155.5zM310 1294.5q-3 28.5 7 55.5q37 111 107 163q31 23 71 36.5t92 7t117.5 -36t145.5 -90.5 q2 -2 2 -4.5t2 -4.5q20 59 67.5 93t110.5 14q51 -18 82 -51q27 -29 34 -77t-34 -120q-31 -55 -69.5 -84t-79.5 -39t-83 -4t-81 21q-92 35 -189 114q-18 -70 -52 -97.5t-68 -33.5q-39 -8 -84 6q-27 8 -48.5 28.5t-34 47.5t-15.5 55.5zM686 483q4 -43 25.5 -59t56.5 -16 t57.5 20.5t22.5 54.5q0 33 -20.5 59.5t-59.5 26.5q-35 0 -60.5 -26.5t-21.5 -59.5z" />
<glyph unicode="&#xe4;" horiz-adv-x="1441" d="M61 461q-4 154 39 278q18 53 49 105.5t78 95.5t113 72.5t156 38.5q115 10 184.5 -13.5t110.5 -56.5q47 -37 67 -90q16 49 47 86q27 33 71 60.5t116 27.5q57 0 100 -22.5t75.5 -59.5t55.5 -84t37 -96q35 -115 39 -260q6 -117 -4.5 -204t-29.5 -149.5t-46 -104.5t-55 -67 q-68 -59 -158 -55q-55 -2 -105 19q-41 16 -79.5 56t-49.5 118q-20 -61 -73 -105q-45 -37 -127 -63.5t-217 -10.5q-111 12 -197 66q-37 23 -72.5 57.5t-63.5 86t-44.5 119t-16.5 155.5zM389 1286q0 66 40 112t118 46t118 -46t40 -112t-40 -113t-118 -47t-118 47t-40 113z M686 483q4 -43 25.5 -59t56.5 -16t57.5 20.5t22.5 54.5q0 33 -20.5 59.5t-59.5 26.5q-35 0 -60.5 -26.5t-21.5 -59.5zM764 1286q0 66 40 112t118 46t117.5 -46t39.5 -112t-40 -113t-117 -47q-78 0 -118 47t-40 113z" />
<glyph unicode="&#xe5;" horiz-adv-x="1441" d="M61 461q-4 154 39 278q18 53 49 105.5t78 95.5t113 72.5t156 38.5q115 10 184.5 -13.5t110.5 -56.5q47 -37 67 -90q16 49 47 86q27 33 71 60.5t116 27.5q57 0 100 -22.5t75.5 -59.5t55.5 -84t37 -96q35 -115 39 -260q6 -117 -4.5 -204t-29.5 -149.5t-46 -104.5t-55 -67 q-68 -59 -158 -55q-55 -2 -105 19q-41 16 -79.5 56t-49.5 118q-20 -61 -73 -105q-45 -37 -127 -63.5t-217 -10.5q-111 12 -197 66q-37 23 -72.5 57.5t-63.5 86t-44.5 119t-16.5 155.5zM508 1331q0 49 19.5 91t54 75t80 51.5t98.5 18.5q51 0 97 -18.5t80 -51.5t53.5 -75 t19.5 -91t-19.5 -92t-53.5 -74.5t-80 -50t-97 -18.5q-53 0 -98.5 18.5t-80 50t-54 74.5t-19.5 92zM651 1327q0 -18 4 -36.5t16.5 -34t33 -24.5t55.5 -9q59 0 81.5 34.5t22.5 69.5q0 45 -25.5 78t-78.5 33q-47 0 -78 -32t-31 -79zM686 483q4 -43 25.5 -59t56.5 -16t57.5 20.5 t22.5 54.5q0 33 -20.5 59.5t-59.5 26.5q-35 0 -60.5 -26.5t-21.5 -59.5z" />
<glyph unicode="&#xe6;" horiz-adv-x="2195" d="M80 485q-4 154 39 279q18 53 49 105.5t78 95.5t112.5 72.5t155.5 37.5q115 10 184.5 -13.5t110.5 -55.5q47 -37 68 -91q16 49 47 86q27 33 70.5 61t115.5 28q59 0 102 -23t76 -59q20 12 42 22t46 19q104 31 213 32q45 0 97.5 -5t104.5 -20.5t105.5 -44t102.5 -71.5 q33 -33 57 -74q23 -37 39 -89t19 -124q0 -80 -36 -131t-94.5 -77.5t-131 -31.5t-144.5 9q59 -47 124.5 -58.5t122 -19.5t96.5 -30.5t50 -94.5q2 -41 -10 -80q-12 -35 -42 -70.5t-93 -60.5q-90 -29 -195 -37q-90 -8 -204.5 3.5t-239.5 62.5l-8 4l-9 4q-4 2 -10 6 q-31 -29 -60.5 -42t-51.5 -17q-27 -6 -54 -4q-55 -2 -104 18q-41 16 -80 56t-49 118q-20 -61 -74 -104q-45 -37 -127 -63.5t-217 -10.5q-111 12 -197 66q-37 23 -72.5 57.5t-63 85.5t-44 118.5t-16.5 155.5zM694 485q0 -37 22.5 -55t53.5 -18q33 0 55.5 18.5t22.5 54.5 q0 41 -22.5 63.5t-55.5 22.5q-31 0 -53.5 -22.5t-22.5 -63.5zM1587 598q0 -33 17.5 -46t46.5 -13t47 15t18 44q0 27 -15 44t-50 17t-49.5 -17t-14.5 -44z" />
<glyph unicode="&#xe7;" horiz-adv-x="1167" d="M51 526q2 119 41 224q16 45 43 90t66 87t93 75.5t126 56.5q100 29 205 31q88 2 191.5 -25t193.5 -109q27 -27 43 -63q14 -33 19 -80t-17 -106q-20 -45 -60 -76q-35 -27 -91 -43.5t-144 0.5q-41 12 -72 10q-29 -2 -50.5 -16.5t-21.5 -53.5q2 -29 19 -45q14 -14 43 -19 t84 17q59 23 117 23q49 -2 104 -26.5t100 -96.5q25 -53 25 -107q0 -47 -24.5 -104t-102.5 -113q-41 -27 -94 -49q-47 -18 -112.5 -34.5t-147.5 -14.5v-29q41 0 90 -10t90 -39q72 -49 72 -174q0 -59 -20.5 -101t-53.5 -69q-35 -29 -78 -40t-84 -13q-47 -4 -96 4 q-39 0 -66.5 29.5t-23.5 72.5q4 35 25.5 56.5t66.5 17.5q37 -6 65 -2q25 2 46.5 11.5t21.5 31.5q0 39 -42 50.5t-122 11.5q-31 2 -53.5 9t-22.5 56v154l-62 20q-32 10 -67 27q-74 37 -131 104q-49 57 -90 152.5t-41 236.5z" />
<glyph unicode="&#xe8;" horiz-adv-x="1196" d="M76 535q6 111 43 210q16 43 40.5 87.5t60.5 85t84 75.5t112 58q104 31 213 32q45 0 97 -5t104.5 -20.5t105.5 -44t102 -71.5q33 -33 58 -74q23 -37 39 -89t18 -124q0 -80 -36 -131t-94 -77.5t-131 -31.5t-144 9q59 -47 124.5 -58.5t122 -19.5t96 -30.5t50.5 -94.5 q2 -41 -11 -80q-12 -35 -41.5 -70.5t-93.5 -60.5q-90 -29 -194 -37q-90 -8 -205 3.5t-240 62.5q-82 37 -145 104q-27 29 -52.5 67t-45 86t-30.5 107.5t-7 131.5zM312 1411q3 31 17.5 57.5t30.5 42.5q14 14 33 27.5t42.5 21t56 5.5t79.5 -17q33 -10 73 -31.5t77 -47t68.5 -53 t48.5 -48.5q18 -25 28 -49q10 -23 13.5 -51.5t-13.5 -59.5q-16 -35 -42.5 -47t-53.5 -16q-31 -4 -63 4q-63 10 -125 29q-53 16 -109.5 39.5t-99.5 62.5q-39 33 -51.5 66.5t-9.5 64.5zM612 598q4 -43 25.5 -59.5t56.5 -16.5t57.5 20.5t22.5 55.5q0 33 -20.5 59.5t-59.5 26.5 q-35 0 -60.5 -26.5t-21.5 -59.5z" />
<glyph unicode="&#xe9;" horiz-adv-x="1196" d="M76 535q6 111 43 210q16 43 40.5 87.5t60.5 85t84 75.5t112 58q104 31 213 32q45 0 97 -5t104.5 -20.5t105.5 -44t102 -71.5q33 -33 58 -74q23 -37 39 -89t18 -124q0 -80 -36 -131t-94 -77.5t-131 -31.5t-144 9q59 -47 124.5 -58.5t122 -19.5t96 -30.5t50.5 -94.5 q2 -41 -11 -80q-12 -35 -41.5 -70.5t-93.5 -60.5q-90 -29 -194 -37q-90 -8 -205 3.5t-240 62.5q-82 37 -145 104q-27 29 -52.5 67t-45 86t-30.5 107.5t-7 131.5zM321.5 1265.5q2.5 28.5 12.5 51.5q10 25 31 49q16 20 47.5 48t68.5 53.5t77 47t73 31.5q45 14 78.5 16.5 t57.5 -5t41 -20.5t34 -28q16 -16 30.5 -42.5t17.5 -57.5t-9.5 -64.5t-51.5 -66.5q-43 -39 -100 -62.5t-111 -39.5q-61 -18 -122 -29q-33 -8 -64 -4q-27 4 -53.5 16t-42.5 47q-17 31 -14.5 59.5zM612 598q4 -43 25.5 -59.5t56.5 -16.5t57.5 20.5t22.5 55.5q0 33 -20.5 59.5 t-59.5 26.5q-35 0 -60.5 -26.5t-21.5 -59.5z" />
<glyph unicode="&#xea;" horiz-adv-x="1196" d="M76 535q6 111 43 210q16 43 40.5 87.5t60.5 85t84 75.5t112 58q104 31 213 32q45 0 97 -5t104.5 -20.5t105.5 -44t102 -71.5q33 -33 58 -74q23 -37 39 -89t18 -124q0 -80 -36 -131t-94 -77.5t-131 -31.5t-144 9q59 -47 124.5 -58.5t122 -19.5t96 -30.5t50.5 -94.5 q2 -41 -11 -80q-12 -35 -41.5 -70.5t-93.5 -60.5q-90 -29 -194 -37q-90 -8 -205 3.5t-240 62.5q-82 37 -145 104q-27 29 -52.5 67t-45 86t-30.5 107.5t-7 131.5zM300 1256.5q-5 48.5 26 84.5q2 2 28.5 33t69.5 66t98.5 64.5t114.5 29.5q57 0 110.5 -29.5t96.5 -66.5 t68.5 -69t27.5 -34q29 -39 20.5 -86t-49.5 -75q-41 -29 -88 -21t-75 49h2l-10 10q-9 10 -24.5 25.5l-34.5 33t-44 29.5q-29 -18 -53.5 -36.5t-40.5 -34.5q-20 -18 -35 -33q-23 -25 -47 -37q-23 -10 -52.5 -10t-64.5 29q-39 30 -44 78.5zM612 598q4 -43 25.5 -59.5 t56.5 -16.5t57.5 20.5t22.5 55.5q0 33 -20.5 59.5t-59.5 26.5q-35 0 -60.5 -26.5t-21.5 -59.5z" />
<glyph unicode="&#xeb;" horiz-adv-x="1196" d="M76 535q-4 -72 7 -131.5t30.5 -107.5t45 -86t52.5 -67q63 -68 145 -104q125 -51 240 -62.5t205 -3.5q104 8 194 37q63 25 93 60.5t42 70.5q12 39 11 80q-10 72 -50 94.5t-96.5 30.5t-122 19.5t-124.5 58.5q72 -14 144.5 -9t130.5 31.5t94 77.5t36 131q-2 72 -18.5 124 t-38.5 89q-25 41 -58 74q-49 43 -102 71.5t-105.5 44t-104.5 20.5t-97 5q-109 -2 -213 -32q-63 -23 -111.5 -58t-84.5 -75.5t-60.5 -85t-40.5 -87.5q-37 -99 -43 -210zM279 1286q0 66 39.5 112t117.5 46t118 -46t40 -112t-40 -113t-118 -47t-117.5 47t-39.5 113zM612 598 q-4 33 21.5 59.5t60.5 26.5q39 0 59.5 -26.5t20.5 -59.5q0 -35 -22.5 -55.5t-57.5 -20.5t-56.5 16.5t-25.5 59.5zM653 1286q0 66 40 112t118 46t118 -46t40 -112t-40 -113t-118 -47t-118 47t-40 113z" />
<glyph unicode="&#xec;" horiz-adv-x="796" d="M79 388q-7 118 3 216q10 113 37 223q27 94 75 143.5t95 71.5q55 25 119 27q96 4 154.5 -33t92.5 -84q39 -55 58 -127q14 -68 22 -157q6 -78 3 -190.5t-27 -260.5q-16 -92 -62.5 -141t-97.5 -72q-59 -25 -129 -27q-88 -4 -144.5 24t-91.5 62q-39 39 -59 95 q-41 112 -48 230zM118 1411q3 31 17.5 57.5t30.5 42.5q14 14 32.5 27.5t42 21t56.5 5.5t80 -17q33 -10 72.5 -31.5t76.5 -47t69 -53t48 -48.5q18 -25 29 -49q10 -23 13 -51.5t-13 -59.5q-16 -35 -43 -47t-54 -16q-31 -4 -63 4q-63 10 -125 29q-53 16 -109.5 39.5t-99.5 62.5 q-39 33 -51 66.5t-9 64.5z" />
<glyph unicode="&#xed;" horiz-adv-x="796" d="M79 388q-7 118 3 216q10 113 37 223q27 94 75 143.5t95 71.5q55 25 119 27q96 4 154.5 -33t92.5 -84q39 -55 58 -127q14 -68 22 -157q6 -78 3 -190.5t-27 -260.5q-16 -92 -62.5 -141t-97.5 -72q-59 -25 -129 -27q-88 -4 -144.5 24t-91.5 62q-39 39 -59 95 q-41 112 -48 230zM135 1265.5q2 28.5 12 51.5q10 25 31 49q16 20 48 48t69 53.5t77 47t72 31.5q45 14 79 16.5t57.5 -5t41 -20.5t33.5 -28q16 -16 30.5 -42.5t18 -57.5t-9 -64.5t-51.5 -66.5q-43 -39 -100.5 -62.5t-110.5 -39.5q-61 -18 -123 -29q-33 -8 -63 -4 q-27 4 -53.5 16t-42.5 47q-17 31 -15 59.5z" />
<glyph unicode="&#xee;" horiz-adv-x="796" d="M58 1252q-5 48 26 85q2 2 28.5 33t69.5 65.5t98.5 64.5t114.5 30q57 0 110.5 -30t96.5 -66.5t68.5 -68.5t27.5 -34q29 -39 21 -86t-49 -76t-88 -20.5t-76 49.5h2l-9 10q-9 10 -24.5 25.5t-35 33t-44.5 29.5q-29 -18 -53.5 -36.5t-40.5 -34.5q-20 -18 -35 -33 q-23 -25 -47 -37q-23 -10 -52.5 -10t-64.5 29q-39 30 -44 78zM79 388q-7 118 3 216q10 113 37 223q27 94 75 143.5t95 71.5q55 25 119 27q96 4 154.5 -33t92.5 -84q39 -55 58 -127q14 -68 22 -157q6 -78 3 -190.5t-27 -260.5q-16 -92 -62.5 -141t-97.5 -72q-59 -25 -129 -27 q-88 -4 -144.5 24t-91.5 62q-39 39 -59 95q-41 112 -48 230z" />
<glyph unicode="&#xef;" horiz-adv-x="892" d="M89 388q-7 118 3 216q10 113 37 223q27 94 75 143.5t95 71.5q55 25 119 27q96 4 154.5 -33t93.5 -84q39 -55 57 -127q14 -68 22 -157q6 -78 3 -190.5t-27 -260.5q-16 -92 -62.5 -141t-97.5 -72q-59 -25 -129 -27q-88 -4 -144.5 24t-90.5 62q-39 39 -60 95 q-41 112 -48 230zM92 1286q0 66 40 112t118 46t118 -46t40 -112t-40 -113t-118 -47t-118 47t-40 113zM467 1286q0 66 40 112t118 46t117.5 -46t39.5 -112t-40 -113t-117 -47q-78 0 -118 47t-40 113z" />
<glyph unicode="&#xf0;" horiz-adv-x="1681" d="M38 474q-5 77 7 157t45 154.5t94 132.5q94 88 197.5 116.5t191.5 28.5q102 -2 201 -31l-4 25q-4 20 -6 61q-35 2 -66.5 3t-62.5 5q-72 4 -111 27t-55 47q-20 29 -23 64q-4 39 17 71q16 29 56 54.5t122 35.5q41 4 81 7.5t81 7.5q29 61 81 102t140 41q98 0 160.5 -43 t99.5 -102q41 -4 74 -5t55 -3q27 -2 49 -5q72 -8 110 -29.5t54 -45.5q20 -29 21 -62q2 -37 -13 -67q-12 -27 -41.5 -50.5t-91.5 -33.5q-29 -4 -62.5 -7.5t-72.5 -5.5q2 -49 6 -122.5t2 -161.5t-13 -182.5t-38 -186.5q-16 -68 -42 -123t-62.5 -101t-87 -85t-117.5 -78 q-80 -41 -176.5 -63.5t-195.5 -26.5t-193.5 12.5t-167.5 54.5q-49 29 -93 68q-37 35 -74.5 85t-54.5 120q-16 63 -21 140zM649 475q4 -43 25.5 -59.5t56.5 -16.5t57.5 20.5t22.5 55.5q0 33 -20.5 59.5t-59.5 26.5q-35 0 -60.5 -26.5t-21.5 -59.5z" />
<glyph unicode="&#xf1;" horiz-adv-x="1466" d="M74 543q2 -86 10 -148q8 -72 22 -127q16 -80 56 -143q16 -27 39.5 -52.5t54.5 -46t71 -31.5t91 -11q106 2 166.5 45t91.5 94q37 59 47 135q2 33 4 78q2 39 1 94t-7 131q20 0 32.5 -46t22.5 -99q8 -63 17 -144q4 -82 31.5 -135t66.5 -85t83 -45t82 -17t62 -2l25 2 q61 10 105 36.5t77 62.5t52.5 78t31.5 85q27 98 23 219q-12 158 -49 260.5t-89.5 162.5t-116 86t-126.5 28q-152 6 -336 -95q-14 25 -33.5 52.5t-56.5 51t-95.5 38t-148.5 8.5q-51 -4 -91 -19.5t-71 -39t-53.5 -52t-36.5 -57.5q-37 -70 -47 -156q-10 -110 -8 -196z M318.5 1294.5q-3.5 28.5 7.5 55.5q37 111 106 163q31 23 71 36.5t92 7t117.5 -36t145.5 -90.5q2 -2 2 -4.5t2 -4.5q20 59 67.5 93t110.5 14q51 -18 82 -51q27 -29 34 -77t-34 -120q-31 -55 -69.5 -84t-79.5 -39t-83 -4t-81 21q-92 35 -188 114q-18 -70 -52 -97.5t-69 -33.5 q-39 -8 -84 6q-27 8 -48.5 28.5t-33.5 47.5t-15.5 55.5z" />
<glyph unicode="&#xf2;" horiz-adv-x="1222" d="M66 481q0 119 25.5 206t67.5 149.5t96 103.5t110 66q131 57 299 51q98 0 173.5 -22.5t132 -59.5t94.5 -83t62 -95q57 -113 66 -258q0 -96 -17.5 -170t-46.5 -131q-33 -59 -76.5 -103.5t-84.5 -73.5q-47 -35 -97 -55q-41 -16 -78.5 -25.5t-66.5 -13.5q-35 -6 -61 -6 q-113 0 -198 22.5t-148.5 58.5t-107.5 83t-71 96q-67 113 -73 260zM316 1411q3 31 17.5 57.5t31.5 42.5q14 14 32.5 27.5t42 21t56 5.5t79.5 -17q33 -10 73 -31.5t77 -47t68.5 -53t48.5 -48.5q18 -25 28 -49q10 -23 13.5 -51.5t-13.5 -59.5q-16 -35 -42.5 -47t-53.5 -16 q-31 -4 -63 4q-63 10 -125 29q-53 16 -109.5 39.5t-99.5 62.5q-39 33 -51.5 66.5t-9.5 64.5zM569 475q4 -43 25.5 -59.5t56.5 -16.5t57.5 20.5t22.5 55.5q0 33 -20.5 59.5t-59.5 26.5q-35 0 -60.5 -26.5t-21.5 -59.5z" />
<glyph unicode="&#xf3;" horiz-adv-x="1222" d="M66 481q0 119 25.5 206t67.5 149.5t96 103.5t110 66q131 57 299 51q98 0 173.5 -22.5t132 -59.5t94.5 -83t62 -95q57 -113 66 -258q0 -96 -17.5 -170t-46.5 -131q-33 -59 -76.5 -103.5t-84.5 -73.5q-47 -35 -97 -55q-41 -16 -78.5 -25.5t-66.5 -13.5q-35 -6 -61 -6 q-113 0 -198 22.5t-148.5 58.5t-107.5 83t-71 96q-67 113 -73 260zM328 1265.5q2 28.5 12 51.5q10 25 31 49q16 20 48 48t68.5 53.5t76.5 47t73 31.5q45 14 79 16.5t57.5 -5t40.5 -20.5t34 -28q16 -16 30.5 -42.5t17.5 -57.5t-9.5 -64.5t-50.5 -66.5q-43 -39 -100.5 -62.5 t-110.5 -39.5q-61 -18 -123 -29q-33 -8 -64 -4q-27 4 -53.5 16t-42.5 47q-16 31 -14 59.5zM569 475q4 -43 25.5 -59.5t56.5 -16.5t57.5 20.5t22.5 55.5q0 33 -20.5 59.5t-59.5 26.5q-35 0 -60.5 -26.5t-21.5 -59.5z" />
<glyph unicode="&#xf4;" horiz-adv-x="1222" d="M66 481q0 119 25.5 206t67.5 149.5t96 103.5t110 66q131 57 299 51q98 0 173.5 -22.5t132 -59.5t94.5 -83t62 -95q57 -113 66 -258q0 -96 -17.5 -170t-46.5 -131q-33 -59 -76.5 -103.5t-84.5 -73.5q-47 -35 -97 -55q-41 -16 -78.5 -25.5t-66.5 -13.5q-35 -6 -61 -6 q-113 0 -198 22.5t-148.5 58.5t-107.5 83t-71 96q-67 113 -73 260zM294 1273q-5 48 25 85q2 2 29 32.5t70 65.5t98 64.5t115 29.5q57 0 110.5 -29.5t96.5 -66.5t68.5 -68.5t27.5 -33.5q29 -39 20.5 -86t-49.5 -76t-88 -20.5t-76 49.5h2l-9 10q-9 10 -24.5 25.5t-35 33 t-43.5 29.5q-29 -18 -53.5 -36.5t-40.5 -35.5q-20 -18 -35 -33q-23 -25 -47 -36q-23 -10 -52.5 -10.5t-64.5 28.5q-39 31 -44 79zM569 475q4 -43 25.5 -59.5t56.5 -16.5t57.5 20.5t22.5 55.5q0 33 -20.5 59.5t-59.5 26.5q-35 0 -60.5 -26.5t-21.5 -59.5z" />
<glyph unicode="&#xf5;" horiz-adv-x="1222" d="M66 481q6 -147 73 -260q27 -49 71 -96t107.5 -83t148.5 -58.5t198 -22.5q27 0 61 6q29 4 66.5 13.5t78.5 25.5q49 20 97 55q41 29 85 73t76 104q29 57 46.5 130.5t17.5 170.5q-8 145 -66 258q-25 49 -62.5 95t-94 83t-132 59.5t-173.5 22.5q-168 6 -299 -51 q-55 -25 -109.5 -66t-96.5 -103.5t-67.5 -149.5t-25.5 -206zM220 1294.5q-3 28.5 7 55.5q37 111 107 163q31 23 70.5 36.5t92 7t118 -36t145.5 -90.5q2 -2 2 -4.5t2 -4.5q20 59 67.5 93t110.5 14q51 -18 82 -51q27 -29 34 -77t-34 -120q-31 -55 -70 -84t-79.5 -39t-82.5 -4 t-81 21q-92 35 -189 114q-18 -70 -52 -97.5t-69 -33.5q-39 -8 -84 6q-27 8 -48 28.5t-33.5 47.5t-15.5 55.5zM569 475q-4 33 21.5 59.5t60.5 26.5q39 0 59.5 -26.5t20.5 -59.5q0 -35 -22.5 -55.5t-57.5 -20.5t-56.5 16.5t-25.5 59.5z" />
<glyph unicode="&#xf6;" horiz-adv-x="1222" d="M66 481q6 -147 73 -260q27 -49 71 -96t107.5 -83t148.5 -58.5t198 -22.5q27 0 61 6q29 4 66.5 13.5t78.5 25.5q49 20 97 55q41 29 85 73t76 104q29 57 46.5 130.5t17.5 170.5q-8 145 -66 258q-25 49 -62.5 95t-94 83t-132 59.5t-173.5 22.5q-168 6 -299 -51 q-55 -25 -109.5 -66t-96.5 -103.5t-67.5 -149.5t-25.5 -206zM268 1300q0 66 40 112t118 46t118 -46t40 -112t-40 -112.5t-118 -46.5t-118 46.5t-40 112.5zM569 475q-4 33 21.5 59.5t60.5 26.5q39 0 59.5 -26.5t20.5 -59.5q0 -35 -22.5 -55.5t-57.5 -20.5t-56.5 16.5 t-25.5 59.5zM643 1300q0 66 40 112t118 46t117.5 -46t39.5 -112t-39.5 -112.5t-117.5 -46.5t-118 46.5t-40 112.5z" />
<glyph unicode="&#xf7;" horiz-adv-x="1175" d="M53 750q4 -51 27 -95q20 -37 64 -71.5t130 -44.5q86 -12 165 -18.5t157 -5.5t159 11.5t171 30.5q78 18 113.5 55t47.5 76q14 43 9 94q-4 45 -27 86q-20 35 -64 70t-124 55q-86 14 -185 21q-86 4 -194.5 1t-229.5 -26q-94 -20 -140 -59t-62 -80q-23 -47 -17 -100zM369 242 q0 84 51 142t149 58t149.5 -58t51.5 -142q0 -86 -51 -143.5t-150 -57.5q-98 0 -149 57.5t-51 143.5zM369 1300q0 84 51 142.5t149 58.5t149.5 -58.5t51.5 -142.5q0 -86 -51 -143t-150 -57q-98 0 -149 57t-51 143z" />
<glyph unicode="&#xf8;" horiz-adv-x="1200" d="M39 485q0 119 25.5 206t67.5 149.5t96.5 103.5t109.5 66q131 57 299 51h18l37 64q16 30 31 53q39 61 82 82.5t80 23.5q43 2 84 -16q35 -10 57 -37q18 -23 26.5 -67t-14.5 -115l-19 -57l-20 -56q61 -59 95 -127t51 -127q18 -70 20 -139q0 -96 -17.5 -170t-45.5 -131 q-33 -59 -77 -103.5t-85 -72.5q-47 -35 -96 -56q-41 -16 -79 -25.5t-67 -13.5q-35 -6 -61 -6h-31q-14 0 -31 2q-16 -31 -28 -56.5t-23 -41.5l-18 -35q-31 -53 -67 -71.5t-66 -22.5q-37 -4 -70 8q-37 12 -59 39q-23 23 -35 61.5t0 102.5l14 59q8 33 21 70q-78 57 -120 128 t-61 132q-22 71 -24 145zM539 475q4 -43 25.5 -59.5t56.5 -16.5t57 20.5t22 55.5q0 33 -20.5 59.5t-58.5 26.5q-35 0 -60.5 -26.5t-21.5 -59.5z" />
<glyph unicode="&#xf9;" horiz-adv-x="1392" d="M86 594q0 115 23 231q23 100 73.5 149.5t104.5 65.5q61 20 133 13q59 -8 106 -39q41 -27 75 -80t38 -148q0 -35 1 -77.5t6 -79.5t18.5 -62.5t40.5 -25.5q47 0 54 58t9 187q0 100 37 155.5t80 80.5q51 29 116 33q102 4 161 -30t91 -77q37 -51 52 -117q23 -109 15.5 -207 t-24.5 -175q-20 -90 -53 -170q-39 -90 -108 -160q-31 -31 -70 -59.5t-90 -50t-112.5 -34t-137.5 -10.5q-160 4 -263.5 38t-164.5 73q-72 45 -109 102q-63 92 -83.5 205t-18.5 211zM349 1411q3 31 17.5 57.5t30.5 42.5q14 14 33 27.5t42.5 21t56 5.5t79.5 -17 q33 -10 73 -31.5t77 -47t68.5 -53t47.5 -48.5q18 -25 29 -49q10 -23 13.5 -51.5t-13.5 -59.5q-16 -35 -42.5 -47t-53.5 -16q-31 -4 -64 4q-63 10 -125 29q-53 16 -109 39.5t-99 62.5q-39 33 -51.5 66.5t-9.5 64.5z" />
<glyph unicode="&#xfa;" horiz-adv-x="1392" d="M86 594q0 115 23 231q23 100 73.5 149.5t104.5 65.5q61 20 133 13q59 -8 106 -39q41 -27 75 -80t38 -148q0 -35 1 -77.5t6 -79.5t18.5 -62.5t40.5 -25.5q47 0 54 58t9 187q0 100 37 155.5t80 80.5q51 29 116 33q102 4 161 -30t91 -77q37 -51 52 -117q23 -109 15.5 -207 t-24.5 -175q-20 -90 -53 -170q-39 -90 -108 -160q-31 -31 -70 -59.5t-90 -50t-112.5 -34t-137.5 -10.5q-160 4 -263.5 38t-164.5 73q-72 45 -109 102q-63 92 -83.5 205t-18.5 211zM444 1265.5q2 28.5 13 51.5q10 25 30 49q16 20 48 48t69 53.5t77 47t73 31.5 q45 14 78.5 16.5t57 -5t41 -20.5t34.5 -28q16 -16 30.5 -42.5t17.5 -57.5t-9.5 -64.5t-51.5 -66.5q-43 -39 -100 -62.5t-111 -39.5q-61 -18 -123 -29q-33 -8 -63 -4q-27 4 -53.5 16t-42.5 47q-17 31 -15 59.5z" />
<glyph unicode="&#xfb;" horiz-adv-x="1392" d="M86 594q0 115 23 231q23 100 73.5 149.5t104.5 65.5q61 20 133 13q59 -8 106 -39q41 -27 75 -80t38 -148q0 -35 1 -77.5t6 -79.5t18.5 -62.5t40.5 -25.5q47 0 54 58t9 187q0 100 37 155.5t80 80.5q51 29 116 33q102 4 161 -30t91 -77q37 -51 52 -117q23 -109 15.5 -207 t-24.5 -175q-20 -90 -53 -170q-39 -90 -108 -160q-31 -31 -70 -59.5t-90 -50t-112.5 -34t-137.5 -10.5q-160 4 -263.5 38t-164.5 73q-72 45 -109 102q-63 92 -83.5 205t-18.5 211zM355 1299.5q-5 48.5 26 84.5q2 2 28.5 33t69.5 66t98.5 64.5t114.5 29.5q57 0 110.5 -29.5 t96.5 -66.5t68.5 -69t27.5 -34q29 -39 21 -86t-49 -75q-41 -29 -88.5 -21t-75.5 49h2l-9 10q-9 10 -24.5 25.5t-35 33t-44.5 29.5q-29 -18 -53.5 -36.5t-40.5 -34.5q-20 -18 -35 -33q-23 -25 -47 -37q-23 -10 -52.5 -10t-64.5 29q-39 30 -44 78.5z" />
<glyph unicode="&#xfc;" horiz-adv-x="1392" d="M86 594q-2 -98 18.5 -211t83.5 -205q37 -57 109 -102q61 -39 164.5 -73t263.5 -38q76 -2 137.5 10.5t112.5 34t90 50t70 59.5q70 70 108 160q33 80 53 170q16 78 23.5 176t-14.5 206q-14 66 -52 117q-33 43 -91 77t-161 30q-66 -4 -116 -33q-43 -25 -80 -80t-37 -156 q-2 -129 -9 -187t-54 -58q-27 0 -40.5 25.5t-18.5 62.5t-6 80t-1 77q-4 94 -38 147.5t-75 80.5q-47 31 -106 39q-72 8 -133 -13q-53 -16 -104.5 -65t-73.5 -150q-23 -116 -23 -231zM362 1321q0 66 40 112t118 46t118 -46.5t40 -111.5q0 -66 -40 -113t-118 -47t-118 47 t-40 113zM737 1321q0 66 40 112t118 46t118 -46.5t40 -111.5q0 -66 -40 -113t-118 -47t-118 47t-40 113z" />
<glyph unicode="&#xfd;" horiz-adv-x="1490" d="M41 777q2 38 14.5 77t40 79t74.5 77q66 37 137 41q31 2 66 -4.5t72.5 -24.5t77.5 -50t81 -83q35 -43 64 -85l57 -83l66 112.5t104 131t143 87t183 -17.5q63 -29 100 -96q14 -29 24.5 -69t10.5 -93t-13.5 -121.5t-44.5 -154.5q-59 -160 -119.5 -290t-111.5 -222 q-59 -109 -115 -193q-57 -100 -131 -168q-31 -29 -68.5 -52.5t-81.5 -34.5t-92.5 -7t-101.5 31q-68 33 -98.5 84t-36.5 111.5t7 126t32.5 123t41.5 103.5l34 70q-12 12 -25.5 23.5t-23.5 21.5q-12 10 -23 21q-68 51 -121 104.5t-88 98.5q-41 53 -72 100q-47 76 -59 156 q-6 32 -4 70zM471 1265.5q2 28.5 12 51.5q10 25 31 49q16 20 48 48t69 53.5t77 47t72 31.5q45 14 79 16.5t57.5 -5t41 -20.5t33.5 -28q16 -16 30.5 -42.5t17.5 -57.5t-9 -64.5t-51 -66.5q-43 -39 -100.5 -62.5t-110.5 -39.5q-61 -18 -123 -29q-33 -8 -63 -4q-27 4 -53.5 16 t-43.5 47q-16 31 -14 59.5z" />
<glyph unicode="&#xfe;" horiz-adv-x="1394" d="M49 518q0 139 11.5 271.5t27.5 238.5q18 123 41 236q16 96 55 170q33 63 98.5 113t174.5 46q66 -4 110.5 -30.5t73.5 -67.5t43 -92t18 -105q10 -125 -18 -278q109 31 213 29q45 0 93 -9.5t95.5 -29t92.5 -53t82 -85.5q41 -57 64.5 -132.5t27.5 -155.5t-8.5 -158 t-40.5 -139q-35 -76 -78 -125t-82 -78q-45 -35 -90 -53q-92 -41 -183.5 -38t-181.5 13q4 -27 10.5 -76t6.5 -108.5t-10.5 -121.5t-38 -114.5t-76 -88.5t-123.5 -40q-49 -4 -89 9.5t-73 36t-57.5 52t-42.5 60.5q-43 74 -66 172q-25 92 -45 205q-16 98 -28.5 231t-6.5 295z M711 475q4 -43 25.5 -59.5t56.5 -16.5t57 20.5t22 55.5q0 33 -20.5 59.5t-58.5 26.5q-35 0 -60.5 -26.5t-21.5 -59.5z" />
<glyph unicode="&#xff;" horiz-adv-x="1490" d="M41 777q-2 -38 4 -70q12 -80 59 -156q31 -47 72 -100q35 -45 88 -98.5t121 -104.5q10 -10 23 -21q10 -10 23 -21t26 -24l-34 -70q-22 -46 -41.5 -103.5t-32.5 -123t-7 -126t37 -111.5t98 -84q53 -27 101.5 -31t92.5 7t82 35t68 52q74 68 131 168q55 84 115 193 q51 92 111.5 222t119.5 290q31 86 44.5 154.5t13.5 121.5t-10.5 93t-24.5 69q-37 68 -100 96q-100 45 -182.5 17.5t-143.5 -87t-104 -131l-66 -112.5l-57 83q-29 42 -64 85q-41 51 -81 83t-77.5 50t-72.5 24.5t-66 4.5q-72 -4 -137 -41q-47 -37 -74.5 -77t-40 -79t-14.5 -77 zM371 1286q0 66 40 112t117 46q78 0 118 -46t40 -112t-40 -113t-118 -47t-117.5 47t-39.5 113zM745 1286q0 66 40 112t118 46t118 -46t40 -112t-40 -113t-118 -47t-118 47t-40 113z" />
<glyph unicode="&#x152;" horiz-adv-x="2299" d="M57 678q0 160 32 276.5t84 201.5t117.5 139.5t135.5 86.5q162 76 369 68q123 0 216 -29.5t163 -79.5q72 59 168 90t182 42q100 12 207 10q98 2 171.5 -7.5t127 -26.5t89 -38.5t58.5 -44.5q53 -53 55 -125q0 -61 -19.5 -106t-53 -78t-77.5 -53.5t-89 -32.5 q-109 -29 -246 -25q115 -10 171 -42t81 -66q27 -41 26 -88q0 -68 -31.5 -108t-74.5 -61.5t-85 -28.5t-60 -7q88 2 155.5 -8.5t116.5 -29t82 -43t55 -48.5q49 -61 53 -140q-2 -49 -24.5 -86.5t-57 -66.5t-78.5 -48.5t-89 -31.5q-106 -31 -242 -37q-115 -8 -204 -2 t-158.5 22.5t-120 40t-84.5 52.5q-68 -51 -136.5 -78t-123.5 -39q-66 -14 -123 -16q-139 0 -244 29.5t-182.5 77.5t-131 110.5t-87.5 128.5q-83 151 -93 346zM690 696q4 -43 25.5 -59t56.5 -16t57.5 20.5t22.5 54.5q0 33 -20.5 59.5t-59.5 26.5q-35 0 -60.5 -26.5 t-21.5 -59.5z" />
<glyph unicode="&#x153;" horiz-adv-x="1921" d="M70 494q0 119 25.5 205.5t67.5 149t96 103.5t110 66q131 57 299 51q106 0 185 -25.5t136 -66.5q49 33 105 53q104 31 213 33q45 0 97 -5t104.5 -20.5t105.5 -44t102 -71.5q33 -33 58 -74q23 -37 39 -89t18 -124q0 -80 -36 -131t-94.5 -78t-131 -32t-144.5 9 q59 -47 125 -58t122.5 -19.5t96 -31t50.5 -93.5q2 -41 -11 -80q-12 -35 -41.5 -71t-93.5 -60q-90 -29 -194 -37q-90 -8 -205 3t-240 62q-10 2 -22 11l-24 14q-13 8 -30 20q-18 -12 -33.5 -20t-25.5 -14q-12 -8 -25 -11q-41 -16 -78.5 -25t-66.5 -13q-35 -6 -61 -7 q-113 0 -198 22.5t-148.5 58.5t-107.5 83t-71 96q-67 114 -73 261zM555 496q4 -43 25.5 -59.5t56.5 -16.5t57.5 20.5t22.5 55.5q0 33 -20.5 59.5t-59.5 26.5q-35 0 -60.5 -26.5t-21.5 -59.5zM1309 596q4 -43 25.5 -59.5t56.5 -16.5t57 20.5t22 55.5q0 33 -20 59.5t-59 26.5 q-35 0 -60.5 -26.5t-21.5 -59.5z" />
<glyph unicode="&#x178;" horiz-adv-x="1705" d="M162 1232q-8 -52 2 -120q8 -57 29.5 -107.5t52 -93.5t66.5 -78.5t73 -64.5q86 -68 190 -113q-23 -109 -22 -211q0 -43 4 -91t16.5 -95t34 -90t54.5 -80q25 -27 61 -47q31 -18 79 -32.5t113 -14.5q80 0 139.5 27.5t106.5 93.5q41 66 64 149q18 72 22 174.5t-37 231.5 q86 43 160 106q63 53 124.5 136t88.5 196q16 94 -4 172q-10 33 -27.5 65.5t-48 60.5t-77 48.5t-111.5 28.5q-82 10 -158 -25q-66 -29 -132.5 -105.5t-109.5 -232.5q-35 113 -98 197q-27 37 -62.5 70.5t-81.5 59.5t-103.5 40t-125.5 10q-90 -12 -157 -57q-29 -18 -54.5 -47 t-44 -69t-26.5 -92zM549 1706q0 66 40 112t118 46t117.5 -46t39.5 -112t-40 -113t-117 -47q-78 0 -118 47t-40 113zM924 1706q0 66 40 112t117 46q78 0 118 -46t40 -112t-40 -113t-118 -47t-117.5 47t-39.5 113z" />
<glyph unicode="&#x2c6;" horiz-adv-x="804" d="M68.5 1256.5q-5.5 48.5 25.5 84.5q2 2 29 33t70 66t98 64.5t115 29.5q57 0 110 -29.5t96 -66.5t69 -69t28 -34q29 -39 20.5 -86t-49.5 -75q-41 -29 -88 -21t-76 49h2l-9 10q-9 10 -24.5 25.5t-35 33t-43.5 29.5q-29 -18 -53.5 -36.5t-41.5 -34.5q-20 -18 -35 -33 q-23 -25 -47 -37q-23 -10 -52.5 -10t-63.5 29q-39 30 -44.5 78.5z" />
<glyph unicode="&#x2dc;" horiz-adv-x="1044" d="M97 1302.5q-3 28.5 7 55.5q37 111 107 164q31 23 71 36t92 7t117.5 -36t145.5 -91q2 -2 2 -4t2 -4q20 59 67.5 92.5t110.5 13.5q51 -18 82 -51q27 -29 34 -77t-34 -120q-31 -55 -69.5 -83.5t-79.5 -39t-83 -4.5t-81 21q-92 35 -189 114q-18 -70 -52 -97.5t-68 -33.5 q-39 -8 -84 6q-27 8 -48.5 29t-34 47.5t-15.5 55z" />
<glyph unicode="&#x2000;" horiz-adv-x="976" />
<glyph unicode="&#x2001;" horiz-adv-x="1955" />
<glyph unicode="&#x2002;" horiz-adv-x="976" />
<glyph unicode="&#x2003;" horiz-adv-x="1955" />
<glyph unicode="&#x2004;" horiz-adv-x="651" />
<glyph unicode="&#x2005;" horiz-adv-x="487" />
<glyph unicode="&#x2006;" horiz-adv-x="325" />
<glyph unicode="&#x2007;" horiz-adv-x="325" />
<glyph unicode="&#x2008;" horiz-adv-x="243" />
<glyph unicode="&#x2009;" horiz-adv-x="391" />
<glyph unicode="&#x200a;" horiz-adv-x="108" />
<glyph unicode="&#x2010;" horiz-adv-x="1077" d="M98 586q-4 53 15 100q16 41 54 80t120 57q104 23 198.5 26t165.5 -1q84 -6 158 -21q70 -18 108.5 -53t55.5 -69q20 -41 22 -87q4 -51 -8 -94q-10 -39 -42 -75.5t-97 -55.5q-152 -41 -283 -41t-276 23q-72 10 -112 45t-56 72q-23 43 -23 94z" />
<glyph unicode="&#x2011;" horiz-adv-x="1077" d="M98 586q-4 53 15 100q16 41 54 80t120 57q104 23 198.5 26t165.5 -1q84 -6 158 -21q70 -18 108.5 -53t55.5 -69q20 -41 22 -87q4 -51 -8 -94q-10 -39 -42 -75.5t-97 -55.5q-152 -41 -283 -41t-276 23q-72 10 -112 45t-56 72q-23 43 -23 94z" />
<glyph unicode="&#x2012;" horiz-adv-x="1077" d="M98 586q-4 53 15 100q16 41 54 80t120 57q104 23 198.5 26t165.5 -1q84 -6 158 -21q70 -18 108.5 -53t55.5 -69q20 -41 22 -87q4 -51 -8 -94q-10 -39 -42 -75.5t-97 -55.5q-152 -41 -283 -41t-276 23q-72 10 -112 45t-56 72q-23 43 -23 94z" />
<glyph unicode="&#x2013;" horiz-adv-x="1185" d="M123 586q-4 53 14 100q16 41 54 80t120 57q104 23 198.5 29t166.5 2q84 -4 158 -16q70 -18 108.5 -53t54.5 -70q20 -41 23 -86q4 -47 -8 -88q-10 -35 -42 -72t-98 -59q-150 -49 -281.5 -53.5t-277.5 18.5q-72 10 -111.5 45t-56.5 72q-22 43 -22 94z" />
<glyph unicode="&#x2014;" horiz-adv-x="1705" d="M123 586q-4 53 14 100q16 41 54 79t120 58q129 31 265.5 36t250.5 1q133 -6 260 -22q70 -16 109 -50t55 -69q20 -41 23 -90q2 -49 -12 -94q-12 -39 -44 -77t-98 -61q-74 -25 -175 -38t-210.5 -16t-219 5t-202.5 27q-72 14 -109.5 50t-56.5 71q-22 41 -24 90z" />
<glyph unicode="&#x2018;" horiz-adv-x="583" d="M72 1073q-4 82 5 141.5t26.5 101.5t42 67.5t49.5 41.5q59 37 139 27q23 -4 33 -14.5t12 -20.5q2 -12 -2 -28q-8 -23 -25 -29q-8 -4 -18 -4q-27 0 -28 -18.5t1 -37.5q98 -6 148.5 -67.5t50.5 -149.5q0 -90 -55.5 -152.5t-159.5 -62.5t-159.5 59.5t-59.5 145.5z" />
<glyph unicode="&#x2019;" horiz-adv-x="606" d="M78 1266q0 90 55 152.5t160 62.5q104 0 159.5 -59.5t59.5 -145.5q4 -82 -5 -141.5t-26.5 -101.5t-42 -68.5t-49.5 -40.5q-59 -37 -139 -27q-25 4 -34 14.5t-11 20.5q-2 12 2 29q6 20 24 28q8 4 19 4q27 0 28 18.5t-2 37.5q-98 6 -148 67.5t-50 149.5z" />
<glyph unicode="&#x201a;" horiz-adv-x="606" d="M78 201q0 90 55 152.5t160 62.5q104 0 159.5 -59.5t59.5 -145.5q4 -82 -5 -141.5t-26.5 -101.5t-42 -68.5t-49.5 -40.5q-59 -37 -139 -27q-25 4 -34 14.5t-11 20.5q-2 12 2 29q6 20 24 28q8 4 19 4q27 0 28 18.5t-2 37.5q-98 6 -148 67.5t-50 149.5z" />
<glyph unicode="&#x201c;" horiz-adv-x="1107" d="M72 1073q-4 82 5 141.5t26.5 101.5t42 67.5t49.5 41.5q59 37 139 27q23 -4 33 -14.5t12 -20.5q2 -12 -2 -28q-8 -23 -25 -29q-8 -4 -18 -4q-27 0 -28 -18.5t1 -37.5q98 -6 148.5 -67.5t50.5 -149.5q0 -90 -55.5 -152.5t-159.5 -62.5t-159.5 59.5t-59.5 145.5zM573 1073 q-4 82 5.5 141.5t27 101.5t42 67.5t48.5 41.5q59 37 140 27q23 -4 33 -14.5t12 -20.5q2 -12 -2 -28q-8 -23 -25 -29q-8 -4 -18 -4q-27 0 -28 -18.5t1 -37.5q98 -6 148.5 -67.5t50.5 -149.5q0 -90 -55.5 -152.5t-159.5 -62.5t-160 59.5t-60 145.5z" />
<glyph unicode="&#x201d;" horiz-adv-x="1126" d="M88 1266q0 90 55.5 152.5t159.5 62.5t159.5 -59.5t59.5 -145.5q4 -82 -5 -141.5t-26.5 -101.5t-42 -68.5t-49.5 -40.5q-59 -37 -139 -27q-25 4 -34 14.5t-11 20.5q-2 12 2 29q6 20 25 28q8 4 18 4q27 0 28 18.5t-1 37.5q-98 6 -148.5 67.5t-50.5 149.5zM590 1266 q0 90 55 152.5t160 62.5q104 0 159.5 -59.5t59.5 -145.5q4 -82 -5 -141.5t-26.5 -101.5t-42 -68.5t-49.5 -40.5q-59 -37 -139 -27q-25 4 -34 14.5t-11 20.5q-2 12 2 29q6 20 24 28q8 4 19 4q27 0 28 18.5t-2 37.5q-98 6 -148 67.5t-50 149.5z" />
<glyph unicode="&#x201e;" horiz-adv-x="1114" d="M88 193q0 90 55.5 152.5t159.5 62.5t159.5 -59.5t59.5 -145.5q4 -82 -5 -141.5t-26.5 -101.5t-42 -68.5t-49.5 -41.5q-59 -37 -139 -26q-25 4 -34 14t-11 21q-2 12 2 28q6 20 25 29q8 4 18 4q27 0 28 18.5t-1 36.5q-98 6 -148.5 68t-50.5 150zM590 193q0 90 55 152.5 t160 62.5q104 0 159.5 -59.5t59.5 -145.5q4 -82 -5 -141.5t-26.5 -101.5t-42 -68.5t-49.5 -41.5q-59 -37 -139 -26q-25 4 -34 14t-11 21q-2 12 2 28q6 20 24 29q8 4 19 4q27 0 28 18.5t-2 36.5q-98 6 -148 68t-50 150z" />
<glyph unicode="&#x2022;" horiz-adv-x="1107" d="M143 670q0 86 28 160.5t80 132t130 90t178 32.5q102 0 180 -32.5t130.5 -90t79 -132t26.5 -160.5t-26.5 -162t-79 -132.5t-130 -89t-180.5 -32.5q-100 0 -178 32.5t-130 89t-80 132.5t-28 162z" />
<glyph unicode="&#x2026;" horiz-adv-x="2162" d="M1542 238q0 53 17.5 100t50.5 82t81 55.5t109 20.5q63 0 111.5 -20.5t81.5 -55.5t49 -82t16 -100t-16 -100.5t-49 -82.5t-81 -55t-112 -20q-61 0 -109 20t-81 55t-50.5 82.5t-17.5 100.5zM821 238q0 53 17.5 100t50.5 82t81 55.5t109 20.5q63 0 111.5 -20.5t81.5 -55.5 t49 -82t16 -100t-16 -100.5t-49 -82.5t-81 -55t-112 -20q-61 0 -109 20t-81 55t-50.5 82.5t-17.5 100.5zM100 238q0 53 17.5 100t50.5 82t81 55.5t109 20.5q63 0 111.5 -20.5t81.5 -55.5t49 -82t16 -100t-16 -100.5t-49 -82.5t-81 -55t-112 -20q-61 0 -109 20t-81 55 t-50.5 82.5t-17.5 100.5z" />
<glyph unicode="&#x202f;" horiz-adv-x="391" />
<glyph unicode="&#x2039;" horiz-adv-x="921" d="M70 551q0 63 30.5 127.5t77.5 124t102.5 111t102.5 89t80 59t35 23.5q33 25 78 31t90 -3t85 -34.5t66 -66.5q55 -88 31.5 -168t-98.5 -135l-50 -41l-52 -50l-62 -63q45 -45 85 -81l70 -62q37 -31 66 -58q39 -37 55 -84q14 -41 7 -96t-62 -121q-27 -31 -67 -49t-83 -22.5 t-86 6t-73 35.5q-2 2 -35 23.5t-80 58t-102.5 86t-102.5 107.5t-77.5 121.5t-30.5 131.5z" />
<glyph unicode="&#x203a;" horiz-adv-x="964" d="M86 921.5q6 55.5 64 120.5q27 31 66.5 49.5t82.5 22.5t86 -6t74 -35q2 -2 34.5 -23.5t80 -58.5t102.5 -86t102 -107.5t78 -123t31 -129.5q0 -63 -31 -128t-78 -124.5t-102 -110.5t-102.5 -89t-80 -60.5t-34.5 -22.5q-35 -25 -79 -31t-89 3.5t-85 35t-67 66.5 q-55 88 -31.5 168t99.5 135l49 41q23 20 51 49l64 64l-85 80l-71 63q-37 31 -65 57q-39 37 -56 84q-14 41 -8 96.5z" />
<glyph unicode="&#x2044;" horiz-adv-x="876" d="M381 53q-27 -55 -60.5 -77.5t-62.5 -28.5q-37 -8 -72 2t-61 33q-23 20 -40 58t-9 103q8 72 34.5 182.5t63.5 239.5t81 264l87 258l80 224q37 100 61 157q29 68 69 95.5t75 35.5q41 8 86 -4q39 -6 63 -28q23 -20 36 -62.5t3 -115.5q-16 -106 -45 -220t-62.5 -228 t-70.5 -224.5t-74 -208.5q-86 -234 -182 -455z" />
<glyph unicode="&#x205f;" horiz-adv-x="487" />
<glyph unicode="&#x20ac;" horiz-adv-x="1427" d="M45 543q0 66 35 95.5t76 37.5q49 8 110 0q-4 16 -6 35q-2 16 -1 34.5t7 34.5q-61 -8 -110 0q-41 8 -76 37t-35 94q0 66 37 93.5t82 33.5q53 8 119 -6q31 119 106 213q33 39 78 78t105.5 68.5t138 48t174.5 18.5q156 -8 272 -45q49 -16 95 -39.5t80 -57.5t50.5 -80 t6.5 -103q-8 -59 -41 -99q-29 -35 -82.5 -55.5t-145.5 6.5q-86 23 -130 19.5t-64 -17.5q-23 -16 -27 -45q66 -2 117 -14q43 -10 76.5 -35t27.5 -70t-48 -61.5t-89 -20.5q-55 -4 -127 9q-4 -10 -6 -19q-2 -8 -1 -19.5t7 -21.5q72 8 127 2q47 -4 89 -20.5t48 -55.5 q8 -49 -25.5 -75.5t-76.5 -38.5q-51 -14 -119 -17q6 -29 27 -45q16 -14 49 -18t88 18q27 10 67.5 21.5t83.5 11.5t82 -17.5t62 -60.5q33 -68 20.5 -139.5t-65.5 -130.5t-144.5 -99t-212.5 -44q-129 -4 -239.5 14t-197.5 68.5t-147.5 135.5t-90.5 212q-66 -14 -119 -6 q-45 6 -81 35.5t-36 101.5z" />
<glyph unicode="&#x2122;" horiz-adv-x="3528" d="M1568 420q0 166 24 304t52 239q35 117 78 211q53 123 127 183t139 85q68 25 138 25q10 0 20 -1q70 0 124 -19.5t93 -50t65.5 -70.5t43.5 -81q39 -98 43 -221q14 125 61 223q20 41 49 81t68 72t90 51t117 19q100 0 174.5 -49t124.5 -108q57 -68 98 -156q55 -129 85 -257 t44 -232q16 -123 18 -236q0 -13 1 -26q0 -70 -10 -125q-11 -66 -31.5 -113t-48 -79t-58.5 -52q-70 -47 -160 -49q-80 0 -140 27.5t-104.5 73.5t-74 104.5t-47.5 119.5q-45 143 -47 326q-10 -121 -42 -182.5t-67 -85.5q-36 -27 -79 -27h-11q-80 0 -125 46t-68 104 q-27 66 -32 149q0 -125 -15.5 -220t-40 -164t-56.5 -116t-65 -77q-78 -70 -176 -78q-78 0 -134 18.5t-97 48t-67.5 68.5t-43.5 80q-37 96 -37 217zM74 1120q0 102 42 162.5t93 91.5q59 37 135 49q164 35 320 40q60 2 115 2q89 0 165 -5q143 -8 277 -30q94 -20 142 -63.5 t71 -88.5q25 -53 24 -113q-2 -66 -19.5 -112.5t-45 -80.5t-62.5 -54.5t-69 -32.5q-63 -20 -139 -21q-23 0 -48 2q27 -156 30 -275q1 -40 1 -76q0 -72 -4 -128q-8 -98 -27 -168q-20 -98 -66 -145t-94 -70q-55 -25 -118 -24q-6 0 -12 -1q-65 0 -121 21q-53 20 -102.5 69.5 t-72.5 149.5q-23 104 -25 216q-1 37 -1 72q0 70 4 132q8 109 22 211q-29 -2 -56 -2q-83 0 -152 18q-39 10 -76 29.5t-66.5 49.5t-47 73t-17.5 102z" />
<glyph unicode="&#xe000;" horiz-adv-x="1080" d="M0 1080h1080v-1080h-1080v1080z" />
<glyph unicode="&#xfb01;" horiz-adv-x="2109" d="M1398 376q-3 48 -3 93q0 65 6 123q10 113 37 221q25 94 73 142.5t95 70.5q55 25 117 27h19q81 0 133 -32q58 -36 93 -83q39 -53 58 -127q14 -68 22 -158q4 -52 4 -118q0 -33 -1 -71q-3 -112 -27 -257q-16 -92 -63.5 -140.5t-96.5 -70.5q-59 -25 -127 -27q-11 -1 -22 0 q-73 0 -121 24q-55 28 -88 62q-37 39 -60 92q-41 111 -48 229zM1440 1307q-1 9 -1 18q0 35 12 69q15 42 46 75.5t74 56t94 28.5q16 2 32 2q34 0 66 -9q46 -13 82.5 -39.5t61 -65.5t29.5 -84q1 -9 0 -19q0 -35 -12 -69q-15 -43 -44.5 -77t-72.5 -55.5t-95 -27.5 q-17 -2 -33 -2q-35 0 -66 9q-46 13 -83 40t-60.5 65t-29.5 85zM67 901q0 56 28 90q30 37 75 53.5t96 17.5h11q44 0 79 -7q-1 19 -1 38q0 39 5 81q8 53 32 118.5t75 130.5q55 66 137 105q72 35 181 47q25 3 54 3q93 0 214 -32q45 -16 82 -41q31 -23 53 -58q18 -28 18 -67 q0 -11 -2 -22q-2 -37 -18 -66q-14 -25 -42 -44q-25 -18 -70 -17h-9q-29 0 -51 -8q-20 -6 -41 -20.5t-31 -43.5q-4 -10 -6 -26q-5 -23 -5 -58q0 -12 1 -24q69 19 127 19q10 0 20 -1q55 -4 102.5 -36t51.5 -115v-9q0 -78 -37 -112q-39 -37 -88 -49q-33 -8 -73 -9q-28 0 -58 4 q18 -136 18 -253q0 -67 -6 -130q-6 -72 -24.5 -141t-52 -124.5t-86 -90.5t-128.5 -37q-14 -1 -27 0q-113 0 -176 46q-71 52 -103 154.5t-36 248.5q-2 73 -2 154.5t2 172.5q-57 -17 -105 -16q-18 0 -34 2q-27 2 -52.5 12.5t-47 28.5t-34.5 48q-16 35 -16 83z" />
<glyph unicode="&#xfb02;" horiz-adv-x="2119" d="M1379 658q0 128 6 239q6 127 18 250q12 113 49 203q16 37 40 73.5t56.5 65.5t76.5 46t100 17q78 -2 145 -49q27 -20 55.5 -51t52 -78t41 -110.5t23.5 -147.5q12 -164 12 -313.5t-4 -265.5q-6 -137 -18 -256q-10 -90 -47 -158q-16 -29 -40 -57.5t-57.5 -50t-78.5 -33.5 q-39 -11 -87 -11h-16q-53 2 -95 21.5t-75 50.5t-55.5 71t-38.5 81q-37 96 -49 219q-14 116 -14 244zM67 901q0 56 28 90q30 37 75 53.5t96 17.5h11q44 0 79 -7q-1 19 -1 38q0 39 5 81q8 53 32 118.5t75 130.5q55 66 137 105q72 35 181 47q25 3 54 3q93 0 214 -32 q45 -16 82 -41q31 -23 53 -58q18 -28 18 -67q0 -11 -2 -22q-2 -37 -18 -66q-14 -25 -42 -44q-25 -18 -70 -17h-9q-29 0 -51 -8q-20 -6 -41 -20.5t-31 -43.5q-4 -10 -6 -26q-5 -23 -5 -58q0 -12 1 -24q69 19 127 19q10 0 20 -1q55 -4 102.5 -36t51.5 -115v-9q0 -78 -37 -112 q-39 -37 -88 -49q-33 -8 -73 -9q-28 0 -58 4q18 -136 18 -253q0 -67 -6 -130q-6 -72 -24.5 -141t-52 -124.5t-86 -90.5t-128.5 -37q-14 -1 -27 0q-113 0 -176 46q-71 52 -103 154.5t-36 248.5q-2 73 -2 154.5t2 172.5q-57 -17 -105 -16q-18 0 -34 2q-27 2 -52.5 12.5 t-47 28.5t-34.5 48q-16 35 -16 83z" />
<glyph unicode="&#xfb03;" horiz-adv-x="3422" d="M2711 376q-3 48 -3 93q0 65 6 123q10 113 37 221q25 94 73 142.5t95 70.5q55 25 117 27h19q81 0 133 -32q58 -36 93 -83q39 -53 58 -127q14 -68 22 -158q4 -52 4 -118q0 -33 -1 -71q-3 -112 -27 -257q-16 -92 -63.5 -140.5t-96.5 -70.5q-59 -25 -127 -27q-11 -1 -22 0 q-73 0 -121 24q-55 28 -88 62q-37 39 -60 92q-41 111 -48 229zM2753 1307q-1 9 -1 18q0 35 12 69q15 42 46 75.5t74 56t94 28.5q16 2 32 2q34 0 66 -9q46 -13 82.5 -39.5t61 -65.5t29.5 -84q1 -9 0 -19q0 -35 -12 -69q-15 -43 -44.5 -77t-72.5 -55.5t-95 -27.5 q-17 -2 -33 -2q-35 0 -66 9q-46 13 -83 40t-60.5 65t-29.5 85zM1380 901q0 56 28 90q30 37 75 53.5t96 17.5h11q44 0 79 -7q-1 19 -1 38q0 39 5 81q8 53 32 118.5t75 130.5q55 66 137 105q72 35 181 47q25 3 54 3q93 0 214 -32q45 -16 82 -41q31 -23 53 -58q18 -28 18 -67 q0 -11 -2 -22q-2 -37 -18 -66q-14 -25 -42 -44q-25 -18 -70 -17h-9q-29 0 -51 -8q-20 -6 -41 -20.5t-31 -43.5q-4 -10 -6 -26q-5 -23 -5 -58q0 -12 1 -24q69 19 127 19q10 0 20 -1q55 -4 102.5 -36t51.5 -115v-9q0 -78 -37 -112q-39 -37 -88 -49q-33 -8 -73 -9q-28 0 -58 4 q18 -136 18 -253q0 -67 -6 -130q-6 -72 -24.5 -141t-52 -124.5t-86 -90.5t-128.5 -37q-14 -1 -27 0q-113 0 -176 46q-71 52 -103 154.5t-36 248.5q-2 73 -2 154.5t2 172.5q-57 -17 -105 -16q-18 0 -34 2q-27 2 -52.5 12.5t-47 28.5t-34.5 48q-16 35 -16 83zM67 901 q0 56 28 90q30 37 75 53.5t96 17.5h11q44 0 79 -7q-1 19 -1 38q0 39 5 81q8 53 32 118.5t75 130.5q55 66 137 105q72 35 181 47q25 3 54 3q93 0 214 -32q45 -16 82 -41q31 -23 53 -58q18 -28 18 -67q0 -11 -2 -22q-2 -37 -18 -66q-14 -25 -42 -44q-25 -18 -70 -17h-9 q-29 0 -51 -8q-20 -6 -41 -20.5t-31 -43.5q-4 -10 -6 -26q-5 -23 -5 -58q0 -12 1 -24q69 19 127 19q10 0 20 -1q55 -4 102.5 -36t51.5 -115v-9q0 -78 -37 -112q-39 -37 -88 -49q-33 -8 -73 -9q-28 0 -58 4q18 -136 18 -253q0 -67 -6 -130q-6 -72 -24.5 -141t-52 -124.5 t-86 -90.5t-128.5 -37q-14 -1 -27 0q-113 0 -176 46q-71 52 -103 154.5t-36 248.5q-2 73 -2 154.5t2 172.5q-57 -17 -105 -16q-18 0 -34 2q-27 2 -52.5 12.5t-47 28.5t-34.5 48q-16 35 -16 83z" />
<glyph unicode="&#xfb04;" horiz-adv-x="3432" d="M2692 658q0 128 6 239q6 127 18 250q12 113 49 203q16 37 40 73.5t56.5 65.5t76.5 46t100 17q78 -2 145 -49q27 -20 55.5 -51t52 -78t41 -110.5t23.5 -147.5q12 -164 12 -313.5t-4 -265.5q-6 -137 -18 -256q-10 -90 -47 -158q-16 -29 -40 -57.5t-57.5 -50t-78.5 -33.5 q-39 -11 -87 -11h-16q-53 2 -95 21.5t-75 50.5t-55.5 71t-38.5 81q-37 96 -49 219q-14 116 -14 244zM1380 901q0 56 28 90q30 37 75 53.5t96 17.5h11q44 0 79 -7q-1 19 -1 38q0 39 5 81q8 53 32 118.5t75 130.5q55 66 137 105q72 35 181 47q25 3 54 3q93 0 214 -32 q45 -16 82 -41q31 -23 53 -58q18 -28 18 -67q0 -11 -2 -22q-2 -37 -18 -66q-14 -25 -42 -44q-25 -18 -70 -17h-9q-29 0 -51 -8q-20 -6 -41 -20.5t-31 -43.5q-4 -10 -6 -26q-5 -23 -5 -58q0 -12 1 -24q69 19 127 19q10 0 20 -1q55 -4 102.5 -36t51.5 -115v-9q0 -78 -37 -112 q-39 -37 -88 -49q-33 -8 -73 -9q-28 0 -58 4q18 -136 18 -253q0 -67 -6 -130q-6 -72 -24.5 -141t-52 -124.5t-86 -90.5t-128.5 -37q-14 -1 -27 0q-113 0 -176 46q-71 52 -103 154.5t-36 248.5q-2 73 -2 154.5t2 172.5q-57 -17 -105 -16q-18 0 -34 2q-27 2 -52.5 12.5 t-47 28.5t-34.5 48q-16 35 -16 83zM67 901q0 56 28 90q30 37 75 53.5t96 17.5h11q44 0 79 -7q-1 19 -1 38q0 39 5 81q8 53 32 118.5t75 130.5q55 66 137 105q72 35 181 47q25 3 54 3q93 0 214 -32q45 -16 82 -41q31 -23 53 -58q18 -28 18 -67q0 -11 -2 -22q-2 -37 -18 -66 q-14 -25 -42 -44q-25 -18 -70 -17h-9q-29 0 -51 -8q-20 -6 -41 -20.5t-31 -43.5q-4 -10 -6 -26q-5 -23 -5 -58q0 -12 1 -24q69 19 127 19q10 0 20 -1q55 -4 102.5 -36t51.5 -115v-9q0 -78 -37 -112q-39 -37 -88 -49q-33 -8 -73 -9q-28 0 -58 4q18 -136 18 -253 q0 -67 -6 -130q-6 -72 -24.5 -141t-52 -124.5t-86 -90.5t-128.5 -37q-14 -1 -27 0q-113 0 -176 46q-71 52 -103 154.5t-36 248.5q-2 73 -2 154.5t2 172.5q-57 -17 -105 -16q-18 0 -34 2q-27 2 -52.5 12.5t-47 28.5t-34.5 48q-16 35 -16 83z" />
</font>
</defs>
</svg>
