<?xml version="1.0" standalone="no"?>
<!DOCTYPE svg PUBLIC "-//W3C//DTD SVG 1.1//EN" "http://www.w3.org/Graphics/SVG/1.1/DTD/svg11.dtd" >
<svg xmlns="http://www.w3.org/2000/svg">
<metadata>
This is a custom SVG webfont generated by Font Squirrel.
Copyright   : Copyright c 2010 by Designed and produced by Robby Woodard All rights reserved
Designer    : Robby Woodard
Foundry     : Designed and produced by Robby Woodard
</metadata>
<defs>
<font id="webfontYEe3bNZF" horiz-adv-x="1284" >
<font-face units-per-em="2048" ascent="1679" descent="-369" />
<missing-glyph horiz-adv-x="413" />
<glyph unicode=" "  horiz-adv-x="413" />
<glyph unicode="&#x09;" horiz-adv-x="413" />
<glyph unicode="&#xa0;" horiz-adv-x="413" />
<glyph unicode="!" horiz-adv-x="370" d="M86 106.5q0 51.5 37 88t86 36.5q51 0 88 -36.5t37 -88.5q0 -53 -35 -88q-37 -37 -90 -36q-49 0 -86 36.5t-37 88zM94 397v817q0 47 33 80q35 35 82 35q49 0 82 -32.5t33 -82.5v-817q0 -47 -33 -80q-35 -35 -82 -34.5t-82 34.5q-33 33 -33 80z" />
<glyph unicode="&#x22;" horiz-adv-x="561" d="M37 969v252q0 47 30.5 77.5t75.5 30.5t76 -30.5t31 -77.5v-252q0 -45 -31 -76t-76 -31t-75.5 31t-30.5 76zM313 969v252q0 47 31 77.5t76 30.5t75.5 -30.5t30.5 -77.5v-252q0 -45 -30.5 -76t-75.5 -31t-76 31t-31 76z" />
<glyph unicode="#" horiz-adv-x="1165" d="M25 690q0 45 30.5 76t75.5 31h141l41 121h-65q-43 0 -76 32q-31 31 -31 74q0 45 31 75.5t76 30.5h139l43 127q12 33 39 52q31 20 61 20q45 0 76 -31q33 -33 33 -75q0 -16 -6 -35l-21 -58h123l43 127q12 33 39 52q31 20 62 20q47 0 77.5 -30.5t30.5 -73.5q0 -18 -6 -37 l-18 -55h73q45 0 76 -31t31 -78q0 -43 -31 -74q-33 -33 -76 -32h-149l-41 -121h74q45 0 75.5 -31t30.5 -76t-30.5 -75.5t-75.5 -30.5h-148l-59 -170q-25 -72 -101 -72q-43 0 -75 33q-31 31 -31 74q0 18 6 34l35 101h-123l-59 -170q-8 -31 -39 -51.5t-62 -20.5q-43 0 -76 33 q-31 31 -30 74q0 18 6 34l35 101h-68q-45 0 -75.5 30.5t-30.5 75.5zM498 797h123l41 121h-123z" />
<glyph unicode="$" horiz-adv-x="722" d="M27 408q0 39 32 77q29 29 76 29q45 0 76 -31q18 -23 72 -45q47 -20 92 -20q41 0 65 18q23 16 23 47q0 20 -4 29q-10 18 -45 41q-41 25 -113 43q-117 27 -186 102q-66 72 -66 170q0 95 55 160q53 63 142 84v109q0 47 30.5 77.5t75.5 30.5t76 -30.5t31 -77.5v-109 q70 -16 133 -51q55 -33 55 -94q0 -25 -14 -52q-27 -55 -94 -55q-31 0 -52 14q-78 45 -139 46q-86 0 -86 -52q0 -45 92 -65q324 -84 324 -320q0 -96 -60 -164q-61 -71 -159 -92v-135q0 -45 -31 -75.5t-76 -30.5t-75.5 30.5t-30.5 75.5v141q-123 35 -189 101q-30 31 -30 74z " />
<glyph unicode="%" horiz-adv-x="1480" d="M41 811q0 176 139 350t312 174q104 0 165 -71q59 -68 60 -174q0 -176 -141.5 -348.5t-307.5 -172.5q-102 0 -164 70q-63 74 -63 172zM231 98q0 33 23 68l790 1116q33 49 93 49q47 0 81.5 -34.5t34.5 -79.5q0 -39 -20 -66l-791 -1118q-37 -49 -92 -49q-51 0 -86 34 q-33 33 -33 80zM252 821q0 -22 12 -30q6 -6 17 -7q33 0 90 52q74 61 112 155q23 61 23 92q0 39 -27 39q-29 0 -94 -55q-74 -66 -109 -156q-24 -55 -24 -90zM766 219q0 176 139 350q139 172 312 172q104 0 165 -71q59 -68 60 -174q0 -176 -141.5 -348.5t-307.5 -172.5 q-102 0 -164 70q-63 74 -63 174zM977 229q0 -27 12 -32q6 -6 17 -7q33 0 90 52q78 68 112 157q23 57 23 93q0 37 -27 36q-29 0 -94 -53q-74 -68 -111 -156q-22 -61 -22 -90z" />
<glyph unicode="&#x26;" horiz-adv-x="931" d="M33 418q0 154 160 258q-33 51 -33 119q0 111 78 194q74 80 192 125v115q0 43 33 75.5t76 32.5t75 -32q31 -31 31 -76v-74q14 2 70 2q57 0 73 -2q39 -2 72 -35q33 -31 29 -71v-7q-4 -45 -33 -73q-31 -31 -74 -27h-6h-31q-8 0 -17 1t-11 1q-217 0 -311 -88q-33 -33 -33 -55 q0 -29 41 -29q15 0 37 6q55 16 309 49q2 2 14 2q41 0 70 -26q31 -29 37 -66v-14q0 -41 -27 -70q-29 -31 -66 -37l-200 -28q-152 -23 -236 -68q-104 -53 -104 -94q0 -45 129 -51h18q4 0 11.5 -1t9.5 -1q137 0 354 49q6 2 23 2q45 0 75.5 -31t30.5 -76q0 -35 -22 -67 q-18 -27 -60 -37l-172 -33v-94q0 -47 -30.5 -78t-75.5 -31t-76 31q-33 33 -33 78v74h-12q-80 0 -133 10q-61 12 -123 41t-94 80q-35 53 -35 127z" />
<glyph unicode="'" horiz-adv-x="284" d="M37 969v252q0 47 30.5 77.5t75.5 30.5t76 -30.5t31 -77.5v-252q0 -45 -31 -76t-76 -31t-75.5 31t-30.5 76z" />
<glyph unicode="(" horiz-adv-x="618" d="M23 543q0 227 98 442q102 221 276 391q33 33 80 33t82 -30.5t35 -82.5q0 -49 -35 -84q-307 -299 -307 -673q0 -168 71.5 -322t211.5 -231q59 -35 59 -99q0 -47 -35 -81.5t-80 -34.5q-31 0 -59 16q-195 111 -295 315q-102 210 -102 441z" />
<glyph unicode=")" horiz-adv-x="618" d="M29 -113q0 66 57 99q141 82 211 231q72 154 72 322q0 377 -306 673q-35 35 -34.5 84.5t32.5 79.5q37 33 82 33q46 0 80 -31q180 -174 279 -393q98 -218 98 -442q0 -231 -102 -441q-100 -203 -297 -315q-29 -16 -60 -16q-45 0 -80 34q-32 33 -32 82z" />
<glyph unicode="*" horiz-adv-x="622" d="M14 1065q-4 37 23 63q25 25 61 25h54l-29 43q-14 23 -14 47q0 43 38 72q20 14 48 14q49 0 73 -39l49 -76l50 76q25 39 71 39q29 0 49 -14q37 -25 37 -72q0 -27 -14 -47l-27 -41h41q35 0 60 -25q27 -27 26 -61q4 -33 -24 -61q-25 -25 -60 -25h-55l35 -51q14 -23 14 -47 q0 -45 -39 -72q-20 -14 -47 -14q-47 0 -74 39l-43 65l-45 -65q-25 -39 -71 -39q-27 0 -47 14q-39 27 -39 72q0 25 14 47l33 49h-62q-37 0 -61.5 24.5t-24.5 59.5z" />
<glyph unicode="+" horiz-adv-x="958" d="M31 559q0 45 30.5 76t75.5 31h236v256q0 43 33 75q31 31 73 31q45 0 76 -31q33 -33 33 -75v-256h227q47 0 78 -31t31 -76t-31 -75.5t-78 -30.5h-227v-246q0 -43 -33 -76q-31 -31 -76 -31q-43 0 -73 31q-33 33 -33 76v246h-236q-45 0 -75.5 30.5t-30.5 75.5z" />
<glyph unicode="," horiz-adv-x="327" d="M2 -168q0 47 33 74q43 37 67 98q-51 37 -51 102q0 51 37 88t88 37q61 0 96 -47t35 -135q0 -72 -41 -158q-37 -76 -100 -133q-27 -25 -66 -24q-37 0 -69 28q-29 27 -29 70z" />
<glyph unicode="-" horiz-adv-x="595" d="M53 510q0 49 33 82t82 33h262q49 0 82 -33t33 -82t-33 -82t-82 -33h-262q-49 0 -82 33t-33 82z" />
<glyph unicode="." horiz-adv-x="329" d="M53 106.5q0 53.5 35 88.5q37 37 88 36.5t88 -37t37 -88t-37 -88t-88 -36.5t-88 36q-35 35 -35 88.5z" />
<glyph unicode="/" horiz-adv-x="1073" d="M27 96q0 37 22 70l791 1116q34 49 92 49q51 0 84 -32.5t33 -81.5q0 -39 -21 -66l-792 -1118q-35 -49 -91 -49q-49 0 -83.5 34.5t-34.5 77.5z" />
<glyph unicode="0" horiz-adv-x="1402" d="M53 463q0 209 117 411q115 201 315.5 332t401.5 131q215 0 338 -141t123 -352q0 -201 -117 -404q-119 -207 -313 -334q-197 -129 -404 -129q-211 0 -336 137.5t-125 348.5zM283 459q0 -117 59 -183q61 -68 172 -67q215 0 409.5 211t194.5 430q0 115 -59 186 q-57 70 -172 70q-221 0 -412 -211q-192 -215 -192 -436z" />
<glyph unicode="1" horiz-adv-x="649" d="M63 993q0 55 39 88l248 219q35 29 78 29q49 0 82 -32.5t33 -82.5v-1112q0 -49 -33 -82q-35 -35 -82 -34.5t-82 35t-35 81.5v859l-57 -52q-35 -29 -74 -28q-49 0 -82 32q-35 35 -35 80z" />
<glyph unicode="2" horiz-adv-x="1060" d="M68 119q0 37 14 57q78 162 197 281q123 123 325 262q156 106 156 221q0 82 -67.5 125t-153.5 43q-135 0 -287 -96q-29 -16 -62 -17q-66 0 -98 54q-18 28 -18 61q0 61 55 96q201 131 414 131q181 0 313 -110q133 -111 133 -285q0 -238 -254 -412q-147 -98 -219 -159 q-77 -65 -135 -142h489q45 0 80 -34.5t35 -79.5q0 -47 -33 -80q-35 -35 -82 -35h-688q-47 0 -82 35q-32 33 -32 84z" />
<glyph unicode="3" horiz-adv-x="1116" d="M47 1130q0 66 59 101q193 104 355 104q139 -2 241 -86q100 -82 101 -223q0 -76 -35 -123q119 -16 205 -110q86 -96 86 -220q0 -115 -64 -208q-68 -98 -160 -162t-217 -113q-111 -43 -231 -72q-129 -29 -209 -38h-14q-47 0 -80 32q-35 35 -35 82q0 45 31 76q35 35 72 37 q266 33 475 137q203 101 202 227q0 59 -59 97q-58 37 -172 37q-102 0 -379 -80q-29 -4 -33 -4q-47 0 -80 32q-35 35 -34 82q0 39 24 70q27 33 60 41q51 16 161 37q100 18 160 35q98 25 98 104q0 37 -32.5 59.5t-85.5 22.5q-102 0 -242 -76q-25 -12 -53 -12q-49 0 -82 32.5 t-33 81.5z" />
<glyph unicode="4" horiz-adv-x="1177" d="M33 410v2q-2 35 24 71l664 805q35 41 88 41q49 0 82 -32.5t33 -82.5q0 -43 -25 -73l-508 -615h324v234q0 47 33 80q35 35 82 34.5t81 -34.5q33 -33 33 -80v-234h90q45 0 80 -34.5t35 -79.5t-35 -80t-80 -35h-90v-197q0 -47 -33 -80q-35 -35 -82 -34.5t-81 34.5 q-33 33 -33 80v197h-568q-49 0 -81.5 33t-32.5 80z" />
<glyph unicode="5" horiz-adv-x="1044" d="M47 96q0 43 31 76q31 34 74 37q61 4 165 27q92 18 201 55q104 35 182 102q72 63 72 146q0 78 -76 110q-74 33 -161 33q-25 0 -66 -4q-31 -3 -68 -12l-21 -5.5t-21.5 -5.5t-14.5 -4q-43 -12 -68 -20q-49 -16 -59 -19q-16 -6 -35 -6q-35 0 -67 23q-47 35 -47 92v479 q0 45 34.5 80t79.5 35h568q47 0 81 -35q33 -33 33 -80q0 -49 -33 -82q-35 -35 -81 -35h-453v-219q137 37 238 37q190 0 327 -92q139 -92 139 -272q0 -138 -86 -246q-90 -115 -219 -172q-129 -59 -264 -94q-123 -33 -258 -45h-10q-47 0 -82 34.5t-35 81.5z" />
<glyph unicode="6" horiz-adv-x="1239" d="M68 526q0 121 45 246q43 119 135 235.5t262 202.5q174 88 395 125q4 2 19 2q45 0 79.5 -34.5t34.5 -81.5q0 -39 -28.5 -72t-67.5 -41q-330 -53 -487 -213q-158 -162 -158 -352l1 -5q1 -5 1 -10v-18q66 166 211 278q150 115 315 115q154 0 252 -98q96 -96 97 -254 q0 -219 -182.5 -395t-403.5 -176q-225 0 -372.5 157.5t-147.5 388.5zM473 330q0 -121 115 -121q129 0 241.5 110.5t112.5 235.5q0 119 -115 119q-131 0 -241 -109q-113 -110 -113 -235z" />
<glyph unicode="7" horiz-adv-x="1099" d="M47 1200q0 45 35 80t80 35h782q47 0 80 -33q35 -35 35 -80q0 -41 -19 -65l-733 -1098q-33 -51 -94 -51q-51 0 -84 32.5t-33 81.5q0 33 19 64l614 919h-567q-47 0 -80 33q-35 35 -35 82z" />
<glyph unicode="8" horiz-adv-x="1259" d="M55 313v15q0 106 66 227q65 120 160 178q-45 27 -76 82t-31 115q0 166 152 287q150 119 323 118q127 0 225 -75q94 -74 95 -203q0 -86 -51 -146q127 -16 208 -106q84 -94 84 -217q0 -162 -118 -309q-117 -143 -285 -224q-164 -78 -328 -78q-170 0 -293 86 q-121 86 -131 250zM285 324q0 -61 61 -88q63 -29 131 -29q145 0 328 119q176 115 176 260q0 125 -188 125q-98 0 -213 -52q-117 -53 -207 -145q-88 -90 -88 -190zM403 934q0 -53 95 -53q76 0 157.5 51t81.5 121q0 53 -88 53q-70 2 -160 -51q-86 -51 -86 -121z" />
<glyph unicode="9" horiz-adv-x="1239" d="M68 764q0 219 182 395t403 176q225 0 373 -157.5t148 -389.5q0 -126 -44 -245q-41 -117 -137 -238q-92 -117 -262 -203q-168 -86 -395 -122q-4 -2 -21 -3q-47 0 -79.5 33t-32.5 84q0 41 28 74q27 29 68 39q328 51 487 215q156 158 156 350v33q-66 -166 -211 -279 q-150 -115 -315 -114q-157 0 -252 98q-96 100 -96 254zM297 760q0 -57 30.5 -88t86.5 -31q131 0 241 109q113 111 113 235q0 121 -115 121q-129 0 -243 -111q-113 -110 -113 -235z" />
<glyph unicode=":" horiz-adv-x="329" d="M53 284.5q0 53.5 35 88.5q37 37 88 37t88 -37t37 -88.5t-37 -88t-88 -36.5t-88 37q-35 34 -35 87.5zM53 661.5q0 53.5 35 88.5q37 37 88 36.5t88 -37t37 -88t-37 -88t-88 -36.5t-88 36q-35 35 -35 88.5z" />
<glyph unicode=";" horiz-adv-x="329" d="M2 8q0 43 33 74q45 37 67 98q-51 37 -51 101q0 53 35 88q37 37 90 37q61 0 96 -47.5t35 -135.5q0 -76 -43 -157q-43 -84 -98 -134q-27 -25 -66 -24q-43 0 -69 29q-29 32 -29 71zM53 661.5q0 53.5 35 88.5q37 37 88 36.5t88 -37t37 -88t-37 -88t-88 -36.5t-88 36 q-35 35 -35 88.5z" />
<glyph unicode="&#x3c;" horiz-adv-x="911" d="M31 520q0 57 49 90l622 396q29 16 60 16q41 0 74 -33q31 -31 30 -74q0 -63 -49 -90l-479 -305l479 -305q49 -35 49 -90q0 -43 -32 -76q-31 -31 -76 -31q-31 0 -56 17l-622 395q-49 29 -49 90z" />
<glyph unicode="=" horiz-adv-x="827" d="M47 344q0 45 31 76t76 31h522q45 0 75.5 -31t30.5 -76t-30.5 -75.5t-75.5 -30.5h-522q-45 0 -76 30.5t-31 75.5zM47 686q0 47 31 78t76 31h522q45 0 75.5 -31t30.5 -78q0 -43 -30 -74q-33 -33 -76 -32h-522q-43 0 -76 32q-31 31 -31 74z" />
<glyph unicode="&#x3e;" horiz-adv-x="911" d="M47 125q0 59 49 90l479 305l-479 305q-49 27 -49 90q0 43 31 74q33 33 74 33q31 0 59 -16l620 -396q51 -33 52 -90q0 -63 -52 -90l-620 -395q-29 -16 -57 -17q-45 0 -76 31t-31 76z" />
<glyph unicode="?" horiz-adv-x="925" d="M33 1122q0 63 57 97q70 43 191 81q111 35 202 35q168 0 295 -108q125 -106 125 -273q0 -135 -98 -239.5t-236 -149.5q-63 -20 -85.5 -53t-22.5 -113v-4q0 -47 -35 -81.5t-80 -34.5q-47 0 -82 34q-33 33 -33 82v4q0 297 263 383q88 29 133 82q47 57 47 105q0 70 -53 106 q-51 37 -140 37q-57 0 -135 -29q-86 -33 -139 -61q-27 -16 -60 -16q-45 0 -79.5 34.5t-34.5 81.5zM223 106q0 51 37 88t88 37t88 -36.5t37 -88t-37 -88t-88 -36.5q-53 0 -90 36q-35 35 -35 88z" />
<glyph unicode="@" horiz-adv-x="1783" d="M31 561q0 236 133 416t350 268q221 90 490 90q348 0 542.5 -165.5t194.5 -391.5q0 -190 -109 -338q-111 -150 -309 -149q-182 0 -268 147q-199 -143 -385 -143q-129 0 -215 73.5t-86 194.5q0 150 114 268q111 113 262 166q147 51 293 52q94 0 187 -17q41 -10 65 -37 q25 -29 25 -65q0 -2 -4 -31l-23 -59q-22 -58 -31 -92q-33 -96 -32 -154q0 -55 26 -84q27 -31 72 -31q89 0 147 86q57 84 58 213q0 137 -131 248q-132 111 -393 111q-201 0 -371 -62q-168 -61 -281 -198q-111 -135 -110 -318q0 -193 143 -287q145 -96 377 -96q176 0 371 74 q18 8 49 8q45 0 75.5 -30.5t30.5 -71.5q0 -70 -80 -103q-104 -41 -237 -59q-135 -18 -209 -19q-147 0 -270 33q-125 33 -232 103q-106 68 -168 186q-61 117 -61 264zM580 567q0 -72 92 -71q157 0 350 178q14 76 51 182h-33q-209 0 -335 -98q-125 -99 -125 -191z" />
<glyph unicode="A" horiz-adv-x="1290" d="M45 100q0 18 10 45l480 1112q33 76 114 76q78 0 109 -69l483 -1119q8 -16 8 -45q0 -49 -32 -82q-35 -35 -82 -34q-74 0 -105 69l-110 254h-543l-111 -254q-31 -70 -106 -69q-45 0 -80 34.5t-35 81.5zM469 522h358l-180 416z" />
<glyph unicode="B" horiz-adv-x="1224" d="M94 100v1026q0 72 64 105q221 105 376 105q8 0 17 -1q133 0 225 -73q94 -76 94 -203q0 -49 -32 -109q147 -25 245.5 -117t98.5 -235q0 -123 -70 -223q-74 -106 -174 -168q-117 -72 -240 -117q-133 -49 -249 -74q-111 -25 -224 -36h-14q-47 0 -82 34.5t-35 85.5zM324 209 q305 59 467 174q162 117 161 217q0 74 -78 105q-80 31 -163 30q-172 0 -387 -88v-438zM324 874q84 31 213 58q45 10 75 39q29 29 29 67q0 70 -94 70q-84 0 -223 -55v-179z" />
<glyph unicode="C" horiz-adv-x="1148" d="M49 516q0 176 82 322q83 147 221 245q139 98 291 160q156 63 322 90q4 2 20 2q47 0 82 -35q33 -33 33 -79q0 -45 -27 -74q-31 -33 -69 -39q-98 -16 -189 -45q-86 -29 -194 -82q-100 -51 -172 -112.5t-121 -155.5q-49 -92 -49 -197q0 -135 81 -219q84 -88 213 -88 q160 0 355 139q35 23 65 23q49 0 82 -33q35 -35 35 -84q0 -57 -47 -92q-250 -182 -496 -182q-221 0 -370 155q-148 154 -148 381z" />
<glyph unicode="D" horiz-adv-x="1249" d="M94 94v1028q0 74 70 105q246 109 463 108q244 0 407 -143q166 -143 166 -383q0 -141 -61.5 -268t-159.5 -219q-96 -90 -227 -162t-260 -115q-133 -45 -263 -65h-12q-2 0 -5 -2l-3 -1q-49 0 -82 33t-33 84zM324 211q309 80 477 258q168 176 168 344q0 141 -99 217 q-96 76 -243 76q-137 0 -303 -62v-833z" />
<glyph unicode="E" horiz-adv-x="892" d="M94 115v1087q0 47 33 80q35 35 82 35h516q47 0 82 -35q33 -33 33 -80q0 -49 -33 -82q-35 -35 -82 -35h-401v-223h366q49 0 82 -33q35 -35 35 -82t-35 -81q-33 -33 -82 -33h-366v-404h409q45 0 80 -34.5t35 -79.5t-35 -80t-80 -35h-524q-47 0 -82 35q-33 33 -33 80z" />
<glyph unicode="F" horiz-adv-x="894" d="M94 102v1098q0 47 33 80q35 35 82 35h526q45 0 80 -35t35 -80q0 -47 -35 -82t-80 -35h-411v-221h348q47 0 80 -33q35 -35 34.5 -82t-34.5 -81q-33 -33 -80 -33h-348v-531q0 -49 -33 -81.5t-82 -32.5t-82 32.5t-33 81.5z" />
<glyph unicode="G" horiz-adv-x="1193" d="M49 494q0 144 55 270q57 129 144 219q90 94 211 168q109 68 248 117q131 47 262 67q4 2 20 2q45 0 80 -34.5t35 -81.5q0 -43 -27 -72q-29 -33 -69 -39q-126 -22 -246 -68q-123 -47 -234 -118q-115 -74 -180 -183q-70 -115 -69 -245q0 -129 77.5 -211t202.5 -82 q143 0 324 133v110h-209q-47 0 -80 33q-35 35 -35 82q0 45 35 80t80 35h323q45 0 80 -35t35 -80v-461q0 -45 -35 -79.5t-80 -34.5q-43 0 -75 28q-31 29 -37 70q-184 -104 -357 -104q-209 0 -344 151t-135 363z" />
<glyph unicode="H" horiz-adv-x="1171" d="M94 102v1108q0 49 33 82q35 35 82 35t82 -35q33 -33 33 -82v-350h526v350q0 47 35 82t80 35t79.5 -35t34.5 -82v-1108q0 -47 -35 -82q-33 -33 -79.5 -32.5t-79.5 32.5q-35 35 -35 82v543h-526v-543q0 -49 -33 -81.5t-82 -32.5t-82 32.5t-33 81.5z" />
<glyph unicode="I" horiz-adv-x="415" d="M94 102v1110q0 47 33 80q35 35 82 35q49 0 82 -32.5t33 -82.5v-1110q0 -49 -33 -81.5t-82 -32.5t-82 32.5t-33 81.5z" />
<glyph unicode="J" horiz-adv-x="964" d="M27 199q0 45 34.5 79.5t79.5 34.5q49 0 84 -34q63 -70 176 -70q119 0 181 82q63 86 63 207v712q0 47 35 82t82 35t82 -35q33 -33 33 -82v-712q0 -223 -134 -369q-137 -150 -346 -149q-205 0 -338 139q-32 35 -32 80z" />
<glyph unicode="K" horiz-adv-x="1163" d="M94 100v1110q0 49 33 82q35 35 82 35t82 -35q33 -33 33 -82v-376l495 464q31 31 78 31t80 -33q35 -35 35 -82q0 -49 -37 -86l-424 -389l532 -559q31 -34 31 -80q0 -47 -35 -82q-33 -33 -82 -32.5t-79 37.5l-594 630v-553q0 -49 -33 -82q-35 -35 -82 -34.5t-82 34.5 q-33 33 -33 82z" />
<glyph unicode="L" horiz-adv-x="864" d="M94 115v1097q0 49 33 82q35 35 82 35t82 -35q33 -33 33 -82v-983h381q47 0 81.5 -34.5t34.5 -79.5t-34.5 -80t-81.5 -35h-496q-47 0 -82 35q-33 33 -33 80z" />
<glyph unicode="M" horiz-adv-x="1462" d="M92 100v1121q0 45 35 79.5t82 34.5q61 0 94 -51l430 -635l430 635q33 51 94 51q47 0 82 -35q33 -33 33 -79v-1121q0 -47 -33 -80q-35 -35 -82 -34.5t-81 34.5q-33 33 -33 80v758l-316 -477q-37 -55 -96 -55q-57 0 -94 55l-315 477v-758q0 -47 -33 -80q-35 -35 -82 -34 q-45 0 -80 34.5t-35 79.5z" />
<glyph unicode="N" horiz-adv-x="1165" d="M94 100v1123q0 49 33 81.5t84 32.5q61 0 94 -51l539 -813v741q0 47 33 80q35 35 81 35q49 0 82 -32.5t33 -82.5v-1120q0 -47 -33 -80q-35 -35 -82 -34q-61 0 -94 51l-540 813v-744q0 -49 -33 -82q-35 -35 -82 -34.5t-82 34.5q-33 33 -33 82z" />
<glyph unicode="O" d="M47 522q0 197 90 379q92 186 260 309q172 125 363 125q219 0 350 -161q127 -157 127 -375q0 -193 -92 -387q-90 -188 -258 -312q-169 -123 -363 -123q-219 0 -348 160t-129 385zM279 520q0 -123 63 -219q61 -92 182 -92q197 0 340 190q143 188 144 392q0 133 -64 223 q-65 92 -184 92q-132 0 -246 -92q-113 -92 -174 -226q-61 -135 -61 -268z" />
<glyph unicode="P" horiz-adv-x="1056" d="M94 102v1014q0 72 64 103q231 119 432 118q178 0 307 -94q127 -92 127 -262q0 -125 -67.5 -223.5t-178.5 -159.5q-117 -66 -223 -100q-98 -33 -231 -58v-338q0 -49 -33 -81.5t-82 -32.5t-82 32.5t-33 81.5zM324 655q96 16 188 52q98 37 190.5 110.5t92.5 161.5 q0 66 -60 96q-61 31 -135 31q-129 0 -276 -64v-387z" />
<glyph unicode="Q" d="M47 522q0 197 90 379q92 186 260 309q172 125 363 125q219 0 350 -161q127 -157 127 -375v-11q0 -270 -174 -507l219 -230q31 -31 31 -74t-33 -75q-31 -31 -76 -31q-43 0 -78 33l-208 221q-180 -147 -394 -148q-219 0 -348 160t-129 385zM279 520q0 -123 63 -219 q61 -92 182 -92q125 0 234 84l-94 98q-29 29 -29 74q0 43 30.5 73.5t77.5 30.5q43 0 76 -32l82 -84q106 162 107 338q0 133 -64 223q-65 92 -184 92q-132 0 -246 -92q-113 -92 -174 -226q-61 -135 -61 -268z" />
<glyph unicode="R" horiz-adv-x="1112" d="M94 100v998q0 70 58 100q248 137 462 137q164 0 285 -94q123 -94 123 -254q0 -141 -102 -248q-104 -109 -252 -147l391 -422q31 -31 31 -76q0 -47 -33 -80q-35 -35 -82 -34q-49 0 -84 36l-488 531q-31 35 -30 84q0 41 26 82q23 33 68 43q35 6 100 26q33 10 103 45 q57 29 90 70t33 94t-49.5 84t-131.5 31q-123 0 -288 -78v-928q0 -47 -33 -80q-35 -35 -82 -34.5t-82 34.5q-33 33 -33 80z" />
<glyph unicode="S" horiz-adv-x="907" d="M33 973q4 164 125 264t286 100h5q166 0 344 -84q63 -33 63 -104q0 -47 -35 -82q-33 -33 -82 -33q-25 0 -49 13q-129 61 -241 61q-68 0 -127 -35q-57 -33 -58 -100q0 -51 39 -84q41 -35 94 -49q119 -35 185 -70q127 -68 211 -172q82 -102 81 -236q0 -170 -124 -276 q-127 -109 -293 -109q-178 0 -359 111q-55 31 -55 98q0 33 16 60q34 55 99 55q31 0 59 -16q127 -78 234 -78q76 0 135 41t59 114q0 113 -153 195q-68 39 -154 59q-135 37 -219 132q-86 96 -86 225z" />
<glyph unicode="T" horiz-adv-x="1075" d="M37 1200q0 47 33 80q35 35 82 35h774q45 0 79.5 -35t34.5 -80q0 -47 -34.5 -82t-79.5 -35h-273v-985q0 -45 -34.5 -79.5t-79.5 -34.5t-80 34.5t-35 79.5v985h-272q-45 0 -80 35t-35 82z" />
<glyph unicode="U" horiz-adv-x="1171" d="M94 541v671q0 49 33 82q35 35 82 35t82 -35q33 -33 33 -82v-671q0 -332 262 -332q264 0 264 332v671q0 47 35 82t80 35t79.5 -34.5t34.5 -82.5v-671q0 -260 -131 -412t-362 -152q-229 0 -360.5 152t-131.5 412z" />
<glyph unicode="V" horiz-adv-x="1273" d="M37 1212q0 47 33 80q35 35 80 35q80 0 106 -70l381 -882l381 882q27 70 106 70q45 0 80 -35q33 -33 33 -80q0 -29 -8 -45l-481 -1114q-31 -76 -109 -76q-82 0 -113 76l-481 1114q-8 16 -8 45z" />
<glyph unicode="W" horiz-adv-x="1849" d="M35 1212q0 47 33 80q35 35 82 35q80 0 106 -70l381 -882l164 379l-178 413q-10 20 -11 45q0 47 33 80q35 35 80 35q78 0 109 -70l378 -882l381 882q27 70 107 70q47 0 82 -35q33 -33 33 -80q0 -25 -11 -45l-479 -1114q-31 -76 -110.5 -76t-112.5 76l-176 410l-178 -410 q-31 -76 -109 -76q-82 0 -113 76l-481 1114q-10 27 -10 45z" />
<glyph unicode="X" horiz-adv-x="1202" d="M43 100q0 39 20 66l398 553l-309 430q-23 35 -23 65q0 47 35 82t80 35q57 0 94 -49l264 -367l264 369q35 47 95 47q49 0 81.5 -32.5t32.5 -84.5q0 -33 -22 -65l-310 -430l398 -553q23 -29 22 -70q0 -45 -33 -78q-35 -35 -79 -34q-63 0 -97 49l-352 489l-352 -489 q-33 -49 -94 -49q-45 0 -80 34q-33 33 -33 82z" />
<glyph unicode="Y" horiz-adv-x="1107" d="M33 1217q0 49 32.5 81.5t79.5 32.5q57 0 95 -45l319 -422l307 420q35 47 95 47q47 0 81 -35q33 -33 33 -82q0 -33 -22 -65l-377 -514v-535q0 -45 -35 -79.5t-80 -34.5q-47 0 -82 34.5t-35 79.5v531l-389 516q-22 29 -22 70z" />
<glyph unicode="Z" horiz-adv-x="1026" d="M35 117q0 37 18 61l580 905h-436q-49 0 -82 33q-35 35 -35 82t35 82q33 33 82 33h647q47 0 80 -33q35 -35 34 -82q0 -37 -18 -61l-580 -906h521q45 0 79.5 -34.5t34.5 -79.5t-34.5 -80t-79.5 -35h-731q-45 0 -80 35t-35 80z" />
<glyph unicode="[" horiz-adv-x="507" d="M0 -199v1577q0 45 33 78q35 35 80 35h264q47 0 78 -35q33 -37 32.5 -78t-32.5 -78q-31 -33 -78 -32h-152v-1354h152q47 0 78 -35q33 -37 32.5 -78t-32.5 -77q-31 -33 -78 -33h-264q-47 0 -80 32.5t-33 77.5z" />
<glyph unicode="\" horiz-adv-x="1042" d="M37 1217q0 45 35 83q35 37 84 37q66 0 100 -55l731 -1118q20 -29 21 -64q0 -51 -35 -85.5t-86 -34.5q-68 0 -101 55l-729 1116q-20 27 -20 66z" />
<glyph unicode="]" horiz-adv-x="507" d="M20 -199q0 45 33 78q35 35 80 35h152v1354h-152q-47 0 -80 32.5t-33 77.5t33 78q35 35 80 35h264q45 0 80 -35q33 -33 33 -78v-1577q0 -45 -33 -77.5t-80 -32.5h-264q-47 0 -80 32.5t-33 77.5z" />
<glyph unicode="^" horiz-adv-x="985" d="M27 627q0 31 16 59l350 596q33 55 100.5 55t100.5 -55l348 -598q16 -27 16 -57q0 -45 -34.5 -80t-79.5 -35q-66 0 -101 55l-249 428l-252 -426q-33 -57 -99 -57q-47 0 -81.5 35t-34.5 80z" />
<glyph unicode="_" horiz-adv-x="1038" d="M-119 -190q0 51 35 85.5t84 34.5h1040q49 0 84 -34.5t35 -85.5q0 -49 -34.5 -84t-84.5 -35h-1040q-49 0 -84 35t-35 84z" />
<glyph unicode="`" horiz-adv-x="903" d="M252 1257q0 37 24 66q25 27 64 27q31 0 53 -17l209 -145q39 -27 39 -74q0 -41 -24.5 -65.5t-65.5 -24.5q-29 0 -51 16l-209 144q-39 26 -39 73z" />
<glyph unicode="a" horiz-adv-x="1030" d="M35 217q-2 150 172 258.5t510 126.5q-49 78 -205 78q-145 0 -252 -78q-29 -23 -63 -22q-52 0 -86 43q-20 27 -21 65q0 53 41 84q145 113 381 113q209 0 326 -105q119 -106 118 -291v-397q0 -43 -30 -74q-33 -33 -76 -32.5t-76 32.5q-31 31 -31 74v17q-193 -131 -409 -132 q-154 0 -225 70q-74 72 -74 170zM262 231q0 -45 84 -45q172 0 397 152v70q-108 0 -294 -50q-187 -49 -187 -127z" />
<glyph unicode="b" horiz-adv-x="1046" d="M76 92v1129q0 45 30.5 75.5t75.5 30.5t76 -30.5t31 -75.5v-420q190 84 352 84q163 0 270 -86q109 -86 109 -240q0 -109 -57 -199q-59 -92 -146 -155q-88 -63 -201 -113q-90 -39 -217 -74q-92 -25 -198 -38h-15q-49 0 -80 32q-30 34 -30 80zM289 195q82 20 143 43 q92 35 170 75q86 45 146 113q59 70 59 137q0 59 -53.5 84t-122.5 25q-145 0 -342 -105v-372z" />
<glyph unicode="c" horiz-adv-x="1028" d="M35 307q0 131 86 242q88 113 221 176q152 72 264.5 104.5t255.5 53.5h15q45 0 73 -29q31 -31 31 -76q0 -43 -24.5 -73.5t-67.5 -34.5q-82 -10 -168 -33q-104 -27 -209 -68q-109 -43 -188 -112q-76 -68 -76 -148q0 -61 59 -90q55 -27 129 -26q174 0 391 116q25 12 50 13 q41 0 75 -31q33 -31 33 -76q0 -68 -57 -94q-264 -141 -494 -141q-160 0 -280 86q-119 85 -119 241z" />
<glyph unicode="d" horiz-adv-x="1048" d="M35 285v6q0 98 49 188t125 154q82 68 174 115q94 47 192 79q86 29 185 45v351q0 45 30.5 75.5t75.5 30.5t76 -30.5t31 -75.5v-1129q0 -43 -31 -74q-33 -33 -76 -32q-45 0 -75.5 30.5t-30.5 77.5q-200 -117 -381 -116q-152 0 -250 79q-96 81 -94 226zM248 287 q-2 -53 37 -78q40 -25 98 -25q164 0 377 146v325q-68 -14 -150 -43q-74 -27 -164 -73q-92 -49 -143 -113q-55 -67 -55 -139z" />
<glyph unicode="e" horiz-adv-x="1058" d="M33 336q0 164 117 293q121 133 274 192q160 61 315 62q113 0 199 -56q84 -53 84 -163q0 -90 -59 -162q-61 -74 -146 -113q-88 -41 -199 -65q-102 -23 -196 -33q-55 -6 -168 -10q37 -102 190 -103q133 0 371 123q25 12 49 12q43 0 74 -30q33 -33 33 -76q0 -68 -56 -94 q-256 -135 -481 -136q-174 0 -287 95q-114 96 -114 264zM291 463q170 10 336 67q166 59 166 121q0 27 -56 27h-4q-117 0 -252 -60q-131 -57 -190 -155z" />
<glyph unicode="f" horiz-adv-x="786" d="M23 754q0 45 30.5 75.5t75.5 30.5h64q0 201 104 336t295 135q94 0 135 -28.5t41 -83.5q0 -43 -31 -74q-33 -33 -75 -33q-18 0 -33 2q-29 4 -33 4h-2q-188 0 -188 -258h194q45 0 76 -30.5t31 -75.5t-31 -76t-76 -31h-194v-555q0 -43 -31 -74q-33 -33 -76 -32.5t-76 32.5 q-31 31 -30 74v555h-64q-45 0 -75.5 31t-30.5 76z" />
<glyph unicode="g" horiz-adv-x="1181" d="M39 477q0 117 86 211q88 96 203 146q121 51 227 51q72 0 137 -25l115 125q31 31 72 31q47 0 77.5 -31t30.5 -74q0 -46 -31 -80l-110 -116q16 -45 16 -84q0 -63 -37 -137q141 -8 234 -109q94 -100 94 -240q0 -123 -72 -225q-72 -104 -180 -164q-123 -70 -231 -98 q-119 -33 -234 -33q-174 4 -272 78q-100 76 -101 199q0 114 93 184q90 68 260 72h4q66 0 139 -13q90 -12 90 -100q0 -41 -28 -70q-27 -27 -72 -26q-16 0 -23 2q-51 8 -108 8q-141 0 -142 -55q0 -27 43 -45.5t121 -18.5q90 0 201 33q113 33 207 109q92 74 92 163 q0 70 -63 115q-66 47 -166 47q-66 0 -182.5 -41t-188.5 -41q-121 0 -211 65.5t-90 186.5zM256 483q0 -51 94 -51q84 0 190.5 65.5t106.5 129.5q0 51 -86 51q-96 0 -200.5 -68t-104.5 -127z" />
<glyph unicode="h" horiz-adv-x="974" d="M76 92v1129q0 47 30.5 77.5t75.5 30.5t76 -30.5t31 -77.5v-449q100 111 248 111q174 0 268 -113q96 -115 96 -313v-365q0 -43 -31 -74q-33 -33 -75.5 -32.5t-75.5 32.5q-31 31 -31 74v365q0 70 -16 123q-14 47 -45 65q-29 18 -47 21q-25 4 -43 4q-63 0 -137 -49.5 t-111 -137.5v-391q0 -43 -31 -74q-33 -33 -76 -32.5t-76 32.5q-30 31 -30 74z" />
<glyph unicode="i" horiz-adv-x="362" d="M63 1216.5q0 49.5 35 84t84 34.5t84 -34.5t35 -84t-35 -84t-84 -34.5t-84 34.5t-35 84zM76 94v680q0 45 30.5 76t75.5 31t76 -31t31 -76v-680q0 -43 -31 -74q-33 -33 -76 -32.5t-76 32.5q-30 31 -30 74z" />
<glyph unicode="j" horiz-adv-x="376" d="M-303 -250q0 2 4 31q8 33 39 55q27 20 63 21q14 0 31 -4q51 -10 78 -11q176 0 176 199v731q0 45 31 76t76 31t75.5 -31t30.5 -76v-733q0 -182 -104 -297q-104 -113 -287 -113q-68 0 -135 19q-33 8 -56 39q-22 28 -22 63zM78 1216.5q0 49.5 34.5 84t84 34.5t84 -34.5 t34.5 -84t-34.5 -84t-84 -34.5t-84 34.5t-34.5 84z" />
<glyph unicode="k" horiz-adv-x="901" d="M76 92v1129q0 47 30.5 77.5t75.5 30.5t76 -30.5t31 -77.5v-592l346 229q31 18 67 19q41 0 72 -31t31 -74q0 -58 -43 -86l-254 -162l336 -362q27 -31 26 -70q0 -43 -32 -76q-31 -31 -74 -30q-45 0 -80 34l-395 429v-357q0 -45 -31 -75.5t-76 -30.5t-75.5 30.5t-30.5 75.5z " />
<glyph unicode="l" horiz-adv-x="362" d="M76 94v1127q0 47 30.5 77.5t75.5 30.5t76 -30.5t31 -77.5v-1127q0 -43 -31 -74q-33 -33 -76 -32.5t-76 32.5q-30 31 -30 74z" />
<glyph unicode="m" horiz-adv-x="1560" d="M76 92v684q0 45 30.5 76t75.5 31t76 -31t31 -76v-4q100 111 235 111q209 0 303 -160q114 160 295 160q168 0 267 -115q98 -113 98 -311v-365q0 -41 -33 -73.5t-74 -32.5q-45 0 -77 32q-31 31 -31 74v365q0 78 -14.5 123t-45.5 65q-27 16 -45 21q-25 4 -45 4 q-59 0 -126.5 -49.5t-106.5 -135.5v-393q0 -43 -31 -74q-33 -33 -76 -32.5t-75 32.5q-31 31 -31 74v365q0 78 -14 123q-14 47 -46 65q-29 18 -47 21q-25 4 -45 4q-61 0 -129 -49q-72 -51 -106 -138v-391q0 -43 -31 -74q-33 -33 -76 -32.5t-76 32.5q-30 31 -30 74z" />
<glyph unicode="n" horiz-adv-x="974" d="M76 92v684q0 45 30.5 76t75.5 31t76 -31t31 -76v-4q100 111 248 111q174 0 268 -113q96 -115 96 -313v-365q0 -43 -31 -74q-33 -33 -75.5 -32.5t-75.5 32.5q-31 31 -31 74v365q0 70 -16 123q-14 47 -45 65q-29 18 -47 21q-25 4 -43 4q-63 0 -137 -49.5t-111 -137.5v-391 q0 -43 -31 -74q-33 -33 -76 -32.5t-76 32.5q-30 31 -30 74z" />
<glyph unicode="o" horiz-adv-x="940" d="M35 313q-2 207 168 392q170 182 379 182q144 0 233 -99q88 -96 88 -241q0 -215 -168 -391q-170 -178 -379 -179q-143 0 -233 97q-88 94 -88 239zM248 317q0 -127 108 -127q120 0 228 117q106 115 106 242q0 125 -108 125q-117 0 -225.5 -119t-108.5 -238z" />
<glyph unicode="p" horiz-adv-x="1040" d="M76 -260v915q0 63 57 95q258 135 475 135q162 0 279 -86t117 -244q0 -102 -48 -184q-49 -86 -125 -150q-74 -61 -172 -110q-102 -51 -190 -78q-78 -23 -180 -41v-252q0 -45 -31 -76t-76 -31t-75.5 31t-30.5 76zM289 190q86 23 137 43q88 35 164 76q80 43 143 113 q57 63 58 133q0 61 -58 88q-61 29 -129 29q-137 0 -315 -84v-398z" />
<glyph unicode="q" horiz-adv-x="1052" d="M35 303q0 129 86 239.5t217 178.5q125 63 262 106q127 39 254 56q2 0 4 1t4 1h6q47 0 80 -33t33 -82v-1030q0 -45 -30.5 -76t-76.5 -31q-47 0 -77.5 31t-30.5 76v336q-194 -98 -350 -99q-160 0 -270.5 86t-110.5 240zM250 301q0 -61 53 -86q52 -25 123 -25q147 0 340 105 v364q-86 -20 -145 -41q-61 -20 -166 -71q-80 -39 -146 -111q-59 -65 -59 -135z" />
<glyph unicode="r" horiz-adv-x="768" d="M74 92v678q0 43 32 76q31 31 76 31q43 0 74 -31t33 -76q29 49 84 82q53 33 123 33q129 0 223 -107q27 -33 26 -67q0 -45 -30 -76q-33 -33 -76 -33q-47 0 -82 35q-33 39 -82 39q-57 0 -113 -76q-59 -82 -73 -186v-322q0 -43 -33 -76q-31 -31 -74 -30q-45 0 -76 30 q-32 33 -32 76z" />
<glyph unicode="s" horiz-adv-x="722" d="M27 168q0 39 32 76q31 31 76 30q43 0 76 -32q25 -27 72 -45q49 -18 92 -19q41 0 65 19q23 16 23 47q0 72 -162 110q-117 31 -186 103q-66 68 -66 172q0 119 82 186.5t201 67.5q147 0 260 -64q55 -28 55 -92q0 -25 -14 -51q-27 -55 -94 -55q-27 0 -52 12q-84 47 -139 47 q-86 0 -86 -51q0 -40 92 -68q324 -80 324 -317q0 -114 -86 -191q-84 -76 -217 -76q-89 0 -178 31q-82 29 -140 86q-30 31 -30 74z" />
<glyph unicode="t" horiz-adv-x="776" d="M31 756q0 45 30.5 75.5t75.5 30.5h53v279q0 45 31 75.5t76 30.5t75.5 -30.5t30.5 -75.5v-279h213q45 0 76 -30.5t31 -75.5t-30.5 -76t-76.5 -31h-213v-262q0 -102 41 -149q39 -45 131 -45q6 0 48 4l4 1l4 1h8q45 0 75.5 -31t30.5 -78q0 -111 -174 -110q-190 0 -284 110 q-96 113 -97 297v262h-53q-45 0 -75.5 31t-30.5 76z" />
<glyph unicode="u" horiz-adv-x="976" d="M76 406v364q0 45 30.5 76t75.5 31t76 -31t31 -76v-364q0 -78 14 -121q14 -45 45 -64q33 -20 49 -22q25 -4 43 -4q63 0 137 49t111 137v389q0 43 33 76q31 31 74 31q47 0 77.5 -31t30.5 -76v-682q0 -45 -30.5 -75.5t-77.5 -30.5q-43 0 -74 30q-33 33 -33 76v4 q-100 -113 -248 -112q-170 0 -268 114q-96 111 -96 312z" />
<glyph unicode="v" horiz-adv-x="952" d="M35 768q0 43 31 74q33 33 77 32q70 0 95 -59l239 -508l238 508q29 59 100 59q43 0 74 -30.5t31 -73.5q0 -25 -13 -47l-327 -682q-35 -66 -105 -66q-72 0 -100 66l-328 682q-12 22 -12 45z" />
<glyph unicode="w" horiz-adv-x="1452" d="M35 768q0 43 31 74q33 33 77 32q70 0 95 -59l225 -485l164 477q25 72 100.5 72t99.5 -72l164 -477l226 483q29 61 96 61q45 0 75.5 -30.5t30.5 -77.5q0 -18 -10 -45l-330 -678q-29 -66 -104 -66q-37 0 -64 21q-29 23 -41 55l-143 402l-143 -402q-27 -76 -107 -76 q-72 0 -102 64l-328 682q-12 22 -12 45z" />
<glyph unicode="x" horiz-adv-x="821" d="M35 92q0 35 20 64l213 290l-190 261q-20 27 -21 63q0 45 31 76t76 31q53 0 86 -46l162 -227l161 227q33 45 86 46q45 0 76 -31q33 -33 33 -78q0 -33 -23 -61l-188 -261l211 -288q20 -27 20 -66q0 -41 -32 -74q-31 -31 -74 -30q-55 0 -86 43l-184 256l-183 -256 q-31 -45 -86 -45q-47 0 -77.5 30.5t-30.5 75.5z" />
<glyph unicode="y" horiz-adv-x="948" d="M-6 -256q0 47 30.5 78t75.5 31q16 0 31 -5q18 -8 47 -8q111 0 189 170l4 13l-326 700q-10 27 -10 45q0 45 30.5 75.5t75.5 30.5q68 0 97 -61l247 -528l226 518q29 66 96 65q43 0 75.5 -32.5t32.5 -75.5q0 -16 -10 -41l-344 -793q-66 -145 -162 -221q-98 -78 -217 -80 q-55 0 -110 19q-34 9 -56 37t-22 63z" />
<glyph unicode="z" horiz-adv-x="847" d="M39 106q0 41 24 70l408 473h-311q-43 0 -74 31q-33 33 -33 76t33 75q31 31 74 31h545q45 0 75.5 -30.5t30.5 -75.5q0 -43 -27 -70l-405 -473h342q45 0 75.5 -30.5t30.5 -76t-30.5 -76t-75.5 -30.5h-576q-45 0 -75.5 30.5t-30.5 75.5z" />
<glyph unicode="{" horiz-adv-x="704" d="M-59 592q0 41 30 72q33 33 74 32q90 0 90 64q0 29 -14 78q-43 187 -43 288q0 203 118.5 283t389.5 80q43 0 80 -33q33 -31 32.5 -76t-33 -77.5t-79.5 -32.5h-54q-113 0 -161 -19q-66 -29 -66 -125q0 -68 26.5 -182.5t26.5 -179.5q0 -119 -75 -172q76 -49 75 -172 q0 -66 -26.5 -180.5t-26.5 -182.5q0 -80 35 -108q33 -27 121 -33q18 -2 90 -2h35q47 0 79.5 -33t32.5 -78t-32.5 -77.5t-79.5 -32.5q-268 0 -389 84q-119 82 -119 280q0 98 43 289q16 66 16 90.5t-20 38.5q-18 12 -72 12q-41 0 -72 31q-32 33 -32 74z" />
<glyph unicode="|" horiz-adv-x="362" d="M76 94v1127q0 47 30.5 77.5t75.5 30.5t76 -30.5t31 -77.5v-1127q0 -43 -31 -74q-33 -33 -76 -32.5t-76 32.5q-30 31 -30 74z" />
<glyph unicode="}" horiz-adv-x="704" d="M8 -197q0 45 33 78t82 33h33q72 0 90 2q88 6 122.5 35t34.5 106q0 57 -28 183q-27 115 -27 180q0 121 76 172q-76 51 -76 172q0 66 27 180q29 125 28 182q0 96 -65 125q-51 18 -162 19h-53q-49 0 -82 32.5t-33 77.5t33 76q37 33 82 33q267 0 387 -80q119 -80 119 -283 q0 -117 -43 -288q-12 -59 -13 -78q0 -63 89 -64q43 0 75 -32q31 -31 31 -72q0 -43 -33 -74q-34 -31 -73 -31q-51 0 -72 -12t-21 -39q0 -35 17 -90q43 -172 43 -289q0 -200 -117 -282q-115 -82 -389 -82q-49 0 -82 32.5t-33 77.5z" />
<glyph unicode="~" horiz-adv-x="1200" d="M35 608q0 33 12 58q133 262 344 262q88 0 166 -39q94 -47 139 -78q57 -39 103 -39q20 0 30 2q6 2 29 14q10 6 22.5 14.5t24.5 20.5l21 21l20 24q4 6 8 10.5t7 7.5l2 3q33 43 90 43q45 0 80 -33q37 -34 36 -80q0 -29 -22 -67q-141 -211 -352 -211q-84 0 -164 43 q-92 49 -142 84q-59 41 -104 41q-14 0 -29 -9q-16 -8 -26 -20q-9 -9 -25 -31q-20 -29 -22 -33q-10 -20 -19 -34q-4 -6 -7 -12.5l-5 -10.5l-2 -4q-37 -57 -98 -57q-45 0 -82 32q-35 31 -35 78z" />
<glyph unicode="&#xa1;" horiz-adv-x="370" d="M78 1208.5q0 51.5 37 88t88 36.5t88 -36.5t37 -88t-37 -88.5t-88 -37t-88 37t-37 88.5zM88 100v818q0 47 35 81q33 33 80 33t80 -33q35 -35 34 -81v-818q0 -45 -34.5 -79.5t-79.5 -34.5t-80 34.5t-35 79.5z" />
<glyph unicode="&#xa2;" horiz-adv-x="1028" d="M35 578q0 289 387 454v189q0 47 30.5 77.5t75.5 30.5t76 -30.5t31 -77.5v-115q104 29 227 45h15q45 0 73 -29q31 -31 31 -75q0 -43 -27 -72q-29 -33 -65 -35q-63 -8 -165.5 -34.5t-211.5 -67.5q-106 -41 -188 -113q-76 -68 -76 -145q0 -61 59 -91q61 -29 129 -28 q174 0 391 117q20 14 50 14q39 0 75 -33q33 -31 33 -76q0 -61 -57 -94q-145 -78 -293 -115v-184q0 -43 -31 -74q-33 -33 -76 -32.5t-75 32.5q-31 31 -31 74v158q-158 4 -272.5 90t-114.5 240z" />
<glyph unicode="&#xa3;" horiz-adv-x="1062" d="M25 700.5q0 47.5 34 81.5q33 33 80 33h72q-18 78 -18 150q0 168 126 270q125 100 299 100q166 0 328 -88q63 -31 64 -100q0 -49 -33 -82q-35 -35 -84 -35q-31 0 -53 14q-141 74 -219 74q-80 0 -142 -45q-57 -43 -57 -127q0 -45 27 -131h260q47 0 79 -33q35 -35 35 -82 t-35 -82q-33 -33 -79 -32h-187q10 -68 10 -113q0 -121 -43 -244h414q45 0 80 -34.5t35 -79.5t-35 -80t-80 -35h-606q-49 0 -84 35q-33 33 -33 80q0 45 27 73q43 49 69.5 127t26.5 158q0 57 -18 113h-146q-47 0 -80 32q-34 35 -34 82.5z" />
<glyph unicode="&#xa5;" horiz-adv-x="1107" d="M33 1217q0 49 32.5 81.5t81.5 32.5q59 0 93 -45l319 -422l309 420q35 47 95 47q45 0 79 -35q33 -33 33 -82q0 -39 -20 -65l-365 -496h70q47 0 82 -34.5t35 -79.5t-35 -80t-82 -35h-84v-76h84q49 0 82 -33q35 -35 35 -82t-35 -81q-33 -33 -82 -33h-84v-19q0 -45 -35 -79.5 t-80 -34.5q-47 0 -82 34q-33 33 -33 80v19h-98q-49 0 -82 32.5t-33 82t33 82t82 32.5h98v76h-98q-47 0 -82 35q-33 33 -33 80t33 79q35 35 82 35h82l-373 494q-24 31 -24 70z" />
<glyph unicode="&#xa6;" horiz-adv-x="362" d="M76 92v377q0 45 30.5 75.5t75.5 30.5t76 -30.5t31 -75.5v-377q0 -45 -31 -75.5t-76 -30.5t-75.5 30.5t-30.5 75.5zM76 844v377q0 45 30.5 75.5t75.5 30.5t76 -30.5t31 -75.5v-377q0 -45 -31 -76t-76 -31t-75.5 31t-30.5 76z" />
<glyph unicode="&#xa7;" horiz-adv-x="761" d="M31 -121q0 45 35 74q37 31 77 31q45 0 115 -70q72 -72 119 -72q37 0 67 27q29 25 29 61q0 70 -92 127q-162 104 -254 242q-94 141 -94 283v2q0 139 90 247q-78 96 -78 201q0 126 98 215q96 88 225.5 88t241.5 -84q109 -82 109 -168q0 -43 -35 -73q-33 -31 -78 -31 t-114 70q-72 72 -119 71q-37 0 -68 -26q-29 -25 -29 -62q0 -66 95 -127q162 -106 254 -243.5t92 -278.5v-4v-2q0 -137 -90 -246q78 -96 78 -199q0 -129 -96.5 -217t-227.5 -88q-127 0 -240 84q-110 84 -110 168zM260 584q0 -82 59 -166q57 -80 136 -144q35 51 34 105 q0 82 -59 166q-61 88 -135 143q-35 -47 -35 -104z" />
<glyph unicode="&#xa8;" horiz-adv-x="903" d="M178 1229q0 45 31 75.5t76 30.5q47 0 77.5 -30.5t30.5 -75.5q0 -47 -30.5 -78t-77.5 -31q-45 0 -76 31t-31 78zM512 1229q0 45 30.5 75.5t75.5 30.5q47 0 78 -30.5t31 -75.5q0 -47 -30.5 -78t-78.5 -31q-45 0 -75.5 31t-30.5 78z" />
<glyph unicode="&#xa9;" horiz-adv-x="1724" d="M55 563q0 221 142 406q139 182 354 282q209 98 424 99q174 0 336 -70q156 -68 258 -207t102 -321q0 -217 -143 -404q-139 -182 -352 -282q-209 -98 -424 -99q-178 0 -336 68q-156 68 -260 209q-101 137 -101 319zM254 563q0 -188 152 -293q154 -106 346 -106 q162 0 327 72q164 72 279 211t115 307q0 186 -150 290q-154 106 -348 107q-123 0 -248 -43q-123 -41 -231 -117q-106 -74 -174 -186.5t-68 -241.5zM426 582q0 106 61 194q59 88 162 142q111 59 201 86q102 31 201 43l6 2h6q45 0 75.5 -31t30.5 -78q0 -41 -26 -70 q-29 -33 -66 -34q-63 -8 -116 -23q-90 -27 -144 -47q-74 -29 -127 -80q-51 -49 -51 -106q0 -40 37 -56q39 -16 80 -16q114 0 258 80q25 12 51 12q45 0 75.5 -30.5t30.5 -75.5q0 -68 -55 -95q-195 -104 -360 -104q-131 0 -232 78q-98 77 -98 209z" />
<glyph unicode="&#xaa;" horiz-adv-x="1093" d="M45 930q0 111 98.5 196.5t239.5 135.5q139 49 274 73q133 25 230 25q45 0 75.5 -31t30.5 -76v-456q0 -41 -30.5 -72t-71.5 -31q-72 0 -96 66q-217 -78 -389 -78q-82 0 -162 23q-76 20 -137.5 79.5t-61.5 145.5zM256 934q0 -47 152 -47q166 0 380 90v168h-4 q-106 2 -317 -67.5t-211 -143.5z" />
<glyph unicode="&#xab;" horiz-adv-x="946" d="M18 489q0 39 27 72l256 287q31 35 80 35q45 0 75.5 -31t30.5 -76q0 -39 -26 -69l-193 -218l193 -217q27 -31 26 -71q0 -45 -30.5 -76t-75.5 -31t-80 35l-256 291q-27 32 -27 69zM444 489q0 45 27 72l256 287q31 35 78 35q45 0 76 -31q33 -33 32 -76q0 -37 -28 -69 l-191 -218l193 -217q27 -31 26 -71q0 -45 -30.5 -76t-75.5 -31q-49 0 -80 35l-256 291q-27 26 -27 69z" />
<glyph unicode="&#xad;" horiz-adv-x="595" d="M53 510q0 49 33 82t82 33h262q49 0 82 -33t33 -82t-33 -82t-82 -33h-262q-49 0 -82 33t-33 82z" />
<glyph unicode="&#xae;" horiz-adv-x="1724" d="M55 563q0 221 142 406q139 182 354 282q209 98 424 99q174 0 336 -70q156 -68 258 -207t102 -321q0 -217 -143 -404q-139 -182 -352 -282q-209 -98 -424 -99q-178 0 -336 68q-156 68 -260 209q-101 137 -101 319zM254 563q0 -188 152 -293q154 -106 346 -106 q160 0 325 72q162 70 281 210q115 135 115 308q0 186 -150 290q-154 106 -348 107q-123 0 -248 -43q-123 -41 -231 -117q-106 -74 -174 -186.5t-68 -241.5zM641 403v502q0 45 30.5 76t76.5 31q35 0 67 -23q31 -23 31 -59q70 70 170 69q127 0 217 -98q27 -29 27 -70 q0 -45 -31 -75.5t-78 -30.5q-45 0 -80 35q-27 37 -53 37q-66 0 -115 -58t-49 -123v-213q0 -45 -30.5 -75.5t-76 -30.5t-76 30.5t-30.5 75.5z" />
<glyph unicode="&#xaf;" horiz-adv-x="874" d="M125 1223q0 41 27 65q29 25 63 25h447q35 0 63 -25q27 -25 27 -65q0 -37 -27 -63.5t-63 -26.5h-447q-37 0 -63.5 26.5t-26.5 63.5z" />
<glyph unicode="&#xb0;" horiz-adv-x="671" d="M59 1059q0 117 94.5 198.5t213.5 81.5q102 0 174 -63q74 -63 73 -164q0 -117 -94 -197q-98 -82 -213 -81q-104 0 -176 63.5t-72 161.5zM240 1061q0 -47 67 -47q39 0 84 28q43 27 43 70q0 47 -67 47q-39 0 -84 -29q-43 -28 -43 -69z" />
<glyph unicode="&#xb2;" horiz-adv-x="837" d="M74 514v2q0 27 12 51q16 37 57 88q51 66 54 68q22 25 86 74l51 36.5t28 20.5l13.5 9t30 21.5t59.5 41.5q88 57 88 118q0 39 -35 61.5t-78 22.5h-2q-63 2 -172 -63q-29 -16 -57 -16q-57 0 -90 49q-16 29 -17 57q0 57 50 90q145 90 292 90q132 0 228 -80q94 -80 94 -211 q0 -80 -51 -157q-51 -80 -150 -137q-45 -29 -55 -33l-34.5 -20.5t-20.5 -12.5q-4 -2 -18.5 -11t-24.5 -16q-25 -18 -43 -36h305q43 0 74 -31q33 -33 32.5 -76t-32.5 -76q-31 -31 -74 -30h-494q-43 0 -74 30q-28 29 -32 76z" />
<glyph unicode="&#xb3;" horiz-adv-x="843" d="M51 1171q0 61 58 95q133 72 245 71q117 0 201 -77q82 -76 82 -189q0 -58 -25 -92q78 -23 129 -82q49 -57 50 -139q0 -100 -60 -174q-63 -78 -158 -123q-94 -43 -190 -70q-90 -25 -186 -37q-2 -2 -13 -2q-41 0 -69 27q-33 29 -35 67q-2 2 -2 13q0 39 28.5 71.5t65.5 34.5 q150 18 279 74q127 55 127 113q0 27 -23 41t-66 14q-70 0 -131 -16l-157 -41q-12 -4 -27 -5q-43 0 -73.5 31t-30.5 78q0 37 22 66q20 27 60 36l157 37q74 16 92 29q23 14 23 43q0 57 -70 57h-2q-61 0 -143 -45q-25 -12 -51 -12q-45 0 -76 30.5t-31 75.5z" />
<glyph unicode="&#xb4;" horiz-adv-x="903" d="M256 1114q0 47 39 74l209 145q29 16 53 17q37 0 61 -27q27 -31 27 -66q0 -49 -39 -73l-209 -144q-23 -16 -51 -16q-35 0 -63 25q-27 24 -27 65z" />
<glyph unicode="&#xb5;" horiz-adv-x="976" d="M76 -260v1030q0 45 30.5 76t75.5 31t76 -31t31 -76v-389q39 -88 112.5 -137t135.5 -49q20 0 45 4q18 2 47 22q29 18 43 64q16 49 16 121v364q0 43 33 76q31 31 74 31q47 0 77.5 -31t30.5 -76v-364q0 -203 -96 -314q-98 -113 -270 -112q-141 0 -248 112v-4v-348 q0 -45 -31 -76t-76 -31t-75.5 31t-30.5 76z" />
<glyph unicode="&#x3bc;" horiz-adv-x="976" d="M76 -260v1030q0 45 30.5 76t75.5 31t76 -31t31 -76v-389q39 -88 112.5 -137t135.5 -49q20 0 45 4q18 2 47 22q29 18 43 64q16 49 16 121v364q0 43 33 76q31 31 74 31q47 0 77.5 -31t30.5 -76v-364q0 -203 -96 -314q-98 -113 -270 -112q-141 0 -248 112v-4v-348 q0 -45 -31 -76t-76 -31t-75.5 31t-30.5 76z" />
<glyph unicode="&#xb6;" horiz-adv-x="1071" d="M31 989q0 166 125 256q121 88 280 88q225 0 488 -145q53 -29 53 -92v-1004q0 -43 -31 -73.5t-74 -30.5t-73.5 30.5t-30.5 73.5v318q-80 12 -145 30v-348q0 -43 -31 -73.5t-74 -30.5t-74 30q-33 33 -32 74v424q-152 72 -269 195q-112 118 -112 278zM242 989 q0 -121 170 -231v362q-74 -2 -123 -39q-47 -35 -47 -92zM623 659q86 -25 145 -34v407q-74 37 -145 58v-431z" />
<glyph unicode="&#xb7;" horiz-adv-x="329" d="M53 624.5q0 53.5 35 88.5q37 37 88 37t88 -37t37 -88.5t-37 -88t-88 -36.5t-88 37q-35 34 -35 87.5z" />
<glyph unicode="&#xb8;" horiz-adv-x="903" d="M254 -309q0 33 22.5 59.5t53.5 28.5q111 20 110 80q0 23 -12 39t-25 16q-41 0 -65.5 26.5t-24.5 65.5q0 33 27 64q25 27 63 26q92 0 151.5 -71.5t59.5 -165.5q0 -104 -82 -181q-84 -78 -188 -77q-37 0 -63.5 26.5t-26.5 63.5z" />
<glyph unicode="&#xb9;" horiz-adv-x="585" d="M63 1087q0 57 46 89l190 135q33 18 59 20q45 0 76 -31q33 -33 33 -77v-729q0 -45 -30.5 -76t-76 -31t-76 31t-30.5 76v524l-23 -17q-27 -18 -59 -18h-2q-45 0 -76 30.5t-31 73.5z" />
<glyph unicode="&#xba;" horiz-adv-x="1034" d="M47 938q0 125 102.5 233.5t235.5 159.5q137 53 256 53q139 0 241.5 -71.5t102.5 -200.5q0 -125 -102.5 -233.5t-235.5 -159.5q-137 -53 -254 -53q-137 0 -243 71q-103 70 -103 201zM262 938q0 -33 43 -45q51 -14 88 -14q100 0 239.5 71.5t139.5 161.5q0 33 -45 45 q-53 14 -86 14q-100 0 -239.5 -71.5t-139.5 -161.5z" />
<glyph unicode="&#xbb;" horiz-adv-x="946" d="M35 201q0 39 28 71l193 217l-193 218q-27 27 -26 69q0 45 30.5 76t75.5 31t80 -35l254 -287q27 -27 27 -72q0 -43 -27 -69l-256 -291q-31 -35 -80 -35q-45 0 -75.5 31t-30.5 76zM461 201q0 41 26 71l193 217l-193 218q-27 33 -26 69q0 45 30.5 76t75.5 31q49 0 80 -35 l256 -287q27 -27 27 -72q0 -43 -27 -69l-256 -291q-31 -35 -80 -35q-45 0 -75.5 31t-30.5 76z" />
<glyph unicode="&#xbc;" horiz-adv-x="1804" d="M63 1087q0 57 46 89l190 135q33 18 59 20q45 0 76 -31q33 -33 33 -77v-729q0 -45 -30.5 -76t-76 -31t-76 31t-30.5 76v524l-23 -17q-27 -18 -59 -18h-2q-45 0 -76 30.5t-31 73.5zM287 100q0 39 26 76l918 1112q35 41 86 41t84 -32.5t33 -82.5q0 -45 -27 -73l-915 -1112 q-35 -41 -89 -41q-51 0 -83.5 32.5t-32.5 79.5zM850 268q0 40 24 68l461 557q31 39 84 39q43 0 74 -31t31 -76q0 -43 -25 -67l-315 -383h170v92q0 45 30.5 75.5t75.5 30.5t76 -30.5t31 -75.5v-92h67q45 0 76 -31t31 -76t-31 -75.5t-76 -30.5h-67v-68q0 -45 -31 -75.5 t-76 -30.5t-75.5 30.5t-30.5 75.5v68h-396q-71 0 -98 61q-10 27 -10 45z" />
<glyph unicode="&#xbd;" horiz-adv-x="1935" d="M63 1087q0 57 46 89l190 135q33 18 59 20q45 0 76 -31q33 -33 33 -77v-729q0 -45 -30.5 -76t-76 -31t-76 31t-30.5 76v524l-23 -17q-27 -18 -59 -18h-2q-45 0 -76 30.5t-31 73.5zM287 100q0 39 26 76l918 1112q35 41 86 41t84 -32.5t33 -82.5q0 -45 -27 -73l-915 -1112 q-35 -41 -89 -41q-51 0 -83.5 32.5t-32.5 79.5zM1165 106v3q0 29 13 53q37 72 94 133q63 66 102 94l154 109l28 20q88 57 89 119q0 45 -35 65.5t-78 20.5h-2q-70 0 -172 -64q-27 -16 -58 -16q-59 0 -90 49q-16 29 -16 58q0 57 49 90q145 90 293 90q132 0 227 -80 q94 -80 95 -211q0 -82 -52 -160q-51 -80 -149 -137q-47 -27 -55 -33l-56 -33q-4 -2 -12 -7l-15.5 -10t-15.5 -11q-33 -25 -43 -35h305q43 0 74 -31q33 -33 33 -76t-33 -75q-31 -31 -74 -31h-493q-45 0 -76 31q-27 26 -31 75z" />
<glyph unicode="&#xbe;" horiz-adv-x="1959" d="M51 1171q0 61 58 95q133 72 245 71q117 0 201 -77q82 -76 82 -189q0 -58 -25 -92q78 -23 129 -82q49 -57 50 -139q0 -100 -60 -174q-63 -78 -158 -123q-94 -43 -190 -70q-90 -25 -186 -37q-2 -2 -13 -2q-41 0 -69 27q-33 29 -35 67q-2 2 -2 13q0 39 28.5 71.5t65.5 34.5 q150 18 279 74q127 55 127 113q0 27 -23 41t-66 14q-70 0 -131 -16l-157 -41q-12 -4 -27 -5q-43 0 -73.5 31t-30.5 78q0 37 22 66q20 27 60 36l157 37q74 16 92 29q23 14 23 43q0 57 -70 57h-2q-61 0 -143 -45q-25 -12 -51 -12q-45 0 -76 30.5t-31 75.5zM463 100q0 39 26 76 l916 1112q35 41 88 41q51 0 84 -32.5t33 -82.5q0 -45 -27 -73l-915 -1112q-35 -41 -88 -41q-49 0 -82 32q-35 35 -35 80zM1026 268q0 40 25 68l460 557q31 39 82 39q45 0 76 -31t31 -76q0 -40 -25 -67l-315 -383h170v92q0 45 30.5 75.5t75.5 30.5q43 0 74 -30q33 -33 33 -76 v-92h67q45 0 76 -31t31 -76t-31 -75.5t-76 -30.5h-67v-68q0 -43 -33 -76q-31 -31 -74 -30q-45 0 -75.5 30.5t-30.5 75.5v68h-397q-68 0 -97 61q-10 27 -10 45z" />
<glyph unicode="&#xbf;" horiz-adv-x="925" d="M25 360q0 133 98 238q96 102 235 152q63 20 86 53t23 112v5q0 47 35 81.5t80 34.5t79.5 -34.5t34.5 -81.5v-5q0 -297 -262 -383q-88 -29 -133 -81q-47 -57 -47 -105q0 -70 51 -106q52 -37 141 -37q49 0 136 30q90 33 139 60q27 16 59 16q47 0 80 -33q35 -35 35 -83 q0 -63 -57 -97q-63 -39 -191 -80q-117 -37 -203 -36q-168 0 -294 108q-125 106 -125 272zM455 1208.5q0 51.5 36.5 88t88 36.5t88.5 -36.5t37 -88t-37 -88.5t-88.5 -37t-88 37t-36.5 88.5z" />
<glyph unicode="&#xc0;" horiz-adv-x="1290" d="M45 100q0 18 10 45l480 1112q33 76 114 76q78 0 109 -69l483 -1119q8 -16 8 -45q0 -49 -32 -82q-35 -35 -82 -34q-74 0 -105 69l-110 254h-543l-111 -254q-31 -70 -106 -69q-45 0 -80 34.5t-35 81.5zM410 1645q0 33 26 63q25 27 62 27t53 -17l211 -143q39 -27 39 -76 q0 -37 -26.5 -63.5t-65.5 -26.5q-23 0 -52 16l-208 146q-39 27 -39 74zM469 522h358l-180 416z" />
<glyph unicode="&#xc1;" horiz-adv-x="1290" d="M45 100q0 18 10 45l480 1112q33 76 114 76q78 0 109 -69l483 -1119q8 -16 8 -45q0 -49 -32 -82q-35 -35 -82 -34q-74 0 -105 69l-110 254h-543l-111 -254q-31 -70 -106 -69q-45 0 -80 34.5t-35 81.5zM469 522h358l-180 416zM500 1499q0 49 39 76l209 143q23 16 53 17 q37 0 63.5 -27t26.5 -63q0 -47 -39 -74l-211 -146q-23 -16 -51 -16q-37 0 -63.5 26.5t-26.5 63.5z" />
<glyph unicode="&#xc2;" horiz-adv-x="1290" d="M45 100q0 18 10 45l480 1112q33 76 114 76q78 0 109 -69l483 -1119q8 -16 8 -45q0 -49 -32 -82q-35 -35 -82 -34q-74 0 -105 69l-110 254h-543l-111 -254q-31 -70 -106 -69q-45 0 -80 34.5t-35 81.5zM317 1481q0 51 43 75l236 152q20 14 49 14t49 -14l238 -152 q43 -25 43 -75q0 -39 -27 -64q-31 -27 -65 -26q-27 0 -47 14l-191 121l-188 -121q-20 -14 -49 -14q-33 0 -64 26q-27 25 -27 64zM469 522h358l-180 416z" />
<glyph unicode="&#xc3;" horiz-adv-x="1290" d="M45 100q0 18 10 45l480 1112q33 76 114 76q78 0 109 -69l483 -1119q8 -16 8 -45q0 -49 -32 -82q-35 -35 -82 -34q-74 0 -105 69l-110 254h-543l-111 -254q-31 -70 -106 -69q-45 0 -80 34.5t-35 81.5zM270 1513q0 27 11 43q86 156 213 156q70 0 186 -61q82 -45 115 -45 q29 0 65 49q25 37 70 37q39 0 65.5 -27t26.5 -66q0 -29 -16 -51q-88 -123 -213 -123q-78 0 -199 66q-70 39 -96 39q-14 0 -29 -14q-8 -8 -29 -46q-29 -47 -78 -47q-39 0 -65.5 26.5t-26.5 63.5zM469 522h358l-180 416z" />
<glyph unicode="&#xc4;" horiz-adv-x="1290" d="M45 100q0 18 10 45l480 1112q33 76 114 76q78 0 109 -69l483 -1119q8 -16 8 -45q0 -49 -32 -82q-35 -35 -82 -34q-74 0 -105 69l-110 254h-543l-111 -254q-31 -70 -106 -69q-45 0 -80 34.5t-35 81.5zM371 1522q0 43 32 75q31 31 76 31t76 -31q33 -33 33 -75.5t-33 -75.5 t-76 -33t-75.5 33t-32.5 76zM469 522h358l-180 416zM705 1522q0 43 32 75q31 31 76 31q47 0 78 -30.5t31 -75.5t-31 -76q-33 -33 -78 -33q-43 0 -75.5 33t-32.5 76z" />
<glyph unicode="&#xc5;" horiz-adv-x="1290" d="M45 100q0 18 10 45l449 1037q-135 58 -135 202q0 117 94 199t213 82q104 0 176 -63.5t72 -163.5q0 -151 -142 -234l459 -1059q8 -16 8 -45q0 -49 -32 -82q-35 -35 -82 -34q-74 0 -105 69l-110 254h-543l-111 -254q-31 -70 -106 -69q-45 0 -80 34.5t-35 81.5zM469 522h358 l-180 416zM549 1384q0 -47 67 -47q43 0 84 29q43 31 43 72q0 47 -67 47q-41 0 -84 -31t-43 -70z" />
<glyph unicode="&#xc6;" horiz-adv-x="1613" d="M47 102q0 27 12 52l441 858q154 303 430 303h516q47 0 82 -35q33 -33 33 -80q0 -49 -33 -82t-82 -33h-402v-405h367q47 0 82 -35q33 -33 33 -80t-33 -80q-35 -35 -82 -34h-367v-222h410q47 0 82 -34q33 -33 33 -80t-33 -80q-35 -35 -82 -35h-524q-45 0 -80 35t-35 80v336 h-346l-205 -402q-33 -63 -102 -63q-45 0 -80 34.5t-35 81.5zM588 678h227v371q-14 -10 -45 -48q-14 -18 -45 -63l-18 -27z" />
<glyph unicode="&#xc7;" horiz-adv-x="1148" d="M49 516q0 176 82 322q83 147 221 245q139 98 291 160q156 63 322 90q4 2 20 2q47 0 82 -35q33 -33 33 -79q0 -45 -27 -74q-31 -33 -69 -39q-98 -16 -189 -45q-86 -29 -194 -82q-100 -51 -172 -112.5t-121 -155.5q-49 -92 -49 -197q0 -135 81 -219q84 -88 213 -88 q160 0 355 139q35 23 65 23q49 0 82 -33q35 -35 35 -84q0 -57 -47 -92q-152 -111 -297 -154q47 -66 47 -149q0 -104 -82 -181q-84 -78 -188 -77q-37 0 -63.5 26.5t-26.5 63.5q0 33 22 59q23 25 53 29q111 20 111 80q0 23 -10.5 39t-26.5 16q-70 0 -88 68q-203 23 -334 170 q-131 149 -131 364z" />
<glyph unicode="&#xc8;" horiz-adv-x="892" d="M94 115v1087q0 47 33 80q35 35 82 35h516q47 0 82 -35q33 -33 33 -80q0 -49 -33 -82q-35 -35 -82 -35h-401v-223h366q49 0 82 -33q35 -35 35 -82t-35 -81q-33 -33 -82 -33h-366v-404h409q45 0 80 -34.5t35 -79.5t-35 -80t-80 -35h-524q-47 0 -82 35q-33 33 -33 80z M231 1645q0 35 25 63q25 27 63 27q35 0 54 -17l209 -143q39 -27 39 -76q0 -37 -27 -63.5t-64 -26.5q-25 0 -51 16l-209 146q-39 27 -39 74z" />
<glyph unicode="&#xc9;" horiz-adv-x="892" d="M94 115v1087q0 47 33 80q35 35 82 35h516q47 0 82 -35q33 -33 33 -80q0 -49 -33 -82q-35 -35 -82 -35h-401v-223h366q49 0 82 -33q35 -35 35 -82t-35 -81q-33 -33 -82 -33h-366v-404h409q45 0 80 -34.5t35 -79.5t-35 -80t-80 -35h-524q-47 0 -82 35q-33 33 -33 80z M360 1499q0 49 39 76l209 143q23 16 54 17q37 0 63.5 -27t26.5 -63q0 -47 -39 -74l-211 -146q-23 -16 -51 -16q-37 0 -64 26.5t-27 63.5z" />
<glyph unicode="&#xca;" horiz-adv-x="892" d="M94 115v1087q0 47 33 80q35 35 82 35h516q47 0 82 -35q33 -33 33 -80q0 -49 -33 -82q-35 -35 -82 -35h-401v-223h366q49 0 82 -33q35 -35 35 -82t-35 -81q-33 -33 -82 -33h-366v-404h409q45 0 80 -34.5t35 -79.5t-35 -80t-80 -35h-524q-47 0 -82 35q-33 33 -33 80z M139 1501q0 47 41 76l238 152q20 14 49 14q27 0 47 -14l240 -152q41 -25 41 -76q0 -39 -27 -65q-25 -25 -63 -25q-29 0 -50 14l-188 119l-188 -119q-20 -14 -50 -14q-37 0 -63.5 24.5t-26.5 65.5z" />
<glyph unicode="&#xcb;" horiz-adv-x="892" d="M94 115v1087q0 47 33 80q35 35 82 35h516q47 0 82 -35q33 -33 33 -80q0 -49 -33 -82q-35 -35 -82 -35h-401v-223h366q49 0 82 -33q35 -35 35 -82t-35 -81q-33 -33 -82 -33h-366v-404h409q45 0 80 -34.5t35 -79.5t-35 -80t-80 -35h-524q-47 0 -82 35q-33 33 -33 80z M213 1522q0 45 30.5 75.5t75.5 30.5q47 0 78 -30.5t31 -75.5t-31 -76q-33 -33 -78 -33q-43 0 -75 33q-31 31 -31 76zM547 1522q0 45 30.5 75.5t75.5 30.5t76 -31q33 -33 33 -75.5t-33 -75.5t-76 -33t-75 33q-31 31 -31 76z" />
<glyph unicode="&#xcc;" horiz-adv-x="415" d="M-45 1645q0 35 25 63q25 27 63 27q35 0 53 -17l209 -143q39 -27 39 -76q0 -37 -26.5 -63.5t-63.5 -26.5q-25 0 -51 16l-209 146q-39 25 -39 74zM94 102v1110q0 47 33 80q35 35 82 35q49 0 82 -32.5t33 -82.5v-1110q0 -49 -33 -81.5t-82 -32.5t-82 32.5t-33 81.5z" />
<glyph unicode="&#xcd;" horiz-adv-x="415" d="M74 1499q0 49 39 76l209 143q23 16 53 17q39 0 63 -27q25 -29 25 -63q0 -49 -39 -74l-209 -146q-23 -16 -51 -16q-37 0 -63.5 26.5t-26.5 63.5zM94 102v1110q0 47 33 80q35 35 82 35q49 0 82 -32.5t33 -82.5v-1110q0 -49 -33 -81.5t-82 -32.5t-82 32.5t-33 81.5z" />
<glyph unicode="&#xce;" horiz-adv-x="415" d="M-119 1501q0 47 41 76l238 152q20 14 47 14q29 0 49 -14l240 -152q41 -25 41 -76q0 -41 -25 -65.5t-66 -24.5q-29 0 -49 14l-188 119l-189 -119q-20 -14 -49 -14q-37 0 -63.5 24.5t-26.5 65.5zM94 102v1110q0 47 33 80q35 35 82 35q49 0 82 -32.5t33 -82.5v-1110 q0 -49 -33 -81.5t-82 -32.5t-82 32.5t-33 81.5z" />
<glyph unicode="&#xcf;" horiz-adv-x="415" d="M-66 1522q0 45 31 75.5t78 30.5q45 0 76 -30.5t31 -75.5t-31 -76q-33 -33 -76 -33q-45 0 -78 33q-31 31 -31 76zM94 102v1110q0 47 33 80q35 35 82 35q49 0 82 -32.5t33 -82.5v-1110q0 -49 -33 -81.5t-82 -32.5t-82 32.5t-33 81.5zM268 1522q0 45 31 75.5t78 30.5 q45 0 75.5 -30.5t30.5 -75.5t-30 -76q-33 -33 -76 -33q-45 0 -78 33q-31 31 -31 76z" />
<glyph unicode="&#xd0;" horiz-adv-x="1359" d="M27 592q0 76 71 106l109 43v381q0 74 67 105q246 109 465 108q244 0 408 -143q166 -143 166 -383q0 -141 -61.5 -268t-159.5 -219q-92 -86 -230 -162q-131 -72 -260 -115q-133 -45 -262 -65h-10q-2 0 -5 -2l-3 -1q-47 0 -80 33q-35 35 -35 84v400l-23 -9q-14 -8 -43 -8 q-78 0 -106 72q-8 25 -8 43zM436 211q305 80 475 258q170 180 170 344q0 141 -98 217q-96 76 -244 76q-141 0 -303 -62v-208l41 16q25 8 43 8q78 0 107 -72q8 -16 8 -43q0 -82 -72 -106l-127 -51v-377z" />
<glyph unicode="&#xd1;" horiz-adv-x="1165" d="M94 100v1123q0 49 33 81.5t84 32.5q61 0 94 -51l539 -813v741q0 47 33 80q35 35 81 35q49 0 82 -32.5t33 -82.5v-1120q0 -47 -33 -80q-35 -35 -82 -34q-61 0 -94 51l-540 813v-744q0 -49 -33 -82q-35 -35 -82 -34.5t-82 34.5q-33 33 -33 82zM207 1513q0 22 12 43 q82 156 213 156q70 0 186 -61q82 -45 113 -45q29 0 66 49q27 37 69 37q41 0 68 -27t27 -66q0 -31 -19 -51q-90 -123 -211 -123q-78 0 -199 66q-70 39 -98 39t-57 -60q-29 -47 -78 -47q-37 0 -63 27q-29 28 -29 63z" />
<glyph unicode="&#xd2;" d="M47 522q0 197 90 379q92 186 260 309q172 125 363 125q219 0 350 -161q129 -162 127 -386q-2 -188 -92 -376.5t-258 -311.5q-169 -123 -363 -123q-219 0 -348 160t-129 385zM279 520q0 -123 63 -219q61 -92 182 -92q197 0 340 190q143 188 144 392q0 133 -64 223 q-65 92 -184 92q-132 0 -246 -92q-113 -92 -174 -226q-61 -135 -61 -268zM530 1645q-2 37 25 63.5t63 26.5q35 0 54 -17l209 -143q39 -27 39 -76q0 -37 -27 -63.5t-64 -26.5q-29 0 -51 16l-209 146q-39 25 -39 74z" />
<glyph unicode="&#xd3;" d="M47 522q0 197 90 379q92 186 260 309q172 125 363 125q219 0 350 -161q129 -162 127 -386q-2 -188 -92 -376.5t-258 -311.5q-169 -123 -363 -123q-219 0 -348 160t-129 385zM279 520q0 -123 63 -219q61 -92 182 -92q197 0 340 190q143 188 144 392q0 133 -64 223 q-65 92 -184 92q-132 0 -246 -92q-113 -92 -174 -226q-61 -135 -61 -268zM610 1499q0 49 39 76l209 143q23 16 53 17q37 0 63.5 -27t26.5 -63q0 -45 -38 -74l-211 -146q-23 -16 -52 -16q-37 0 -63.5 26.5t-26.5 63.5z" />
<glyph unicode="&#xd4;" d="M47 522q0 197 90 379q92 186 260 309q172 125 363 125q219 0 350 -161q129 -162 127 -386q-2 -188 -92 -376.5t-258 -311.5q-169 -123 -363 -123q-219 0 -348 160t-129 385zM279 520q0 -123 63 -219q61 -92 182 -92q197 0 340 190q143 188 144 392q0 133 -64 223 q-65 92 -184 92q-132 0 -246 -92q-113 -92 -174 -226q-61 -135 -61 -268zM418 1501q0 47 41 76l237 152q20 14 47 14q29 0 50 -14l239 -152q41 -25 41 -76q0 -41 -26.5 -65.5t-63.5 -24.5q-29 0 -49 14l-191 119l-186 -119q-20 -14 -49 -14q-37 0 -63.5 24.5t-26.5 65.5z " />
<glyph unicode="&#xd5;" d="M47 522q0 197 90 379q92 186 260 309q172 125 363 125q219 0 350 -161q129 -162 127 -386q-2 -188 -92 -376.5t-258 -311.5q-169 -123 -363 -123q-219 0 -348 160t-129 385zM279 520q0 -123 63 -219q61 -92 182 -92q197 0 340 190q143 188 144 392q0 133 -64 223 q-65 92 -184 92q-132 0 -246 -92q-113 -92 -174 -226q-61 -135 -61 -268zM389 1513q0 16 10 43q86 156 213 156q68 0 187 -61q82 -45 114 -45q25 0 66 49q25 37 70 37q41 0 67.5 -27t26.5 -66q0 -27 -19 -51q-88 -123 -211 -123q-78 0 -198 66q-70 39 -99 39q-14 0 -26 -12 q-10 -10 -31 -48q-29 -47 -78 -47q-39 0 -65.5 26.5t-26.5 63.5z" />
<glyph unicode="&#xd6;" d="M47 522q0 197 90 379q92 186 260 309q172 125 363 125q219 0 350 -161q129 -162 127 -386q-2 -188 -92 -376.5t-258 -311.5q-169 -123 -363 -123q-219 0 -348 160t-129 385zM279 520q0 -123 63 -219q61 -92 182 -92q197 0 340 190q143 188 144 392q0 133 -64 223 q-65 92 -184 92q-132 0 -246 -92q-113 -92 -174 -226q-61 -135 -61 -268zM492 1522q0 45 30.5 75.5t75.5 30.5q47 0 78 -30.5t31 -75.5t-31 -76q-33 -33 -78 -33q-43 0 -76 33q-30 31 -30 76zM825 1522q0 45 31 75.5t76 30.5t76 -31q33 -33 32.5 -75.5t-33 -75.5t-75.5 -33 t-76 33q-31 31 -31 76z" />
<glyph unicode="&#xd7;" horiz-adv-x="909" d="M39 233.5q0 45.5 31 75.5l235 236l-199 198q-33 31 -32 76q0 43 32 76q31 31 74 31q45 0 76 -31l201 -199l198 199q31 31 76 31q43 0 74 -31q33 -31 33 -76t-33 -76l-199 -198l236 -236q31 -31 32 -76q0 -45 -30.5 -75.5t-73.5 -30.5h-2q-45 0 -76 31l-235 235l-238 -235 q-31 -31 -74 -31q-45 0 -75.5 30.5t-30.5 76z" />
<glyph unicode="&#xd8;" d="M-27 -27q2 37 25 66l133 164q-84 145 -84 319q0 197 90 379q92 186 260 309q172 125 363 125q137 0 244 -67l126 155q33 37 76 37h2q43 0 74 -30.5t31 -71.5q0 -35 -25 -66l-141 -172q90 -139 90 -327v-5q0 -195 -90 -376q-94 -190 -260 -312q-169 -123 -363 -123 q-138 0 -252 74l-116 -141q-27 -39 -74 -39h-2q-43 0 -76 29q-31 27 -31 71v2zM279 520q0 -66 16 -119l561 686q-43 18 -96 19q-132 0 -246 -92q-113 -92 -174 -226q-61 -135 -61 -268zM420 231q51 -23 104 -22q197 0 340 190q143 188 144 392q0 76 -21 135z" />
<glyph unicode="&#xd9;" horiz-adv-x="1171" d="M94 541v671q0 49 33 82q35 35 82 35t82 -35q33 -33 33 -82v-671q0 -332 262 -332q264 0 264 332v671q0 47 35 82t80 35t79.5 -34.5t34.5 -82.5v-671q0 -260 -131 -412t-362 -152q-229 0 -360.5 152t-131.5 412zM311 1645q0 35 25 63q25 27 63 27q35 0 54 -17l209 -143 q39 -29 38 -76q0 -37 -26.5 -63.5t-63.5 -26.5q-29 0 -51 16l-209 146q-39 25 -39 74z" />
<glyph unicode="&#xda;" horiz-adv-x="1171" d="M94 541v671q0 49 33 82q35 35 82 35t82 -35q33 -33 33 -82v-671q0 -332 262 -332q264 0 264 332v671q0 47 35 82t80 35t79.5 -34.5t34.5 -82.5v-671q0 -260 -131 -412t-362 -152q-229 0 -360.5 152t-131.5 412zM492 1499q0 47 38 76l209 143q23 16 54 17q39 0 63 -27 q25 -29 25 -63q0 -49 -39 -74l-209 -146q-23 -16 -51 -16q-37 0 -63.5 26.5t-26.5 63.5z" />
<glyph unicode="&#xdb;" horiz-adv-x="1171" d="M94 541v671q0 49 33 82q35 35 82 35t82 -35q33 -33 33 -82v-671q0 -332 262 -332q264 0 264 332v671q0 47 35 82t80 35t79.5 -34.5t34.5 -82.5v-671q0 -260 -131 -412t-362 -152q-229 0 -360.5 152t-131.5 412zM258 1501q0 47 43 76l236 152q20 14 48.5 14t49.5 -14 l237 -152q43 -25 43 -76q0 -41 -26 -65q-29 -25 -66 -25q-27 0 -47 14l-190 119l-189 -119q-20 -14 -49 -14q-37 0 -63.5 24.5t-26.5 65.5z" />
<glyph unicode="&#xdc;" horiz-adv-x="1171" d="M94 541v671q0 49 33 82q35 35 82 35t82 -35q33 -33 33 -82v-671q0 -332 262 -332q264 0 264 332v671q0 47 35 82t80 35t79.5 -34.5t34.5 -82.5v-671q0 -260 -131 -412t-362 -152q-229 0 -360.5 152t-131.5 412zM311 1522q0 45 31 75.5t78 30.5q45 0 75.5 -30.5 t30.5 -75.5t-30 -76q-33 -33 -76 -33q-45 0 -78 33q-31 31 -31 76zM645 1522q0 43 33 75q31 31 76 31t75.5 -30.5t30.5 -75.5t-31 -76q-33 -33 -75.5 -33t-75.5 33t-33 76z" />
<glyph unicode="&#xdd;" horiz-adv-x="1107" d="M33 1217q0 49 32.5 81.5t79.5 32.5q57 0 95 -45l319 -422l307 420q35 47 95 47q47 0 81 -35q33 -33 33 -82q0 -33 -22 -65l-377 -514v-535q0 -45 -35 -79.5t-80 -34.5q-47 0 -82 34.5t-35 79.5v531l-389 516q-22 29 -22 70z" />
<glyph unicode="&#xde;" horiz-adv-x="1036" d="M94 92v1131q0 45 33 77.5t78 32.5t77.5 -32.5t32.5 -77.5v-101q145 47 263 47q162 0 286 -88q121 -84 121 -247q0 -115 -65 -216q-59 -92 -172 -157q-98 -57 -213 -101q-102 -37 -220 -57v-211q0 -47 -32 -78q-37 -33 -78 -32.5t-78 32.5q-33 31 -33 78zM315 504 q68 18 127 41q61 25 146 67q76 39 127 101q49 57 49 121q0 59 -57.5 87.5t-122.5 28.5q-123 0 -269 -63v-383z" />
<glyph unicode="&#xdf;" horiz-adv-x="1431" d="M14 752q0 45 31 75.5t76 30.5h74q25 199 159 340q133 139 336 139q135 0 234 -86q100 -88 100 -221q0 -88 -45 -158q170 -14 289 -127q117 -111 116 -282q0 -213 -182 -348t-401 -135q-133 0 -238 75q-100 74 -100 203q0 123 92 197q94 76 215 75q88 0 186 -36 q70 -27 70 -101q0 -43 -31 -74q-33 -33 -75 -32q-25 0 -39 8q-61 23 -111 22q-35 0 -63.5 -14t-28.5 -45q0 -33 41 -49q43 -16 80 -16q132 0 252 73q121 74 120 197q0 100 -71 155t-172 56q-28 0 -80 -12q-43 -10 -76 -11q-66 0 -100 35q-39 39 -39 86q0 80 84 133 q94 61 94 125q0 41 -39 68q-37 25 -82 24q-131 0 -209 -102t-78 -236v-692q0 -45 -30.5 -75.5t-75.5 -30.5t-76 30.5t-31 75.5v553h-69q-45 0 -76 31t-31 76z" />
<glyph unicode="&#xe0;" horiz-adv-x="1030" d="M35 217q-2 150 172 258.5t510 126.5q-49 78 -205 78q-145 0 -252 -78q-29 -23 -63 -22q-52 0 -86 43q-20 27 -21 65q0 53 41 84q145 113 381 113q209 0 326 -105q119 -106 118 -291v-397q0 -43 -30 -74q-33 -33 -76 -32.5t-76 32.5q-31 31 -31 74v17q-193 -131 -409 -132 q-154 0 -225 70q-74 72 -74 170zM262 231q0 -45 84 -45q172 0 397 152v70q-108 0 -294 -50q-187 -49 -187 -127zM272 1257q0 35 27 66q25 27 61 27q29 0 54 -17l209 -145q39 -27 39 -74q0 -41 -27 -65q-29 -25 -64 -25q-29 0 -51 16l-209 144q-39 26 -39 73z" />
<glyph unicode="&#xe1;" horiz-adv-x="1030" d="M35 217q-2 150 172 258.5t510 126.5q-49 78 -205 78q-145 0 -252 -78q-29 -23 -63 -22q-52 0 -86 43q-20 27 -21 65q0 53 41 84q145 113 381 113q209 0 326 -105q119 -106 118 -291v-397q0 -43 -30 -74q-33 -33 -76 -32.5t-76 32.5q-31 31 -31 74v17q-193 -131 -409 -132 q-154 0 -225 70q-74 72 -74 170zM262 231q0 -45 84 -45q172 0 397 152v70q-108 0 -294 -50q-187 -49 -187 -127zM375 1114q0 47 39 74l209 145q29 16 53 17q37 0 63 -27q29 -29 25 -66q0 -49 -39 -73l-209 -144q-20 -16 -51 -16q-35 0 -64 25q-26 24 -26 65z" />
<glyph unicode="&#xe2;" horiz-adv-x="1030" d="M35 217q-2 150 172 258.5t510 126.5q-49 78 -205 78q-145 0 -252 -78q-29 -23 -63 -22q-52 0 -86 43q-20 27 -21 65q0 53 41 84q145 113 381 113q209 0 326 -105q119 -106 118 -291v-397q0 -43 -30 -74q-33 -33 -76 -32.5t-76 32.5q-31 31 -31 74v17q-193 -131 -409 -132 q-154 0 -225 70q-74 72 -74 170zM164 1120q0 47 43 76l235 152q23 14 50 14q23 0 49 -14l237 -152q43 -29 43 -76q0 -41 -26 -65q-29 -25 -66 -25q-27 0 -47 14l-190 119l-189 -119q-20 -14 -49 -14q-37 0 -63.5 24.5t-26.5 65.5zM262 231q0 -45 84 -45q172 0 397 152v70 q-108 0 -294 -50q-187 -49 -187 -127z" />
<glyph unicode="&#xe3;" horiz-adv-x="1030" d="M35 217q-2 150 172 258.5t510 126.5q-49 78 -205 78q-145 0 -252 -78q-29 -23 -63 -22q-52 0 -86 43q-20 27 -21 65q0 53 41 84q145 113 381 113q209 0 326 -105q119 -106 118 -291v-397q0 -43 -30 -74q-33 -33 -76 -32.5t-76 32.5q-31 31 -31 74v17q-193 -131 -409 -132 q-154 0 -225 70q-74 72 -74 170zM139 1141q0 22 13 43q82 156 213 155q70 0 186 -61q82 -45 113 -45q29 0 65 49q29 37 70 37t67.5 -26.5t26.5 -65.5q0 -31 -19 -51q-92 -123 -210 -123q-78 0 -199 65q-78 41 -98 41q-14 0 -27 -12q-8 -8 -31 -49q-29 -47 -78 -47 q-39 0 -65.5 26.5t-26.5 63.5zM262 231q0 -45 84 -45q172 0 397 152v70q-108 0 -294 -50q-187 -49 -187 -127z" />
<glyph unicode="&#xe4;" horiz-adv-x="1030" d="M35 217q-2 150 172 258.5t510 126.5q-49 78 -205 78q-145 0 -252 -78q-29 -23 -63 -22q-52 0 -86 43q-20 27 -21 65q0 53 41 84q145 113 381 113q209 0 326 -105q119 -106 118 -291v-397q0 -43 -30 -74q-33 -33 -76 -32.5t-76 32.5q-31 31 -31 74v17q-193 -131 -409 -132 q-154 0 -225 70q-74 72 -74 170zM217 1229q0 43 33 76q31 31 76 30.5t75.5 -31t30.5 -75.5q0 -47 -30.5 -78t-75.5 -31t-76 31q-33 33 -33 78zM262 231q0 -45 84 -45q172 0 397 152v70q-108 0 -294 -50q-187 -49 -187 -127zM551 1229q0 45 30.5 75.5t77.5 30.5 q45 0 76 -30.5t31 -75.5q0 -47 -30.5 -78t-76.5 -31q-47 0 -77.5 31t-30.5 78z" />
<glyph unicode="&#xe5;" horiz-adv-x="1030" d="M35 217q-2 150 172 258.5t510 126.5q-49 78 -205 78q-145 0 -252 -78q-29 -23 -63 -22q-52 0 -86 43q-20 27 -21 65q0 53 41 84q145 113 381 113q209 0 326 -105q119 -106 118 -291v-397q0 -43 -30 -74q-33 -33 -76 -32.5t-76 32.5q-31 31 -31 74v17q-193 -131 -409 -132 q-154 0 -225 70q-74 72 -74 170zM236 1206q0 119 94 199q96 80 213 80q104 0 176 -63.5t72 -164.5q0 -119 -94.5 -198.5t-213.5 -79.5q-102 0 -174 63q-73 64 -73 164zM262 231q0 -45 84 -45q172 0 397 152v70q-108 0 -294 -50q-187 -49 -187 -127zM416 1206q0 -47 67 -47 q39 0 84 29q43 29 43 69q0 47 -67 48q-39 0 -84 -29q-43 -27 -43 -70z" />
<glyph unicode="&#xe6;" horiz-adv-x="1814" d="M35 217q-2 125 158 234q158 106 407 106q94 0 193 -16q-102 139 -281 139q-145 0 -252 -78q-29 -23 -63 -22q-52 0 -86 43q-20 27 -21 65q0 53 41 84q145 113 381 113q274 0 426 -178q115 88 244 131q135 45 268 45q113 0 199 -56q84 -53 84 -163q0 -90 -60 -162 q-61 -74 -145 -113q-90 -41 -197 -65q-98 -23 -201 -33q-55 -6 -165 -10q37 -102 188 -103q137 0 373 123q25 12 49 12q43 0 74 -30q33 -33 32 -76q0 -68 -57 -94q-252 -135 -479 -136q-231 0 -342 158q-102 -76 -232 -117q-125 -41 -237 -41q-154 0 -225 70q-74 72 -74 170 zM270 231q0 -45 76 -45q182 0 397 148v4v2v25q-31 8 -96 8q-135 0 -256 -37t-121 -105zM1001 463q168 8 334 67q168 59 168 121q0 27 -55 27h-4q-117 0 -252 -60q-125 -55 -191 -155z" />
<glyph unicode="&#xe7;" horiz-adv-x="1028" d="M35 307q0 131 86 242q88 113 221 176q152 72 264.5 104.5t255.5 53.5h15q45 0 73 -29q31 -31 31 -76q0 -43 -24.5 -73.5t-67.5 -34.5q-82 -10 -168 -33q-104 -27 -209 -68q-109 -43 -188 -112q-76 -68 -76 -148q0 -61 59 -90q55 -27 129 -26q174 0 391 116q25 12 50 13 q41 0 75 -31q33 -31 33 -76q0 -68 -57 -94q-127 -68 -248 -103q53 -72 53 -159q0 -104 -82 -181q-84 -78 -186 -77q-39 0 -65.5 26.5t-26.5 63.5q0 33 22.5 59.5t53.5 28.5q111 20 110 80q0 27 -10 39q-12 16 -27 16q-31 0 -55 18q-20 14 -31 48h-2q-160 0 -280 86 q-119 85 -119 241z" />
<glyph unicode="&#xe8;" horiz-adv-x="1058" d="M33 336q0 164 117 293q121 133 274 192q160 61 315 62q113 0 199 -56q84 -53 84 -163q0 -90 -59 -162q-61 -74 -146 -113q-88 -41 -199 -65q-102 -23 -196 -33q-55 -6 -168 -10q37 -102 190 -103q133 0 371 123q25 12 49 12q43 0 74 -30q33 -33 33 -76q0 -68 -56 -94 q-256 -135 -481 -136q-174 0 -287 95q-114 96 -114 264zM291 463q170 10 336 67q166 59 166 121q0 27 -56 27h-4q-117 0 -252 -60q-131 -57 -190 -155zM371 1257q0 39 26.5 66t63.5 27q31 0 53 -17l209 -145q39 -27 39 -74q0 -41 -26.5 -65.5t-63.5 -24.5q-31 0 -51 16 l-211 144q-39 26 -39 73z" />
<glyph unicode="&#xe9;" horiz-adv-x="1058" d="M33 336q0 164 117 293q121 133 274 192q160 61 315 62q113 0 199 -56q84 -53 84 -163q0 -90 -59 -162q-61 -74 -146 -113q-88 -41 -199 -65q-102 -23 -196 -33q-55 -6 -168 -10q37 -102 190 -103q133 0 371 123q25 12 49 12q43 0 74 -30q33 -33 33 -76q0 -68 -56 -94 q-256 -135 -481 -136q-174 0 -287 95q-114 96 -114 264zM291 463q170 10 336 67q166 59 166 121q0 27 -56 27h-4q-117 0 -252 -60q-131 -57 -190 -155zM514 1114q0 47 39 74l209 145q29 16 53 17q37 0 62 -27q27 -31 26 -66q0 -49 -39 -73l-209 -144q-20 -16 -51 -16 q-35 0 -63 25q-27 24 -27 65z" />
<glyph unicode="&#xea;" horiz-adv-x="1058" d="M33 336q0 164 117 293q121 133 274 192q160 61 315 62q113 0 199 -56q84 -53 84 -163q0 -90 -59 -162q-61 -74 -146 -113q-88 -41 -199 -65q-102 -23 -196 -33q-55 -6 -168 -10q37 -102 190 -103q133 0 371 123q25 12 49 12q43 0 74 -30q33 -33 33 -76q0 -68 -56 -94 q-256 -135 -481 -136q-174 0 -287 95q-114 96 -114 264zM291 463q170 10 336 67q166 59 166 121q0 27 -56 27h-4q-117 0 -252 -60q-131 -57 -190 -155zM303 1120q0 47 43 76l236 152q23 14 49 14q23 0 49 -14l238 -152q43 -29 43 -76q0 -41 -27 -65q-29 -25 -66 -25 q-27 0 -47 14l-190 119l-189 -119q-20 -14 -49 -14q-37 0 -63.5 24.5t-26.5 65.5z" />
<glyph unicode="&#xeb;" horiz-adv-x="1058" d="M33 336q0 164 117 293q121 133 274 192q160 61 315 62q113 0 199 -56q84 -53 84 -163q0 -90 -59 -162q-61 -74 -146 -113q-88 -41 -199 -65q-102 -23 -196 -33q-55 -6 -168 -10q37 -102 190 -103q133 0 371 123q25 12 49 12q43 0 74 -30q33 -33 33 -76q0 -68 -56 -94 q-256 -135 -481 -136q-174 0 -287 95q-114 96 -114 264zM291 463q170 10 336 67q166 59 166 121q0 27 -56 27h-4q-117 0 -252 -60q-131 -57 -190 -155zM356 1229q0 45 31 75.5t78 30.5q45 0 75.5 -30.5t30.5 -75.5q0 -47 -30.5 -78t-75.5 -31q-47 0 -78 31t-31 78zM690 1229 q0 43 33 76q31 31 76 30.5t75.5 -31t30.5 -75.5q0 -47 -30.5 -78t-75.5 -31t-76 31q-33 33 -33 78z" />
<glyph unicode="&#xec;" horiz-adv-x="362" d="M-12 1257q0 35 26 66q25 27 62 27q31 0 53 -17l209 -145q39 -27 39 -74q0 -41 -26.5 -65.5t-63.5 -24.5q-29 0 -51 16l-209 144q-39 26 -39 73zM76 94v680q0 45 30.5 76t75.5 31t76 -31t31 -76v-680q0 -43 -31 -74q-33 -33 -76 -32.5t-76 32.5q-30 31 -30 74z" />
<glyph unicode="&#xed;" horiz-adv-x="362" d="M-12 1114q0 47 39 74l209 145q29 16 53 17q39 0 63 -27q25 -29 25 -66q0 -49 -39 -73l-209 -144q-23 -16 -51 -16q-37 0 -63.5 24.5t-26.5 65.5zM76 94v680q0 45 30.5 76t75.5 31t76 -31t31 -76v-680q0 -43 -31 -74q-33 -33 -76 -32.5t-76 32.5q-30 31 -30 74z" />
<glyph unicode="&#xee;" horiz-adv-x="362" d="M-145 1120q0 47 41 76l237 152q23 14 47 14q27 0 49 -14l240 -152q41 -29 41 -76q0 -41 -27 -65q-29 -25 -63 -25q-29 0 -49 14l-191 119l-186 -119q-20 -14 -49 -14q-39 0 -64 25q-26 26 -26 65zM76 94v680q0 45 30.5 76t75.5 31t76 -31t31 -76v-680q0 -43 -31 -74 q-33 -33 -76 -32.5t-76 32.5q-30 31 -30 74z" />
<glyph unicode="&#xef;" horiz-adv-x="362" d="M-82 1229q0 45 31 75.5t76 30.5q47 0 77.5 -30.5t30.5 -75.5q0 -47 -30.5 -78t-77.5 -31q-45 0 -76 31t-31 78zM76 94v680q0 45 30.5 76t75.5 31t76 -31t31 -76v-680q0 -43 -31 -74q-33 -33 -76 -32.5t-76 32.5q-30 31 -30 74zM231 1229q0 45 31 75.5t78 30.5 q45 0 75.5 -30.5t30.5 -75.5q0 -47 -30.5 -78t-75.5 -31q-47 0 -78 31t-31 78z" />
<glyph unicode="&#xf0;" horiz-adv-x="1122" d="M49 350q0 82 41 168q37 74 123 152q78 68 213 118q127 47 303 64q-94 96 -199 154l-118 -121q-35 -35 -84 -35q-43 0 -78 35t-35 78q0 51 33 81l49 52q-45 14 -72 16q-39 8 -65 39q-27 29 -27 74t35 79.5t80 34.5q16 0 22 -2q86 -16 207 -55l119 123q35 35 86 35 q49 0 80 -35q31 -33 31 -84q0 -45 -33 -76l-64 -69q190 -121 283 -283q96 -168 96 -342q0 -256 -176 -413.5t-438 -157.5q-193 0 -303 110q-109 108 -109 260zM279 350q0 -63 49 -102q47 -39 133 -39q178 0 280 94q104 94 105 250q0 33 -12 96q-254 -6 -406 -90 q-149 -82 -149 -209z" />
<glyph unicode="&#xf1;" horiz-adv-x="974" d="M76 92v684q0 45 30.5 76t75.5 31t76 -31t31 -76v-4q100 111 248 111q174 0 268 -113q96 -115 96 -313v-365q0 -43 -31 -74q-33 -33 -75.5 -32.5t-75.5 32.5q-31 31 -31 74v365q0 70 -16 123q-14 47 -45 65q-29 18 -47 21q-25 4 -43 4q-63 0 -137 -49.5t-111 -137.5v-391 q0 -43 -31 -74q-33 -33 -76 -32.5t-76 32.5q-30 31 -30 74zM113 1141q0 16 10 43q86 156 213 155q70 0 186 -61q82 -45 115 -45q29 0 65 49q25 37 70 37q39 0 65.5 -26.5t26.5 -65.5q0 -29 -16 -51q-92 -123 -213 -123q-78 0 -199 65q-72 41 -96 41q-12 0 -21 -8 q-12 -12 -16 -18q-2 -2 -8 -14.5t-12 -20.5q-29 -47 -78 -47q-37 0 -64 26q-28 29 -28 64z" />
<glyph unicode="&#xf2;" horiz-adv-x="940" d="M35 313q-2 207 168 392q170 182 379 182q144 0 233 -99q88 -96 88 -241q0 -215 -168 -391q-170 -178 -379 -179q-143 0 -233 97q-88 94 -88 239zM248 317q0 -127 108 -127q120 0 228 117q106 115 106 242q0 125 -108 125q-117 0 -225.5 -119t-108.5 -238zM272 1257 q0 35 27 66q25 27 61 27q29 0 54 -17l209 -145q39 -27 39 -74q0 -41 -27 -65q-29 -25 -64 -25q-29 0 -51 16l-209 144q-39 26 -39 73z" />
<glyph unicode="&#xf3;" horiz-adv-x="940" d="M35 313q-2 207 168 392q170 182 379 182q144 0 233 -99q88 -96 88 -241q0 -215 -168 -391q-170 -178 -379 -179q-143 0 -233 97q-88 94 -88 239zM248 317q0 -127 108 -127q120 0 228 117q106 115 106 242q0 125 -108 125q-117 0 -225.5 -119t-108.5 -238zM434 1114 q0 47 39 74l209 145q29 16 53 17q37 0 63.5 -27t26.5 -66q0 -47 -39 -73l-208 -144q-23 -16 -54 -16q-37 0 -63.5 24.5t-26.5 65.5z" />
<glyph unicode="&#xf4;" horiz-adv-x="940" d="M35 313q-2 207 168 392q170 182 379 182q144 0 233 -99q88 -96 88 -241q0 -215 -168 -391q-170 -178 -379 -179q-143 0 -233 97q-88 94 -88 239zM248 317q0 -127 108 -127q120 0 228 117q106 115 106 242q0 125 -108 125q-117 0 -225.5 -119t-108.5 -238zM264 1120 q0 47 41 76l238 152q23 14 47 14q27 0 49 -14l240 -152q41 -29 41 -76q0 -41 -27 -65q-29 -25 -64 -25q-29 0 -49 14l-190 119l-187 -119q-20 -14 -49 -14q-41 0 -65.5 24.5t-24.5 65.5z" />
<glyph unicode="&#xf5;" horiz-adv-x="940" d="M35 313q-2 207 168 392q170 182 379 182q144 0 233 -99q88 -96 88 -241q0 -215 -168 -391q-170 -178 -379 -179q-143 0 -233 97q-88 94 -88 239zM160 1141q0 16 10 43q86 156 213 155q70 0 186 -61q82 -45 115 -45q25 0 66 49q25 37 69 37q39 0 65.5 -26.5t26.5 -65.5 q0 -29 -16 -51q-92 -123 -213 -123q-78 0 -197 65q-78 41 -98 41q-14 0 -22 -8q-6 -6 -15 -18q-2 -2 -8 -14.5t-12 -20.5q-29 -47 -78 -47q-37 0 -64 26q-28 29 -28 64zM248 317q0 -127 108 -127q120 0 228 117q106 115 106 242q0 125 -108 125q-117 0 -225.5 -119 t-108.5 -238z" />
<glyph unicode="&#xf6;" horiz-adv-x="940" d="M35 313q-2 207 168 392q170 182 379 182q144 0 233 -99q88 -96 88 -241q0 -215 -168 -391q-170 -178 -379 -179q-143 0 -233 97q-88 94 -88 239zM248 317q0 -127 108 -127q120 0 228 117q106 115 106 242q0 125 -108 125q-117 0 -225.5 -119t-108.5 -238zM317 1229 q0 45 31 75.5t76 30.5t76 -30q33 -33 32 -76q0 -45 -32 -78q-31 -31 -76 -31t-76 31t-31 78zM651 1229q0 45 31 75.5t76 30.5t76 -30q33 -33 32 -76q0 -45 -32 -78q-31 -31 -76 -31t-76 31t-31 78z" />
<glyph unicode="&#xf7;" horiz-adv-x="917" d="M33 559q0 45 30.5 76t77.5 31h639q45 0 76 -31t31 -76t-31 -75.5t-76 -30.5h-639q-47 0 -77.5 30.5t-30.5 75.5zM317 256q0 49 35 84t84 35t84 -35t35 -84t-35 -84t-84 -35t-84 35t-35 84zM317 862q0 49 35 84t84 35t84 -35t35 -84t-35 -84t-84 -35t-84 35t-35 84z" />
<glyph unicode="&#xf8;" horiz-adv-x="940" d="M-41 -66q0 33 18 52l113 129q-55 90 -55 198q-2 207 168 392q170 182 379 182q82 0 151 -35l101 117q23 25 57 24q31 0 49 -18q27 -20 27 -55q0 -31 -19 -50l-102 -118q57 -84 57 -205q0 -215 -168 -391q-170 -178 -379 -179q-88 0 -155 37l-111 -129q-20 -25 -57 -24 q-28 0 -49 18q-25 21 -25 55zM248 317q0 -14 2 -20l325 377q-119 -4 -223 -119q-104 -117 -104 -238zM354 190h2q120 -3 228 117q106 119 106 242q0 18 -2 24z" />
<glyph unicode="&#xf9;" horiz-adv-x="976" d="M76 406v364q0 45 30.5 76t75.5 31t76 -31t31 -76v-364q0 -78 14 -121q14 -45 45 -64q33 -20 49 -22q25 -4 43 -4q63 0 137 49t111 137v389q0 43 33 76q31 31 74 31q47 0 77.5 -31t30.5 -76v-682q0 -45 -30.5 -75.5t-77.5 -30.5q-43 0 -74 30q-33 33 -33 76v4 q-100 -113 -248 -112q-170 0 -268 114q-96 111 -96 312zM193 1257q0 35 26 66q25 27 62 27q31 0 53 -17l209 -145q39 -27 39 -74q0 -39 -27 -65q-25 -25 -63 -25q-29 0 -52 16l-209 144q-38 26 -38 73z" />
<glyph unicode="&#xfa;" horiz-adv-x="976" d="M76 406v364q0 45 30.5 76t75.5 31t76 -31t31 -76v-364q0 -78 14 -121q14 -45 45 -64q33 -20 49 -22q25 -4 43 -4q63 0 137 49t111 137v389q0 43 33 76q31 31 74 31q47 0 77.5 -31t30.5 -76v-682q0 -45 -30.5 -75.5t-77.5 -30.5q-43 0 -74 30q-33 33 -33 76v4 q-100 -113 -248 -112q-170 0 -268 114q-96 111 -96 312zM416 1114q0 47 39 74l209 145q29 16 53 17q39 0 63 -27q25 -29 25 -66q0 -47 -39 -73l-209 -144q-23 -16 -51 -16q-39 0 -64 25q-26 26 -26 65z" />
<glyph unicode="&#xfb;" horiz-adv-x="976" d="M76 406v364q0 45 30.5 76t75.5 31t76 -31t31 -76v-364q0 -78 14 -121q14 -45 45 -64q33 -20 49 -22q25 -4 43 -4q63 0 137 49t111 137v389q0 43 33 76q31 31 74 31q47 0 77.5 -31t30.5 -76v-682q0 -45 -30.5 -75.5t-77.5 -30.5q-43 0 -74 30q-33 33 -33 76v4 q-100 -113 -248 -112q-170 0 -268 114q-96 111 -96 312zM162 1120q0 47 41 76l235 152q27 14 49 14q27 0 50 -14l239 -152q41 -29 41 -76q0 -41 -26 -65q-29 -25 -64 -25q-29 0 -49 14l-191 119l-186 -119q-20 -14 -49 -14q-39 0 -64 25q-26 26 -26 65z" />
<glyph unicode="&#xfc;" horiz-adv-x="976" d="M76 406v364q0 45 30.5 76t75.5 31t76 -31t31 -76v-364q0 -78 14 -121q14 -45 45 -64q33 -20 49 -22q25 -4 43 -4q63 0 137 49t111 137v389q0 43 33 76q31 31 74 31q47 0 77.5 -31t30.5 -76v-682q0 -45 -30.5 -75.5t-77.5 -30.5q-43 0 -74 30q-33 33 -33 76v4 q-100 -113 -248 -112q-170 0 -268 114q-96 111 -96 312zM199 1229q0 45 30.5 75.5t75.5 30.5q47 0 78 -30.5t31 -75.5q0 -47 -31 -78t-78 -31q-45 0 -75.5 31t-30.5 78zM532 1229q0 45 31 75.5t76 30.5q47 0 78 -30.5t31 -75.5q0 -47 -31 -78t-78 -31q-45 0 -76 31t-31 78z " />
<glyph unicode="&#xfd;" horiz-adv-x="948" d="M-6 -256q0 47 30.5 78t75.5 31q16 0 31 -5q18 -8 47 -8q111 0 189 170l4 13l-326 700q-10 27 -10 45q0 45 30.5 75.5t75.5 30.5q68 0 97 -61l247 -528l226 518q29 66 96 65q43 0 75.5 -32.5t32.5 -75.5q0 -16 -10 -41l-344 -793q-66 -145 -162 -221q-98 -78 -217 -80 q-55 0 -110 19q-34 9 -56 37t-22 63z" />
<glyph unicode="&#xfe;" horiz-adv-x="1040" d="M76 -260v915v566q0 45 30.5 75.5t75.5 30.5t76 -30.5t31 -75.5v-402q168 66 319 66q162 0 279 -86t117 -244q0 -102 -48 -184q-49 -86 -125 -150q-74 -61 -172 -110q-102 -51 -190 -78q-78 -23 -180 -41v-252q0 -45 -31 -76t-76 -31t-75.5 31t-30.5 76zM289 190 q86 23 137 43q88 35 164 76q80 43 143 113q57 63 58 133q0 61 -58 88q-61 29 -129 29q-137 0 -315 -84v-398z" />
<glyph unicode="&#xff;" horiz-adv-x="948" d="M-6 -256q0 47 30.5 78t75.5 31q16 0 31 -5q18 -8 47 -8q111 0 189 170l4 13l-326 700q-10 27 -10 45q0 45 30.5 75.5t75.5 30.5q68 0 97 -61l247 -528l226 518q29 66 96 65q43 0 75.5 -32.5t32.5 -75.5q0 -16 -10 -41l-344 -793q-66 -145 -162 -221q-98 -78 -217 -80 q-55 0 -110 19q-34 9 -56 37t-22 63zM201 1229q0 43 32 76q31 31 76 30.5t76 -31t31 -75.5q0 -47 -31 -78t-76 -31t-76 31q-32 33 -32 78zM535 1229q0 43 32 76q31 31 76 30.5t76 -31t31 -75.5q0 -47 -31 -78t-76 -31t-76 31q-32 33 -32 78z" />
<glyph unicode="&#x152;" horiz-adv-x="1724" d="M47 522q0 197 90 379q92 186 260 309q172 125 363 125q115 0 207 -45q33 27 73 27h516q45 0 80 -35t35 -80q0 -49 -33 -82q-35 -35 -82 -35h-389q53 -104 66 -223h289q47 0 80 -33q35 -35 34.5 -82t-34.5 -81q-33 -33 -80 -33h-301q-20 -98 -66 -195v-209h410 q45 0 79.5 -34.5t34.5 -79.5t-34.5 -80t-79.5 -35h-525q-45 0 -79.5 35t-34.5 80v16q-184 -154 -402 -154q-219 0 -348 160t-129 385zM279 520q0 -123 63 -219q61 -92 182 -92q197 0 340 190q143 188 144 392q0 133 -64 223q-65 92 -184 92q-132 0 -246 -92 q-113 -92 -174 -226q-61 -135 -61 -268z" />
<glyph unicode="&#x153;" horiz-adv-x="1601" d="M35 313q-2 207 168 392q170 182 379 182q172 0 260 -131q211 127 440 127q113 0 199 -56q84 -53 84 -163.5t-78 -188.5q-76 -76 -205 -117q-121 -39 -235 -57q-102 -16 -220 -20q-6 -6 -8 -13q-4 -10 -8 -14q49 -76 174 -76q137 0 371 123q25 12 51 12q43 0 74 -30 q33 -33 32 -76q0 -68 -57 -94q-252 -135 -481 -136q-197 0 -307 117q-147 -117 -312 -117q-143 0 -233 97q-88 94 -88 239zM248 317q0 -127 108 -127q120 0 228 117q106 115 106 242q0 125 -108 125q-117 0 -225.5 -119t-108.5 -238zM897 469q166 18 297 72q139 55 139 110 q0 27 -53 27h-4q-90 0 -194.5 -37t-178.5 -98q0 -37 -6 -74z" />
<glyph unicode="&#x178;" horiz-adv-x="1107" d="M33 1217q0 49 32.5 81.5t79.5 32.5q57 0 95 -45l319 -422l307 420q35 47 95 47q47 0 81 -35q33 -33 33 -82q0 -33 -22 -65l-377 -514v-535q0 -45 -35 -79.5t-80 -34.5q-47 0 -82 34.5t-35 79.5v531l-389 516q-22 29 -22 70zM281 1522q0 45 30.5 75.5t75.5 30.5 q47 0 78 -30.5t31 -75.5t-31 -76q-33 -33 -78 -33q-43 0 -76 33q-30 31 -30 76zM614 1522q0 45 31 75.5t76 30.5t76 -31q33 -33 32.5 -75.5t-33 -75.5t-75.5 -33t-76 33q-31 31 -31 76z" />
<glyph unicode="&#x2c6;" horiz-adv-x="903" d="M125 1120q0 47 41 76l237 152q23 14 48 14q27 0 49 -14l239 -152q41 -29 41 -76q0 -41 -26 -65q-29 -25 -64 -25q-29 0 -49 14l-190 119l-187 -119q-20 -14 -49 -14q-35 0 -63 25q-27 24 -27 65z" />
<glyph unicode="&#x2dc;" horiz-adv-x="903" d="M80 1141q0 16 10 43q86 156 213 155q70 0 186 -61q82 -45 115 -45q27 0 66 49q25 37 69 37q41 0 68 -26.5t27 -65.5q0 -27 -19 -51q-92 -123 -211 -123q-78 0 -198 65q-78 41 -99 41q-14 0 -22 -8q-6 -6 -15 -18q-2 -2 -8 -14.5t-12 -20.5q-29 -47 -78 -47 q-39 0 -65.5 26.5t-26.5 63.5z" />
<glyph unicode="&#x2000;" horiz-adv-x="870" />
<glyph unicode="&#x2001;" horiz-adv-x="1742" />
<glyph unicode="&#x2002;" horiz-adv-x="870" />
<glyph unicode="&#x2003;" horiz-adv-x="1742" />
<glyph unicode="&#x2004;" horiz-adv-x="579" />
<glyph unicode="&#x2005;" horiz-adv-x="434" />
<glyph unicode="&#x2006;" horiz-adv-x="288" />
<glyph unicode="&#x2007;" horiz-adv-x="288" />
<glyph unicode="&#x2008;" horiz-adv-x="215" />
<glyph unicode="&#x2009;" horiz-adv-x="346" />
<glyph unicode="&#x200a;" horiz-adv-x="94" />
<glyph unicode="&#x2010;" horiz-adv-x="595" d="M53 510q0 49 33 82t82 33h262q49 0 82 -33t33 -82t-33 -82t-82 -33h-262q-49 0 -82 33t-33 82z" />
<glyph unicode="&#x2011;" horiz-adv-x="595" d="M53 510q0 49 33 82t82 33h262q49 0 82 -33t33 -82t-33 -82t-82 -33h-262q-49 0 -82 33t-33 82z" />
<glyph unicode="&#x2012;" horiz-adv-x="595" d="M53 510q0 49 33 82t82 33h262q49 0 82 -33t33 -82t-33 -82t-82 -33h-262q-49 0 -82 33t-33 82z" />
<glyph unicode="&#x2013;" horiz-adv-x="892" d="M82 510q0 47 35 82q33 33 80 33h501q47 0 80 -33q35 -35 35 -82t-35 -82q-33 -33 -80 -33h-501q-47 0 -80 33q-35 35 -35 82z" />
<glyph unicode="&#x2014;" horiz-adv-x="1155" d="M82 510q0 47 35 82q33 33 80 33h764q49 0 81.5 -33t32.5 -82t-32.5 -82t-81.5 -33h-764q-47 0 -80 33q-35 35 -35 82z" />
<glyph unicode="&#x2018;" horiz-adv-x="337" d="M20 1044q0 80 41 156q47 88 103 135q29 25 65 25q41 0 70 -28.5t29 -69.5q0 -45 -35 -76q-37 -31 -66 -99q51 -37 52 -100q0 -53 -37 -90q-35 -35 -88 -35q-59 0 -97 47q-37 46 -37 135z" />
<glyph unicode="&#x2019;" horiz-adv-x="339" d="M14 938q0 45 35 74q41 41 66 98q-51 37 -52 102q0 51 37 88t88 37q61 0 96 -47t35 -137q0 -76 -43 -158q-45 -86 -98 -131q-27 -25 -65 -24q-41 0 -70 28.5t-29 69.5z" />
<glyph unicode="&#x201a;" horiz-adv-x="327" d="M2 -168q0 47 33 74q43 37 67 98q-51 37 -51 102q0 51 37 88t88 37q61 0 96 -47t35 -135q0 -72 -41 -158q-37 -76 -100 -133q-27 -25 -66 -24q-37 0 -69 28q-29 27 -29 70z" />
<glyph unicode="&#x201c;" horiz-adv-x="665" d="M20 1044q0 80 41 156q47 88 103 135q29 25 65 25q41 0 70 -28.5t29 -69.5q0 -45 -35 -76q-37 -31 -66 -99q51 -37 52 -100q0 -53 -37 -90q-35 -35 -88 -35q-59 0 -97 47q-37 46 -37 135zM346 1044q0 78 41 158q41 78 102 133q27 25 64 25t70 -29q31 -29 30 -69 q0 -45 -35 -76q-43 -37 -67 -99q53 -37 53 -100q0 -51 -37 -88t-88 -37q-59 0 -96 47q-37 46 -37 135z" />
<glyph unicode="&#x201d;" horiz-adv-x="665" d="M14 938q0 45 35 74q41 41 66 98q-51 37 -52 102q0 51 37 88t88 37q61 0 96 -47t35 -137q0 -76 -43 -158q-45 -86 -98 -131q-27 -25 -65 -24q-41 0 -70 28.5t-29 69.5zM340 938q0 47 33 74q43 37 67 98q-51 37 -51 102q0 51 37 88t88 37q61 0 96 -47t35 -137 q0 -76 -43 -158q-45 -86 -98 -131q-29 -25 -66 -24q-41 0 -69.5 28.5t-28.5 69.5z" />
<glyph unicode="&#x201e;" horiz-adv-x="665" d="M14 -168q0 45 35 74q41 41 66 98q-51 37 -52 102q0 51 37 88t88 37q61 0 96 -47t35 -135q0 -72 -40 -158q-39 -82 -101 -133q-27 -25 -65 -24q-37 0 -70 28q-29 27 -29 70zM340 -168q0 47 33 74q43 37 67 98q-51 37 -51 102q0 51 37 88t88 37q61 0 96 -47t35 -135 q0 -72 -41 -158q-37 -76 -100 -133q-29 -25 -66 -24q-41 0 -69.5 28.5t-28.5 69.5z" />
<glyph unicode="&#x2022;" horiz-adv-x="487" d="M39 575q0 84 61.5 145.5t145.5 61.5t145 -61q59 -59 59.5 -145.5t-59 -145.5t-145.5 -59q-84 0 -145.5 61t-61.5 143z" />
<glyph unicode="&#x2026;" horiz-adv-x="964" d="M53 106.5q0 53.5 35 88.5q37 37 88 36.5t88 -37t37 -88t-37 -88t-88 -36.5t-88 36q-35 35 -35 88.5zM369 106.5q0 51.5 36.5 88t88 36.5t88 -36.5t36.5 -88t-36.5 -88t-88 -36.5t-88 36.5t-36.5 88zM686 106.5q0 51.5 37 88t88 36.5t88 -36.5t37 -88t-37 -88t-88 -36.5 t-88 36.5t-37 88z" />
<glyph unicode="&#x202f;" horiz-adv-x="346" />
<glyph unicode="&#x2039;" horiz-adv-x="522" d="M18 489q0 39 27 72l256 287q31 35 80 35q45 0 75.5 -31t30.5 -76q0 -39 -26 -69l-193 -218l193 -217q27 -31 26 -71q0 -45 -30.5 -76t-75.5 -31t-80 35l-256 291q-27 32 -27 69z" />
<glyph unicode="&#x203a;" horiz-adv-x="522" d="M35 201q0 39 28 71l193 217l-193 218q-27 27 -26 69q0 45 30.5 76t75.5 31t80 -35l254 -287q27 -27 27 -72q0 -43 -27 -69l-256 -291q-31 -35 -80 -35q-45 0 -75.5 31t-30.5 76z" />
<glyph unicode="&#x205f;" horiz-adv-x="434" />
<glyph unicode="&#x20ac;" d="M27 438q0 45 34.5 80t79.5 35h43q4 63 13 98h-56q-47 0 -80 33q-35 35 -34.5 82t34.5 82q33 33 80 33h152q121 182 340 295q223 115 467 157q4 2 20 2q45 0 80 -34.5t35 -79.5q-4 -45 -29 -74q-31 -33 -67 -39q-336 -59 -539 -227h193q49 0 81.5 -33t32.5 -82t-32.5 -82 t-81.5 -33h-359q-14 -37 -20 -98h379q47 0 81 -35q33 -33 33 -80t-33 -80q-35 -35 -81 -34h-320q84 -115 234 -115q164 0 356 139q35 23 65 23q49 0 82 -33q35 -35 35 -84q0 -57 -47 -92q-250 -182 -498 -182q-166 0 -299 96q-131 94 -186 248h-74q-45 0 -79.5 34.5 t-34.5 79.5z" />
<glyph unicode="&#x2122;" horiz-adv-x="1478" d="M33 1216.5q0 40.5 28.5 69.5t69.5 29h318q37 0 69 -29q29 -27 29 -69q0 -41 -29 -70t-69 -29h-66v-211q0 -41 -28.5 -69.5t-69.5 -28.5t-70 28.5t-29 69.5v211h-55q-41 0 -69.5 29t-28.5 69.5zM598 907v312q0 37 29 69q27 29 69 29q25 0 47 -12q57 33 125 32 q86 0 152 -55q77 55 160 55q115 0 182 -84q68 -82 68 -200v-146q0 -41 -29 -69.5t-70 -28.5q-43 0 -69 29q-29 33 -29 69v146q0 86 -53 86q-43 0 -66 -41q4 -37 4 -45v-146q0 -43 -31 -69q-33 -29 -69 -29q-39 0 -68 29q-31 31 -30 69v146q0 86 -52 86q-49 0 -73 -54v-178 q0 -41 -29 -69.5t-70 -28.5q-43 0 -69 29q-29 32 -29 69z" />
<glyph unicode="&#xe000;" horiz-adv-x="875" d="M0 875h875v-875h-875v875z" />
<glyph unicode="&#xfb01;" horiz-adv-x="1005" d="M23 756q0 43 32 75q31 31 74 31h66q2 197 108 336q104 137 291 137q90 0 184 -45q88 -43 144 -123q20 -29 20 -65q0 -43 -35 -84q-33 -39 -82 -39q-82 0 -106 96q-57 47 -125 47q-96 0 -139 -78q-45 -78 -47 -182h411q46 0 80 -31q33 -31 33 -75v-664q0 -45 -31 -76 q-33 -33 -76 -32.5t-75 32.5q-31 31 -31 76v557h-311v-557q0 -45 -31 -76q-33 -33 -76 -32.5t-76 32.5q-31 31 -30 76v557h-66q-41 0 -73.5 33t-32.5 74z" />
<glyph unicode="&#xfb02;" horiz-adv-x="1030" d="M23 756q0 43 32 75q31 31 74 31h64q6 250 145 373q115 102 268 102q37 0 82 -6q10 -2 46 -5t56.5 -7t45 -7t28.5 -3q37 -2 66 -35q27 -29 26 -72v-1110q0 -45 -30.5 -75.5t-75.5 -30.5t-76 30.5t-31 75.5v1016q-113 14 -125 14q-82 0 -139 -47q-68 -59 -71 -213h157 q45 0 76 -30.5t31 -75.5q0 -43 -31 -74q-33 -33 -76 -33h-157v-555q0 -43 -31 -74q-33 -33 -78 -32q-41 0 -73.5 32.5t-32.5 73.5v555h-64q-41 0 -73.5 33t-32.5 74z" />
<glyph unicode="&#xfb03;" horiz-adv-x="1939" d="M1640 1216.5q0 49.5 35 84t84 34.5t84 -34.5t35 -84t-35 -84t-84 -34.5t-84 34.5t-35 84zM1653 94v680q0 45 30.5 76t75.5 31t76 -31t31 -76v-680q0 -43 -31 -74q-33 -33 -76 -32.5t-76 32.5q-30 31 -30 74zM811 754q0 45 30.5 75.5t75.5 30.5h64q0 201 104 336t295 135 q94 0 135 -28.5t41 -83.5q0 -43 -31 -74q-33 -33 -75 -33q-18 0 -33 2q-29 4 -33 4h-2q-188 0 -188 -258h194q45 0 76 -30.5t31 -75.5t-31 -76t-76 -31h-194v-555q0 -43 -31 -74q-33 -33 -76 -32.5t-76 32.5q-31 31 -30 74v555h-64q-45 0 -75.5 31t-30.5 76zM23 754 q0 45 30.5 75.5t75.5 30.5h64q0 201 104 336t295 135q94 0 135 -28.5t41 -83.5q0 -43 -31 -74q-33 -33 -75 -33q-18 0 -33 2q-29 4 -33 4h-2q-188 0 -188 -258h194q45 0 76 -30.5t31 -75.5t-31 -76t-76 -31h-194v-555q0 -43 -31 -74q-33 -33 -76 -32.5t-76 32.5 q-31 31 -30 74v555h-64q-45 0 -75.5 31t-30.5 76z" />
<glyph unicode="&#xfb04;" horiz-adv-x="1939" d="M1653 94v1127q0 47 30.5 77.5t75.5 30.5t76 -30.5t31 -77.5v-1127q0 -43 -31 -74q-33 -33 -76 -32.5t-76 32.5q-30 31 -30 74zM811 754q0 45 30.5 75.5t75.5 30.5h64q0 201 104 336t295 135q94 0 135 -28.5t41 -83.5q0 -43 -31 -74q-33 -33 -75 -33q-18 0 -33 2 q-29 4 -33 4h-2q-188 0 -188 -258h194q45 0 76 -30.5t31 -75.5t-31 -76t-76 -31h-194v-555q0 -43 -31 -74q-33 -33 -76 -32.5t-76 32.5q-31 31 -30 74v555h-64q-45 0 -75.5 31t-30.5 76zM23 754q0 45 30.5 75.5t75.5 30.5h64q0 201 104 336t295 135q94 0 135 -28.5t41 -83.5 q0 -43 -31 -74q-33 -33 -75 -33q-18 0 -33 2q-29 4 -33 4h-2q-188 0 -188 -258h194q45 0 76 -30.5t31 -75.5t-31 -76t-76 -31h-194v-555q0 -43 -31 -74q-33 -33 -76 -32.5t-76 32.5q-31 31 -30 74v555h-64q-45 0 -75.5 31t-30.5 76z" />
<glyph horiz-adv-x="413" />
</font>
</defs>
</svg>
