<?xml version="1.0" standalone="no"?>
<!DOCTYPE svg PUBLIC "-//W3C//DTD SVG 1.1//EN" "http://www.w3.org/Graphics/SVG/1.1/DTD/svg11.dtd" >
<svg xmlns="http://www.w3.org/2000/svg">
<metadata>
This is a custom SVG webfont generated by Font Squirrel.
Copyright   : Copyright c 2010 by Designed and produced by Robby Woodard All rights reserved
Designer    : Robby Woodard
Foundry     : Designed and produced by Robby Woodard
</metadata>
<defs>
<font id="webfontAPzlQivm" horiz-adv-x="903" >
<font-face units-per-em="2048" ascent="1679" descent="-369" />
<missing-glyph horiz-adv-x="397" />
<glyph unicode=" "  horiz-adv-x="397" />
<glyph unicode="&#x09;" horiz-adv-x="397" />
<glyph unicode="&#xa0;" horiz-adv-x="397" />
<glyph unicode="!" horiz-adv-x="268" d="M82 55q0 29 22 51q20 20 49 20.5t50 -20.5q23 -23 22 -51q0 -27 -22.5 -49t-49 -22t-49 22t-22.5 49zM104 303v977q0 20 15 33q18 14 34.5 14t34.5 -14q14 -12 15 -33v-977q0 -20 -14.5 -34.5t-35 -14.5t-35 14.5t-14.5 34.5z" />
<glyph unicode="&#x22;" horiz-adv-x="471" d="M59 991v295q0 20 14.5 34.5t35 14.5t35 -14t14.5 -35v-295q0 -20 -14.5 -34.5t-35 -14.5t-35 14.5t-14.5 34.5zM313 991v295q0 20 14.5 34.5t35 14.5t35 -14t14.5 -35v-295q0 -20 -14.5 -34.5t-35 -14.5t-35 14.5t-14.5 34.5z" />
<glyph unicode="#" horiz-adv-x="1040" d="M20 768q0 25 14.5 37t35.5 12h182l67 193h-151q-20 0 -34.5 14t-14.5 34.5t14 35t35 14.5h184l66 186q8 33 45 33q20 0 34.5 -14.5t14.5 -34.5q0 -12 -2 -16l-53 -154h243l66 186q8 33 47 33q20 0 34.5 -14.5t14.5 -34.5l-4 -16l-53 -154h160q20 0 34.5 -14.5t14.5 -35 t-14.5 -34.5t-34.5 -14h-193l-65 -193h157q20 0 34.5 -12t14.5 -37q0 -20 -14 -34.5t-35 -14.5h-192l-88 -254q-10 -35 -47 -35q-18 0 -35 16q-14 14 -15 35q0 8 5 15l75 223h-243l-88 -254q-16 -35 -48 -35q-18 0 -34 16q-14 14 -15 35q0 10 2 15l78 223h-149 q-20 0 -35 14.5t-15 34.5zM356 823h246l66 191h-246z" />
<glyph unicode="$" horiz-adv-x="690" d="M20 391q4 23 19 35q43 29 70 -10q33 -45 100 -74t135 -29q92 0 141 41q51 43 52 101q0 141 -220 192q-117 29 -188 88q-74 61 -74 158q0 94 64 151q66 59 157 72v162q0 20 14.5 34.5t35.5 14.5q23 0 35 -14.5t12 -34.5v-160q96 -6 207 -53q47 -23 24 -66q-10 -18 -26 -24 q-23 -8 -37 0q-113 47 -205 47q-74 0 -129 -33q-53 -31 -53 -92q0 -114 184 -154q147 -33 223 -108q74 -74 74 -172q0 -113 -76 -176q-74 -61 -186 -72v-180q0 -18 -13 -35q-12 -14 -34 -14q-20 0 -35 14t-15 35v184q-164 29 -245 137q-13 17 -11 35z" />
<glyph unicode="%" horiz-adv-x="1382" d="M39 836q0 102 61.5 218.5t161.5 198.5q102 84 207 84q84 0 133 -59q49 -58 49 -148q0 -102 -61.5 -218.5t-161.5 -198.5q-102 -84 -207 -84q-86 0 -135 59q-47 56 -47 148zM137 836q0 -109 84 -109q119 0 225 141q106 139 107 262q0 109 -84 109q-117 0 -225 -141 q-107 -139 -107 -262zM197 35q0 12 10 28l880 1244q14 20 39 20q20 0 35 -14.5t15 -34.5q0 -18 -9 -29l-880 -1243q-14 -20 -41 -20q-20 0 -34.5 14.5t-14.5 34.5zM735 186q0 106 59.5 219t163.5 199q102 84 205 84q86 0 135 -59q47 -55 48 -148q0 -162 -136 -334 q-133 -170 -295 -170q-86 0 -133 59.5t-47 149.5zM831 184q0 -109 84 -108q117 0 224 141q109 143 108 264q0 109 -84 109q-119 0 -225 -141q-107 -140 -107 -265z" />
<glyph unicode="&#x26;" horiz-adv-x="923" d="M39 442q0 145 188 260q-82 45 -82 144q0 109 98.5 188.5t223.5 110.5v133q0 20 14.5 34.5t35 14.5t34.5 -14.5t14 -34.5v-113q109 14 238 9q23 -4 33 -17q14 -18 14 -35q0 -18 -16 -35q-15 -15 -37 -12q-14 2 -68 2q-225 0 -354 -73q-131 -76 -131 -158q0 -47 49 -66 q47 -18 96 -8q133 35 393 70q29 4 43.5 -10.5t14.5 -38.5q0 -41 -43 -48l-234 -32q-175 -28 -301 -105q-125 -76 -125 -162q0 -40 31 -67q27 -25 78 -37q57 -14 86 -16q53 -4 76 -4q164 0 391 59q27 6 45 -10q16 -14 16 -39q0 -37 -35 -47q-127 -31 -260 -52v-196 q0 -20 -14 -35q-16 -16 -35 -16q-20 0 -34.5 14t-14.5 37v188q-186 -12 -307 47t-121 170z" />
<glyph unicode="'" horiz-adv-x="219" d="M61 991v295q0 20 14.5 34.5t35 14.5t35 -14t14.5 -35v-295q0 -20 -14.5 -34.5t-35 -14.5t-35 14.5t-14.5 34.5z" />
<glyph unicode="(" horiz-adv-x="555" d="M20 543q0 248 119 477q121 231 318 397q12 12 30 13q20 0 35 -14.5t15 -35t-17 -37.5q-193 -186 -297 -376.5t-104 -423.5q0 -444 391 -697q27 -14 27 -43q0 -20 -14.5 -34.5t-35.5 -14.5q-2 0 -22 4q-211 109 -328 324t-117 461z" />
<glyph unicode=")" horiz-adv-x="555" d="M20 -199q0 20 17 37q197 190 299 377q104 190 104 424q0 444 -393 696q-27 14 -27 43q0 20 14.5 34.5t35.5 14.5q10 0 22 -6q215 -109 330 -321q117 -215 117 -463q0 -246 -119 -477q-119 -229 -318 -396q-16 -12 -32 -12q-20 0 -35 12t-15 37z" />
<glyph unicode="*" horiz-adv-x="587" d="M20 1098q0 23 15 37q16 16 35 16h129l-72 109q-8 14 -8 26q0 20 14 34.5t35 14.5q27 0 43 -22l84 -127l84 127q16 23 41 22q20 0 34.5 -14t14.5 -35q0 -18 -8 -26l-72 -109h131q20 0 34.5 -14.5t14.5 -35t-14 -34.5t-35 -14l-137 -2l78 -119q8 -8 8 -27 q0 -20 -14.5 -34.5t-34.5 -14.5q-25 0 -41 23l-84 127l-84 -127q-16 -23 -43 -23q-20 0 -34.5 14.5t-14.5 34.5q0 10 8 27l78 119l-135 -2q-20 0 -35 14.5t-15 34.5z" />
<glyph unicode="+" horiz-adv-x="983" d="M68 563.5q0 20.5 14 34.5t35 14h332v351q0 20 14 34.5t34.5 14.5t35 -14.5t14.5 -34.5v-351h321q20 0 35 -14t15 -34.5t-14.5 -35t-35.5 -14.5h-321v-340q0 -20 -14.5 -34.5t-35 -14.5t-34.5 14.5t-14 34.5v340h-332q-20 0 -34.5 14.5t-14.5 35z" />
<glyph unicode="," horiz-adv-x="247" d="M-2 -217q0 16 16 37q59 53 84 180q-37 16 -37 63q0 27 21 48q23 23 51 22q35 0 55 -27q18 -25 19 -63q0 -59 -41 -160q-39 -96 -86 -137q-20 -20 -53 -8q-29 12 -29 45z" />
<glyph unicode="-" horiz-adv-x="497" d="M41 512q0 20 14.5 34.5t34.5 14.5h320q20 0 34.5 -14.5t14.5 -34.5t-14.5 -34.5t-34.5 -14.5h-320q-20 0 -34.5 14.5t-14.5 34.5z" />
<glyph unicode="." horiz-adv-x="247" d="M61 61q0 29 21 50q23 23 51.5 22.5t50.5 -22.5q20 -20 21 -50q0 -33 -20.5 -53t-51.5 -20q-29 0 -51 22q-21 20 -21 51z" />
<glyph unicode="/" horiz-adv-x="1001" d="M39 27q0 14 8 28l825 1260q20 29 55.5 20.5t35.5 -47.5q0 -14 -7 -26l-827 -1262q-18 -29 -53 -20q-37 8 -37 47z" />
<glyph unicode="0" horiz-adv-x="1392" d="M59 438q0 209 119 416t320 346q199 137 405 137q197 0 313.5 -129t116.5 -329q0 -207 -119 -414q-123 -213 -317.5 -350.5t-404.5 -137.5q-199 0 -316 129t-117 332zM158 438q0 -162 88 -262t246 -100q180 0 358 125q170 119 280 311q106 186 107 367q0 160 -88 260 t-246 100q-178 0 -356 -125q-176 -123 -282.5 -309.5t-106.5 -366.5z" />
<glyph unicode="1" horiz-adv-x="542" d="M53 1038q0 25 17 35l276 244q12 12 31 12q20 0 34.5 -14.5t14.5 -34.5v-1245q0 -20 -14.5 -34.5t-34.5 -14.5q-23 0 -35 14q-12 16 -12 35v1136l-195 -170q-12 -12 -32.5 -12t-35 14.5t-14.5 34.5z" />
<glyph unicode="2" horiz-adv-x="983" d="M63 29q-14 31 5 53q86 178 219 311q127 127 334 273q205 143 204 309q0 123 -98 192q-96 70 -225 70q-158 0 -359 -117q-25 -14 -51 0q-25 12 -24 41q0 25 22 43q76 55 195 94q113 37 217 37q170 0 297 -96q125 -94 125 -262q0 -217 -248 -391q-182 -127 -293 -232 q-121 -115 -199 -256h672q20 0 34.5 -14t14.5 -34.5t-14 -35t-35 -14.5h-747q-34 0 -46 29z" />
<glyph unicode="3" horiz-adv-x="1046" d="M41 1178q0 31 27 43q72 45 176 79q98 33 184 33q109 0 182.5 -61.5t73.5 -167.5q0 -102 -76 -184q158 -6 279 -93q119 -86 119 -237q0 -164 -140 -303q-137 -137 -348 -219q-203 -78 -418 -88q-23 0 -41 14q-14 12 -14 35q0 46 43 49q330 37 574 180q246 143 245 332 q0 121 -100 176q-101 55 -227 55q-80 0 -160 -14q-92 -16 -176 -39q-96 -27 -119 -31t-37 11q-16 16 -16 36q0 43 63 56l234 49q217 51 217 215q0 65 -43 98q-41 33 -115 33q-119 0 -313 -100q-25 -12 -49.5 2t-24.5 41z" />
<glyph unicode="4" horiz-adv-x="1126" d="M20 391q0 18 11 31l735 889q23 29 53 16q33 -12 33 -47q0 -12 -10 -33l-670 -807h578v387q0 20 14 35t34.5 15t35 -14.5t14.5 -35.5v-387h205q20 0 34.5 -14t14.5 -34.5t-14.5 -35t-34.5 -14.5h-205v-307q0 -20 -14.5 -34.5t-35 -14.5t-34.5 14t-14 35v307h-680 q-20 0 -35 14.5t-15 34.5z" />
<glyph unicode="5" horiz-adv-x="997" d="M20 27q0 46 43 49q311 33 545 178q233 143 234 334q0 119 -94 180q-92 59 -220 59q-18 0 -67 -4l-33.5 -5t-24.5 -3q-18 -2 -67 -16q-12 -4 -25.5 -7.5l-21.5 -5.5t-13 -4q-8 -2 -63 -20l-27.5 -8t-21.5 -7.5t-10 -3.5q-27 -6 -45.5 8.5t-18.5 39.5v475q0 16 14 34 q12 14 33 15h647q20 0 35 -14.5t15 -35t-14.5 -34.5t-35.5 -14h-598v-359q219 68 342 68q168 0 289 -88q123 -88 123 -248q0 -131 -86 -248q-84 -115 -215 -192q-127 -76 -281 -123q-139 -43 -282 -50q-27 0 -41.5 12.5t-14.5 37.5z" />
<glyph unicode="6" horiz-adv-x="1177" d="M59 508q0 141 50 264q49 125 129 213q82 92 194 162q115 72 230 117q121 47 249 71q23 4 41 -12q18 -15 19 -37q0 -41 -39 -47q-143 -33 -278.5 -90t-245.5 -139q-113 -84 -183 -215q-68 -129 -67 -287q0 -190 106 -309q-10 51 -10 94q0 219 174 405q176 188 389 189 q135 0 219 -90t84 -226q0 -218 -178 -405q-178 -188 -391 -189q-221 0 -356.5 154t-135.5 377zM346 295q0 -96 55.5 -157.5t149.5 -61.5q176 0 323.5 159.5t147.5 335.5q0 94 -55.5 155.5t-151.5 61.5q-174 0 -321.5 -159.5t-147.5 -333.5z" />
<glyph unicode="7" horiz-adv-x="1050" d="M39 1265.5q0 20.5 14.5 35t34.5 14.5h887q20 0 34.5 -14.5t14.5 -34.5q0 -16 -8 -27l-821 -1231q-16 -23 -41 -22q-33 0 -45 26q-12 29 4 49l772 1156h-797q-20 0 -34.5 14t-14.5 34.5z" />
<glyph unicode="8" horiz-adv-x="1241" d="M59 297q0 133 91 266q89 132 215 215q-76 20 -123 74q-49 55 -49 133q0 145 147 248q150 102 299 102q111 0 192.5 -57t81.5 -164q0 -102 -92 -201q154 -6 256 -94q104 -90 105 -235q0 -166 -119 -305q-117 -137 -289 -220q-168 -80 -327.5 -79.5t-272.5 81.5 q-115 84 -115 236zM158 297q0 -111 86 -166q82 -53 200 -53q135 0 283 67q150 68 252 187q104 120 104 252q0 109 -88 174q-84 63 -196 63q-125 0 -275 -71q-154 -74 -258 -197q-108 -127 -108 -256zM291 981q0 -58 55 -92q57 -35 119 -35q123 0 237 78q113 76 113 186 q0 57 -55 88t-121 31q-111 0 -231 -76q-117 -74 -117 -180z" />
<glyph unicode="9" horiz-adv-x="1177" d="M59 745q0 219 177 404q178 188 393 188q221 0 356 -153.5t135 -376.5q0 -175 -73 -320q-76 -150 -197 -243q-127 -98 -272 -164q-143 -63 -312 -98q-25 -4 -41 10t-16 37q0 41 39 49q143 33 278 90q131 55 244 139q119 88 184 213q68 129 68 287q0 188 -109 309 q12 -39 13 -94q0 -217 -174 -404q-176 -188 -390 -188q-139 0 -221 88t-82 227zM158 745q0 -96 55 -157q53 -59 149 -60q170 0 322 160q150 158 150 334q0 94 -55.5 155.5t-149.5 61.5q-174 0 -322 -160q-149 -162 -149 -334z" />
<glyph unicode=":" horiz-adv-x="247" d="M61 305q0 31 20.5 51.5t51.5 20.5q33 0 53.5 -20.5t20.5 -51.5t-20.5 -51.5t-53.5 -20.5q-31 0 -51.5 20.5t-20.5 51.5zM61 674q0 31 20.5 51t51.5 20q33 0 53.5 -20t20.5 -51t-20.5 -51.5t-53.5 -20.5q-31 0 -51.5 20.5t-20.5 51.5z" />
<glyph unicode=";" horiz-adv-x="247" d="M-2 27q0 20 16 36q59 53 84 181q-37 14 -37 63q0 29 20.5 49.5t49.5 20.5q39 0 57.5 -24.5t18.5 -65.5q0 -59 -41 -160q-39 -96 -86 -137q-25 -20 -53.5 -8t-28.5 45zM61 674q0 31 20.5 51t51.5 20q33 0 53.5 -20t20.5 -51t-20.5 -51.5t-53.5 -20.5q-31 0 -51.5 20.5 t-20.5 51.5z" />
<glyph unicode="&#x3c;" horiz-adv-x="845" d="M20 530q0 27 25 41l688 402q9 6 25 6q14 0 33 -14q16 -12 16 -33q0 -28 -25 -43l-616 -359l616 -360q25 -14 25 -41q0 -25 -14.5 -37t-34.5 -12q-15 0 -25 6l-688 401q-25 15 -25 43z" />
<glyph unicode="=" horiz-adv-x="958" d="M20 329.5q0 20.5 14.5 35t35.5 14.5h643q20 0 34.5 -14.5t14.5 -35t-14.5 -34.5t-34.5 -14h-643q-20 0 -35 14t-15 34.5zM20 673.5q0 20.5 14.5 35t35.5 14.5h643q20 0 34.5 -14.5t14.5 -35t-14.5 -34.5t-34.5 -14h-643q-20 0 -35 14t-15 34.5z" />
<glyph unicode="&#x3e;" horiz-adv-x="845" d="M41 129q0 27 25 41l614 360l-614 359q-25 15 -25 43q0 20 16 33q18 14 33 14q12 0 25 -6l688 -402q25 -14 24 -41q0 -28 -24 -43l-688 -401q-12 -6 -25 -6q-20 0 -34.5 12t-14.5 37z" />
<glyph unicode="?" horiz-adv-x="929" d="M18 1153q0 28 25 43q246 143 451 141q168 0 292 -94q123 -92 123 -252q0 -123 -90 -237q-88 -113 -266 -174q-254 -86 -254 -222v-55q0 -20 -14 -35q-16 -16 -35 -16t-35 16q-14 14 -14 35v55q0 205 319 316q150 49 219 137q72 90 72 182q0 121 -94 183q-98 63 -223 63 q-178 0 -402 -129q-9 -6 -24 -6q-20 0 -35 14.5t-15 34.5zM178 55q0 31 20.5 51.5t51.5 20.5t51.5 -20.5t20.5 -51t-20.5 -51t-51.5 -20.5q-29 0 -51 22q-21 20 -21 49z" />
<glyph unicode="@" horiz-adv-x="1720" d="M31 553q0 231 131 416q129 180 346 272q223 94 485 94q174 0 310 -51q141 -53 221 -133t125 -182q43 -98 43 -201q0 -186 -98.5 -317.5t-270.5 -131.5q-92 0 -162 54q-68 53 -90 143q-219 -193 -422 -192q-117 0 -182 63q-68 63 -68 170q0 139 104.5 250t248.5 164 q139 51 278 51q92 0 180 -16q25 -3 37.5 -25t5.5 -43l-73 -238q-18 -61 -19 -112q0 -77 43 -123q43 -47 119 -47q127 0 198.5 102.5t71.5 247.5q0 180 -157 326q-156 143 -443 143q-125 0 -248 -25q-117 -23 -233 -82q-111 -55 -199 -137q-86 -80 -135 -192.5t-49 -249.5 q0 -164 92 -274.5t228 -157.5q129 -45 294 -45q264 0 478 119q27 14 53 0q23 -12 22 -39q0 -29 -32 -50q-221 -129 -521 -129q-135 0 -264 35q-123 33 -227.5 102.5t-161.5 182.5q-59 115 -59 258zM498 557q0 -66 43 -100q45 -35 110 -35q190 0 416 225q6 43 18 84 q23 80 31 103q18 49 27 81q-47 8 -113 9q-113 0 -229 -37q-115 -37 -209 -127t-94 -203z" />
<glyph unicode="A" horiz-adv-x="1249" d="M35 36.5q0 16.5 2 20.5l536 1239q16 35 54 35q33 0 51 -35l534 -1241q4 -8 5 -18q0 -20 -14.5 -34.5t-35.5 -14.5q-33 0 -45 28l-188 439h-617l-190 -437q-8 -31 -45 -30q-20 0 -33 14q-14 18 -14 34.5zM360 553h531l-264 614z" />
<glyph unicode="B" horiz-adv-x="1200" d="M104 39v1141q0 29 29 45q211 111 395 110q115 0 199 -59q82 -57 82 -170q0 -111 -86 -184q172 -6 301 -86t129 -238q0 -121 -82 -227q-84 -109 -202.5 -176.5t-262.5 -116.5q-160 -55 -260 -74q-125 -23 -196 -22q-15 0 -31 18q-15 16 -15 39zM203 78q111 16 237 51 q132 37 277 98q152 63 241 158q96 100 97 211q0 84 -62 139q-63 57 -137 75.5t-154 18.5q-219 0 -499 -124v-627zM203 801q131 57 246 84q2 0 9 2t21.5 4t26.5 4q47 8 57 12q55 18 101 78q47 63 47 121q0 72 -54 100q-55 31 -129 31q-137 0 -325 -88v-348z" />
<glyph unicode="C" horiz-adv-x="1128" d="M59 500q0 143 58 266q57 125 153 217q98 96 219 168q117 70 256 119q123 43 267 65q5 1 9 1q18 0 32 -11q18 -14 18 -39q0 -37 -41 -47q-127 -20 -237 -57q-127 -43 -234 -103q-115 -63 -205 -147q-86 -80 -141 -195q-55 -114 -55 -239q0 -178 114.5 -299t288.5 -121 q213 0 443 168q14 10 28 10q16 0 32.5 -16.5t16.5 -34.5q0 -25 -18 -37q-260 -190 -500 -191q-217 0 -360.5 150t-143.5 373z" />
<glyph unicode="D" horiz-adv-x="1228" d="M104 35v1141q0 29 31 45q113 51 236 82q139 35 243 34q229 0 396 -137q162 -135 161 -364q0 -175 -92 -326q-96 -158 -239 -254q-156 -104 -322 -170q-180 -72 -356 -100q-4 -1 -7 -1q-18 0 -34 13q-17 14 -17 37zM203 84q143 27 291 90q150 63 278 154q137 96 217 223 q84 133 84 283q0 188 -133 296.5t-326 108.5q-176 0 -411 -96v-1059z" />
<glyph unicode="E" horiz-adv-x="862" d="M104 49v1217q0 20 14.5 34.5t35.5 14.5h594q20 0 34.5 -14.5t14.5 -35t-14.5 -34.5t-34.5 -14h-545v-355h506q20 0 34.5 -14t14.5 -34.5t-14.5 -35t-34.5 -14.5h-506v-666h553q20 0 34.5 -14t14.5 -34.5t-14.5 -35t-34.5 -14.5h-602q-20 0 -35 14.5t-15 34.5z" />
<glyph unicode="F" horiz-adv-x="868" d="M104 37v1229q0 20 14.5 34.5t35.5 14.5h606q20 0 34.5 -14.5t14.5 -35t-14.5 -34.5t-34.5 -14h-557v-355h487q20 0 34.5 -14t14.5 -34.5t-14 -35t-35 -14.5h-487v-727q0 -20 -14.5 -34.5t-35 -14.5t-35 14.5t-14.5 34.5z" />
<glyph unicode="G" horiz-adv-x="1177" d="M59 475q0 182 86 336q88 158 228 260q131 96 307 170q166 70 338 96q4 1 7 1q16 0 30 -11q18 -14 20 -31q4 -23 -8 -36q-14 -18 -33 -21q-125 -18 -239 -57q-129 -43 -236 -105q-119 -70 -205 -151q-84 -80 -141 -203q-55 -117 -55 -252q0 -168 98 -281q97 -113 254 -112 h8q193 0 469 192v187h-340q-20 0 -34.5 14t-14.5 37q0 20 14.5 34.5t34.5 14.5h389q20 0 34.5 -14.5t14.5 -34.5v-467q0 -20 -14 -34.5t-34.5 -14.5t-35 14t-14.5 35v125q-244 -182 -467 -189q-205 0 -334 144q-127 141 -127 354z" />
<glyph unicode="H" horiz-adv-x="1105" d="M104 37v1241q0 20 14.5 34.5t35 14.5t35 -14.5t14.5 -34.5v-416h702v416q0 20 14.5 34.5t35 14.5t35 -14.5t14.5 -34.5v-1241q0 -20 -14.5 -34.5t-35 -14.5t-35 14t-14.5 35v727h-702v-727q0 -20 -14.5 -34.5t-35 -14.5t-35 14.5t-14.5 34.5z" />
<glyph unicode="I" horiz-adv-x="305" d="M104 37v1241q0 20 14.5 34.5t35 14.5t35 -14.5t14.5 -34.5v-1241q0 -20 -14.5 -34.5t-35 -14.5t-35 14.5t-14.5 34.5z" />
<glyph unicode="J" horiz-adv-x="907" d="M25 141q0 23 14 35q18 14 35 14q20 0 35 -14q113 -100 249 -100q166 0 258 114t93 283v805q0 20 14 34.5t34.5 14.5t35 -14.5t14.5 -34.5v-805q0 -211 -121 -354q-121 -141 -328 -142q-86 0 -178 35q-90 35 -143 97q-12 14 -12 32z" />
<glyph unicode="K" horiz-adv-x="1013" d="M104 41v1237q0 20 14.5 34.5t35 14.5t35 -14.5t14.5 -34.5v-504l590 541q14 14 34.5 14t35 -14.5t14.5 -34.5t-17 -37l-543 -498l646 -677q14 -14 14 -33q0 -20 -14.5 -34.5t-34.5 -14.5q-23 0 -37 14l-688 721v-680q0 -20 -12.5 -34.5t-36.5 -14.5q-20 0 -35 14.5 t-15 34.5z" />
<glyph unicode="L" horiz-adv-x="823" d="M104 49v1229q0 20 14.5 34.5t35 14.5t35 -14.5t14.5 -34.5v-1180h553q20 0 34.5 -14t14.5 -34.5t-14.5 -35t-34.5 -14.5h-602q-20 0 -35 14.5t-15 34.5z" />
<glyph unicode="M" horiz-adv-x="1466" d="M104 35v1249q0 20 15 33q18 14 35 14q29 0 41 -20l540 -807l541 807q12 23 39 22q20 0 34.5 -14t14.5 -35v-1249q0 -20 -14.5 -34.5t-35 -14.5t-34.5 14t-14 35v1089l-490 -735q-16 -23 -41 -22q-29 0 -41 22l-491 735v-1089q0 -20 -14.5 -34.5t-35 -14.5t-35 14.5 t-14.5 34.5z" />
<glyph unicode="N" horiz-adv-x="1126" d="M104 35v1247q0 20 14.5 34.5t35.5 14.5q29 0 41 -22l731 -1110v1079q0 20 14 34.5t34.5 14.5t35 -14.5t14.5 -34.5v-1243q0 -20 -14 -33q-18 -14 -35 -14q-27 0 -41 20l-731 1112v-1085q0 -20 -15 -33q-18 -14 -34 -14q-18 0 -35 12q-15 12 -15 35z" />
<glyph unicode="O" horiz-adv-x="1275" d="M59 504q0 188 92.5 378.5t260.5 323.5q164 131 358 131q207 0 328 -155.5t121 -368.5q0 -193 -91 -379q-94 -197 -260 -325q-168 -131 -360 -132q-209 0 -328 156q-121 158 -121 371zM158 502q0 -174 92 -299q92 -127 258 -127q168 0 311.5 118.5t222.5 286.5 q78 164 78 334q0 172 -92 297q-92 127 -258 127q-168 0 -311 -117q-141 -115 -223 -286q-78 -164 -78 -334z" />
<glyph unicode="P" horiz-adv-x="1024" d="M104 37v1124q0 29 29 47q240 129 457 129q152 0 270 -84q117 -83 117 -233q0 -125 -80 -229q-78 -102 -205 -173q-111 -61 -250 -108q-121 -41 -239 -57v-416q0 -20 -14.5 -34.5t-35 -14.5t-35 14.5t-14.5 34.5zM203 543q76 10 196 51q100 33 219 96q115 59 187 148 q74 88 74 182q0 109 -91 164q-89 55 -202 55q-182 0 -383 -106v-590z" />
<glyph unicode="Q" horiz-adv-x="1275" d="M59 504q0 188 92.5 378.5t260.5 323.5q164 131 358 131q207 0 328 -155.5t121 -368.5q0 -131 -54 -281q-51 -145 -145 -270l297 -319q12 -12 12 -33q0 -25 -14 -37q-15 -12 -37 -12q-20 0 -33 16l-291 311q-205 -211 -446 -211q-209 0 -328 156q-121 158 -121 371z M158 502q0 -174 92 -299q92 -127 258 -127q212 0 381 184l-131 141q-20 20 -10 50q8 27 32.5 32.5t48.5 -14.5l123 -133q168 225 168 479q0 172 -92 297q-92 127 -258 127q-168 0 -311 -117q-141 -115 -223 -286q-78 -164 -78 -334z" />
<glyph unicode="R" horiz-adv-x="1034" d="M104 37v1114q0 29 27 43q250 143 467 143q150 0 254 -77q109 -80 109 -222q0 -119 -80 -211q-82 -94 -185 -139q-109 -47 -225 -72l500 -550q14 -14 14 -33q0 -20 -14.5 -34.5t-34.5 -14.5q-25 0 -37 16l-551 608q-14 16 -14 33q0 43 43 49q485 86 485 346q0 98 -82 150 q-84 51 -186 51q-168 0 -391 -115v-1085q0 -20 -14.5 -34.5t-35 -14.5t-35 14.5t-14.5 34.5z" />
<glyph unicode="S" horiz-adv-x="919" d="M47 154q0 33 28.5 45t53.5 -9q156 -115 324 -114q133 0 223 67q88 68 88 195q0 63 -29 115q-35 63 -71 94q-45 39 -107 74q-55 31 -111 57l-108 45q-115 45 -197 127q-80 80 -80 190q0 133 113 215t254 82q78 0 186 -28q106 -29 166 -70q25 -14 25 -41q0 -29 -27 -43 q-28 -15 -55 0q-156 84 -295 84q-96 0 -182 -55.5t-86 -145.5q0 -133 213 -219q82 -31 166 -74q59 -31 153 -98q84 -61 125 -137q45 -84 45 -172q0 -169 -117 -264q-119 -96 -294 -97q-100 0 -211 39q-113 41 -177 103q-16 17 -16 35z" />
<glyph unicode="T" horiz-adv-x="1042" d="M39 1265.5q0 20.5 14.5 35t34.5 14.5h868q20 0 35 -14.5t15 -35t-14.5 -34.5t-35.5 -14h-385v-1182q0 -20 -14 -34.5t-34.5 -14.5t-35 14t-14.5 35v1182h-385q-20 0 -34.5 14t-14.5 34.5z" />
<glyph unicode="U" horiz-adv-x="1116" d="M104 512v768q0 20 14.5 34.5t35 14.5t35 -14.5t14.5 -34.5v-768q0 -176 90 -307q88 -129 266 -129t266 129q90 131 90 307v768q0 20 14.5 34.5t35 14.5t35 -14.5t14.5 -34.5v-768q0 -227 -117 -381t-338 -154t-338 154t-117 381z" />
<glyph unicode="V" horiz-adv-x="1253" d="M39 1282q0 20 14.5 34.5t34.5 14.5q35 0 45 -31l498 -1153l491 1151q16 31 45 31q20 0 35 -14.5t15 -34.5q0 -12 -5 -18l-530 -1244q-12 -33 -51 -32q-35 0 -51 34l-537 1244q-4 16 -4 18z" />
<glyph unicode="W" horiz-adv-x="1843" d="M37 1278q0 20 14.5 34.5t34.5 14.5q35 0 45 -29l498 -1153l237 555l-239 560q-4 8 -4 18q0 20 14 34.5t35 14.5q29 0 45 -29l495 -1153l500 1153q10 29 45 29q16 0 35 -14q14 -12 14 -33q0 -4 -4 -20l-538 -1244q-12 -33 -52 -32q-37 0 -53 34l-239 557l-240 -559 q-14 -33 -51 -32q-35 0 -54 34l-534 1242q-4 16 -4 18z" />
<glyph unicode="X" horiz-adv-x="1161" d="M39 35q0 12 10 28l473 658l-381 528q-8 8 -8 29q0 16 14 35q12 14 33 14q27 0 41 -20l361 -502l362 504q14 20 39 20q20 0 34.5 -14.5t14.5 -34.5q0 -18 -8 -29l-383 -530l473 -658q10 -16 10 -28q0 -20 -14 -34.5t-35 -14.5q-25 0 -39 20l-454 631l-453 -631 q-14 -20 -41 -20q-20 0 -34.5 14.5t-14.5 34.5z" />
<glyph unicode="Y" horiz-adv-x="1097" d="M39 1280q0 20 14.5 34.5t34.5 14.5q25 0 39 -20l430 -568l416 570q12 18 39 18q20 0 34.5 -14.5t14.5 -34.5q0 -12 -10 -29l-445 -606v-610q0 -18 -12 -35q-12 -14 -35 -14q-16 0 -35 14q-14 12 -14 33v610l-461 606q-10 17 -10 31z" />
<glyph unicode="Z" horiz-adv-x="978" d="M41 49q0 10 8 27l733 1141h-616q-20 0 -34.5 14t-14.5 34.5t14 35t35 14.5h704q25 0 37.5 -14.5t12.5 -34.5q0 -14 -7 -27l-733 -1141h719q20 0 34.5 -14t14.5 -34.5t-14 -35t-35 -14.5h-809q-20 0 -34.5 14.5t-14.5 34.5z" />
<glyph unicode="[" horiz-adv-x="464" d="M0 -260v1702q0 20 14.5 34.5t34.5 14.5h359q20 0 34.5 -14.5t14.5 -35t-14.5 -34.5t-34.5 -14h-310v-1604h310q20 0 34.5 -14.5t14.5 -35t-14.5 -34.5t-34.5 -14h-359q-20 0 -34.5 14.5t-14.5 34.5z" />
<glyph unicode="\" horiz-adv-x="1013" d="M53 1278q0 20 14.5 34.5t34.5 14.5q25 0 41 -22l811 -1244q8 -8 9 -26q0 -20 -14.5 -34.5t-35.5 -14.5q-29 0 -41 22l-811 1243q-8 9 -8 27z" />
<glyph unicode="]" horiz-adv-x="468" d="M16 -260.5q0 20.5 14.5 35t35.5 14.5h309v1604h-309q-20 0 -35 14t-15 34.5t14.5 35t35.5 14.5h358q20 0 34.5 -14.5t14.5 -34.5v-1702q0 -20 -14.5 -34.5t-34.5 -14.5h-358q-20 0 -35 14t-15 34.5z" />
<glyph unicode="^" horiz-adv-x="993" d="M47 592q0 15 6 24l402 689q15 25 43 24q27 0 41 -24l401 -689q8 -8 8 -24q0 -20 -14 -34.5t-35 -14.5q-28 0 -43 24l-358 617l-359 -617q-18 -25 -43 -24q-20 0 -34.5 14.5t-14.5 34.5z" />
<glyph unicode="_" horiz-adv-x="1038" d="M-49 -190q0 20 14.5 34.5t34.5 14.5h1040q20 0 35 -14.5t15 -34.5q0 -23 -14.5 -35.5t-35.5 -12.5h-1040q-20 0 -34.5 12.5t-14.5 35.5z" />
<glyph unicode="`" d="M289 1286q0 29 26 41q23 12 45 -4l236 -164q20 -14 20 -37q0 -29 -26 -43q-23 -12 -45 4l-238 164q-18 12 -18 39z" />
<glyph unicode="a" horiz-adv-x="1003" d="M39 186q0 88 59 164q59 74 144 117q90 45 196 72q100 25 201 39q78 10 168 14q-45 199 -315 199q-166 0 -312 -95q-23 -18 -53 -4q-27 12 -27 43q0 25 21 39q61 55 168 82q115 29 205 29q205 0 313 -101q111 -100 111 -297v-452q0 -20 -14.5 -34.5t-35 -14.5t-35 14 t-14.5 35v139q-270 -197 -497 -197q-113 0 -197 52q-86 53 -86 157zM137 186q0 -59 58 -84q63 -27 127 -26q236 0 497 211v6v6v8v6v6v9v6v8v4v8v6v9v6v6v6v8v6v9v6v8v4v8v6v9v6v8v6v6v8v17q-70 0 -180 -17q-98 -14 -221 -49q-121 -35 -201 -98.5t-80 -151.5z" />
<glyph unicode="b" horiz-adv-x="1017" d="M78 39v1241q0 20 14 34.5t34.5 14.5t35 -14.5t14.5 -34.5v-510q236 115 424 115q160 0 268 -82q111 -82 111 -236q0 -131 -86 -241.5t-217 -180.5q-121 -63 -273 -110q-137 -41 -266 -51q-4 0 -7 -1q-21 0 -36 15q-16 16 -16 41zM176 74q127 29 186 47q78 25 187 72 q98 43 168 94q72 53 117 125q47 76 47 155q0 109 -84 162q-86 55 -201 55q-182 0 -420 -122v-588z" />
<glyph unicode="c" horiz-adv-x="999" d="M39 297q0 127 84 240q82 109 215 180q129 70 272 112q141 43 275 56q4 1 7 0q14 0 28 -11q16 -12 18 -32q4 -23 -10 -39q-10 -12 -33 -17q-98 -10 -188 -32q-109 -27 -199 -66q-119 -51 -182 -94q-80 -55 -133.5 -133t-53.5 -166q0 -109 88 -164q86 -53 205 -53 q186 0 436 133q29 16 51.5 0t22.5 -43q0 -33 -27 -45q-274 -145 -485 -146q-158 0 -276 84q-115 82 -115 236z" />
<glyph unicode="d" horiz-adv-x="1009" d="M39 281q0 133 80 247q78 111 205 183q123 70 254 112q129 43 258 62v395q0 20 14 34.5t34.5 14.5t35 -14.5t14.5 -34.5v-1243q0 -20 -14.5 -34.5t-35 -14.5t-34.5 14t-14 35v119q-243 -178 -467 -179q-141 0 -235.5 82.5t-94.5 221.5zM137 281q0 -96 65.5 -149.5 t166.5 -53.5q201 0 467 186v522q-104 -18 -218 -55q-125 -41 -223 -92q-117 -59 -186 -154q-72 -95 -72 -204z" />
<glyph unicode="e" horiz-adv-x="1034" d="M39 319q0 162 115 299q111 131 276 201q158 66 322 66q96 0 170 -43q76 -45 75 -137q0 -78 -47 -143.5t-125 -104.5q-88 -45 -170 -70q-104 -33 -192 -43q-98 -12 -180 -18q-78 -6 -146 -7q0 -115 80 -180q78 -63 201 -63q175 0 448 141q25 15 49 0q25 -16 25 -41 q0 -29 -27 -43q-98 -61 -245 -110q-137 -45 -250 -46q-166 0 -271 91q-108 91 -108 251zM150 408q285 0 520 88q229 86 229 209q0 45 -47 63q-45 18 -100 18q-117 0 -240 -40.5t-223 -129.5q-102 -89 -139 -208z" />
<glyph unicode="f" horiz-adv-x="731" d="M20 813.5q0 20.5 14.5 34.5t35.5 14h135v10q0 227 119 355q94 101 251 101q42 0 89 -7q41 -6 41 -47q0 -25 -14.5 -39t-41.5 -12q-39 6 -74 6q-120 0 -186 -76q-86 -98 -86 -281v-10h295q20 0 34.5 -14t14.5 -34.5t-14.5 -35t-34.5 -14.5h-295v-727q0 -20 -14.5 -34.5 t-35 -14.5t-34.5 14t-14 35v727h-135q-20 0 -35 14.5t-15 35z" />
<glyph unicode="g" horiz-adv-x="1187" d="M39 483q0 163 166 283q164 119 336 119q95 0 166 -43l155 159q12 14 33 15q18 0 34.5 -12.5t16.5 -36.5q0 -18 -14 -33l-154 -160q33 -45 33 -112q0 -88 -66 -183q16 1 33 1q143 0 250 -74q121 -84 121 -244q0 -119 -74 -223.5t-186 -169.5q-121 -70 -240 -105 q-129 -37 -241 -37q-133 0 -236 64q-106 66 -106 186q0 72 40 129q39 53 103 84q59 29 133 45q63 14 135 15q135 0 236 -27q39 -8 39 -49q0 -22 -19 -37q-16 -14 -41 -10q-123 25 -215 24q-49 0 -92 -8q-70 -12 -102 -25q-52 -18 -86 -55q-33 -35 -33 -84q0 -78 80 -115 q84 -39 164 -38q129 0 278 51q145 49 256 153.5t111 231.5q0 111 -82 166q-83 55 -197 55q-18 0 -141 -12q-150 -111 -322 -111q-111 0 -192 59q-80 58 -80 164zM137 483q0 -66 53 -96q49 -29 121 -29q123 0 264 93q139 90 140 211q0 63 -53 94q-51 31 -121 30 q-123 0 -265 -92q-139 -90 -139 -211z" />
<glyph unicode="h" horiz-adv-x="917" d="M78 35v1243q0 20 14 34.5t34.5 14.5t35 -14.5t14.5 -34.5v-573q63 82 154 131q86 47 188 47q152 0 238 -104.5t86 -319.5v-424q0 -20 -14.5 -34.5t-35 -14.5t-35 14t-14.5 35v424q0 172 -57 248q-59 78 -172 77q-111 0 -199 -69q-92 -72 -139 -174v-506 q0 -20 -14.5 -34.5t-35 -14.5t-34.5 14.5t-14 34.5z" />
<glyph unicode="i" horiz-adv-x="251" d="M55 1263.5q0 28.5 21 49.5q23 23 51.5 22.5t50.5 -22.5q20 -20 20.5 -49t-20.5 -50q-23 -23 -51.5 -22.5t-50.5 22.5q-21 21 -21 49.5zM78 33v792q0 20 14 34.5t34.5 14.5t35 -14t14.5 -35v-792q0 -20 -14.5 -34.5t-35 -14.5t-34.5 14.5t-14 34.5z" />
<glyph unicode="j" horiz-adv-x="272" d="M-334 -293q0 23 19 39q18 14 45 8q55 -14 102 -14q131 0 199 84q68 82 67 219v782q0 20 14.5 34.5t35 14.5t35 -14t14.5 -35v-782q0 -174 -97 -289q-94 -113 -268 -112q-78 0 -131 18q-35 16 -35 47zM76 1264q0 33 20.5 53t50.5 20q29 0 50 -20q23 -23 22 -53 q0 -27 -22.5 -49.5t-49.5 -22.5q-29 0 -51 22q-20 21 -20 50z" />
<glyph unicode="k" horiz-adv-x="757" d="M78 35v1245q0 20 14 34.5t34.5 14.5t35 -14.5t14.5 -34.5v-715l463 305q8 8 27 9q20 0 34.5 -14.5t14.5 -35.5q0 -27 -21 -41l-401 -260l426 -460q12 -12 12 -33t-14.5 -35t-34.5 -14t-35 14l-471 510v-473q0 -20 -14.5 -34.5t-35 -14.5t-34.5 12t-14 35z" />
<glyph unicode="l" horiz-adv-x="251" d="M78 37v1243q0 20 14 34.5t34.5 14.5t35 -14.5t14.5 -34.5v-1243q0 -20 -14.5 -34.5t-35 -14.5t-34.5 14.5t-14 34.5z" />
<glyph unicode="m" horiz-adv-x="1538" d="M78 35v790q0 20 14 35q16 16 35 17q20 0 34.5 -14.5t14.5 -37.5v-120q139 178 320 178q225 0 292 -213q59 102 154 157t197 56q152 0 237.5 -104.5t85.5 -319.5v-424q0 -20 -14 -34.5t-37 -14.5q-20 0 -34.5 14t-14.5 35v424q0 168 -57 248q-55 78 -172 77 q-101 0 -185 -67q-86 -70 -133 -170q4 -70 4 -88v-424q0 -20 -14 -34.5t-34.5 -14.5t-35 14t-14.5 35v424q0 172 -57 248q-59 78 -172 77q-98 0 -185 -69q-82 -68 -131 -174v-506q0 -20 -14.5 -34.5t-35 -14.5t-34.5 14.5t-14 34.5z" />
<glyph unicode="n" horiz-adv-x="917" d="M78 35v790q0 20 14 35q16 16 35 17q20 0 34.5 -14.5t14.5 -37.5v-120q63 82 154 131q86 47 188 47q152 0 238 -104.5t86 -319.5v-424q0 -20 -14.5 -34.5t-35 -14.5t-35 14t-14.5 35v424q0 172 -57 248q-59 78 -172 77q-111 0 -199 -69q-92 -72 -139 -174v-506 q0 -20 -14.5 -34.5t-35 -14.5t-34.5 14.5t-14 34.5z" />
<glyph unicode="o" horiz-adv-x="911" d="M39 299q0 137 74 272q74 137 202 226q127 88 269 88q137 0 213 -92q78 -94 77 -230q0 -212 -165 -399q-166 -186 -377 -187q-133 0 -213 92.5t-80 229.5zM137 299q0 -90 51 -158q49 -66 144 -65q169 0 307 160q137 158 137 327q0 90 -51 158q-49 66 -141 65 q-170 0 -310 -159q-137 -158 -137 -328z" />
<glyph unicode="p" horiz-adv-x="1017" d="M78 -317v1009q0 31 24 43q115 68 248 109q138 43 252 43q156 0 266.5 -80t110.5 -232q0 -119 -78 -227q-76 -106 -201 -178q-127 -74 -258 -115q-141 -45 -266 -59v-313q0 -20 -14.5 -35t-35 -15t-34.5 15t-14 35zM176 84q184 37 336 100q162 68 262 166q106 104 107 225 q0 106 -84 159.5t-197 53.5q-184 0 -424 -124v-580z" />
<glyph unicode="q" horiz-adv-x="1050" d="M39 278.5q0 139.5 90 253.5q92 117 231 189q147 76 283 113q143 39 272 49q5 1 9 0q21 0 34 -13q16 -16 17 -43v-1144q0 -20 -14.5 -35t-35 -15t-34.5 14.5t-14 35.5v481q-104 -82 -236 -133q-137 -53 -260 -54q-143 0 -242 80q-100 82 -100 221.5zM137 279 q0 -100 72 -150q74 -51 174 -51q215 0 494 192v508q-348 -53 -543 -192q-197 -141 -197 -307z" />
<glyph unicode="r" horiz-adv-x="667" d="M78 37v788q0 20 14 35q16 16 35 17q20 0 34.5 -14.5t14.5 -37.5v-100q51 74 125 115q76 43 156 43q94 0 159 -45q27 -18 27 -45q0 -31 -25 -45q-25 -16 -55 2q-57 35 -106 34q-98 0 -172 -73q-76 -76 -109 -179v-495q0 -20 -14.5 -34.5t-35 -14.5t-34.5 14.5t-14 34.5z " />
<glyph unicode="s" horiz-adv-x="690" d="M39 190q14 10 35 9q25 -4 35 -19q33 -45 100 -73.5t135 -28.5q89 0 141 43q51 43 52 98q0 141 -220 193q-117 29 -188 88q-74 61 -74 157q0 104 80 166t193 62q129 0 252 -56q31 -15 31 -40q0 -12 -7 -25q-10 -18 -26 -25q-23 -8 -37 0q-113 47 -205 47q-76 0 -131 -32 q-51 -31 -51 -92q0 -59 55 -101q51 -37 129 -53q147 -33 223 -109q74 -74 74 -172q0 -117 -86 -184q-84 -66 -205 -66q-94 0 -178 39q-86 40 -135 105q-11 11 -11 27q0 27 19 42z" />
<glyph unicode="t" horiz-adv-x="696" d="M20 813.5q0 20.5 14.5 34.5t35.5 14h133v312q0 20 14 34.5t34.5 14.5t35 -14.5t14.5 -34.5v-312h293q20 0 34.5 -14t14.5 -34.5t-14.5 -35t-34.5 -14.5h-293v-404q0 -143 57 -213q55 -68 183 -67q4 0 37 4q16 2 36.5 2t35 -12.5t14.5 -30.5q0 -61 -121 -61 q-340 0 -340 378v404h-133q-20 0 -35 14.5t-15 35z" />
<glyph unicode="u" horiz-adv-x="917" d="M78 403v424q0 20 14 35t34.5 15t35 -14.5t14.5 -35.5v-426q0 -168 57 -247q55 -76 173 -76q106 0 196 69q94 72 139 175v505q0 20 14.5 35t35 15t35 -14.5t14.5 -35.5v-792q0 -20 -14.5 -34.5t-35 -14.5t-35 14t-14.5 35v123q-59 -78 -153 -129q-88 -49 -187 -49 q-323 -1 -323 423z" />
<glyph unicode="v" horiz-adv-x="882" d="M20 827q0 20 14.5 35t35.5 15q27 0 43 -29l331 -711l328 711q16 29 45 29q20 0 34.5 -14.5t14.5 -35.5q0 -4 -4 -20l-366 -795q-16 -31 -51 -30.5t-52 32.5l-368 791q-5 12 -5 22z" />
<glyph unicode="w" horiz-adv-x="1445" d="M20 825q0 20 14.5 34.5t35.5 14.5q27 0 43 -26l327 -696l236 692q14 33 47 33t47 -33l238 -692l327 696q16 29 45 29q20 0 35 -14.5t15 -35.5q0 -10 -7 -22l-370 -789q-14 -33 -52 -32q-39 0 -53 39l-225 655l-225 -655q-10 -37 -54 -37q-35 0 -51 30l-368 789 q-5 8 -5 20z" />
<glyph unicode="x" horiz-adv-x="768" d="M33 35q0 20 8 28l281 402l-234 332q-8 8 -8 28.5t14.5 34.5t34.5 14q25 0 39 -20l215 -303l213 303q14 20 41 20q20 0 34.5 -14t14.5 -35q0 -12 -10 -28l-234 -332l285 -399q8 -16 8 -29q0 -20 -14 -34.5t-35 -14.5q-25 0 -39 20l-264 373l-262 -373q-12 -23 -41 -22 q-20 0 -33 14q-14 19 -14 35z" />
<glyph unicode="y" d="M-12 -307q0 16 12 32.5t35 16.5q12 0 14 -2q66 -16 101 -16q94 0 149 61q59 66 113 188l-387 834q-4 8 -5 20q0 20 14.5 35t35.5 15q31 0 43 -29l350 -754l325 750q14 31 46 30q20 0 34.5 -14t14.5 -35q0 -8 -4 -20l-377 -875q-72 -158 -154 -231.5t-194 -73.5 q-61 0 -129 19q-37 12 -37 49z" />
<glyph unicode="z" horiz-adv-x="813" d="M39 49q0 18 12 31l557 684h-471q-20 0 -34.5 14.5t-14.5 35t14.5 34.5t34.5 14h574q20 0 34.5 -14t14.5 -35q0 -18 -12 -31l-555 -684h536q20 0 34.5 -14t14.5 -34.5t-14 -35t-35 -14.5h-641q-20 0 -34.5 14.5t-14.5 34.5z" />
<glyph unicode="{" horiz-adv-x="710" d="M0 592q0 10 14 29q12 14 27 14q90 0 143 33q55 34 56 110q0 45 -15 94q-43 184 -43 295q0 90 27 150q29 63 65 94q39 33 107 51q72 20 125 23q78 4 143 4q16 0 35 -14q14 -12 14 -33q0 -16 -14 -35q-12 -14 -35 -14h-63q-27 0 -58 -2q-57 -4 -59 -4.5t-18.5 -5.5 t-30.5 -7q-41 -6 -51 -16q-4 -4 -8.5 -6t-6.5 -4t-7 -7.5t-13 -11.5q-23 -18 -31 -39q-2 -4 -16 -53q-8 -27 -8 -70q0 -100 43 -272q16 -82 16 -117q0 -145 -121 -186q121 -41 121 -186q0 -39 -16 -117q-43 -172 -43 -273q0 -43 8 -69q14 -49 16 -53q8 -20 31 -39 q16 -14 35 -27q14 -14 51 -21q41 -8 49 -10q2 0 59 -4q31 -2 58 -2h63q23 0 35 -14q14 -18 14 -35q0 -20 -14 -34.5t-35 -14.5q-66 0 -143 4q-53 2 -125 22q-68 18 -107 52q-37 31 -65 96q-27 59 -27 149q0 111 43 295q59 238 -184 238q-14 0 -27 12q-14 15 -14 31z" />
<glyph unicode="|" horiz-adv-x="305" d="M104 37v1241q0 20 14.5 34.5t35 14.5t35 -14.5t14.5 -34.5v-1241q0 -20 -14.5 -34.5t-35 -14.5t-35 14.5t-14.5 34.5z" />
<glyph unicode="}" horiz-adv-x="716" d="M18 -256q0 20 14.5 34.5t35.5 14.5h18h90q14 0 80 8q53 6 76 21q39 25 53 37q29 27 41 63q12 41 12 96q0 101 -43 271q-14 63 -14 119q0 147 119 186q-119 37 -119 186q0 53 14 117q43 168 43 272q0 66 -22 111q-25 47 -47 66q-31 23 -82 34q-55 12 -92 13h-109h-18 q-20 0 -35 14t-15 34.5t14.5 35t35.5 14.5q66 0 143 -4q53 -2 125 -23q63 -18 106 -53q41 -35 68 -94.5t27 -147.5q0 -106 -45 -295q-14 -49 -15 -94q0 -77 55 -110q57 -35 144 -35q14 0 29 -14q12 -12 12 -27q0 -16 -12 -29q-14 -14 -29 -14q-244 0 -184 -238 q45 -188 45 -297q0 -88 -27 -147q-29 -63 -68 -96t-106 -52q-72 -20 -125 -22q-78 -4 -143 -4q-20 0 -35 14.5t-15 34.5z" />
<glyph unicode="~" horiz-adv-x="1173" d="M63 645q49 94 113 156q68 66 156 71q76 6 168 -36l180 -84q88 -43 156 -39q47 4 86 28q35 23 59.5 47.5t58.5 67.5q14 16 37 21q31 2 45 -25q14 -25 -2 -53q-47 -72 -123 -125q-72 -51 -153 -58q-109 -10 -277 78q-164 86 -229 82q-10 -2 -27 -6l-24 -8q-6 -2 -23 -14 q-12 -10 -18 -17l-5 -5t-7.5 -7t-8.5 -8q-12 -14 -16 -21l-16 -24q-4 -6 -10.5 -13.5t-6.5 -9.5q-2 -4 -12 -22l-14 -21q-14 -25 -39 -27q-31 -2 -45.5 20.5t-2.5 51.5z" />
<glyph unicode="&#xa1;" horiz-adv-x="268" d="M82 1255q0 29 22 52q20 20 49 20t50 -20q23 -23 22.5 -51.5t-22.5 -51.5q-20 -20 -49 -20q-27 0 -49.5 22t-22.5 49zM104 37v977q0 20 14.5 34.5t35 14.5t35 -14.5t14.5 -34.5v-977q0 -20 -14.5 -34.5t-35 -14.5t-35 14.5t-14.5 34.5z" />
<glyph unicode="&#xa2;" horiz-adv-x="999" d="M39 567q0 162 115 279q119 123 303 201v231q0 20 14 33q18 14 34.5 14t35.5 -14q14 -12 14 -33v-193q172 57 330 70q49 4 53 -43q2 -18 -10.5 -34.5t-32.5 -18.5q-109 -12 -238 -47q-115 -33 -243 -94q-125 -61 -199 -150q-76 -90 -76 -203q0 -104 88 -159.5t205 -55.5 q193 0 436 133q27 14 52 -2q23 -16 22 -43q0 -29 -27 -43q-193 -102 -360 -133v-229q0 -20 -14.5 -34.5t-35 -14.5t-34.5 14t-14 35v219q-6 -2 -27 -2q-158 0 -276 84q-115 81 -115 233z" />
<glyph unicode="&#xa3;" horiz-adv-x="1024" d="M20 748q0 25 14.5 37t35.5 12h125q-25 113 -25 157q0 381 432 381q197 0 348 -78q31 -15 31 -43q0 -25 -23 -40q-20 -14 -47 -5q-178 70 -311 70q-164 0 -248 -65.5t-84 -219.5q0 -53 27 -157h344q20 0 34.5 -14.5t14.5 -35t-14.5 -35t-34.5 -14.5h-317q6 -18 20 -65 q6 -23 20 -64q6 -18 13 -55q4 -25 4 -76q0 -158 -96 -340h651q20 0 34.5 -14t14.5 -34.5t-14.5 -35t-34.5 -14.5h-737q-20 0 -35 14.5t-15 34.5q0 18 9 29q70 104 96 178q29 80 29 182q0 37 -7 74q-6 39 -12 59q-8 33 -20 62l-23 65h-149q-20 0 -35 15t-15 35z" />
<glyph unicode="&#xa5;" horiz-adv-x="1097" d="M39 1280q0 20 14.5 34.5t34.5 14.5q25 0 39 -20l430 -568l416 570q12 18 39 18q20 0 34.5 -14.5t14.5 -34.5q0 -12 -10 -29l-445 -606v-84h164q20 0 34.5 -14.5t14.5 -34.5t-14 -34.5t-35 -14.5h-164v-127h164q20 0 34.5 -14.5t14.5 -35t-14 -34.5t-35 -14h-164v-203 q0 -18 -12 -35q-12 -14 -35 -14q-16 0 -35 14q-14 12 -14 33v205h-178q-20 0 -34.5 14t-14.5 34.5t14 35t35 14.5h178v127h-178q-20 0 -34.5 14.5t-14.5 34.5t14 34.5t35 14.5h178v82l-461 606q-10 17 -10 31z" />
<glyph unicode="&#xa6;" horiz-adv-x="305" d="M104 35v452q0 20 14.5 35t35 15t35 -14.5t14.5 -35.5v-452q0 -20 -14.5 -34.5t-35 -14.5t-35 14.5t-14.5 34.5zM104 817v461q0 20 14.5 34.5t35 14.5t35 -14.5t14.5 -34.5v-461q0 -20 -14.5 -34.5t-35 -14.5t-35 14.5t-14.5 34.5z" />
<glyph unicode="&#xa7;" horiz-adv-x="636" d="M43 -166q2 18 20 33q15 9 37 6q20 -2 31 -20q100 -150 223 -123q45 8 82 43q39 35 47 82q27 121 -118 223q-156 111 -236 241q-84 137 -84 271q-2 162 113 268q-125 125 -95 270q16 78 72 132q59 57 133 71q187 34 326 -166q9 -15 6 -37q-2 -20 -20 -30q-14 -12 -37 -8 q-20 2 -31 20q-100 145 -225 125q-39 -8 -80 -45q-37 -35 -47 -82q-27 -123 119 -223q154 -106 235 -240q80 -131 84 -270q4 -164 -113 -271q125 -125 95 -270q-16 -78 -73.5 -133t-133.5 -70q-182 -33 -324 166q-9 15 -6 37zM143 590q0 -111 70 -219q72 -113 195 -203 q92 78 92 207q-4 113 -72 219q-74 115 -192 201q-95 -80 -93 -205z" />
<glyph unicode="&#xa8;" d="M205 1212q0 27 22.5 49.5t48.5 22.5q29 0 52 -22q20 -20 20 -50q0 -33 -20.5 -53t-51.5 -20q-29 0 -51 22q-20 20 -20 51zM557 1212q0 29 21 50q23 23 51 22.5t51 -22.5q20 -20 20 -50q0 -31 -22 -53q-20 -20 -49 -20t-51 22q-21 20 -21 51z" />
<glyph unicode="&#xa9;" horiz-adv-x="1742" d="M39 563q0 135 59.5 260t155.5 215q98 92 221 160q127 70 258 102q139 35 262 35q184 0 338 -63q156 -63 264 -201q106 -133 107 -319q0 -135 -59 -260q-63 -131 -154 -218q-98 -92 -221 -159q-127 -70 -258 -103q-139 -35 -264 -35q-182 0 -336 64q-160 66 -265 201 q-108 139 -108 321zM137 561q0 -227 187 -356t424 -129q114 0 233 30q119 31 231 89q106 55 201 139q89 80 141 190q53 113 54 230q0 156 -94.5 268.5t-231.5 165.5q-133 51 -287 51q-121 0 -233 -29q-115 -29 -230 -90q-111 -57 -200 -139q-89 -80 -142 -190 q-53 -113 -53 -230zM465 588q0 164 176 286q170 119 455 160q25 4 39 -10q16 -16 16 -39q0 -39 -43 -47q-2 0 -13.5 -3t-25.5 -6t-31 -5q-78 -12 -84 -15q-137 -35 -266 -121q-125 -82 -125 -200q0 -78 60 -113q61 -37 141 -37q129 0 317 94q23 12 49 -2q23 -10 23 -41 q0 -29 -27 -43q-70 -45 -178 -75q-104 -31 -186 -31q-119 0 -209 66q-88 63 -88 182z" />
<glyph unicode="&#xaa;" horiz-adv-x="976" d="M49 946q0 160 248 271q246 109 567 118q23 4 41 -12q16 -14 17 -41v-475q0 -20 -14.5 -34.5t-35.5 -14.5q-12 0 -16 2q-2 2 -5 4t-5 2q-8 4 -10 6q-3 3 -7 12l-4 13q-2 2 -2 14v18v19v16q-217 -119 -450 -119q-55 0 -103 9q-43 8 -104 32q-49 20 -84 62q-33 39 -33 98z M147 946q0 -55 76 -79.5t146 -24.5q197 0 454 114v277q-303 -27 -493 -113q-183 -82 -183 -174z" />
<glyph unicode="&#xab;" horiz-adv-x="854" d="M33 461q-29 31 0 63l282 320q23 25 54 12q33 -12 32 -45q0 -14 -12 -33l-254 -286l254 -285q12 -12 12 -33q0 -33 -32.5 -45t-53.5 12zM444 461q-29 31 0 63l283 320q23 25 55 12q31 -12 31 -45q0 -14 -12 -33l-254 -286l254 -285q12 -12 12 -33q0 -33 -31 -45 q-33 -12 -55 12z" />
<glyph unicode="&#xad;" horiz-adv-x="497" d="M41 512q0 20 14.5 34.5t34.5 14.5h320q20 0 34.5 -14.5t14.5 -34.5t-14.5 -34.5t-34.5 -14.5h-320q-20 0 -34.5 14.5t-14.5 34.5z" />
<glyph unicode="&#xae;" horiz-adv-x="1742" d="M39 563q0 135 59.5 260t155.5 215q98 92 221 160q127 70 258 102q139 35 262 35q184 0 338 -63q156 -63 264 -201q106 -133 107 -319q0 -135 -59 -260q-63 -131 -154 -218q-98 -92 -221 -159q-127 -70 -258 -103q-139 -35 -264 -35q-182 0 -336 64q-160 66 -265 201 q-108 139 -108 321zM137 561q0 -227 187 -356t424 -129q114 0 233 30q119 31 231 89q106 55 201 139q89 80 141 190q53 113 54 230q0 156 -94.5 268.5t-231.5 165.5q-133 51 -287 51q-121 0 -233 -29q-115 -29 -230 -90q-111 -57 -200 -139q-89 -80 -142 -190 q-53 -113 -53 -230zM674 285v673q0 20 14 35t34.5 15t35 -14.5t14.5 -35.5v-77q58 101 166 135q113 35 223 2q22 -6 31 -25q10 -18 4 -37q-4 -18 -22 -28q-20 -10 -37 -4q-164 45 -265 -58q-100 -104 -100 -274v-307q0 -20 -14.5 -34.5t-35 -14.5t-34.5 14.5t-14 34.5z" />
<glyph unicode="&#xaf;" horiz-adv-x="872" d="M176 1268q0 18 14.5 32.5t32.5 14.5h428q18 0 32.5 -14.5t14.5 -32.5q0 -14 -14 -33q-12 -14 -33 -14h-428q-20 0 -33 14q-14 19 -14 33z" />
<glyph unicode="&#xb0;" horiz-adv-x="872" d="M143 1104q0 96 86 163.5t189 67.5q83 0 147 -49q63 -49 64 -131q0 -102 -84 -166q-88 -66 -189 -65q-86 0 -149.5 49t-63.5 131zM242 1104q0 -39 34 -62q33 -20 80 -20q55 0 117 39q57 37 57 94q0 39 -34.5 61.5t-77.5 22.5q-59 0 -117 -39q-59 -41 -59 -96z" />
<glyph unicode="&#xb2;" horiz-adv-x="776" d="M94 1204q0 27 23 43q121 88 280 88q115 0 207 -69q88 -68 88 -183q0 -154 -172 -272q-212 -144 -301 -295h430q20 0 34.5 -14.5t14.5 -35t-14 -34.5t-35 -14h-510q-33 0 -45 26q-12 29 2 52q58 123 148 215q84 86 221 182q129 89 129 190q0 76 -62 115q-63 41 -135 41 q-96 0 -227 -76q-23 -14 -51 0q-25 12 -25 41z" />
<glyph unicode="&#xb3;" horiz-adv-x="790" d="M53 1217q0 29 27 43q125 76 246 75q80 0 131 -45q53 -47 53 -123q0 -53 -31 -106q102 -12 170 -72q72 -61 72 -158q0 -100 -64 -178q-66 -80 -161 -129q-98 -49 -197 -75q-102 -29 -188 -31q-23 -4 -39 10q-14 12 -15 39q0 45 43 47q74 12 150 31q80 20 168 55 q94 37 149 96q55 57 55.5 133t-59.5 105q-61 31 -139 31q-59 0 -272 -50q-78 -18 -78 43q0 39 55 52l156 37q68 16 75 24q51 37 52 96q0 70 -86 70q-49 0 -135.5 -35t-88.5 -35q-20 0 -34.5 15t-14.5 35z" />
<glyph unicode="&#xb4;" d="M289 1122q0 25 18 37l238 164q8 8 24 8q18 0 32.5 -14t14.5 -31q0 -25 -20 -39l-236 -164q-8 -8 -26.5 -8t-30.5 12q-14 15 -14 35z" />
<glyph unicode="&#xb5;" horiz-adv-x="917" d="M78 -322v1149q0 20 14 35t34.5 15t35 -14.5t14.5 -35.5v-505q47 -102 139 -175q88 -70 197 -69q117 0 174 75.5t57 247.5v426q0 20 14.5 35t35 15t35 -14.5t14.5 -35.5v-424q0 -215 -86 -319t-238 -104q-100 0 -188 49q-94 51 -154 129v-480q0 -20 -14.5 -34.5t-35 -14.5 t-34.5 14.5t-14 34.5z" />
<glyph unicode="&#x3bc;" horiz-adv-x="917" d="M78 -322v1149q0 20 14 35t34.5 15t35 -14.5t14.5 -35.5v-505q47 -102 139 -175q88 -70 197 -69q117 0 174 75.5t57 247.5v426q0 20 14.5 35t35 15t35 -14.5t14.5 -35.5v-424q0 -215 -86 -319t-238 -104q-100 0 -188 49q-94 51 -154 129v-480q0 -20 -14.5 -34.5t-35 -14.5 t-34.5 14.5t-14 34.5z" />
<glyph unicode="&#xb6;" horiz-adv-x="1042" d="M39 1022q0 152 110.5 231.5t266.5 79.5q225 0 499 -151q25 -15 25 -43v-1104q0 -20 -14 -33q-18 -14 -35 -14q-18 0 -35 12q-14 12 -14 35v407q-156 25 -289 66v-473q0 -18 -14.5 -32.5t-33 -14.5t-34.5 12q-14 12 -14 35v510q-170 74 -293 196q-125 125 -125 281z M137 1022q0 -113 96 -213q92 -94 224 -156v580q-8 2 -37 2q-115 0 -199 -53.5t-84 -159.5zM553 612q133 -47 289 -71v569q-150 80 -289 109v-607z" />
<glyph unicode="&#xb7;" horiz-adv-x="247" d="M61 641q0 33 20.5 53.5t51.5 20.5q33 0 53.5 -20.5t20.5 -53.5q0 -31 -20.5 -51.5t-53.5 -20.5q-31 0 -51.5 20.5t-20.5 51.5z" />
<glyph unicode="&#xb8;" d="M287 -295q0 43 39 49q156 33 155 119q0 51 -49 51q-10 0 -16 -2t-17 -2q-20 0 -34.5 14.5t-14.5 34.5q0 53 84 54q59 0 102.5 -43t43.5 -107q0 -90 -70 -145q-70 -53 -166 -70q-2 -2 -10 -2q-20 0 -33 14q-14 19 -14 35z" />
<glyph unicode="&#xb9;" horiz-adv-x="520" d="M70 1133q0 25 22 41l209 147q8 8 29 8q18 0 35 -12q14 -12 14 -35v-809q0 -20 -14.5 -34.5t-35 -14.5t-34.5 14.5t-14 34.5v713l-3 -3q-3 -3 -9.5 -7.5t-10.5 -8.5q-10 -6 -18.5 -13t-18.5 -13l-39 -27q-8 -6 -22.5 -14t-16.5 -8q-14 -8 -24 -9q-20 0 -34.5 15t-14.5 35z " />
<glyph unicode="&#xba;" horiz-adv-x="894" d="M39 950q0 111 92 203t215 139q117 45 225 45q111 0 199 -53t88 -160q0 -111 -92 -203t-215 -139q-117 -45 -225 -45q-111 0 -199 53.5t-88 159.5zM137 952q0 -59 60 -88q61 -29 129 -28q74 0 174 34q102 35 180 105q80 70 80 149q0 59 -60 88q-61 29 -129 29 q-127 0 -280.5 -86t-153.5 -203z" />
<glyph unicode="&#xbb;" horiz-adv-x="854" d="M43 811q0 33 31 45q33 12 55 -12l285 -320q12 -12 12 -30q0 -20 -12 -33l-283 -320q-23 -25 -55 -12q-31 12 -31 45q0 20 12 33l254 285l-256 286q-12 21 -12 33zM455 811q0 33 32.5 45t53.5 -12l284 -320q12 -12 13 -30q0 -20 -13 -33l-284 -320q-20 -25 -52 -12 q-33 12 -32 45q0 20 12 33l254 285l-256 286q-12 21 -12 33z" />
<glyph unicode="&#xbc;" horiz-adv-x="1683" d="M51 1133q0 27 21 38l209 150q8 8 28.5 8t34.5 -14.5t14 -34.5v-807q0 -20 -14 -34.5t-34.5 -14.5t-35 14.5t-14.5 34.5v713l-133 -94q-14 -8 -27 -9q-20 0 -34.5 15t-14.5 35zM182 14q-12 31 8 52l1027 1245q23 29 53 16q33 -12 33 -47q0 -18 -11 -31l-1026 -1245 q-16 -18 -39 -18q-33 -1 -45 28zM776 270q0 12 10 33l545 662q16 18 39 18q20 0 34.5 -14.5t14.5 -34.5q0 -18 -12 -31l-479 -584h434v236q0 20 14.5 34.5t35 14.5t34.5 -14.5t14 -34.5v-236h129q20 0 34.5 -14t14.5 -34.5t-14 -35t-35 -14.5h-129v-184q0 -20 -14 -34.5 t-34.5 -14.5t-35 14t-14.5 35v184h-539q-23 0 -35 14.5t-12 34.5z" />
<glyph unicode="&#xbd;" horiz-adv-x="1710" d="M51 1133q0 27 21 38l209 150q8 8 28.5 8t34.5 -14.5t14 -34.5v-807q0 -20 -14 -34.5t-34.5 -14.5t-35 14.5t-14.5 34.5v713l-133 -94q-14 -8 -27 -9q-20 0 -34.5 15t-14.5 35zM182 14q-12 31 8 52l1027 1245q23 29 53 16q33 -12 33 -47q0 -18 -11 -31l-1026 -1245 q-16 -18 -39 -18q-33 -1 -45 28zM1047 49.5q0 20.5 6 28.5q58 123 147 215q84 86 221 182q129 89 129 191q0 76 -59 114q-63 41 -137 41q-94 0 -228 -76q-12 -6 -26 -6q-20 0 -34.5 14.5t-14.5 34.5q0 25 22 41q121 88 281 89q117 0 207 -68q88 -68 88 -184 q0 -151 -172 -271q-213 -147 -301 -297h430q20 0 34.5 -14t14.5 -34.5t-14.5 -35t-34.5 -14.5h-510q-20 0 -34.5 14.5t-14.5 35z" />
<glyph unicode="&#xbe;" horiz-adv-x="1843" d="M53 1217q0 29 27 43q125 76 246 75q80 0 131 -45q53 -47 53 -123q0 -53 -31 -106q102 -12 170 -72q72 -61 72 -158q0 -100 -64 -178q-66 -80 -161 -129q-98 -49 -197 -75q-102 -29 -188 -31q-23 -4 -39 10q-14 12 -15 39q0 45 43 47q74 12 150 31q80 20 168 55 q94 37 149 96q55 57 55.5 133t-59.5 105q-61 31 -139 31q-59 0 -272 -50q-78 -18 -78 43q0 39 55 52l156 37q68 16 75 24q51 37 52 96q0 70 -86 70q-49 0 -135.5 -35t-88.5 -35q-20 0 -34.5 15t-14.5 35zM342 14q-12 31 8 52l1026 1245q23 29 54 16q33 -12 32 -47 q0 -14 -10 -31l-1026 -1245q-16 -18 -39 -18q-33 -1 -45 28zM934 270q0 14 12 33l545 662q12 18 37 18q20 0 34.5 -14.5t14.5 -34.5q0 -14 -10 -31l-480 -584h433v236q0 20 14 34.5t34.5 14.5t35 -12t14.5 -37v-236h131q20 0 34.5 -14t14.5 -34.5t-14.5 -35t-34.5 -14.5 h-131v-184q0 -20 -14.5 -34.5t-35 -14.5t-34.5 14t-14 35v184h-537q-20 0 -34.5 14.5t-14.5 34.5z" />
<glyph unicode="&#xbf;" horiz-adv-x="929" d="M20 324q0 127 88.5 239.5t268.5 173.5q254 86 254 221v56q0 20 14 34.5t34.5 14.5t35 -14.5t14.5 -34.5v-56q0 -205 -319 -315q-150 -49 -220 -137q-72 -90 -71 -184q0 -117 96 -183q94 -63 221 -63q178 0 402 129q18 10 36 4q20 -6 29 -21q10 -20 4 -38q-6 -20 -20 -29 q-244 -143 -451 -144q-170 0 -293 92.5t-123 254.5zM608 1260q0 31 20.5 51t51.5 20t51.5 -20.5t20.5 -50.5q0 -29 -21 -50q-23 -23 -51.5 -22.5t-50.5 22.5q-21 21 -21 50z" />
<glyph unicode="&#xc0;" horiz-adv-x="1249" d="M35 37q0 12 4 20l536 1239q16 35 51.5 35t51.5 -35l534 -1241q4 -8 5 -18q0 -20 -14.5 -34.5t-35.5 -14.5q-33 0 -45 28l-188 439h-617l-188 -437q-14 -31 -45 -30q-20 0 -34.5 14.5t-14.5 34.5zM360 553h533l-266 614zM424 1642q0 29 25 41q29 14 49 -4l235 -163 q20 -14 21 -37q0 -29 -27 -43.5t-47 4.5l-236 164q-20 13 -20 38z" />
<glyph unicode="&#xc1;" horiz-adv-x="1249" d="M35 37q0 12 4 20l536 1239q16 35 51.5 35t51.5 -35l534 -1241q4 -8 5 -18q0 -20 -14.5 -34.5t-35.5 -14.5q-33 0 -45 28l-188 439h-617l-188 -437q-14 -31 -45 -30q-20 0 -34.5 14.5t-14.5 34.5zM360 553h533l-266 614zM522 1475q0 27 21 38l235 164q8 8 27 9 q20 0 33 -15q14 -18 14 -33q0 -25 -21 -36l-235 -164q-8 -8 -27 -8q-14 0 -32 14q-15 13 -15 31z" />
<glyph unicode="&#xc2;" horiz-adv-x="1249" d="M35 37q0 12 4 20l536 1239q16 35 51.5 35t51.5 -35l534 -1241q4 -8 5 -18q0 -20 -14.5 -34.5t-35.5 -14.5q-33 0 -45 28l-188 439h-617l-188 -437q-14 -31 -45 -30q-20 0 -34.5 14.5t-14.5 34.5zM330 1489q0 25 20 39l248 160q8 8 24.5 8t24.5 -8l252 -162q23 -12 23 -39 q0 -18 -13 -31q-14 -14 -35 -14q-12 0 -24 6l-227 145l-222 -143q-8 -8 -24 -8q-20 0 -33 12q-14 15 -14 35zM360 553h533l-266 614z" />
<glyph unicode="&#xc3;" horiz-adv-x="1249" d="M35 37q0 12 4 20l536 1239q16 35 51.5 35t51.5 -35l534 -1241q4 -8 5 -18q0 -20 -14.5 -34.5t-35.5 -14.5q-33 0 -45 28l-188 439h-617l-188 -437q-14 -31 -45 -30q-20 0 -34.5 14.5t-14.5 34.5zM272 1493q0 14 9 25q76 137 198 137q68 0 154 -51q83 -49 135 -50 q51 0 98 45.5t65.5 45.5t33 -14.5t14.5 -33.5q0 -16 -12 -28q-82 -106 -199 -107q-77 0 -160 49q-84 49 -127 50q-37 0 -71 -29q-25 -20 -54 -57q-23 -29 -37 -29q-20 0 -34 14q-13 13 -13 33zM360 553h533l-266 614z" />
<glyph unicode="&#xc4;" horiz-adv-x="1249" d="M35 37q0 12 4 20l536 1239q16 35 51.5 35t51.5 -35l534 -1241q4 -8 5 -18q0 -20 -14.5 -34.5t-35.5 -14.5q-33 0 -45 28l-188 439h-617l-188 -437q-14 -31 -45 -30q-20 0 -34.5 14.5t-14.5 34.5zM360 553h533l-266 614zM377 1491q0 29 22 51q20 20 51 20.5t51.5 -20 t20.5 -51.5q0 -29 -22 -51q-20 -20 -49 -21q-31 0 -52 21q-22 22 -22 51zM729 1491q0 31 20.5 51.5t51.5 20.5q29 0 49 -21q23 -23 22.5 -51.5t-22.5 -50.5q-20 -20 -49 -21q-31 0 -51.5 20.5t-20.5 51.5z" />
<glyph unicode="&#xc5;" horiz-adv-x="1249" d="M35 37q0 12 4 20l512 1186q-70 12 -121 60q-47 45 -47 118q0 101 86 166q88 66 186 66q86 0 149.5 -49.5t63.5 -133.5q0 -76 -49 -131t-125 -82l518 -1202q4 -8 5 -18q0 -20 -14.5 -34.5t-35.5 -14.5q-33 0 -45 28l-188 439h-617l-188 -437q-14 -31 -45 -30 q-20 0 -34.5 14.5t-14.5 34.5zM360 553h533l-266 614zM481 1421q0 -41 35 -63q33 -20 78 -21q58 0 117 37t59 96q0 39 -35 61.5t-80 22.5q-55 0 -116 -38q-58 -38 -58 -95z" />
<glyph unicode="&#xc6;" horiz-adv-x="1632" d="M16 35q0 6 4 22l498 967q150 291 406 291h592q20 0 34.5 -14.5t14.5 -35t-14.5 -34.5t-34.5 -14h-543v-676h506q20 0 34.5 -14.5t14.5 -35t-14.5 -35t-34.5 -14.5h-506v-344h551q20 0 34.5 -14t14.5 -34.5t-14.5 -35t-34.5 -14.5h-600q-20 0 -35 14.5t-15 34.5v393h-544 l-221 -430q-14 -27 -43 -26q-20 0 -35 14.5t-15 34.5zM381 541h493v671q-160 -18 -268 -231z" />
<glyph unicode="&#xc7;" horiz-adv-x="1128" d="M59 500q0 141 58 264q57 125 153 217q104 100 219 170q117 70 256 119q123 43 267 65q25 4 41 -10q18 -14 18 -39q0 -37 -41 -47q-127 -20 -237 -57q-127 -43 -234 -103q-115 -63 -205 -147q-86 -80 -141 -195q-55 -114 -55 -239q0 -178 114.5 -299t290.5 -121 q209 0 441 168q14 10 28 10q16 0 32.5 -16.5t16.5 -34.5q0 -25 -18 -37q-172 -127 -340 -168q66 -43 65 -127q0 -90 -69 -145q-70 -53 -166 -70q-2 -2 -8 -2q-20 0 -34.5 14.5t-14.5 34.5q0 39 41 49q156 33 155 119q0 51 -49 51q-10 0 -18.5 -2t-16.5 -2q-20 0 -34.5 14.5 t-14.5 34.5v4q0 2 1 2t1 2q-221 4 -360 152q-142 150 -142 371z" />
<glyph unicode="&#xc8;" horiz-adv-x="862" d="M104 49v1217q0 20 14.5 34.5t35.5 14.5h591q20 0 35 -14.5t15 -35t-14.5 -34.5t-35.5 -14h-542v-355h506q20 0 34.5 -14t14.5 -34.5t-14.5 -35t-34.5 -14.5h-506v-666h553q20 0 34.5 -14t14.5 -34.5t-14.5 -35t-34.5 -14.5h-602q-20 0 -35 14.5t-15 34.5zM246 1642 q0 29 24 41q27 14 47 -4l238 -163q18 -12 18 -37q0 -31 -24 -43q-27 -14 -47 4l-238 164q-18 11 -18 38z" />
<glyph unicode="&#xc9;" horiz-adv-x="862" d="M104 49v1217q0 20 14.5 34.5t35.5 14.5h591q20 0 35 -14.5t15 -35t-14.5 -34.5t-35.5 -14h-542v-355h506q20 0 34.5 -14t14.5 -34.5t-14.5 -35t-34.5 -14.5h-506v-666h553q20 0 34.5 -14t14.5 -34.5t-14.5 -35t-34.5 -14.5h-602q-20 0 -35 14.5t-15 34.5zM383 1475 q0 27 20 38l236 164q8 8 27 9q23 0 34 -15q12 -16 13 -33q0 -25 -21 -36l-235 -164q-8 -8 -27 -8q-14 0 -33 14q-14 13 -14 31z" />
<glyph unicode="&#xca;" horiz-adv-x="862" d="M104 49v1217q0 20 14.5 34.5t35.5 14.5h591q20 0 35 -14.5t15 -35t-14.5 -34.5t-35.5 -14h-542v-355h506q20 0 34.5 -14t14.5 -34.5t-14.5 -35t-34.5 -14.5h-506v-666h553q20 0 34.5 -14t14.5 -34.5t-14.5 -35t-34.5 -14.5h-602q-20 0 -35 14.5t-15 34.5zM170 1489 q0 27 23 39l245 160q8 8 25 8q18 0 26 -8l252 -162q20 -14 21 -39q0 -16 -14.5 -30.5t-30.5 -14.5q-14 0 -27 6l-227 145l-221 -143q-8 -8 -25 -8q-20 0 -33 12q-14 15 -14 35z" />
<glyph unicode="&#xcb;" horiz-adv-x="862" d="M104 49v1217q0 20 14.5 34.5t35.5 14.5h591q20 0 35 -14.5t15 -35t-14.5 -34.5t-35.5 -14h-542v-355h506q20 0 34.5 -14t14.5 -34.5t-14.5 -35t-34.5 -14.5h-506v-666h553q20 0 34.5 -14t14.5 -34.5t-14.5 -35t-34.5 -14.5h-602q-20 0 -35 14.5t-15 34.5zM223 1511.5 q0 28.5 21 49.5q23 23 51.5 22.5t50.5 -22.5q20 -20 20.5 -49t-20.5 -50q-23 -23 -51.5 -22.5t-50.5 22.5q-21 21 -21 49.5zM575 1511.5q0 28.5 21 49.5q23 23 51.5 22.5t50.5 -22.5q20 -20 20.5 -49t-20.5 -50q-23 -23 -51.5 -22.5t-50.5 22.5q-21 21 -21 49.5z" />
<glyph unicode="&#xcc;" horiz-adv-x="305" d="M-20 1642q0 29 24 41q27 14 47 -4l236 -163q20 -14 20 -37q0 -31 -24 -43q-27 -14 -47 4l-238 164q-18 11 -18 38zM104 37v1241q0 20 14.5 34.5t35 14.5t35 -14.5t14.5 -34.5v-1241q0 -20 -14.5 -34.5t-35 -14.5t-35 14.5t-14.5 34.5z" />
<glyph unicode="&#xcd;" horiz-adv-x="305" d="M45 1475q0 27 21 38l235 164q8 8 27 9q23 0 34 -15q12 -16 13 -33q0 -25 -21 -36l-235 -164q-8 -8 -27 -8q-14 0 -33 14q-14 13 -14 31zM104 37v1241q0 20 14.5 34.5t35 14.5t35 -14.5t14.5 -34.5v-1241q0 -20 -14.5 -34.5t-35 -14.5t-35 14.5t-14.5 34.5z" />
<glyph unicode="&#xce;" horiz-adv-x="305" d="M-141 1489q0 25 20 39l246 160q8 8 27 8q16 0 24 -8l252 -162q23 -12 23 -39q0 -18 -15 -31q-18 -14 -33 -14t-24 6l-227 145l-222 -143q-8 -8 -26.5 -8t-30.5 12q-14 15 -14 35zM104 37v1241q0 20 14.5 34.5t35 14.5t35 -14.5t14.5 -34.5v-1241q0 -20 -14.5 -34.5 t-35 -14.5t-35 14.5t-14.5 34.5z" />
<glyph unicode="&#xcf;" horiz-adv-x="305" d="M-94 1511q0 27 22.5 49.5t48.5 22.5q29 0 52 -22q20 -20 20 -49t-20 -50q-23 -23 -51.5 -22.5t-51.5 22.5q-20 20 -20 49zM104 37v1241q0 20 14.5 34.5t35 14.5t35 -14.5t14.5 -34.5v-1241q0 -20 -14.5 -34.5t-35 -14.5t-35 14.5t-14.5 34.5zM258 1511.5q0 28.5 21 49.5 q23 23 51 22.5t51 -22.5q20 -20 20 -50q0 -27 -22.5 -49t-48.5 -22q-29 0 -51 22q-21 21 -21 49.5z" />
<glyph unicode="&#xd0;" horiz-adv-x="1318" d="M20 649q0 31 31 45l146 62v422q0 15 6 24q6 10 18 17q4 2 11.5 8t9.5 6q2 2 6 3t10 3t10 4q6 2 13.5 4t9.5 4q221 86 414 86q233 0 395 -135t162 -364q0 -150 -64 -277q-66 -133 -166 -223q-96 -88 -239 -166q-133 -74 -269 -117q-132 -43 -270 -67q-23 -4 -41 12 q-16 14 -16 37v612q-18 -6 -39 -16q-37 -18 -54 -25q-23 -8 -34 -8q-20 0 -35 14.5t-15 34.5zM295 90q106 20 229 64q121 43 232 106q121 70 205 146q92 84 147 192q55 111 55 238q0 188 -133 297q-131 106 -325.5 106t-409.5 -94v-348q3 3 55 24q23 10 94 37q43 16 52 16 q20 0 34.5 -14t14.5 -35q0 -35 -31 -45l-219 -90v-600z" />
<glyph unicode="&#xd1;" horiz-adv-x="1126" d="M104 35v1247q0 20 14.5 34.5t35.5 14.5q29 0 41 -22l731 -1110v1079q0 20 14 34.5t34.5 14.5t35 -14.5t14.5 -34.5v-1243q0 -20 -14 -33q-18 -14 -35 -14q-27 0 -41 20l-731 1112v-1085q0 -20 -15 -33q-18 -14 -34 -14q-18 0 -35 12q-15 12 -15 35zM236 1493q0 8 8 25 q76 137 198 137q68 0 154 -51q83 -49 135 -50q51 0 98.5 45.5t65.5 45.5t32.5 -14.5t14.5 -33.5q0 -16 -12 -28q-82 -106 -199 -107q-77 0 -160 49q-84 49 -125 50q-39 0 -73 -29q-25 -20 -54 -57q-23 -29 -37 -29t-32 14q-14 13 -14 33z" />
<glyph unicode="&#xd2;" horiz-adv-x="1275" d="M59 504q0 188 92.5 378.5t260.5 323.5q164 131 358 131q207 0 328 -155.5t121 -368.5q0 -193 -91 -379q-94 -197 -260 -325q-168 -131 -360 -132q-209 0 -328 156q-121 158 -121 371zM158 502q0 -174 92 -299q92 -127 258 -127q168 0 311.5 118.5t222.5 286.5 q78 164 78 334q0 172 -92 297q-92 127 -258 127q-168 0 -311 -117q-141 -115 -223 -286q-78 -164 -78 -334zM602 1642q0 29 25 41q29 14 49 -4l235 -163q20 -14 21 -37q0 -31 -25 -43q-29 -14 -49 4l-235 164q-21 13 -21 38z" />
<glyph unicode="&#xd3;" horiz-adv-x="1275" d="M59 504q0 188 92.5 378.5t260.5 323.5q164 131 358 131q207 0 328 -155.5t121 -368.5q0 -193 -91 -379q-94 -197 -260 -325q-168 -131 -360 -132q-209 0 -328 156q-121 158 -121 371zM158 502q0 -174 92 -299q92 -127 258 -127q168 0 311.5 118.5t222.5 286.5 q78 164 78 334q0 172 -92 297q-92 127 -258 127q-168 0 -311 -117q-141 -115 -223 -286q-78 -164 -78 -334zM623 1475q0 27 20 38l236 164q8 8 26.5 8.5t30.5 -14.5q14 -18 14 -33q0 -25 -18 -36l-236 -164q-8 -8 -26.5 -8t-32.5 14.5t-14 30.5z" />
<glyph unicode="&#xd4;" horiz-adv-x="1275" d="M59 504q0 188 92.5 378.5t260.5 323.5q164 131 358 131q207 0 328 -155.5t121 -368.5q0 -193 -91 -379q-94 -197 -260 -325q-168 -131 -360 -132q-209 0 -328 156q-121 158 -121 371zM158 502q0 -174 92 -299q92 -127 258 -127q168 0 311.5 118.5t222.5 286.5 q78 164 78 334q0 172 -92 297q-92 127 -258 127q-168 0 -311 -117q-141 -115 -223 -286q-78 -164 -78 -334zM469 1489q0 25 20 39l248 160q8 8 24.5 8t24.5 -8l252 -162q23 -12 23 -39q0 -16 -14.5 -30.5t-32.5 -14.5q-12 0 -25 6l-227 145l-221 -143q-8 -8 -26.5 -8 t-31.5 12q-14 15 -14 35z" />
<glyph unicode="&#xd5;" horiz-adv-x="1275" d="M59 504q0 188 92.5 378.5t260.5 323.5q164 131 358 131q207 0 328 -155.5t121 -368.5q0 -193 -91 -379q-94 -197 -260 -325q-168 -131 -360 -132q-209 0 -328 156q-121 158 -121 371zM158 502q0 -174 92 -299q92 -127 258 -127q168 0 311.5 118.5t222.5 286.5 q78 164 78 334q0 172 -92 297q-92 127 -258 127q-168 0 -311 -117q-141 -115 -223 -286q-78 -164 -78 -334zM416 1493q0 12 6 25q82 137 201 137q68 0 153 -51q84 -49 133 -50q53 0 100.5 45.5t63.5 45.5q20 0 33 -15q14 -18 14 -33q0 -12 -10 -28q-86 -106 -199 -107 q-80 0 -161.5 49.5t-124.5 49.5q-39 0 -72 -29q-35 -33 -55 -57q-23 -29 -37 -29q-16 0 -30.5 14.5t-14.5 32.5z" />
<glyph unicode="&#xd6;" horiz-adv-x="1275" d="M59 504q0 188 92.5 378.5t260.5 323.5q164 131 358 131q207 0 328 -155.5t121 -368.5q0 -193 -91 -379q-94 -197 -260 -325q-168 -131 -360 -132q-209 0 -328 156q-121 158 -121 371zM158 502q0 -174 92 -299q92 -127 258 -127q168 0 311.5 118.5t222.5 286.5 q78 164 78 334q0 172 -92 297q-92 127 -258 127q-168 0 -311 -117q-141 -115 -223 -286q-78 -164 -78 -334zM510 1511.5q0 26.5 22.5 49t51 22.5t51.5 -22q20 -20 20 -50q0 -27 -22.5 -49t-48.5 -22q-29 0 -51.5 22.5t-22.5 49zM862 1511.5q0 28.5 21 49.5q23 23 51.5 22.5 t50.5 -22.5q20 -20 20.5 -49t-20.5 -50q-23 -23 -51.5 -22.5t-50.5 22.5q-21 21 -21 49.5z" />
<glyph unicode="&#xd7;" d="M59 186q0 20 15 35l309 309l-268 269q-14 14 -15 35q0 33 31 45t53 -11l269 -268l268 268q23 23 53.5 10.5t30.5 -44.5q0 -20 -14 -35l-269 -269l309 -309q14 -14 15 -35q0 -33 -31 -45t-53 11l-309 309l-310 -309q-23 -23 -53.5 -11t-30.5 45z" />
<glyph unicode="&#xd8;" horiz-adv-x="1280" d="M-76 -88q0 18 13 31l206 243q-82 133 -82 314q0 141 56 288q55 150 147 269q94 123 228 198q137 78 280 78q156 0 266 -92l172 203q23 27 54 14q33 -12 32 -47q0 -18 -12 -31l-176 -209q113 -143 113 -360q0 -195 -91 -381q-92 -190 -260 -321.5t-360 -131.5 q-181 0 -307 129l-193 -227q-25 -27 -55.5 -14.5t-30.5 47.5zM160 500q0 -133 51 -234l764 901q-86 68 -203 68q-164 0 -311 -119q-143 -117 -223 -285q-78 -163 -78 -331zM266 182q94 -106 244 -106q166 0 311 117q141 115 223 286q78 164 78 332q0 169 -80 283z" />
<glyph unicode="&#xd9;" horiz-adv-x="1116" d="M104 512v768q0 20 14.5 34.5t35 14.5t35 -14.5t14.5 -34.5v-768q0 -176 90 -307q88 -129 266 -129t266 129q90 131 90 307v768q0 20 14.5 34.5t35 14.5t35 -14.5t14.5 -34.5v-768q0 -227 -117 -381t-338 -154t-338 154t-117 381zM326 1642q0 29 26 41q25 12 45 -4 l236 -163q20 -14 20 -37q0 -29 -26.5 -43.5t-46.5 4.5l-236 164q-18 11 -18 38z" />
<glyph unicode="&#xda;" horiz-adv-x="1116" d="M104 512v768q0 20 14.5 34.5t35 14.5t35 -14.5t14.5 -34.5v-768q0 -176 90 -307q88 -129 266 -129t266 129q90 131 90 307v768q0 20 14.5 34.5t35 14.5t35 -14.5t14.5 -34.5v-768q0 -227 -117 -381t-338 -154t-338 154t-117 381zM483 1475q0 27 21 38l235 164 q8 8 26.5 8.5t33 -14t14.5 -33.5q0 -25 -20 -36l-236 -164q-8 -8 -27 -8q-20 0 -34 14q-13 13 -13 31z" />
<glyph unicode="&#xdb;" horiz-adv-x="1116" d="M104 512v768q0 20 14.5 34.5t35 14.5t35 -14.5t14.5 -34.5v-768q0 -176 90 -307q88 -129 266 -129t266 129q90 131 90 307v768q0 20 14.5 34.5t35 14.5t35 -14.5t14.5 -34.5v-768q0 -227 -117 -381t-338 -154t-338 154t-117 381zM262 1489q0 27 23 39l245 160q8 8 27 8 q14 0 25 -8l252 -162q23 -12 22 -39q0 -18 -14 -31q-18 -14 -33 -14q-12 0 -25 6l-227 145l-221 -143q-8 -8 -26.5 -8t-33 12t-14.5 35z" />
<glyph unicode="&#xdc;" horiz-adv-x="1116" d="M104 512v768q0 20 14.5 34.5t35 14.5t35 -14.5t14.5 -34.5v-768q0 -176 90 -307q88 -129 266 -129t266 129q90 131 90 307v768q0 20 14.5 34.5t35 14.5t35 -14.5t14.5 -34.5v-768q0 -227 -117 -381t-338 -154t-338 154t-117 381zM311 1511.5q0 28.5 21 49.5 q23 23 51.5 22.5t50.5 -22.5q20 -20 20.5 -49t-20.5 -50q-23 -23 -51.5 -22.5t-50.5 22.5q-21 21 -21 49.5zM664 1511.5q0 28.5 20 49.5q23 23 51.5 22.5t50.5 -22.5q20 -20 20.5 -49t-20.5 -50q-23 -23 -51 -22.5t-51 22.5q-20 21 -20 49.5z" />
<glyph unicode="&#xdd;" horiz-adv-x="1097" d="M39 1280q0 20 14.5 34.5t34.5 14.5q25 0 39 -20l430 -568l416 570q12 18 39 18q20 0 34.5 -14.5t14.5 -34.5q0 -12 -10 -29l-445 -606v-610q0 -18 -12 -35q-12 -14 -35 -14q-16 0 -35 14q-14 12 -14 33v610l-461 606q-10 17 -10 31zM463 1475q0 27 20 38l236 164 q8 8 26.5 8.5t33 -14t14.5 -33.5q0 -25 -21 -36l-235 -164q-8 -8 -26.5 -8t-33 14.5t-14.5 30.5z" />
<glyph unicode="&#xde;" horiz-adv-x="1034" d="M104 35v1245q0 20 14.5 34.5t35 14.5t35 -14.5t14.5 -34.5v-197q215 90 387 91q156 0 272 -80q115 -78 115 -232q0 -119 -80 -223q-76 -98 -207 -168q-111 -59 -250 -102q-121 -39 -237 -52v-282q0 -20 -14.5 -34.5t-35 -14.5t-35 14.5t-14.5 34.5zM203 406q59 8 155 32 q78 20 177 62q94 39 169.5 90t124.5 121q49 72 50 151q0 109 -91 162q-88 51 -202 51q-174 0 -383 -100v-569z" />
<glyph unicode="&#xdf;" horiz-adv-x="1337" d="M20 813.5q0 20.5 14.5 34.5t35.5 14h123q0 211 116 342q117 133 322 133q145 0 231 -61.5t86 -183.5q0 -57 -28 -105q-29 -49 -56 -69q-39 -33 -94 -66q-86 -61 -108 -90q37 -4 104 10q82 20 139 21q172 0 285 -82t113 -242q0 -139 -109 -258q-109 -117 -256 -176 q-145 -57 -283 -58q-102 0 -175.5 55.5t-73.5 157.5q0 113 86 183q84 70 198 69q82 0 139 -22q35 -16 35 -47q0 -25 -20.5 -39.5t-44.5 -7.5q-66 18 -107 18q-72 0 -131 -41q-57 -39 -57 -113q0 -57 45 -90q43 -31 104 -30q108 0 234 49q131 51 221 141q96 96 96 209 q0 120 -86 172q-88 53 -217 53q-45 0 -110 -14q-76 -16 -111 -16q-125 0 -125 86q0 43 45 88t102 80q59 37 103 81q45 47 45 93q0 147 -219 147q-160 0 -250 -104q-90 -106 -90 -273v-827q0 -20 -14.5 -34.5t-35 -14.5t-34.5 14t-14 35v729h-123q-20 0 -35 14.5t-15 35z" />
<glyph unicode="&#xe0;" horiz-adv-x="1003" d="M39 186q0 88 59 164q59 74 144 117q90 45 196 72q100 25 201 39q78 10 168 14q-45 199 -315 199q-166 0 -312 -95q-23 -18 -53 -4q-27 12 -27 43q0 25 21 39q61 55 168 82q115 29 205 29q205 0 313 -101q111 -100 111 -297v-452q0 -20 -14.5 -34.5t-35 -14.5t-35 14 t-14.5 35v139q-270 -197 -497 -197q-113 0 -197 52q-86 53 -86 157zM137 186q0 -59 58 -84q63 -27 127 -26q236 0 497 211v6v6v8v6v6v9v6v8v4v8v6v9v6v6v6v8v6v9v6v8v4v8v6v9v6v8v6v6v8v17q-70 0 -180 -17q-98 -14 -221 -49q-121 -35 -201 -98.5t-80 -151.5zM289 1286 q0 29 26 41q23 12 45 -4l236 -164q20 -14 20 -37q0 -29 -26 -43q-23 -12 -45 4l-238 164q-18 12 -18 39z" />
<glyph unicode="&#xe1;" horiz-adv-x="1003" d="M39 186q0 88 59 164q59 74 144 117q90 45 196 72q100 25 201 39q78 10 168 14q-45 199 -315 199q-166 0 -312 -95q-23 -18 -53 -4q-27 12 -27 43q0 25 21 39q61 55 168 82q115 29 205 29q205 0 313 -101q111 -100 111 -297v-452q0 -20 -14.5 -34.5t-35 -14.5t-35 14 t-14.5 35v139q-270 -197 -497 -197q-113 0 -197 52q-86 53 -86 157zM137 186q0 -59 58 -84q63 -27 127 -26q236 0 497 211v6v6v8v6v6v9v6v8v4v8v6v9v6v6v6v8v6v9v6v8v4v8v6v9v6v8v6v6v8v17q-70 0 -180 -17q-98 -14 -221 -49q-121 -35 -201 -98.5t-80 -151.5zM348 1122 q0 25 19 37l237 164q8 8 27 8q16 0 30.5 -14t14.5 -31q0 -27 -19 -39l-237 -164q-8 -8 -26.5 -8t-31.5 12q-14 15 -14 35z" />
<glyph unicode="&#xe2;" horiz-adv-x="1003" d="M39 186q0 88 59 164q59 74 144 117q90 45 196 72q100 25 201 39q78 10 168 14q-45 199 -315 199q-166 0 -312 -95q-23 -18 -53 -4q-27 12 -27 43q0 25 21 39q61 55 168 82q115 29 205 29q205 0 313 -101q111 -100 111 -297v-452q0 -20 -14.5 -34.5t-35 -14.5t-35 14 t-14.5 35v139q-270 -197 -497 -197q-113 0 -197 52q-86 53 -86 157zM137 186q0 -59 58 -84q63 -27 127 -26q236 0 497 211v6v6v8v6v6v9v6v8v4v8v6v9v6v6v6v8v6v9v6v8v4v8v6v9v6v8v6v6v8v17q-70 0 -180 -17q-98 -14 -221 -49q-121 -35 -201 -98.5t-80 -151.5zM197 1126 q0 25 20 39l248 162q10 8 24.5 8t24.5 -8l252 -162q23 -12 22 -39q0 -20 -14 -34q-12 -12 -33 -13q-16 0 -24 8l-228 146l-221 -146q-14 -8 -26 -8q-18 0 -31 15q-14 18 -14 32z" />
<glyph unicode="&#xe3;" horiz-adv-x="1003" d="M39 186q0 88 59 164q59 74 144 117q90 45 196 72q100 25 201 39q78 10 168 14q-45 199 -315 199q-166 0 -312 -95q-23 -18 -53 -4q-27 12 -27 43q0 25 21 39q61 55 168 82q115 29 205 29q205 0 313 -101q111 -100 111 -297v-452q0 -20 -14.5 -34.5t-35 -14.5t-35 14 t-14.5 35v139q-270 -197 -497 -197q-113 0 -197 52q-86 53 -86 157zM137 186q0 -59 58 -84q63 -27 127 -26q236 0 497 211v6v6v8v6v6v9v6v8v4v8v6v9v6v6v6v8v6v9v6v8v4v8v6v9v6v8v6v6v8v17q-70 0 -180 -17q-98 -14 -221 -49q-121 -35 -201 -98.5t-80 -151.5zM139 1176 q0 16 8 24q78 135 199 135q71 0 154 -49t135 -49q51 0 98 45t65.5 45t32.5 -14q12 -12 13 -33q0 -10 -10 -31q-82 -106 -199 -106q-74 0 -160 51q-82 49 -127 49q-37 0 -72 -29q-25 -18 -53 -57q-23 -29 -37 -29q-23 0 -35 12.5t-12 35.5z" />
<glyph unicode="&#xe4;" horiz-adv-x="1003" d="M39 186q0 88 59 164q59 74 144 117q90 45 196 72q100 25 201 39q78 10 168 14q-45 199 -315 199q-166 0 -312 -95q-23 -18 -53 -4q-27 12 -27 43q0 25 21 39q61 55 168 82q115 29 205 29q205 0 313 -101q111 -100 111 -297v-452q0 -20 -14.5 -34.5t-35 -14.5t-35 14 t-14.5 35v139q-270 -197 -497 -197q-113 0 -197 52q-86 53 -86 157zM137 186q0 -59 58 -84q63 -27 127 -26q236 0 497 211v6v6v8v6v6v9v6v8v4v8v6v9v6v6v6v8v6v9v6v8v4v8v6v9v6v8v6v6v8v17q-70 0 -180 -17q-98 -14 -221 -49q-121 -35 -201 -98.5t-80 -151.5zM244 1212 q0 27 22.5 49.5t50.5 22.5q27 0 49.5 -22.5t22.5 -49.5q0 -31 -22 -53q-20 -20 -50 -20q-31 0 -53 22q-20 20 -20 51zM596 1212q0 27 22.5 49.5t49 22.5t49 -22.5t22.5 -49.5q0 -31 -22 -53q-20 -20 -49 -20q-27 0 -49.5 22t-22.5 51z" />
<glyph unicode="&#xe5;" horiz-adv-x="1003" d="M39 186q0 88 59 164q59 74 144 117q90 45 196 72q100 25 201 39q78 10 168 14q-45 199 -315 199q-166 0 -312 -95q-23 -18 -53 -4q-27 12 -27 43q0 25 21 39q61 55 168 82q115 29 205 29q205 0 313 -101q111 -100 111 -297v-452q0 -20 -14.5 -34.5t-35 -14.5t-35 14 t-14.5 35v139q-270 -197 -497 -197q-113 0 -197 52q-86 53 -86 157zM137 186q0 -59 58 -84q63 -27 127 -26q236 0 497 211v6v6v8v6v6v9v6v8v4v8v6v9v6v6v6v8v6v9v6v8v4v8v6v9v6v8v6v6v8v17q-70 0 -180 -17q-98 -14 -221 -49q-121 -35 -201 -98.5t-80 -151.5zM242 1198 q0 94 82 157.5t178 63.5q80 0 143 -47q59 -45 60 -125q0 -94 -82 -157.5t-179 -63.5q-78 0 -141 47q-61 45 -61 125zM336 1198q0 -41 32.5 -59.5t75.5 -18.5q59 0 111 35q55 37 55 92q0 39 -32 58q-37 20 -76 20q-55 0 -110.5 -37t-55.5 -90z" />
<glyph unicode="&#xe6;" horiz-adv-x="1738" d="M39 193q0 86 53 151q55 68 135 100q76 31 168 52q84 18 162 18q86 0 211 -18q37 90 104 157q-61 131 -276 131q-172 0 -449 -141q-12 -6 -24 -6q-20 0 -34.5 14.5t-14.5 34.5q0 27 26 43q111 70 240 111q139 43 254 43t207 -39q96 -41 145 -123q100 78 234 121 q135 43 264 43q102 0 178 -45q78 -47 78 -138q0 -94 -78 -161.5t-195 -98.5q-121 -31 -219 -43q-119 -14 -190 -14q-74 0 -182 8q-8 -41 -9 -71q0 -117 80 -181q82 -66 201 -65q175 0 448 141q12 6 25 6q20 0 34.5 -14t14.5 -35q0 -25 -24 -43q-109 -72 -242 -111 q-143 -43 -256 -43q-221 0 -326 160q-218 -160 -467 -160q-111 0 -194 56q-82 56 -82 160zM137 195q0 -63 56 -91q57 -29 122 -28q229 0 428 153q-12 45 -12 95q0 37 6 77q-89 12 -178 13q-49 0 -121 -11q-63 -8 -137 -34q-72 -25 -117 -70q-47 -47 -47 -104zM872 489 q74 -6 146 -6q66 0 141 9q66 6 191 32q102 20 180 70q72 45 72 108q0 45 -52 64q-57 20 -104 20q-168 0 -334 -80t-240 -217z" />
<glyph unicode="&#xe7;" horiz-adv-x="999" d="M39 297q0 127 84 240q82 109 215 180q129 70 272 112q141 43 275 56q18 2 34.5 -10.5t18.5 -32.5q4 -23 -10 -39q-10 -12 -33 -17q-98 -10 -188 -32q-109 -27 -199 -66q-119 -51 -182 -94q-80 -55 -133.5 -133t-53.5 -166q0 -109 88 -164q86 -53 205 -53q186 0 436 133 q29 16 51.5 0t22.5 -43q0 -33 -27 -45q-166 -90 -319 -125q63 -43 63 -125q0 -90 -69 -145q-70 -53 -166 -70q-2 -2 -8 -2q-20 0 -34.5 14.5t-14.5 34.5q0 39 41 49q154 33 153 119q0 51 -47 51q-10 0 -18.5 -2t-16.5 -2q-20 0 -34.5 14.5t-14.5 34.5q0 6 2 11l-2 -3 q-158 0 -276 84q-115 82 -115 236z" />
<glyph unicode="&#xe8;" horiz-adv-x="1034" d="M39 319q0 162 115 299q111 131 276 201q158 66 322 66q96 0 170 -43q76 -45 75 -137q0 -123 -123 -211q-125 -90 -307 -134q-188 -43 -393 -41h-37q0 -115 80 -180q78 -63 201 -63q175 0 448 141q25 15 49 0q25 -16 25 -41q0 -29 -27 -43q-98 -61 -245 -110 q-137 -45 -250 -46q-166 0 -271 91q-108 91 -108 251zM150 408q285 0 520 88q229 86 229 209q0 45 -47 63q-45 18 -100 18q-117 0 -240 -40.5t-223 -129.5q-102 -89 -139 -208zM428 1286q0 29 24.5 41t47.5 -4l235 -164q20 -14 21 -37q0 -31 -24.5 -43t-49.5 4l-236 164 q-18 12 -18 39z" />
<glyph unicode="&#xe9;" horiz-adv-x="1034" d="M39 319q0 162 115 299q111 131 276 201q158 66 322 66q96 0 170 -43q76 -45 75 -137q0 -123 -123 -211q-125 -90 -307 -134q-188 -43 -393 -41h-37q0 -115 80 -180q78 -63 201 -63q175 0 448 141q25 15 49 0q25 -16 25 -41q0 -29 -27 -43q-98 -61 -245 -110 q-137 -45 -250 -46q-166 0 -271 91q-108 91 -108 251zM150 408q285 0 520 88q229 86 229 209q0 45 -47 63q-45 18 -100 18q-117 0 -240 -40.5t-223 -129.5q-102 -89 -139 -208zM487 1122q0 25 19 37l237 164q8 8 27 8q16 0 30.5 -14t14.5 -31q0 -27 -20 -39l-236 -164 q-8 -8 -27 -8q-20 0 -32.5 12t-12.5 35z" />
<glyph unicode="&#xea;" horiz-adv-x="1034" d="M39 319q0 162 115 299q111 131 276 201q158 66 322 66q96 0 170 -43q76 -45 75 -137q0 -123 -123 -211q-125 -90 -307 -134q-188 -43 -393 -41h-37q0 -115 80 -180q78 -63 201 -63q175 0 448 141q25 15 49 0q25 -16 25 -41q0 -29 -27 -43q-98 -61 -245 -110 q-137 -45 -250 -46q-166 0 -271 91q-108 91 -108 251zM150 408q285 0 520 88q229 86 229 209q0 45 -47 63q-45 18 -100 18q-117 0 -240 -40.5t-223 -129.5q-102 -89 -139 -208zM336 1126q0 25 20 39l248 162q10 8 25 8q10 0 24 -8l252 -162q23 -12 23 -39q0 -23 -12.5 -35 t-34.5 -12q-16 0 -25 8l-227 146l-221 -146q-14 -8 -27 -8q-18 0 -31 15q-14 18 -14 32z" />
<glyph unicode="&#xeb;" horiz-adv-x="1034" d="M39 319q0 162 115 299q111 131 276 201q158 66 322 66q96 0 170 -43q76 -45 75 -137q0 -123 -123 -211q-125 -90 -307 -134q-188 -43 -393 -41h-37q0 -115 80 -180q78 -63 201 -63q175 0 448 141q25 15 49 0q25 -16 25 -41q0 -29 -27 -43q-98 -61 -245 -110 q-137 -45 -250 -46q-166 0 -271 91q-108 91 -108 251zM150 408q285 0 520 88q229 86 229 209q0 45 -47 63q-45 18 -100 18q-117 0 -240 -40.5t-223 -129.5q-102 -89 -139 -208zM383 1212q0 27 22.5 49.5t49.5 22.5q31 0 53 -22q20 -20 20 -50q0 -31 -22 -53q-20 -20 -51 -20 q-27 0 -49.5 22t-22.5 51zM735 1212q0 29 21 50q23 23 51.5 22.5t50.5 -22.5q20 -20 21 -50q0 -33 -20.5 -53t-51.5 -20q-29 0 -51 22q-21 20 -21 51z" />
<glyph unicode="&#xec;" horiz-adv-x="251" d="M-74 1286q0 29 24.5 41t47.5 -4l238 -164q18 -12 18 -37q0 -31 -24.5 -43t-47.5 4l-237 164q-19 12 -19 39zM78 33v792q0 20 14 34.5t34.5 14.5t35 -14t14.5 -35v-792q0 -20 -14.5 -34.5t-35 -14.5t-34.5 14.5t-14 34.5z" />
<glyph unicode="&#xed;" horiz-adv-x="251" d="M0 1122q0 23 20 37l236 164q8 8 27 8q14 0 32 -14q14 -12 15 -31q0 -25 -21 -39l-235 -164q-8 -8 -27 -8q-20 0 -33 12q-14 15 -14 35zM78 33v792q0 20 14 34.5t34.5 14.5t35 -14t14.5 -35v-792q0 -20 -14.5 -34.5t-35 -14.5t-34.5 14.5t-14 34.5z" />
<glyph unicode="&#xee;" horiz-adv-x="251" d="M-168 1126q0 25 21 39l245 162q14 8 27 8q8 0 25 -8l251 -162q23 -12 23 -39q0 -23 -14 -34q-16 -12 -33 -12.5t-25 7.5l-227 146l-221 -146q-14 -8 -27 -8q-18 0 -31 15q-14 18 -14 32zM78 33v792q0 20 14 34.5t34.5 14.5t35 -14t14.5 -35v-792q0 -20 -14.5 -34.5 t-35 -14.5t-34.5 14.5t-14 34.5z" />
<glyph unicode="&#xef;" horiz-adv-x="251" d="M-121 1212q0 29 21 50q23 23 51 22q31 0 53 -22q20 -20 21 -50q0 -33 -20.5 -53t-53.5 -20q-29 0 -51 22q-21 20 -21 51zM78 33v792q0 20 14 34.5t34.5 14.5t35 -14t14.5 -35v-792q0 -20 -14.5 -34.5t-35 -14.5t-34.5 14.5t-14 34.5zM231 1212q0 29 21 50 q23 23 51.5 22.5t50.5 -22.5q20 -20 21 -50q0 -33 -20.5 -53t-51.5 -20q-29 0 -51 22q-21 20 -21 51z" />
<glyph unicode="&#xf0;" horiz-adv-x="1028" d="M39 268q0 111 53 203q57 98 139 161.5t195 117t213 79.5q115 31 203 41q-63 199 -242 285l-139 -160q-15 -18 -37 -18q-33 0 -45 29q-12 33 8 53l115 133q-102 29 -242 29q-20 0 -34.5 14t-14.5 34.5t14.5 35t34.5 14.5q176 0 311 -45l125 145q16 16 37 16.5t35 -14 t14 -35.5q0 -18 -12 -32l-104 -121q305 -164 305 -594q0 -283 -160 -479.5t-434 -196.5q-143 0 -240 82q-98 82 -98 223zM137 268q0 -101 68 -153q70 -53 172 -54q233 0 364 168t131 410q0 74 -12 147q-88 -12 -174 -36q-89 -25 -190 -68q-88 -37 -179 -102 q-78 -55 -129 -137.5t-51 -174.5z" />
<glyph unicode="&#xf1;" horiz-adv-x="917" d="M78 35v790q0 20 14 35q16 16 35 17q20 0 34.5 -14.5t14.5 -37.5v-120q63 82 154 131q86 47 188 47q152 0 238 -104.5t86 -319.5v-424q0 -20 -14.5 -34.5t-35 -14.5t-35 14t-14.5 35v424q0 172 -57 248q-59 78 -172 77q-111 0 -199 -69q-92 -72 -139 -174v-506 q0 -20 -14.5 -34.5t-35 -14.5t-34.5 14.5t-14 34.5zM100 1176q0 12 6 24q82 135 201 135q71 0 154 -49q84 -49 133 -49q51 0 98 45t65.5 45t33 -14.5t14.5 -32.5q0 -10 -10 -31q-88 -106 -199 -106q-76 0 -162 51q-82 49 -125 49q-41 0 -73 -29q-23 -20 -52 -57 q-23 -29 -39 -29q-20 0 -32.5 12.5t-12.5 35.5z" />
<glyph unicode="&#xf2;" horiz-adv-x="911" d="M39 299q0 137 74 272q74 137 202 226q127 88 269 88q137 0 213 -92q78 -94 77 -230q0 -212 -165 -399q-166 -186 -377 -187q-133 0 -213 92.5t-80 229.5zM137 299q0 -90 51 -158q49 -66 144 -65q169 0 307 160q137 158 137 327q0 90 -51 158q-49 66 -141 65 q-170 0 -310 -159q-137 -158 -137 -328zM328 1286q0 29 26 41q25 12 47 -4l236 -164q20 -14 20 -37q0 -29 -26 -43q-25 -12 -47 4l-236 164q-20 14 -20 39z" />
<glyph unicode="&#xf3;" horiz-adv-x="911" d="M39 299q0 137 74 272q74 137 202 226q127 88 269 88q137 0 213 -92q78 -94 77 -230q0 -212 -165 -399q-166 -186 -377 -187q-133 0 -213 92.5t-80 229.5zM137 299q0 -90 51 -158q49 -66 144 -65q169 0 307 160q137 158 137 327q0 90 -51 158q-49 66 -141 65 q-170 0 -310 -159q-137 -158 -137 -328zM487 1122q0 25 19 37l237 164q8 8 27 8q16 0 30.5 -14t14.5 -31q0 -27 -20 -39l-236 -164q-8 -8 -27 -8q-20 0 -32.5 12t-12.5 35z" />
<glyph unicode="&#xf4;" horiz-adv-x="911" d="M39 299q0 137 74 272q74 137 202 226q127 88 269 88q137 0 213 -92q78 -94 77 -230q0 -212 -165 -399q-166 -186 -377 -187q-133 0 -213 92.5t-80 229.5zM137 299q0 -90 51 -158q49 -66 144 -65q169 0 307 160q137 158 137 327q0 90 -51 158q-49 66 -141 65 q-170 0 -310 -159q-137 -158 -137 -328zM256 1126q0 25 20 39l248 162q10 8 24.5 8t24.5 -8l254 -162q20 -14 21 -39q0 -20 -14 -34q-12 -12 -33 -13q-14 0 -25 8l-227 146l-221 -146q-14 -8 -25 -8q-20 0 -33 15q-14 18 -14 32z" />
<glyph unicode="&#xf5;" horiz-adv-x="911" d="M39 299q0 137 74 272q74 137 202 226q127 88 269 88q137 0 213 -92q78 -94 77 -230q0 -212 -165 -399q-166 -186 -377 -187q-133 0 -213 92.5t-80 229.5zM137 299q0 -90 51 -158q49 -66 144 -65q169 0 307 160q137 158 137 327q0 90 -51 158q-49 66 -141 65 q-170 0 -310 -159q-137 -158 -137 -328zM180 1176q0 12 6 24q76 135 199 135q71 0 154 -49t135 -49q51 0 98 45t66 45q20 0 34 -14q12 -12 13 -33q0 -15 -13 -31q-82 -106 -198 -106q-74 0 -160 51q-84 49 -125 49q-39 0 -74 -29q-25 -18 -53 -57q-23 -29 -37 -29 q-20 0 -32.5 12.5t-12.5 35.5z" />
<glyph unicode="&#xf6;" horiz-adv-x="911" d="M39 299q0 137 74 272q74 137 202 226q127 88 269 88q137 0 213 -92q78 -94 77 -230q0 -212 -165 -399q-166 -186 -377 -187q-133 0 -213 92.5t-80 229.5zM137 299q0 -90 51 -158q49 -66 144 -65q169 0 307 160q137 158 137 327q0 90 -51 158q-49 66 -141 65 q-170 0 -310 -159q-137 -158 -137 -328zM344 1212q0 29 21 50q23 23 51 22q27 0 49 -22.5t22 -49.5q0 -31 -22 -53q-20 -20 -49 -20t-51 22q-21 20 -21 51zM694 1212q0 29 21 50q23 23 53 22q29 0 51 -22q20 -20 21 -50q0 -33 -20.5 -53t-51.5 -20t-53 22q-21 20 -21 51z " />
<glyph unicode="&#xf7;" horiz-adv-x="882" d="M72 559.5q0 20.5 14 34.5t35 14h643q20 0 34.5 -14t14.5 -34.5t-14.5 -35t-34.5 -14.5h-643q-20 0 -34.5 14.5t-14.5 35zM365 272.5q0 28.5 20 49.5q23 23 51.5 22.5t50.5 -22.5q20 -20 20.5 -49t-20.5 -50q-23 -23 -51 -22.5t-51 22.5q-20 21 -20 49.5zM365 835.5 q0 30.5 20.5 51t51 20.5t51 -20.5t20.5 -51t-20.5 -51t-51 -20.5t-51 20.5t-20.5 51z" />
<glyph unicode="&#xf8;" horiz-adv-x="915" d="M-57 -100q0 18 12 30l137 162q-53 84 -53 195q0 215 168 409q170 197 377 197q84 0 155 -43l103 121q23 29 55 16q31 -12 31 -47q0 -12 -10 -33l-107 -125q33 -33 47 -94q16 -70 16 -117q0 -213 -167 -411q-164 -195 -375 -195q-98 0 -172 55l-131 -153q-23 -25 -54 -14 q-32 12 -32 47zM137 287q0 -66 23 -115l514 602q-39 20 -90 21q-170 0 -308 -168q-139 -170 -139 -340zM223 94q47 -31 109 -31q170 0 307 168t137 340q0 82 -33 136z" />
<glyph unicode="&#xf9;" horiz-adv-x="917" d="M78 403v424q0 20 14 35t34.5 15t35 -14.5t14.5 -35.5v-426q0 -168 57 -247q55 -76 173 -76q106 0 196 69q92 72 141 175v505q0 20 14.5 35t35 15t35 -14.5t14.5 -35.5v-792q0 -20 -14.5 -34.5t-35 -14.5t-35 14t-14.5 35v123q-63 -80 -153 -129q-92 -49 -189 -49 q-152 0 -237.5 104t-85.5 319zM209 1286q0 29 24.5 41t47.5 -4l237 -164q18 -12 19 -37q0 -31 -25 -43t-47 4l-236 164q-20 12 -20 39z" />
<glyph unicode="&#xfa;" horiz-adv-x="917" d="M78 403v424q0 20 14 35t34.5 15t35 -14.5t14.5 -35.5v-426q0 -168 57 -247q55 -76 173 -76q106 0 196 69q92 72 141 175v505q0 20 14.5 35t35 15t35 -14.5t14.5 -35.5v-792q0 -20 -14.5 -34.5t-35 -14.5t-35 14t-14.5 35v123q-63 -80 -153 -129q-92 -49 -189 -49 q-152 0 -237.5 104t-85.5 319zM408 1122q0 23 20 37l236 164q8 8 26 8q16 0 30.5 -14t14.5 -31q0 -27 -18 -39l-238 -164q-8 -8 -24 -8q-20 0 -33 12q-14 15 -14 35z" />
<glyph unicode="&#xfb;" horiz-adv-x="917" d="M78 403v424q0 20 14 35t34.5 15t35 -14.5t14.5 -35.5v-426q0 -168 57 -247q55 -76 173 -76q106 0 196 69q92 72 141 175v505q0 20 14.5 35t35 15t35 -14.5t14.5 -35.5v-792q0 -20 -14.5 -34.5t-35 -14.5t-35 14t-14.5 35v123q-63 -80 -153 -129q-92 -49 -189 -49 q-152 0 -237.5 104t-85.5 319zM164 1126q0 25 20 39l248 162q10 8 24.5 8t24.5 -8l254 -162q20 -14 21 -39q0 -23 -12.5 -35t-34.5 -12q-14 0 -25 8l-227 146l-221 -146q-14 -8 -25 -8q-20 0 -33 15q-14 18 -14 32z" />
<glyph unicode="&#xfc;" horiz-adv-x="917" d="M78 403v424q0 20 14 35t34.5 15t35 -14.5t14.5 -35.5v-426q0 -168 57 -247q55 -76 173 -76q106 0 196 69q92 72 141 175v505q0 20 14.5 35t35 15t35 -14.5t14.5 -35.5v-792q0 -20 -14.5 -34.5t-35 -14.5t-35 14t-14.5 35v123q-63 -80 -153 -129q-92 -49 -189 -49 q-152 0 -237.5 104t-85.5 319zM244 1212q0 27 22.5 49.5t50.5 22.5q27 0 49.5 -22.5t22.5 -49.5q0 -31 -22 -53q-20 -20 -50 -20q-31 0 -53 22q-20 20 -20 51zM596 1212q0 27 22.5 49.5t49 22.5t49 -22.5t22.5 -49.5q0 -31 -22 -53q-20 -20 -49 -20q-27 0 -49.5 22t-22.5 51 z" />
<glyph unicode="&#xfd;" d="M-12 -307q0 25 18.5 41t44.5 6q139 -39 217 20q80 59 144 213l-387 834q-20 43 24 65q45 18 64 -24l352 -754l323 750q20 45 66 26q31 -14 31 -45l-4 -20l-379 -875q-90 -203 -199 -266q-113 -66 -278 -20q-37 12 -37 49zM348 1122q0 25 19 37l237 164q8 8 27 8 q16 0 30.5 -14t14.5 -31q0 -27 -19 -39l-237 -164q-8 -8 -26.5 -8t-31.5 12q-14 15 -14 35z" />
<glyph unicode="&#xfe;" horiz-adv-x="1028" d="M78 -322v1600q0 20 14 34.5t34.5 14.5t35 -14.5t14.5 -34.5v-508q231 113 426 113q158 0 266 -82q111 -84 111 -228q0 -133 -82 -241q-80 -106 -213 -176q-129 -68 -258 -111q-125 -41 -250 -57v-310q0 -20 -14.5 -34.5t-35 -14.5t-34.5 14.5t-14 34.5zM176 78 q94 14 211 53q104 35 227 96q121 61 193 150q74 92 74 196.5t-84 157.5t-197 53q-188 0 -424 -125v-581z" />
<glyph unicode="&#xff;" d="M-12 -307q0 25 18.5 41t44.5 6q139 -39 217 20q80 59 144 213l-387 834q-20 43 24 65q45 18 64 -24l352 -754l323 750q20 45 66 26q31 -14 31 -45l-4 -20l-379 -875q-90 -203 -199 -266q-113 -66 -278 -20q-37 12 -37 49zM205 1212q0 27 22.5 49.5t48.5 22.5q29 0 52 -22 q20 -20 20 -50q0 -33 -20.5 -53t-51.5 -20q-29 0 -51 22q-20 20 -20 51zM557 1212q0 29 21 50q23 23 51 22.5t51 -22.5q20 -20 20 -50q0 -31 -22 -53q-20 -20 -49 -20t-51 22q-21 20 -21 51z" />
<glyph unicode="&#x152;" horiz-adv-x="1775" d="M59 500q0 195 91 381q92 190 260 321t360 131q111 0 203 -49q14 33 43 33h643q20 0 33 -14q14 -18 14 -35t-14 -35q-12 -14 -33 -14h-598q139 -141 156 -359h403q20 0 34.5 -14.5t14.5 -34.5t-14 -33q-18 -14 -35 -14h-403q-16 -240 -152 -442v-224h602q20 0 34.5 -14 t14.5 -34.5t-14 -35t-35 -14.5h-651q-20 0 -34.5 14.5t-14.5 34.5v152q-209 -223 -459 -224q-209 0 -330 154q-119 152 -119 369zM158 500q0 -172 92 -299q92 -125 258 -125q163 0 307 117q150 121 225 278q80 166 80 324q0 113 -35 211q-35 96 -116 163q-80 66 -199 66 q-164 0 -311 -119q-143 -117 -223 -285q-78 -163 -78 -331z" />
<glyph unicode="&#x153;" horiz-adv-x="1572" d="M39 295q0 139 74 274q74 137 202 226q127 88 269 88q182 0 252 -131q94 59 217 96q117 35 233 35q98 0 172 -41q78 -43 78 -131q0 -96 -82 -168q-80 -72 -205 -109q-123 -37 -227 -55q-98 -16 -195 -21q-43 -98 -114 -182q76 -100 239 -100q72 0 158 24q82 25 143 50 q57 25 146 69q18 6 22 6q20 0 34.5 -14t14.5 -35q0 -25 -24 -43q-106 -72 -240 -113q-137 -43 -254 -43q-203 0 -309 129q-147 -129 -311 -129q-133 0 -213 91q-80 89 -80 227zM137 295q0 -94 51 -158q49 -61 144 -61q168 0 307 168q137 164 137 338q0 92 -49 147t-143 55 q-169 0 -308 -159q-139 -162 -139 -330zM860 459q61 2 146 18q113 20 188 41q100 27 174 78q70 49 70 113q0 45 -49 59q-53 16 -101 16q-100 0 -221 -34q-117 -35 -199 -95q6 -37 6 -75q0 -55 -14 -121z" />
<glyph unicode="&#x178;" horiz-adv-x="1097" d="M39 1280q0 20 14.5 34.5t34.5 14.5q25 0 39 -20l430 -568l416 570q12 18 39 18q20 0 34.5 -14.5t14.5 -34.5q0 -12 -10 -29l-445 -606v-610q0 -18 -12 -35q-12 -14 -35 -14q-16 0 -35 14q-14 12 -14 33v610l-461 606q-10 17 -10 31zM303 1491q0 31 20.5 51.5t51.5 20.5 q29 0 49 -21q23 -23 22.5 -51.5t-22.5 -50.5q-20 -20 -49 -21q-31 0 -51.5 20.5t-20.5 51.5zM653 1491q0 31 20.5 51.5t53.5 20.5q31 0 51.5 -20.5t20.5 -51.5t-20.5 -51.5t-51.5 -20.5q-33 0 -53.5 20.5t-20.5 51.5z" />
<glyph unicode="&#x2c6;" d="M156 1126q0 27 22 39l246 162q14 8 25 8q12 0 26 -8l252 -162q20 -14 21 -39q0 -23 -12.5 -35t-33.5 -12q-18 0 -26 8l-227 146l-222 -146q-10 -8 -24 -8q-18 0 -32.5 14.5t-14.5 32.5z" />
<glyph unicode="&#x2dc;" d="M100 1176q0 12 6 24q82 135 201 135q71 0 154 -49q84 -49 133 -49q51 0 98 45t65.5 45t33 -14.5t14.5 -32.5q0 -10 -10 -31q-88 -106 -199 -106q-76 0 -162 51q-82 49 -125 49q-41 0 -73 -29q-23 -20 -52 -57q-23 -29 -39 -29q-20 0 -32.5 12.5t-12.5 35.5z" />
<glyph unicode="&#x2000;" horiz-adv-x="847" />
<glyph unicode="&#x2001;" horiz-adv-x="1695" />
<glyph unicode="&#x2002;" horiz-adv-x="847" />
<glyph unicode="&#x2003;" horiz-adv-x="1695" />
<glyph unicode="&#x2004;" horiz-adv-x="563" />
<glyph unicode="&#x2005;" horiz-adv-x="423" />
<glyph unicode="&#x2006;" horiz-adv-x="280" />
<glyph unicode="&#x2007;" horiz-adv-x="280" />
<glyph unicode="&#x2008;" horiz-adv-x="210" />
<glyph unicode="&#x2009;" horiz-adv-x="337" />
<glyph unicode="&#x200a;" horiz-adv-x="92" />
<glyph unicode="&#x2010;" horiz-adv-x="497" d="M41 512q0 20 14.5 34.5t34.5 14.5h320q20 0 34.5 -14.5t14.5 -34.5t-14.5 -34.5t-34.5 -14.5h-320q-20 0 -34.5 14.5t-14.5 34.5z" />
<glyph unicode="&#x2011;" horiz-adv-x="497" d="M41 512q0 20 14.5 34.5t34.5 14.5h320q20 0 34.5 -14.5t14.5 -34.5t-14.5 -34.5t-34.5 -14.5h-320q-20 0 -34.5 14.5t-14.5 34.5z" />
<glyph unicode="&#x2012;" horiz-adv-x="497" d="M41 512q0 20 14.5 34.5t34.5 14.5h320q20 0 34.5 -14.5t14.5 -34.5t-14.5 -34.5t-34.5 -14.5h-320q-20 0 -34.5 14.5t-14.5 34.5z" />
<glyph unicode="&#x2013;" horiz-adv-x="897" d="M82 512q0 20 14.5 34.5t34.5 14.5h637q20 0 34.5 -14.5t14.5 -34.5t-14.5 -34.5t-34.5 -14.5h-637q-20 0 -34.5 14.5t-14.5 34.5z" />
<glyph unicode="&#x2014;" horiz-adv-x="1181" d="M82 512q0 20 14.5 34.5t34.5 14.5h922q20 0 34.5 -14.5t14.5 -34.5t-14.5 -34.5t-34.5 -14.5h-922q-20 0 -34.5 14.5t-14.5 34.5z" />
<glyph unicode="&#x2018;" horiz-adv-x="274" d="M35 1028q0 59 41 160q39 96 86 137q20 20 53 8q29 -12 29 -45q0 -22 -19 -37q-31 -31 -51 -82q-23 -57 -31 -100q37 -15 37 -61q0 -27 -22.5 -49.5t-48.5 -22.5q-74 0 -74 92z" />
<glyph unicode="&#x2019;" horiz-adv-x="274" d="M35 985q0 16 16 37q53 53 84 180q-39 18 -39 64q0 27 23 49q20 20 49 20q37 0 57 -26q18 -25 19 -64q0 -68 -41 -162q-43 -100 -88 -135q-20 -20 -52 -8q-28 12 -28 45z" />
<glyph unicode="&#x201a;" horiz-adv-x="247" d="M-2 -217q0 16 16 37q59 53 84 180q-37 16 -37 63q0 29 20.5 49.5t49.5 20.5q37 0 57 -27q18 -25 19 -63q0 -59 -41 -160q-39 -96 -86 -137q-25 -20 -53.5 -8t-28.5 45z" />
<glyph unicode="&#x201c;" horiz-adv-x="524" d="M35 1028q0 59 41 160q39 96 86 137q20 20 53 8q29 -12 29 -45q0 -22 -19 -37q-31 -31 -51 -82q-23 -57 -31 -100q37 -15 37 -61q0 -27 -22.5 -49.5t-48.5 -22.5q-74 0 -74 92zM289 1028q0 59 41 160q39 96 86 137q20 20 53 8q29 -12 29 -45q0 -27 -17 -37 q-59 -53 -84 -182q37 -15 37 -61q0 -27 -22.5 -49.5t-49.5 -22.5q-73 0 -73 92z" />
<glyph unicode="&#x201d;" horiz-adv-x="524" d="M35 985q0 16 16 37q53 53 84 180q-39 18 -39 64q0 27 23 49q20 20 49 20q37 0 57 -26q18 -25 19 -64q0 -68 -41 -162q-43 -100 -88 -135q-20 -20 -52 -8q-28 12 -28 45zM289 985q0 16 16 37q59 59 84 180q-37 23 -37 64q0 29 20.5 49t49.5 20q37 0 57 -26q18 -25 19 -64 q0 -68 -41 -162q-43 -100 -88 -135q-20 -20 -52 -8q-28 12 -28 45z" />
<glyph unicode="&#x201e;" horiz-adv-x="485" d="M-4 -221q0 16 16 37q55 53 84 180q-39 14 -39 63q0 25 22.5 47.5t49.5 22.5q39 0 57.5 -24.5t18.5 -67.5q0 -70 -41 -160q-43 -96 -88 -135q-20 -20 -51 -8q-29 12 -29 45zM250 -221q0 16 16 37q27 27 51 82q25 53 33 98q-37 16 -37 63q0 27 21 47q23 23 49 23 q39 0 57.5 -24.5t18.5 -67.5q0 -61 -41 -160q-40 -95 -86 -135q-25 -20 -53.5 -8t-28.5 45z" />
<glyph unicode="&#x2022;" horiz-adv-x="487" d="M39 575q0 84 61.5 145.5t145.5 61.5t145 -61q59 -59 59.5 -145.5t-59 -145.5t-145.5 -59q-84 0 -145.5 61t-61.5 143z" />
<glyph unicode="&#x2026;" horiz-adv-x="749" d="M61 61q0 29 21 50q23 23 51 22q31 0 53 -22q20 -20 21 -50q0 -33 -20.5 -53t-53.5 -20q-29 0 -51 22q-21 20 -21 51zM313 61q0 29 21 50q23 23 51.5 22.5t50.5 -22.5q20 -20 21 -50q0 -33 -20.5 -53t-51.5 -20q-29 0 -51 22q-21 20 -21 51zM563 61q0 29 21 50 q23 23 51.5 22.5t50.5 -22.5q20 -20 21 -50q0 -33 -20.5 -53t-51.5 -20q-29 0 -51 22q-21 20 -21 51z" />
<glyph unicode="&#x202f;" horiz-adv-x="337" />
<glyph unicode="&#x2039;" horiz-adv-x="442" d="M33 461q-29 31 0 63l282 320q23 25 54 12q33 -12 32 -45q0 -14 -12 -33l-254 -286l254 -285q12 -12 12 -33q0 -33 -32.5 -45t-53.5 12z" />
<glyph unicode="&#x203a;" horiz-adv-x="448" d="M43 811q0 33 31 45q33 12 55 -12l285 -320q12 -12 12 -30q0 -20 -12 -33l-283 -320q-23 -25 -55 -12q-31 12 -31 45q0 20 12 33l254 285l-256 286q-12 21 -12 33z" />
<glyph unicode="&#x205f;" horiz-adv-x="423" />
<glyph unicode="&#x20ac;" horiz-adv-x="1228" d="M31 462.5q0 20.5 14 35t35 14.5h80q0 61 14 127h-94q-20 0 -34.5 14.5t-14.5 35t14 34.5t35 14h125q96 240 354 398q260 158 553 200q23 4 39 -10q18 -14 18 -39q0 -41 -41 -47q-258 -41 -487 -170q-231 -131 -330 -332h484q20 0 34.5 -14t14.5 -34.5t-14.5 -35 t-34.5 -14.5h-519q-18 -57 -18 -127h537q20 0 34.5 -14.5t14.5 -35t-14.5 -34.5t-34.5 -14h-531q35 -182 178 -275q127 -82 303 -53q170 27 359 160q10 10 26 10q18 0 35 -16.5t17 -34.5q0 -23 -21 -37q-213 -154 -413 -182q-205 -29 -359 71q-188 119 -223 357h-86 q-20 0 -34.5 14t-14.5 34.5z" />
<glyph unicode="&#x2122;" horiz-adv-x="1394" d="M20 1265.5q0 20.5 14.5 35t35.5 14.5h352q20 0 34.5 -14.5t14.5 -35t-14.5 -34.5t-34.5 -14h-131v-332q0 -20 -14.5 -34.5t-34.5 -14.5q-23 0 -37.5 14t-14.5 35v332h-120q-20 0 -35 14t-15 34.5zM543 885v403q0 20 14 34.5t34.5 14.5t35 -14t14.5 -35v-10q49 59 141 59 q114 0 172 -92q61 92 172 92q101 0 160 -73q59 -76 60 -181v-198q0 -20 -14.5 -34.5t-35 -14.5t-35 14t-14.5 35v198q0 63 -28 111q-27 45 -91 45q-94 0 -135 -96q4 -49 4 -60v-198q0 -20 -14 -34.5t-34.5 -14.5t-35 14t-14.5 35v198q0 70 -29 113q-31 45 -96 45 q-88 0 -133 -106v-250q0 -20 -14.5 -34.5t-35 -14.5t-34.5 14.5t-14 34.5z" />
<glyph unicode="&#xe000;" horiz-adv-x="875" d="M0 875h875v-875h-875v875z" />
<glyph unicode="&#xfb01;" horiz-adv-x="960" d="M20 811q0 20 14.5 34.5t35.5 14.5h133q4 199 98 336q96 139 279 139q131 0 229 -55t98 -123q0 -31 -20.5 -51.5t-50.5 -20.5q-37 0 -58 27q-23 29 -12 70q-70 57 -186 57q-139 0 -207 -113q-70 -115 -72 -266h528q23 0 39.5 -12t16.5 -37v-776q0 -20 -15 -33 q-18 -14 -34 -14q-20 0 -35 12t-15 35v729h-485v-729q0 -20 -14.5 -34.5t-35 -14.5t-34.5 14t-14 35v729h-133q-16 0 -35 14q-15 13 -15 33z" />
<glyph unicode="&#xfb02;" horiz-adv-x="964" d="M18 811q0 20 14.5 34.5t35.5 14.5h137q4 207 98 340q98 137 287 137q37 0 82 -6q8 -2 44 -5t56 -7q52 -9 74 -12q41 -10 41 -50v-1222q0 -20 -14.5 -34.5t-35 -14.5t-35 14t-14.5 35v1179q-150 25 -194 25q-154 0 -221 -109q-66 -106 -70 -270h287q20 0 34.5 -14.5 t14.5 -34.5t-14 -33q-18 -14 -35 -14h-287v-727q0 -20 -14 -33q-18 -14 -35 -14q-20 0 -34.5 12t-14.5 35v727h-137q-16 0 -35 14q-15 13 -15 33z" />
<glyph unicode="&#xfb03;" horiz-adv-x="1718" d="M1521 1263.5q0 28.5 21 49.5q23 23 51.5 22.5t50.5 -22.5q20 -20 20.5 -49t-20.5 -50q-23 -23 -51.5 -22.5t-50.5 22.5q-21 21 -21 49.5zM1544 33v792q0 20 14 34.5t34.5 14.5t35 -14t14.5 -35v-792q0 -20 -14.5 -34.5t-35 -14.5t-34.5 14.5t-14 34.5zM753 813.5 q0 20.5 14.5 34.5t35.5 14h135v10q0 227 119 355q94 101 251 101q42 0 89 -7q41 -6 41 -47q0 -25 -14.5 -39t-41.5 -12q-39 6 -74 6q-120 0 -186 -76q-86 -98 -86 -281v-10h295q20 0 34.5 -14t14.5 -34.5t-14.5 -35t-34.5 -14.5h-295v-727q0 -20 -14.5 -34.5t-35 -14.5 t-34.5 14t-14 35v727h-135q-20 0 -35 14.5t-15 35zM20 813.5q0 20.5 14.5 34.5t35.5 14h135v10q0 227 119 355q94 101 251 101q42 0 89 -7q41 -6 41 -47q0 -25 -14.5 -39t-41.5 -12q-39 6 -74 6q-120 0 -186 -76q-86 -98 -86 -281v-10h295q20 0 34.5 -14t14.5 -34.5 t-14.5 -35t-34.5 -14.5h-295v-727q0 -20 -14.5 -34.5t-35 -14.5t-34.5 14t-14 35v727h-135q-20 0 -35 14.5t-15 35z" />
<glyph unicode="&#xfb04;" horiz-adv-x="1718" d="M1544 37v1243q0 20 14 34.5t34.5 14.5t35 -14.5t14.5 -34.5v-1243q0 -20 -14.5 -34.5t-35 -14.5t-34.5 14.5t-14 34.5zM753 813.5q0 20.5 14.5 34.5t35.5 14h135v10q0 227 119 355q94 101 251 101q42 0 89 -7q41 -6 41 -47q0 -25 -14.5 -39t-41.5 -12q-39 6 -74 6 q-120 0 -186 -76q-86 -98 -86 -281v-10h295q20 0 34.5 -14t14.5 -34.5t-14.5 -35t-34.5 -14.5h-295v-727q0 -20 -14.5 -34.5t-35 -14.5t-34.5 14t-14 35v727h-135q-20 0 -35 14.5t-15 35zM20 813.5q0 20.5 14.5 34.5t35.5 14h135v10q0 227 119 355q94 101 251 101 q42 0 89 -7q41 -6 41 -47q0 -25 -14.5 -39t-41.5 -12q-39 6 -74 6q-120 0 -186 -76q-86 -98 -86 -281v-10h295q20 0 34.5 -14t14.5 -34.5t-14.5 -35t-34.5 -14.5h-295v-727q0 -20 -14.5 -34.5t-35 -14.5t-34.5 14t-14 35v727h-135q-20 0 -35 14.5t-15 35z" />
<glyph horiz-adv-x="397" />
</font>
</defs>
</svg>
