<?xml version="1.0" standalone="no"?>
<!DOCTYPE svg PUBLIC "-//W3C//DTD SVG 1.1//EN" "http://www.w3.org/Graphics/SVG/1.1/DTD/svg11.dtd" >
<svg xmlns="http://www.w3.org/2000/svg">
<metadata>
This is a custom SVG webfont generated by Font Squirrel.
Copyright   : c 1999 Nick Curtis All Rights Reserved Generated by Fontographer 352 
</metadata>
<defs>
<font id="webfontk3ugoVXz" horiz-adv-x="1024" >
<font-face units-per-em="2048" ascent="1638" descent="-410" />
<missing-glyph horiz-adv-x="647" />
<glyph unicode=" "  horiz-adv-x="647" />
<glyph unicode="&#x09;" horiz-adv-x="647" />
<glyph unicode="&#xa0;" horiz-adv-x="647" />
<glyph unicode="!" horiz-adv-x="337" d="M33 135q0 29 11 54.5t30 43.5q20 18 45.5 29.5t52.5 11.5q29 0 54.5 -11t43.5 -30q20 -18 30.5 -43.5t10.5 -54.5t-10 -54.5t-31 -43.5q-18 -18 -43.5 -28.5t-54.5 -10.5q-27 0 -52.5 10t-45.5 29q-18 18 -29.5 43.5t-11.5 54.5zM131 360v1033q0 23 13.5 35t29.5 12 q14 0 27.5 -12.5t13.5 -34.5v-1033q0 -23 -13.5 -34t-27.5 -11q-16 0 -29.5 11t-13.5 34z" />
<glyph unicode="&#x22;" horiz-adv-x="602" d="M43 1343q0 53 34 96.5t101 43.5q57 0 98 -41t41 -96q0 -92 -30.5 -152.5t-114.5 -101.5l-12 -5q-6 -2 -10 -2q-18 0 -31 14.5t-10 30.5q0 10 6 20.5t20 16.5q6 4 11.5 6.5t9.5 6.5q10 6 19 12t15 12h-7h-7q-66 0 -99.5 44t-33.5 95zM330 1343q0 53 33.5 96.5t101.5 43.5 q57 0 98 -41t41 -96q0 -92 -30.5 -152.5t-114.5 -101.5l-13 -5q-6 -2 -10 -2q-18 0 -30.5 14.5t-10.5 30.5q0 10 6.5 20.5t20.5 16.5q6 4 11 6.5t9 6.5l19.5 12t15.5 12h-7h-7q-66 0 -99.5 44t-33.5 95z" />
<glyph unicode="#" />
<glyph unicode="$" horiz-adv-x="585" d="M27 494q0 16 13 28.5t30 12.5q10 0 18 -3.5t16 -13.5q25 -29 61 -49t73 -29q4 0 7 -1t7 -1v295q-63 12 -114.5 44t-74.5 95q-6 16 -8 32t-2 32q0 37 13.5 71.5t35.5 61.5v2q27 31 64 52.5t86 27.5v123v123q0 23 13.5 35t29.5 12q14 0 27.5 -12.5t13.5 -34.5v-123v-123 q49 -4 91 -20.5t81 -47.5q8 -6 12 -13t6 -15q2 -18 -10 -33.5t-31 -15.5q-8 0 -15 3t-15 9q-27 20 -55.5 32.5t-63.5 16.5v-264q84 -18 153.5 -72.5t69.5 -142.5q0 -8 -1 -17.5t-3 -19.5q-14 -78 -77.5 -129t-141.5 -66v-156v-159q0 -23 -13.5 -34t-27.5 -11q-16 0 -29.5 11 t-13.5 34v157v154q-4 0 -7 1t-7 1q-57 8 -109.5 38t-89.5 71q-6 8 -9 15.5t-3 15.5zM137 934q0 -8 2 -16.5t4 -18.5q12 -35 43 -53.5t66 -26.5v246q-45 -8 -80 -46t-35 -85zM336 444q47 10 87 42t48 81q0 4 1 6t1 7v5v5q0 45 -36 74.5t-79 44.5q-4 4 -10 5t-12 3v-273z" />
<glyph unicode="%" />
<glyph unicode="&#x26;" horiz-adv-x="1144" d="M51 401q0 147 104.5 252t235.5 144q-43 35 -67.5 85t-24.5 107q0 127 80 189.5t176 60.5h3h3q92 -2 169 -64.5t77 -185.5q0 -23 -13.5 -34t-29.5 -11t-29.5 11.5t-13.5 33.5q0 84 -52.5 125t-115.5 41q-63 -2 -115.5 -43t-52.5 -123q0 -74 53.5 -121t124.5 -47 q16 0 23.5 -12t7.5 -25v-3v-3q0 -16 -7 -29.5t-24 -13.5q-25 0 -51.5 -3t-52.5 -9q-121 -27 -221.5 -109t-100.5 -213q0 -147 107.5 -226t238.5 -97l44 -4q22 -2 44 -2q16 0 31.5 1t32.5 3q139 14 256 96t117 242q-2 84 -40 136t-94 73q-14 6 -29.5 10t-31.5 6q-8 2 -15 2 h-16q-70 0 -123 -44t-53 -128q0 -57 36 -90t79 -39q6 -2 11 -2h9q41 0 72 24.5t31 73.5q0 4 -1 10.5t-5 10.5q-4 12 -12.5 21t-18.5 9q-23 0 -34 13.5t-11 29.5t11 29.5t34 13.5q47 0 82 -37.5t41 -82.5v-9v-8q0 -88 -58.5 -135t-132.5 -47q-20 0 -41.5 4t-44.5 12 q-68 29 -100.5 84.5t-32.5 118.5v7v5q4 59 36 115.5t87 89.5l75 44l75 44l73 45l74 43q18 12 30.5 27.5t16.5 30.5q2 6 3 12t1 12q-2 41 -31.5 75t-70.5 34h-2q-23 0 -34 13t-11 30q0 14 12 27.5t35 13.5q78 2 132 -58.5t54 -136.5v-11q0 -5 -2 -11q0 -6 -1 -11.5t-3 -11.5 q-14 -49 -54 -83t-87 -58q-16 -10 -32 -19l-32 -16q-2 -2 -4 -3t-4 -3q109 -25 172.5 -108t63.5 -197q2 -211 -152 -313.5t-338 -110.5h-16h-17q-53 0 -106 7t-101 21q-131 41 -221 137t-90 246z" />
<glyph unicode="'" horiz-adv-x="344" d="M43 1348q0 53 34 96t101 43q57 0 98 -41t41 -96q0 -92 -30.5 -152.5t-114.5 -101.5l-12 -4q-6 -2 -10 -2q-18 0 -31 14t-10 31q0 10 6 20t20 16q6 4 11.5 6.5t9.5 6.5q10 6 19 12t15 12h-7h-7q-66 0 -99.5 44.5t-33.5 95.5z" />
<glyph unicode="(" horiz-adv-x="503" d="M23 731q0 182 29.5 337t80.5 269q57 125 135 195t170 70h3h3q12 0 24.5 -7.5t12.5 -35.5q0 -29 -12 -35t-25 -6h-3h-3q-63 0 -121.5 -56.5t-105.5 -158.5q-47 -106 -74.5 -253t-27.5 -319q0 -174 27.5 -319.5t74.5 -251.5q47 -100 105.5 -156.5t121.5 -56.5h3h3 q12 0 24.5 -7.5t12.5 -35.5v-2q0 -27 -12 -34t-25 -7h-3h-3q-92 0 -170 69.5t-135 194.5q-51 115 -80.5 269.5t-29.5 336.5z" />
<glyph unicode=")" horiz-adv-x="503" d="M23 -96q0 29 12 36t24 7h3h4q66 0 124 56t103 157q47 106 74.5 251.5t27.5 319.5q0 172 -27.5 318.5t-74.5 253.5q-45 102 -103.5 158.5t-123.5 56.5h-4h-3q-12 0 -24 6t-12 35t12 36t24 7h3h4q92 0 169.5 -70t135.5 -195q51 -115 80.5 -269.5t29.5 -336.5t-29.5 -336.5 t-80.5 -269.5q-57 -125 -135 -194.5t-170 -69.5h-4h-3q-12 0 -24 7t-12 36z" />
<glyph unicode="*" horiz-adv-x="434" d="M18 1292q0 23 14.5 41.5t37.5 26.5q6 2 12 2h10q8 0 13.5 -1t11.5 -5q4 0 7 -2t5 -4q10 -6 25.5 -11.5t42.5 -5.5h4h3q-24 16 -42.5 21.5t-30.5 5.5h-3q-1 0 -3 2q-6 0 -13.5 2t-13.5 6q-4 2 -9 7l-11 12q-6 10 -10.5 22t-4.5 25q2 16 9.5 32.5t21.5 26.5q10 6 20.5 9 t20.5 1h5h7q14 -2 27.5 -10t22.5 -20q6 -8 9 -15.5t5 -15.5v-4v-4v-4v-5q-2 -4 -2 -6v-4q-2 -6 -3 -13t-1 -15t2 -19.5t6 -28.5q4 14 6 26.5t2 23.5v8v8q-2 4 -2 8v6q0 2 -1 5.5t-1 5.5v5v5v6v6q2 6 5 12.5t7 12.5q10 14 26.5 22t33.5 6q12 0 23.5 -3t19.5 -11 q16 -10 24.5 -26.5t5.5 -32.5q0 -10 -3 -20.5t-11 -20.5q-10 -14 -22.5 -19.5t-24.5 -7.5q0 -2 -1 -2h-3q-2 0 -4 -1l-2 -1q-14 -4 -29.5 -9t-38.5 -18h6h4q27 0 42.5 5.5t25.5 11.5q4 2 6 4t6 4l13 4q6 2 12 2q4 0 9 -1t11 -3q25 -10 39.5 -29.5t14.5 -42.5v-5q0 -3 -2 -5 q0 -2 -1 -5t-1 -5q-8 -27 -28 -39t-42 -12q-6 0 -12.5 1t-12.5 3q-16 4 -24 12t-15 20q0 2 -1 4.5t-3 4.5q-6 12 -16 25.5t-33 33.5q6 -18 13.5 -30.5t15.5 -22.5q4 -4 7 -8.5t7 -8.5l4 -4l4 -4q6 -8 11.5 -17t5.5 -28q0 -29 -21.5 -50.5t-52.5 -21.5t-52.5 21.5t-21.5 50.5 q0 18 5.5 27.5t11.5 17.5l4 4l4 4q4 4 7 8.5t7 8.5q8 10 15.5 21.5t13.5 27.5q-25 -14 -35 -29.5t-16 -27.5q-2 -2 -3 -4.5t-1 -4.5q-6 -12 -14.5 -20t-24.5 -14q-6 -2 -13 -2h-12q-23 0 -41 12t-26 39q-2 6 -3.5 12t-1.5 12z" />
<glyph unicode="+" />
<glyph unicode="," horiz-adv-x="344" d="M43 139q0 53 34 96.5t101 43.5q57 0 98 -41t41 -97q0 -92 -30.5 -151.5t-114.5 -100.5q-6 -4 -12 -5t-10 -1q-18 0 -31 14.5t-10 30.5q0 10 6 20.5t20 16.5q6 2 11.5 5t9.5 7l19 12q9 5 15 11h-7h-7q-66 0 -99.5 44t-33.5 95z" />
<glyph unicode="-" horiz-adv-x="378" d="M29 657q0 16 11 29.5t34 13.5h227q23 0 35 -13t12 -30q0 -16 -12 -29.5t-35 -13.5h-227q-23 0 -34 13.5t-11 29.5z" />
<glyph unicode="." horiz-adv-x="391" d="M66 139q0 29 11 54.5t29 44.5q20 18 46 29.5t53 11.5q29 0 54.5 -11.5t43.5 -29.5q20 -18 30.5 -44t10.5 -54.5t-10 -54.5t-31 -44q-18 -18 -44 -29.5t-54 -11.5q-27 0 -52.5 11.5t-46.5 29.5q-18 18 -29 43.5t-11 54.5z" />
<glyph unicode="/" />
<glyph unicode="0" horiz-adv-x="1204" d="M55 606v25v27q0 13 2 28q16 223 156.5 409.5t388.5 186.5q250 0 391.5 -189.5t153.5 -416.5q2 -12 2 -24v-21v-25q0 -12 -2 -24q-14 -225 -155.5 -411.5t-389.5 -186.5t-389 186t-156 412q-2 12 -2 24zM139 631q0 -20 1 -40t3 -40q23 -182 139.5 -333.5t319.5 -151.5 t319.5 151.5t139.5 333.5q2 20 3 39.5t1 40.5q0 18 -1 37.5t-3 38.5q-20 184 -137 337.5t-322 153.5t-321.5 -153.5t-137.5 -337.5q-2 -18 -3 -38t-1 -38z" />
<glyph unicode="1" horiz-adv-x="391" d="M33 1059q0 10 5 18t13 17l168 141q6 4 12.5 7t14.5 3q16 -2 29.5 -13t13.5 -30v-1155q0 -23 -13.5 -34t-29.5 -11t-29.5 11.5t-13.5 33.5v1063l-97 -82q-8 -6 -15 -9t-15 -3q-16 0 -29.5 13.5t-13.5 29.5z" />
<glyph unicode="2" horiz-adv-x="929" d="M43 893v8v8q4 70 31.5 133.5t79.5 110.5q53 47 128.5 72.5t168.5 25.5q176 0 306 -121.5t130 -302.5q0 -111 -40 -214t-124 -179l-99 -87l-100 -87l-99 -87l-99 -87h217h215q23 0 35 -13.5t12 -29.5t-12.5 -29.5t-34.5 -13.5h-272h-273q-18 0 -29.5 14.5t-11.5 30.5 q0 8 3 15.5t11 13.5l241 212l239 212q72 63 103.5 150t31.5 179q0 145 -104.5 242.5t-245.5 97.5q-137 0 -230.5 -69.5t-93.5 -214.5q0 -88 60.5 -157t152.5 -69q82 0 146.5 42t64.5 130q0 23 13.5 35.5t29.5 12.5t29.5 -12.5t13.5 -35.5q0 -125 -88 -191.5t-197 -66.5 q-61 0 -119.5 23.5t-103.5 69.5q-45 47 -65.5 106.5t-20.5 122.5z" />
<glyph unicode="3" horiz-adv-x="978" d="M45 422q0 23 13.5 34t29.5 11q14 0 27.5 -11.5t13.5 -33.5q0 -152 105.5 -254t254.5 -102q76 0 142.5 27.5t116.5 74.5q51 51 76.5 118.5t25.5 137.5q0 66 -23.5 129t-70.5 115q-41 -41 -99.5 -70t-119.5 -35q-8 -2 -16 -2h-13q-35 0 -70 10.5t-63 30.5 q-31 23 -46.5 51.5t-15.5 59.5q0 29 15.5 57.5t46.5 50.5q29 23 64.5 32t74.5 9q10 0 22.5 -1t22.5 -3q49 -6 96 -23.5t84 -41.5q16 29 23.5 62.5t7.5 66.5v9v9q-4 49 -24.5 96t-55.5 82q-39 41 -92 60.5t-109 19.5h-9q-5 0 -11 -2q-45 -4 -89 -20.5t-79 -47.5 q-8 -8 -15 -10t-16 -2q-16 0 -28.5 13.5t-12.5 29.5q0 4 1 8t3 9q2 4 5.5 8t7.5 8q51 47 114.5 68.5t131.5 21.5h11h11q63 -4 124.5 -30.5t111.5 -73.5q53 -51 78.5 -120t25.5 -140v-19q0 -10 -2 -18q-4 -37 -15.5 -74t-29.5 -70q61 -59 93 -137t36 -158v-11v-9 q0 -86 -32 -168t-97 -145q-63 -63 -147.5 -94t-172.5 -31q-86 0 -167.5 30.5t-147.5 94.5q-57 59 -92 139t-35 174zM397 713q0 -20 21.5 -37t48.5 -23q8 -4 17.5 -5t17.5 -1q57 0 105 20.5t83 55.5q-39 27 -87 40t-101 13q-20 0 -41 -7t-37 -17q-14 -10 -20.5 -19.5 t-6.5 -19.5z" />
<glyph unicode="4" horiz-adv-x="976" d="M45 358q0 6 2 12.5t4 10.5l639 893q4 6 11.5 10t13.5 6h6h4h3h3q12 -4 24.5 -14t12.5 -27v-850h119q23 0 35 -13t12 -30q0 -16 -12.5 -29.5t-34.5 -13.5h-119v-266q0 -23 -13.5 -34t-29.5 -11t-29.5 11.5t-13.5 33.5v266h-596q-18 0 -30.5 14.5t-10.5 30.5zM170 399h512 v717z" />
<glyph unicode="5" horiz-adv-x="987" d="M45 422q0 23 13.5 34t29.5 11t29.5 -11.5t13.5 -33.5q0 -152 104.5 -254t253.5 -102q152 0 256.5 101t104.5 255q0 150 -98.5 252t-249.5 102h-63h-64h-65h-62q-16 0 -29.5 13.5t-11.5 29.5v7q0 3 2 5l137 422q2 8 10.5 15.5t16.5 11.5q2 0 6 1t6 1h418q23 0 34 -13.5 t11 -27.5q0 -16 -11.5 -29.5t-33.5 -13.5h-387l-109 -336h49h50h47h49q186 -2 310 -129t124 -311q0 -186 -129 -312t-318 -126q-186 0 -315 126t-129 312z" />
<glyph unicode="6" horiz-adv-x="1097" d="M49 487q0 10 1 20.5t1 20.5q6 59 26.5 120t59.5 114l83 122l85 120l83 119l85 122q6 8 14.5 13.5t16.5 7.5q18 2 33.5 -10.5t15.5 -30.5q0 -4 -1 -7.5t-1 -7.5q-2 -4 -4 -7t-4 -7l-45 -64l-45 -65l-45 -65l-46 -64q20 8 42 13l45 10q20 4 41.5 6t41.5 2 q170 0 307.5 -109.5t170.5 -290.5q4 -20 6 -41.5t2 -44.5q0 -172 -111.5 -308t-288.5 -167q-20 -4 -42.5 -6t-45.5 -2h-20q-10 0 -21 2q-59 4 -119.5 25.5t-113.5 60.5q-100 72 -153.5 178t-53.5 221zM135 483q0 -94 44 -181t126 -144q53 -37 111.5 -54.5t118.5 -17.5 q94 0 181 44t144 126q37 53 54.5 111.5t17.5 117.5q0 94 -43 182.5t-127 145.5q-43 31 -92 48.5t-101 21.5q-8 2 -16 2h-16q-94 -2 -182.5 -45t-147.5 -127q-37 -51 -54.5 -111t-17.5 -119z" />
<glyph unicode="7" horiz-adv-x="927" d="M45 43q0 4 1 7t1 7q2 4 4 7.5t4 7.5l770 1106h-731q-23 0 -34 13t-11 30q0 16 11.5 29.5t33.5 13.5h813q18 0 30.5 -14.5t12.5 -30.5q0 -6 -2 -12.5t-6 -10.5l-817 -1173q-6 -10 -14.5 -14.5t-16.5 -6.5q-18 -2 -33.5 10.5t-15.5 30.5z" />
<glyph unicode="8" horiz-adv-x="1064" d="M49 489q0 25 3 51.5t9 51.5q10 43 29 86t47 84q33 47 75 84t89 63q-10 27 -15 51.5t-5 49.5q0 104 77.5 180t178.5 74q12 0 23 -1t24 -3q25 -6 48 -15.5t46 -25.5q53 -37 80.5 -93.5t27.5 -115.5q0 -27 -5 -51.5t-15 -49.5q127 -70 188.5 -184.5t61.5 -237.5 q0 -162 -102.5 -303t-295.5 -176l-23 -4q-11 -2 -22 -2q-10 -2 -21 -2h-24q-205 0 -342 148t-137 341zM135 465q4 -86 46 -168t124 -139q53 -37 111.5 -54.5t118.5 -17.5q94 0 181 44t144 126q31 43 48.5 91t21.5 97q2 10 2 20v19q0 109 -55.5 205t-157.5 150 q-33 -37 -77 -56.5t-91 -23.5h-9h-10q-51 0 -99 20.5t-85 59.5q-104 -55 -158.5 -152.5t-54.5 -204.5v-8v-8zM367 1008q0 -8 1 -16.5t3 -14.5q0 -8 3 -16.5t5 -16.5q39 12 78 18.5t78 6.5q12 0 25 -1t26 -1q27 -4 52.5 -9.5t49.5 -13.5q8 16 11 33.5t3 34.5q-2 66 -49 117 t-118 49h-16q-7 0 -15 -2q-63 -10 -100 -59.5t-37 -108.5zM438 872q16 -12 35 -19t37 -9q6 -2 12 -2h13h9q5 0 11 2q18 2 37.5 9t36.5 19q-23 6 -47.5 8.5t-49.5 2.5t-48 -3.5t-46 -7.5z" />
<glyph unicode="9" horiz-adv-x="1097" d="M49 763v21q0 172 111.5 307.5t288.5 165.5l21 5q11 2 24 2q10 2 21 2h22q72 0 141.5 -21.5t132.5 -64.5q102 -70 154.5 -177.5t52.5 -222.5q0 -72 -21.5 -141.5t-64.5 -132.5l-169 -242l-169 -241q-8 -12 -18.5 -17.5t-20.5 -5.5q-14 2 -27.5 13.5t-13.5 29.5q0 6 3 12 l7 15l45 65l45 66l45 63l46 66q-43 -14 -86.5 -22.5t-83.5 -8.5q-168 0 -306.5 108.5t-171.5 288.5l-4 22q-2 11 -2 23q-2 11 -2 22zM135 780q0 -94 44 -181t126 -144q53 -37 111.5 -54.5t118.5 -17.5q94 0 182 44t145 126q35 53 53.5 110.5t18.5 116.5q-2 96 -45 184.5 t-127 145.5q-51 35 -109.5 53.5t-117.5 18.5q-94 -2 -181.5 -45t-146.5 -127q-37 -51 -54.5 -111t-17.5 -119z" />
<glyph unicode=":" horiz-adv-x="391" d="M66 139q0 29 11 54.5t29 44.5q20 18 46 29.5t53 11.5q29 0 54.5 -11.5t43.5 -29.5q20 -18 30.5 -44t10.5 -54.5t-10 -54.5t-31 -44q-18 -18 -44 -29.5t-54 -11.5q-27 0 -52.5 11.5t-46.5 29.5q-18 18 -29 43.5t-11 54.5zM66 508q0 29 11 54.5t29 43.5q20 18 46 29.5 t53 11.5q29 0 54.5 -11t43.5 -30q20 -18 30.5 -43.5t10.5 -54.5t-10 -54.5t-31 -43.5q-18 -18 -44 -29.5t-54 -11.5q-27 0 -52.5 11t-46.5 30q-18 18 -29 43.5t-11 54.5z" />
<glyph unicode=";" horiz-adv-x="391" d="M53 139q0 53 34 96.5t101 43.5q57 0 98.5 -41t41.5 -97q0 -92 -31 -151.5t-115 -100.5q-6 -4 -12 -5t-10 -1q-18 0 -30.5 14.5t-10.5 30.5q0 10 6 20.5t20 16.5q6 2 11.5 5t9.5 7l19 12q9 5 16 11h-7h-8q-66 0 -99.5 44t-33.5 95zM66 508q0 29 11 54.5t29 43.5 q20 18 46 29.5t53 11.5q29 0 54.5 -11t43.5 -30q20 -18 30.5 -43.5t10.5 -54.5t-10 -54.5t-31 -43.5q-18 -18 -44 -29.5t-54 -11.5q-27 0 -52.5 11t-46.5 30q-18 18 -29 43.5t-11 54.5z" />
<glyph unicode="&#x3c;" horiz-adv-x="1206" d="M37 737v4v4q2 14 8 25.5t18 15.5l1037 377q2 0 5 1t5 1q2 2 5 2h5q20 0 31.5 -14t11.5 -31q0 -12 -8 -23.5t-25 -17.5l-921 -338l921 -335q16 -6 24.5 -17.5t8.5 -25.5v-4q-4 -17 -16 -30.5t-31 -11.5h-4h-4q-2 0 -4 1.5t-4 1.5l-1037 380q-12 6 -18 15.5t-8 19.5z" />
<glyph unicode="=" />
<glyph unicode="&#x3e;" horiz-adv-x="1206" d="M33 360v4v3q0 12 8 23t25 18l921 335l-921 338q-16 6 -24.5 17.5t-8.5 23.5q2 18 13 31.5t32 13.5q4 0 9 -1t9 -3l1037 -377q12 -4 18 -14t8 -20v-4v-5q-2 -14 -8 -25t-18 -16l-1037 -380q-4 -2 -8 -3h-8q-20 0 -32.5 13.5t-14.5 27.5z" />
<glyph unicode="?" horiz-adv-x="882" d="M39 1126q0 4 1 9.5t3 9.5q49 133 160.5 215t245.5 82q31 0 61.5 -5t60.5 -16q14 -4 30.5 -10t31.5 -14q98 -47 153.5 -135t55.5 -191q0 -16 -1 -32.5t-5 -32.5q-2 -16 -7.5 -33t-11.5 -33q-20 -55 -59 -103.5t-90 -84.5l-28 -20l-28 -19q-43 -29 -84 -60.5t-77 -66.5 q-4 -4 -14 -16l-19 -23q-4 -4 -7 -9.5t-5 -9.5q-10 -14 -17.5 -28.5t-7.5 -22.5q-2 -8 -4 -15t-2 -13q-2 -8 -2 -16v-15q0 -14 2 -27.5t6 -28.5q2 -4 2 -8v-8q0 -18 -12.5 -29.5t-24.5 -11.5h-3h-3h-4h-2q-12 2 -21.5 10.5t-13.5 22.5q-6 20 -9 39.5t-3 40.5q2 66 29.5 124 t74.5 105q39 39 84 72l90 65q6 4 10.5 7.5t10.5 5.5l16 12l16 12q63 45 98.5 107.5t39.5 130.5v8v8q0 74 -39 140.5t-121 105.5q-12 6 -24.5 11t-24.5 9q-25 8 -49.5 11.5t-48.5 3.5q-106 0 -195.5 -65.5t-130.5 -174.5q-6 -16 -17.5 -23.5t-23.5 -7.5q-16 0 -29.5 11.5 t-13.5 29.5zM203 139q0 29 11 54.5t30 44.5q20 18 45.5 29.5t52.5 11.5q29 0 54.5 -11.5t43.5 -29.5t29.5 -44t11.5 -54.5t-10 -54.5t-31 -44q-18 -18 -43.5 -29.5t-54.5 -11.5q-27 0 -52.5 11.5t-45.5 29.5q-18 18 -29.5 43.5t-11.5 54.5z" />
<glyph unicode="@" horiz-adv-x="1593" d="M72 717q0 299 213 511t512 212t511 -214t214 -513q0 -131 -46 -214t-112 -118q-16 -10 -35.5 -17.5t-38.5 -9.5q-8 -2 -17 -2h-20q-53 0 -101 27t-79 78q-45 -57 -114.5 -88t-143.5 -31q-55 0 -108.5 18.5t-96.5 53.5q-45 39 -66.5 89t-21.5 101q2 76 48 141.5t128 89.5 q20 6 40 9.5t38 3.5q66 0 123 -31t94 -84q6 -8 8.5 -15t2.5 -14q0 -18 -13.5 -29.5t-29.5 -11.5q-8 0 -17.5 5.5t-17.5 15.5q-29 41 -70 59.5t-84 18.5q-63 0 -113.5 -41t-50.5 -119q0 -82 63.5 -126t137.5 -48h7h5q14 0 28.5 2t31.5 6q59 14 109 56t52 106v229 q0 117 -82.5 175.5t-183.5 58.5q-98 0 -180 -58.5t-82 -175.5q0 -23 -13.5 -34t-27.5 -11q-16 0 -29.5 11.5t-13.5 33.5q0 154 108.5 237t241.5 83q35 0 71 -6.5t69 -18.5q88 -33 148 -106.5t58 -188.5v-235q0 -66 38 -109t91 -43q16 0 34 5t34 14q49 27 73.5 77t33.5 103 q4 20 5 39.5t1 38.5q0 262 -188.5 451.5t-450.5 189.5q-264 0 -451.5 -187.5t-187.5 -449.5q0 -264 187 -451.5t452 -187.5q127 0 244.5 49t205.5 137q8 8 17.5 11.5t17.5 3.5q16 0 29.5 -12.5t11.5 -30.5q0 -8 -3 -15.5t-11 -15.5q-102 -100 -235.5 -155.5t-276.5 -55.5 q-299 0 -512 212t-213 511z" />
<glyph unicode="A" horiz-adv-x="1288" d="M37 31q0 4 1 9t3 9l575 1317q8 18 20.5 28.5t25.5 14.5q2 2 6 2h6q16 0 31.5 -12.5t23.5 -34.5l504 -1317q2 -4 3 -9t1 -9q0 -20 -14.5 -30.5t-30.5 -10.5q-12 0 -22.5 6t-16.5 22l-209 527h-586l-237 -529q-6 -14 -16.5 -20t-22.5 -6q-16 0 -30.5 11.5t-14.5 31.5z M393 629h520l-241 649z" />
<glyph unicode="B" horiz-adv-x="974" d="M45 1225q-2 117 81 170t189 53q111 0 196 -79t85 -193q0 -61 -22.5 -120t-69.5 -102l-7 -7q-3 -3 -5 -7l-7.5 -15t-3.5 -14q2 -18 16.5 -30.5t41.5 -16.5q184 -23 288.5 -140.5t104.5 -304t-131 -316.5t-318 -130h-20h-23q-63 2 -124.5 13.5t-118.5 38.5q-14 8 -20.5 18 t-4.5 23q0 16 11.5 28t29.5 12q4 0 10 -1t13 -5q43 -23 90 -31t94 -10q16 -2 32 -2h31q152 0 257.5 106.5t105.5 256.5q0 154 -82 247t-236 111q-61 8 -96 47t-35 86v12q0 5 2 11q4 23 16.5 44t33.5 40q29 29 43 65.5t18 75.5v8v9q0 78 -59.5 132t-135.5 54 q-70 0 -126 -28.5t-56 -108.5v-1180q0 -23 -13.5 -34t-29.5 -11t-29.5 11.5t-13.5 33.5z" />
<glyph unicode="C" horiz-adv-x="1501" d="M49 791q0 289 211 487.5t494 198.5q152 0 273.5 -40t205.5 -114q86 -76 132 -184.5t46 -241.5q0 -195 -140.5 -339t-336.5 -144q-180 0 -319.5 101t-139.5 296q0 8 1 17.5t1 17.5q14 92 85 169t167 77q23 0 35 -13.5t12 -27.5q0 -16 -12 -29.5t-35 -13.5 q-57 0 -102 -46.5t-60 -101.5q-4 -12 -6 -24.5t-2 -24.5q0 -160 116 -236.5t259 -76.5q162 0 276.5 118.5t114.5 280.5q0 115 -38 206t-109 154q-74 66 -180.5 100t-243.5 34q-248 0 -434.5 -172t-186.5 -428q0 -162 48 -298.5t143 -232.5q88 -90 215 -141t288 -51 q170 0 317.5 79.5t244.5 217.5q6 8 12 12t12 6q2 0 6 1t6 1q16 0 29.5 -12.5t13.5 -30.5q0 -6 -3 -12l-7 -15q-106 -154 -274 -242.5t-357 -88.5q-180 0 -322.5 57t-242.5 162q-104 109 -158.5 259.5t-54.5 328.5z" />
<glyph unicode="D" horiz-adv-x="1382" d="M37 51v541v541q0 154 111.5 218t244.5 83q57 8 110.5 10t100.5 2q303 0 520 -212t217 -517q0 -303 -216 -518t-521 -215q-115 0 -225.5 34.5t-202.5 100.5q-6 6 -11 12t-7 12q0 2 -1 6.5t-1 6.5q0 16 12 29.5t31 13.5q6 0 12 -3l14 -8q84 -59 181.5 -90.5t197.5 -31.5 q268 0 459.5 191.5t191.5 459.5q0 270 -191.5 456.5t-459.5 186.5q-39 0 -94 -2t-113 -10q-102 -14 -189 -61.5t-87 -153.5v-541v-541q0 -23 -13.5 -34t-27.5 -11q-16 0 -29.5 11t-13.5 34z" />
<glyph unicode="E" horiz-adv-x="784" d="M35 119v1202q0 49 35.5 84t85.5 35h366q23 0 35 -13.5t12 -29.5t-12 -29.5t-35 -13.5h-366q-14 0 -24.5 -9.5t-10.5 -23.5v-672h483q23 0 35 -13t12 -30q0 -16 -12 -29.5t-35 -13.5h-483v-444q0 -14 10 -23.5t25 -9.5h549q23 0 34 -13.5t11 -29.5t-11.5 -29.5 t-33.5 -13.5h-549q-49 0 -85 35t-36 84z" />
<glyph unicode="F" horiz-adv-x="679" d="M31 43v1278q0 49 34.5 84t84.5 35h454q23 0 34 -13.5t11 -29.5t-11 -29.5t-34 -13.5h-454q-14 0 -23.5 -9.5t-9.5 -23.5v-672h379q23 0 34 -14t11 -31q0 -14 -11.5 -27.5t-33.5 -13.5h-379v-520q0 -23 -13.5 -34t-29.5 -11t-29.5 11t-13.5 34z" />
<glyph unicode="G" horiz-adv-x="1536" d="M70 721q0 150 64.5 281t174.5 229q113 100 255.5 152.5t289.5 56.5h12h13q156 0 304 -53.5t267 -161.5q10 -8 13 -16.5t3 -18.5q0 -16 -13 -29.5t-30 -13.5q-8 0 -15 3t-15 11q-106 96 -241.5 145.5t-277.5 49.5q-137 -2 -270 -48t-239 -141q-96 -86 -152.5 -201.5 t-56.5 -244.5q0 -131 56 -247t153 -202q102 -90 229 -137t258 -51h12h13q137 2 267 47t234 135v268v265q0 14 -9 24.5t-23 10.5h-227h-226q-23 0 -34 13t-11 30q0 16 11 29.5t34 13.5h226h227q49 0 83.5 -36t34.5 -85v-139v-136v-138v-138q0 -2 -1 -6t-3 -11q-2 -2 -3 -5 t-3 -7q-2 0 -3 -2l-1 -2q-119 -106 -268.5 -160.5t-307.5 -54.5h-12h-12q-147 4 -287.5 56.5t-253.5 152.5q-111 98 -175 230t-64 282z" />
<glyph unicode="H" horiz-adv-x="1081" d="M49 43v1354q0 23 13.5 35t29.5 12t29.5 -12.5t13.5 -34.5v-477h811v477q0 23 13.5 35t29.5 12t29.5 -12.5t13.5 -34.5v-1354q0 -23 -13 -34t-30 -11q-16 0 -29.5 11t-13.5 34v793h-811v-793q0 -23 -13 -34t-30 -11q-16 0 -29.5 11t-13.5 34z" />
<glyph unicode="I" horiz-adv-x="167" d="M33 43v1354q0 23 13 35t30 12q16 0 29.5 -12.5t13.5 -34.5v-1354q0 -23 -13.5 -34t-29.5 -11t-29.5 11t-13.5 34z" />
<glyph unicode="J" horiz-adv-x="309" d="M12 -190q0 12 7.5 22t21.5 16q68 27 107.5 87.5t39.5 130.5v1331q0 23 13.5 35t29.5 12t29.5 -12.5t13.5 -34.5v-665v-666q0 -94 -54 -176.5t-144 -120.5q-2 0 -5 -1t-5 -1q-2 -2 -6 -3h-5q-20 0 -31.5 15t-11.5 31z" />
<glyph unicode="K" horiz-adv-x="1155" d="M53 43v339v339v338v338q0 23 13.5 35t29.5 12q14 0 27.5 -12.5t13.5 -34.5v-509v-511l210 262l212 262l210 260l210 262q8 10 17.5 14.5t17.5 4.5q16 0 29.5 -12.5t13.5 -28.5q0 -8 -3 -15.5t-10 -15.5l-561 -698v-9v-10q0 -20 4.5 -37.5t14.5 -35.5q4 -4 7 -8.5t7 -8.5 l102 -109l103 -108l100 -109l103 -108q16 -20 39.5 -29.5t48.5 -9.5q10 0 18 1t17 3q2 0 4 1t4 1h2h4q20 -2 32 -15q10 -11 9 -25v-4v-5v-2q-2 -12 -10.5 -21.5t-24.5 -13.5l-26 -4q-13 -2 -27 -2q-43 0 -83 16.5t-69 49.5l-102 109l-103 108l-102 109l-102 108 q-14 16 -25.5 35.5t-17.5 40.5l-130 -163l-130 -161l-3 -2l-2 -2l-4 -4l-4 -4v-102v-99q0 -23 -13 -34t-28 -11q-16 0 -29.5 11t-13.5 34z" />
<glyph unicode="L" horiz-adv-x="679" d="M31 119v1278q0 23 13 35t30 12q16 0 29.5 -12.5t13.5 -34.5v-1278q0 -14 9 -23.5t24 -9.5h454q23 0 34 -13.5t11 -29.5t-11 -29.5t-34 -13.5h-454q-49 0 -84 35t-35 84z" />
<glyph unicode="M" horiz-adv-x="1339" d="M61 41v673v672q0 27 17.5 42.5t40.5 15.5h5q3 0 5 -2q2 0 5 -1t5 -1q10 0 16.5 -7.5t12.5 -13.5q0 -2 1 -3l3 -3q2 -2 4 -5t4 -5l492 -1204l123 302l123 300l120 302l123 300q6 18 21.5 28.5t31.5 10.5h5h4q23 0 40 -13.5t17 -42.5v-672v-673q0 -23 -13.5 -34t-29.5 -11 t-29.5 11t-13.5 34v609v607l-233 -572l-234 -574q-6 -16 -20.5 -28.5t-34.5 -12.5t-34.5 12t-21.5 29l-117 286l-118 289l-118 287l-118 287v-610v-609q0 -23 -13 -34t-28 -11q-16 0 -29.5 11t-13.5 34z" />
<glyph unicode="N" horiz-adv-x="946" d="M43 25v339v338v338v338q0 29 19.5 45.5t41.5 16.5q16 0 29.5 -8.5t22.5 -24.5l321 -624l320 -625v620v619q0 23 13 35t30 12q16 0 29.5 -12.5t13.5 -34.5v-667v-669q0 -29 -18.5 -43t-41.5 -14h-8q-4 0 -8 2q-12 2 -24.5 11.5t-20.5 25.5l-635 1235v-627v-626 q0 -23 -13.5 -34t-27.5 -11q-16 0 -29.5 11t-13.5 34z" />
<glyph unicode="O" horiz-adv-x="1691" d="M80 736v12q4 133 61.5 262t165.5 227q109 98 253.5 153.5t305.5 55.5q164 0 309.5 -55.5t251.5 -153.5q115 -104 171.5 -239.5t56.5 -276.5v-11v-12q-4 -133 -61.5 -262t-166.5 -227q-111 -100 -251 -152.5t-287 -56.5h-10h-13q-154 0 -299 52t-260 157 q-113 104 -171 240q-56 131 -56 266v10.5v10.5zM164 723q0 -291 215 -464t487 -173t487.5 173t215.5 464t-214 464t-489 173q-272 0 -487 -172t-215 -465z" />
<glyph unicode="P" horiz-adv-x="757" d="M35 43v590v590q0 90 64.5 153.5t152.5 63.5h43h41q162 0 274.5 -114t112.5 -273q0 -156 -114.5 -271.5t-272.5 -115.5q-14 0 -30.5 1t-31.5 5q-16 2 -31.5 6t-31.5 10t-23.5 17.5t-7.5 23.5q0 16 11.5 29.5t29.5 13.5q4 0 9.5 -1t9.5 -3q23 -8 47 -12t49 -4q119 0 211 87 t92 214q0 125 -88 213t-215 88h-41h-43q-55 0 -94 -39t-39 -92v-590v-590q0 -23 -13.5 -34t-27.5 -11q-16 0 -29.5 11t-13.5 34z" />
<glyph unicode="Q" horiz-adv-x="1673" d="M53 734v11q4 133 61.5 262.5t166.5 229.5q109 98 253 153.5t306 55.5q164 0 309 -55.5t252 -153.5q115 -104 171 -239.5t56 -276.5q0 -145 -59.5 -283.5t-179.5 -242.5q96 -43 170.5 -117t113.5 -180v-2q2 -2 3 -7.5t1 -9.5q-2 -20 -15 -32q-11 -10 -25 -9h-5h-4 q-2 0 -4 2q-10 2 -18.5 8.5t-12.5 20.5q-35 98 -111.5 164.5t-172.5 99.5q-102 -70 -223 -102.5t-248 -32.5q-152 0 -297.5 51t-259.5 156q-113 104 -171 239q-56 131 -57 269v10v11zM137 723q2 -143 68.5 -278.5t197.5 -227.5q39 -27 78 -37t78 -10q29 0 58.5 5t60.5 13 q27 6 52 15l50 16q4 2 8.5 3t8.5 3q57 18 122.5 27.5t135.5 9.5q61 0 122.5 -8t118.5 -25q121 92 185 224q62 127 61 263v10v10v12q-4 117 -54 227t-145 199q-98 90 -224 136t-257 50h-11h-11q-137 0 -268.5 -47t-233.5 -139q-96 -88 -145.5 -200t-55.5 -226v-13v-12z M682 98q41 -8 81 -12t79 -4q90 0 179 21.5t171 60.5q-35 6 -70 9t-69 3q-61 0 -120 -9t-112 -26q-12 -4 -23.5 -7t-23.5 -7q-6 -2 -11 -4t-11 -4q-16 -6 -34 -11.5t-36 -9.5z" />
<glyph unicode="R" horiz-adv-x="970" d="M45 43v590v590q0 90 63.5 153.5t153.5 63.5h21h22h21h20q160 0 273.5 -114t113.5 -273q0 -154 -110.5 -268.5t-266.5 -118.5q10 -12 68 -91l123 -169l132 -181l60 -82q18 -27 47 -42t60 -17h6h6h4h4h4h4h2h3h3h1q20 0 31.5 -13.5t11.5 -29.5q0 -14 -9.5 -26.5 t-29.5 -14.5h-16h-13q-55 0 -104 23.5t-82 68.5l-199 270l-197 271q-14 23 -34.5 39t-44.5 24q-18 6 -26.5 17.5t-6.5 25.5q0 16 11 28.5t30 12.5h4h4q2 0 4 -1t4 -1q4 0 7 -1t8 -3q4 -2 7 -3t7 -3q23 -8 47.5 -12t48.5 -4q117 0 209 87t92 214q0 125 -88 213t-213 88h-20 h-21h-22h-21q-55 0 -94 -39t-39 -92v-590v-590q0 -23 -13.5 -34t-27.5 -11q-16 0 -29.5 11t-13.5 34z" />
<glyph unicode="S" horiz-adv-x="899" d="M41 227q0 18 13.5 29.5t29.5 11.5q10 0 18.5 -4t16.5 -14q45 -61 115.5 -106.5t146.5 -55.5q8 0 17.5 -1t17.5 -1q137 0 246.5 90t109.5 234q0 104 -68.5 183t-162.5 112q-8 2 -16.5 5t-16.5 5l-130 46q-65 24 -124 54q-82 43 -133 117t-51 168q0 72 28.5 134t79.5 107 q49 45 110.5 70t125.5 29h11h11q66 0 129.5 -21.5t114.5 -64.5q10 -8 14 -16.5t4 -18.5q0 -18 -13 -31.5t-30 -13.5q-8 0 -15 3t-13 9q-37 29 -80 46.5t-88 19.5q-6 2 -13 2h-12q-53 0 -105.5 -18.5t-92.5 -57.5q-39 -35 -61 -82q-20 -43 -20 -88q0 -39 9 -69q8 -30 26 -58 q18 -27 45 -50.5t60 -39.5q49 -27 102 -46l107 -38q2 -2 4 -2t4 -2q14 -4 27.5 -9.5t27.5 -9.5q121 -39 206 -140t85 -234q0 -178 -135 -294t-307 -116h-14h-13q-98 8 -189 64.5t-149 134.5q-6 8 -8 15t-2 13z" />
<glyph unicode="T" horiz-adv-x="962" d="M45 1397q0 16 11.5 29.5t33.5 13.5h782q23 0 35.5 -13.5t12.5 -29.5t-12.5 -29.5t-35.5 -13.5h-335v-1313q0 -20 -12.5 -30.5t-24.5 -12.5h-3h-3q-16 0 -29.5 11t-13.5 34v1311h-361q-23 0 -34 13.5t-11 29.5z" />
<glyph unicode="U" horiz-adv-x="1001" d="M47 440v957q0 23 13.5 35t29.5 12q14 0 27.5 -12.5t13.5 -34.5v-957q0 -145 105.5 -249.5t250.5 -104.5t250 103.5t105 248.5v959q0 23 13 33t30 10q16 0 29.5 -10.5t13.5 -32.5v-1264q0 -16 8 -30.5t22.5 -22.5t20.5 -18.5t4 -22.5q0 -14 -11 -26.5t-30 -12.5 q-6 0 -12 2l-12 4q-33 18 -54.5 53t-21.5 74v12v13v10v12q-66 -88 -160 -134t-197 -46h-12h-12q-76 4 -150.5 37t-134.5 92q-59 59 -94 140t-35 171z" />
<glyph unicode="V" horiz-adv-x="1206" d="M53 1409q2 20 16 32q11 10 24 9h5h4q2 0 4 -2q10 -2 18.5 -8t12.5 -21l465 -1272l465 1272q6 16 17.5 23.5t23.5 7.5q16 0 29.5 -11.5t13.5 -29.5q0 -4 -1 -9t-3 -9l-504 -1381q-6 -12 -17.5 -18t-25.5 -6q-2 0 -4 1t-4 1q-8 2 -16.5 7t-12.5 15l-506 1381q-2 4 -3 9 t-1 9z" />
<glyph unicode="W" horiz-adv-x="1765" d="M6 1402v7q0 16 12.5 27.5t24.5 13.5h3h3q12 0 23.5 -8t15.5 -25l385 -1245l358 1245q4 14 16.5 21.5t26.5 5.5h4h3q10 -2 20 -8t12 -19l359 -1245l385 1245q6 16 17.5 24.5t25.5 8.5h3q15 -2 28 -13q11 -10 10 -25v-4v-5v-2q0 -2 -1 -4t-1 -4l-428 -1381 q-4 -12 -13.5 -18t-21.5 -6h-2h-4q-14 0 -24.5 6t-14.5 18l-359 1239l-356 -1239q-4 -12 -16 -19q-10 -6 -21 -6q-3 0 -6 1q-14 0 -24.5 6t-14.5 18l-426 1381q-2 4 -2 9z" />
<glyph unicode="X" horiz-adv-x="1169" d="M18 1391v3v3v3v3q2 12 13.5 24.5t31.5 12.5h2h3h3h1q59 0 113.5 -30t84.5 -83l143 -237l140 -238l85 142l85 143l85 141l85 141q4 8 10 12.5t12 6.5q4 2 8.5 3t8.5 1q16 0 29.5 -12.5t13.5 -28.5q0 -6 -2 -12.5t-6 -12.5l-91 -151l-92 -152l-91 -153l-91 -152l181 -305 l182 -307q23 -33 55.5 -51.5t71.5 -18.5h3h3h2q20 0 31.5 -12.5t13.5 -24.5v-3v-3v-3v-3q-2 -12 -13.5 -24.5t-31.5 -12.5h-1h-3h-3h-1q-59 0 -113.5 30.5t-85.5 82.5l-171 287l-169 286l-99 -166l-100 -166l-101 -167l-99 -167q-4 -8 -10.5 -12t-12.5 -6q-4 -2 -8 -2h-8 q-16 0 -29.5 11.5t-13.5 27.5q0 6 3 12t5 12l212 354l212 351l-153 258l-152 258q-20 33 -54 51.5t-73 18.5h-3h-3h-3q-20 0 -31.5 12.5t-13.5 24.5z" />
<glyph unicode="Y" horiz-adv-x="1054" d="M47 1401q0 18 14 31q12 11 28 10h5q10 0 19.5 -6t15.5 -19l397 -725l400 725q6 12 15 18.5t20 6.5h5q15 0 27 -10q14 -12 15 -31q-2 -6 -3 -12.5t-6 -12.5l-430 -782v-551q0 -23 -13 -34t-28 -11q-16 0 -29.5 11t-13.5 34v551l-430 782q-2 6 -5 12.5t-3 12.5z" />
<glyph unicode="Z" horiz-adv-x="952" d="M43 76q0 16 6 32.5t14 30.5l378 607l378 608h-307h-307q-23 0 -34 13t-11 30q0 16 11 29.5t34 13.5h159h156h157h159q37 0 55 -22.5t18 -53.5q0 -6 -1 -12t-3 -13q0 -8 -3 -14t-7 -12l-189 -304l-190 -304l-190 -307l-191 -304q0 -2 -1 -3l-1 -1q0 -2 -1 -3l323 -1h323 q23 0 34 -13.5t11 -29.5t-11 -29.5t-34 -13.5h-328h-329q-20 0 -40 10t-30 31q-4 8 -6 17.5t-2 17.5z" />
<glyph unicode="[" />
<glyph unicode="\" />
<glyph unicode="]" />
<glyph unicode="^" />
<glyph unicode="_" horiz-adv-x="1077" d="M8 -57q0 16 11.5 29.5t33.5 13.5l944 -2q23 2 35 -11.5t12 -29.5t-12 -29.5t-35 -13.5v-2h-944q-23 2 -34 15.5t-11 29.5z" />
<glyph unicode="`" horiz-adv-x="540" d="M45 1569v2v4v3v3q2 12 12.5 24.5t28.5 12.5h8q4 0 6 -2l355 -84q18 -4 26 -16.5t8 -26.5q0 -16 -11 -29.5t-32 -13.5h-3q-1 0 -3 2h-3h-3l-354 86q-16 4 -24.5 13.5t-10.5 21.5z" />
<glyph unicode="a" horiz-adv-x="768" d="M35 485q0 154 108.5 237t241.5 83q35 0 71 -6t68 -19q88 -33 148.5 -106.5t60.5 -188.5v-221v-221q0 -23 -13 -34t-30 -11q-16 0 -29.5 11t-13.5 34v20v21q-45 -41 -104.5 -62.5t-122.5 -21.5q-55 0 -108.5 17.5t-94.5 54.5q-41 35 -62.5 79t-25.5 89v11v9q0 76 45 141.5 t129 92.5q10 4 19.5 5t19.5 3t19 2h20q66 0 123 -30t96 -83q2 -4 4 -7t4 -7q0 -4 1 -7t1 -8q-2 -18 -15 -29t-30 -11q-8 0 -17 5t-18 15q-27 37 -65.5 57.5t-81.5 20.5q-14 0 -27.5 -2t-27.5 -6q-55 -16 -85 -59.5t-30 -92.5q0 -33 14.5 -65.5t42.5 -57.5q31 -27 71 -40 t83 -13q45 0 87 15.5t75 41.5q29 25 45 57.5t16 69.5v217q0 117 -82 175.5t-182 58.5q-29 0 -56.5 -4t-54.5 -15q-63 -25 -107 -78t-44 -137q0 -23 -13.5 -34t-29.5 -11t-29.5 11t-13.5 34z" />
<glyph unicode="b" horiz-adv-x="909" d="M41 1260q0 14 10 27q12 15 31 16q6 0 12 -1.5t12 -5.5q33 -18 52.5 -50t19.5 -68v-263v-264q53 72 130 110t157 42h8h8h12h11q68 -4 133 -34t119 -85q57 -57 86 -132q27 -70 26 -142v-11v-11v-11q-4 -70 -31.5 -137.5t-80.5 -120.5q-57 -57 -128 -88t-147 -31h-17 q-9 0 -18 2q-43 4 -86 18.5t-81 38.5q-12 6 -17.5 15.5t-5.5 19.5q0 16 12.5 30.5t30.5 14.5q4 0 8 -1t8 -3q2 0 4.5 -1t4.5 -3q37 -23 76.5 -34t80.5 -11q59 0 114.5 23.5t98.5 68.5q45 47 68 106q21 54 21 109q0 5 -1 10q0 59 -21.5 118t-66.5 104q-45 47 -100 69.5 t-115 22.5q-57 0 -112.5 -22.5t-100.5 -69.5q-45 -45 -66.5 -103.5t-21.5 -124.5v-86v-84v-86v-86q0 -23 -13 -34t-30 -11q-16 0 -29.5 11.5t-13.5 33.5v282v279v280v282q0 14 -7 25t-19 18q-12 6 -18 15q-7 13 -7 24z" />
<glyph unicode="c" horiz-adv-x="858" d="M39 401q0 86 31.5 161t91.5 130q57 51 135 81t176 30q131 0 238.5 -93.5t107.5 -228.5q0 -68 -22.5 -125t-63.5 -98q-37 -35 -85 -56.5t-99 -25.5q-8 -2 -15 -2h-16q-43 0 -83 11.5t-75 37.5q-39 29 -61.5 71t-28.5 87q-2 6 -2 13v14q0 43 17.5 82.5t56.5 70.5 q8 6 15.5 8t13.5 2q18 0 30.5 -13t12.5 -30q0 -8 -4 -17t-15 -17q-23 -18 -33 -41t-10 -47q0 -33 16.5 -63t43.5 -52q23 -16 50 -24.5t56 -8.5h7h7q39 2 77 18.5t63 42.5q29 29 45 70t16 92q0 96 -75.5 163t-168.5 73h-8h-8q-82 0 -145.5 -22.5t-108.5 -63.5 q-45 -43 -69.5 -102.5t-24.5 -127.5q0 -137 102.5 -226t233.5 -89h19q9 0 20 2q57 4 113.5 24.5t101.5 59.5q4 4 8 7t8 3q4 2 8 2h9q16 0 28 -12t10 -29q0 -8 -3 -16t-13 -16q-57 -53 -133 -80t-156 -31h-11h-9q-166 0 -294 114.5t-128 286.5z" />
<glyph unicode="d" horiz-adv-x="995" d="M45 401q0 78 30.5 152t88.5 131q55 55 123.5 85t138.5 34h12h13q90 0 175 -39t144 -117v274v273q0 27 10.5 51.5t30.5 42.5q4 4 8 7t8 3q4 2 8.5 3.5t8.5 1.5q16 0 28.5 -12.5t12.5 -28.5q0 -4 -1 -8.5t-3 -8.5q0 -4 -3.5 -8t-7.5 -8q-6 -8 -10 -16.5t-4 -18.5v-262v-260 v-262v-263q0 -20 14.5 -34.5t34.5 -14.5q23 0 35 -13t12 -30q0 -16 -12 -29.5t-35 -13.5q-61 0 -97 43t-38 101q-59 -76 -145 -116t-176 -40q-76 0 -151 29.5t-134 87.5q-59 59 -89 133.5t-30 150.5zM131 401q0 -131 94 -223t226 -92q127 0 222 88t97 219q2 133 -90 228.5 t-229 95.5q-131 0 -225.5 -91.5t-94.5 -224.5z" />
<glyph unicode="e" horiz-adv-x="921" d="M41 401q0 172 128 287t296 115q86 0 164 -34t141 -91q16 -14 27.5 -33.5t11.5 -42.5v-5q0 -3 -2 -5q0 -4 -1 -6t-1 -6q-8 -23 -29.5 -35.5t-44.5 -12.5h-103h-104h-103h-104q-23 0 -34 13.5t-11 29.5q0 14 11.5 27.5t33.5 13.5h197h195q-51 47 -112.5 74t-131.5 27 q-131 0 -234.5 -89t-103.5 -227q0 -137 103.5 -226t234.5 -89q115 0 210 69.5t120 184.5q4 20 16 28.5t27 8.5q16 0 29 -11q12 -10 12 -27v-4v-4v-1v-3v-3q-31 -145 -150 -234.5t-264 -89.5q-168 0 -296 114.5t-128 286.5z" />
<glyph unicode="f" horiz-adv-x="890" d="M48 -52q5 9 15 15q23 14 32 34.5t9 45.5v230v231h-8q-23 0 -34 13t-11 30q0 16 11.5 29.5t33.5 13.5h8v160v157q0 90 29 158t74 117q59 59 135 90q71 29 147 29q5 0 11 -1h7h5q98 -2 189.5 -49t142.5 -137q2 -2 4 -6t2 -6q2 -4 2 -7v-8q-2 -18 -15.5 -29t-29.5 -11 q-10 2 -19.5 7t-17.5 17q-41 72 -115.5 109t-156.5 37h-10h-9q-57 -4 -113.5 -28t-97.5 -67q-35 -37 -56.5 -90t-21.5 -125v-157v-160h138q23 0 35 -13.5t12 -29.5t-12.5 -29.5t-34.5 -13.5h-138v-231v-230q0 -45 -20 -86t-61 -66q-2 -2 -6.5 -4t-6.5 -2q-4 -2 -7 -2h-7 q-18 0 -31 15q-11 12 -10 27q0 10 7 23z" />
<glyph unicode="g" horiz-adv-x="954" d="M43 401q0 96 35 171t92 126q59 53 136 79t157 26q12 0 23.5 -1t21.5 -1q23 -2 46.5 -7.5t43.5 -11.5q57 -16 108.5 -48t94.5 -79q2 31 8 62t20 57q4 12 12.5 18.5t18.5 10.5h4h4q16 -2 31 -13q13 -10 13 -26q0 -2 -0.5 -6.5t-0.5 -6.5q0 -5 -4 -12q-6 -12 -9 -23t-7 -24 q-2 -12 -3 -23.5t-1 -23.5v-324v-325q0 -78 -34 -147.5t-99 -114.5q-41 -27 -88.5 -40t-96.5 -13q-25 0 -49 4t-47 10q-18 6 -26.5 17.5t-8.5 25.5t11.5 27.5t29.5 13.5h4h4q2 0 4.5 -1t4.5 -1q18 -4 36.5 -7t36.5 -3q37 0 72 10t66 28q49 33 71.5 83.5t22.5 107.5v253v257 q-37 78 -96.5 126t-131.5 68q-27 8 -56.5 12.5t-57.5 4.5q-63 0 -124 -20.5t-108 -63.5q-45 -39 -71.5 -96.5t-26.5 -135.5q0 -137 102.5 -226t233.5 -89q16 0 32.5 1t32.5 5q41 6 82 22.5t74 45.5q8 6 15.5 9t15.5 3q16 0 29.5 -13.5t13.5 -29.5q0 -8 -4 -17.5t-15 -17.5 q-43 -37 -96 -58.5t-110 -29.5q-16 -4 -35 -5t-35 -1q-168 0 -295 114.5t-127 286.5z" />
<glyph unicode="h" horiz-adv-x="843" d="M39 1260q0 14 10 27q12 15 31 16q6 0 12 -1.5t12 -5.5q33 -18 51.5 -50t18.5 -68v-123v-123v-125v-123q53 59 126 88t149 29q37 0 73.5 -7.5t69.5 -21.5q90 -35 152.5 -118t62.5 -210v-200v-201q0 -23 -13.5 -34t-29.5 -11t-29.5 11t-13.5 34v201v200q0 121 -79 196 t-193 75q-117 0 -195 -74t-80 -195v-101v-99v-102v-101q0 -20 -13.5 -31.5t-27.5 -11.5q-16 0 -29.5 11.5t-13.5 31.5v284v283v284v284q0 14 -7 25t-20 18q-12 6 -17 15q-7 13 -7 24z" />
<glyph unicode="i" horiz-adv-x="190" d="M47 123v160v159v158v160q0 23 13.5 35t29.5 12t29.5 -12.5t13.5 -34.5v-160v-158v-159v-160q0 -14 6 -25.5t18.5 -17.5t18.5 -15q6 -10 6.5 -25t-10.5 -27q-12 -13 -31 -13q-6 0 -12 2l-12 4q-33 16 -51.5 48t-18.5 69zM47 1022v238q0 23 13.5 34t29.5 11t29.5 -11.5 t13.5 -33.5v-238q0 -23 -13.5 -34t-29.5 -11t-29.5 11t-13.5 34z" />
<glyph unicode="j" horiz-adv-x="503" d="M16 -262q0 14 11.5 27.5t29.5 13.5h4h5q2 0 4 -1t4 -1q18 -4 36.5 -7t36.5 -3q37 0 72 10t66 28q49 33 71.5 83.5t22.5 107.5v764q0 23 13.5 35t29.5 12t29.5 -12.5t13.5 -34.5v-192v-191v-192v-189v-2q0 -76 -34 -145.5t-99 -114.5q-41 -27 -88 -40t-97 -13q-25 0 -49 4 t-47 10q-18 6 -26.5 17.5t-8.5 25.5zM391 1022v238q0 23 13.5 34t29.5 11q14 0 27.5 -11.5t13.5 -33.5v-238q0 -23 -13 -34t-28 -11q-16 0 -29.5 11t-13.5 34z" />
<glyph unicode="k" horiz-adv-x="839" d="M41 1260q0 14 10 27q12 15 31 16q6 0 12 -1.5t12 -5.5q33 -18 52.5 -50t19.5 -68v-239v-241q47 53 110.5 79t129.5 26q63 0 122.5 -23.5t106.5 -70.5q49 -47 72.5 -106.5t23.5 -121.5q-2 -96 -58 -183t-161 -122q18 -43 54 -65.5t77 -24.5h5h6h8h6q31 4 59.5 18.5 t48.5 40.5q6 8 12.5 12.5t12.5 6.5q2 0 6 1t6 1q16 -2 30 -14q12 -11 12 -25q0 -2 -1 -4v-7q0 -3 -2 -7t-3 -7.5t-5 -7.5q-33 -43 -80 -66.5t-96 -27.5h-8h-8q-37 0 -73 11.5t-67 33.5q-31 23 -53 53.5t-35 67.5q-2 6 -3 12t-1 10q0 25 15.5 42.5t41.5 25.5q80 25 124 89.5 t44 137.5v13q0 6 -2 12q-4 37 -20.5 72.5t-46.5 66.5q-35 35 -80 52.5t-92 17.5h-12q-5 0 -11 -2q-39 -2 -76.5 -19.5t-68.5 -48.5q-31 -29 -50.5 -68.5t-19.5 -84.5v-151v-150v-75v-75q0 -16 -5 -29.5t-38 -13.5t-38 13.5t-5 29.5v284v283v284v284q0 14 -7 25t-19 18 q-12 6 -18 15q-7 13 -7 24z" />
<glyph unicode="l" horiz-adv-x="202" d="M8 1251v5v6q0 16 11.5 28.5t29.5 12.5q4 0 10.5 -1.5t12.5 -5.5q33 -18 52 -50t19 -68v-284v-284v-283v-284q0 -23 -13 -34t-30 -11q-16 0 -29.5 11t-13.5 34v284v283v284v284q0 14 -7 25t-17 18q-10 6 -16.5 14t-8.5 16z" />
<glyph unicode="m" horiz-adv-x="1351" d="M37 764q0 16 11 28.5t30 12.5q4 -2 10 -3t12 -5q29 -14 47.5 -40t22.5 -59q45 47 105.5 73t123.5 30h10h9q86 0 163.5 -40t123.5 -118q45 78 123.5 118t164.5 40q35 0 68 -6.5t65 -20.5q84 -33 140.5 -108.5t56.5 -194.5v-213v-215q0 -23 -13.5 -34t-27.5 -11 q-16 0 -29.5 11t-13.5 34v215v213q0 90 -42 145.5t-101 79.5q-16 6 -34 10.5t-36 6.5q-8 2 -17 2h-18q-27 0 -52.5 -4t-47.5 -15q-59 -25 -101 -80t-42 -145v-213v-215q0 -23 -13.5 -34t-29.5 -11t-29.5 11t-13.5 34v215v213q0 90 -41 145.5t-103 79.5q-25 10 -50.5 15.5 t-51.5 5.5q-94 0 -168 -62.5t-76 -171.5v-145v-148v-73v-74q0 -23 -13.5 -34t-29.5 -11t-29.5 11t-13.5 34v317v320q0 14 -7 25.5t-18 17.5q-14 8 -20 18.5t-4 22.5z" />
<glyph unicode="n" horiz-adv-x="843" d="M39 763q0 15 10 28q12 14 31 14q6 -2 12 -3t12 -5q31 -16 49.5 -47t20.5 -66q53 59 126 88t149 29q37 0 73.5 -7.5t69.5 -21.5q90 -35 152.5 -118t62.5 -210v-200v-201q0 -23 -13.5 -34t-29.5 -11t-29.5 11t-13.5 34v201v200q0 98 -46 161t-114 89q-27 10 -56.5 16.5 t-58.5 4.5q-29 0 -57.5 -5t-54.5 -16q-63 -27 -110.5 -86t-49.5 -151v-104v-103v-34v-36v-68v-69q0 -20 -13.5 -31.5t-29.5 -11.5t-29.5 11.5t-13.5 31.5v159q0 79 2 158v160v160q0 14 -7 25.5t-20 17.5q-12 6 -18 15q-6 10 -6 25z" />
<glyph unicode="o" horiz-adv-x="886" d="M41 401q0 170 123 286t291 116q166 0 289.5 -116t123.5 -286q0 -168 -122.5 -284.5t-290.5 -116.5q-166 0 -290 116.5t-124 284.5zM127 401q0 -133 98.5 -224t229.5 -91q133 0 231 90t98 225q0 133 -98 224.5t-231 91.5q-131 0 -229.5 -91.5t-98.5 -224.5z" />
<glyph unicode="p" horiz-adv-x="872" d="M41 760q0 16 11 28.5t30 12.5q4 -2 10 -3t12 -5q33 -16 52.5 -48t19.5 -69v-5v-5v-7v-6q55 72 131 109q72 35 147 35h9q72 0 139.5 -29t122.5 -88q53 -59 81 -133q26 -69 26 -141q0 -5 -1 -11v-11v-11q-4 -70 -30.5 -137.5t-75.5 -120.5q-53 -57 -121.5 -87t-142.5 -30 q-49 0 -97.5 13.5t-93.5 41.5q-6 6 -11 12.5t-7 12.5q-2 2 -2 6v6q0 16 12 29.5t29 13.5q4 0 7 -1t7 -1q2 -2 6 -4t6 -4q35 -20 71 -32q30 -10 61 -9h12q55 0 108.5 22.5t92.5 67.5q43 47 64.5 106.5t21.5 120.5v12v11q-4 53 -26 106.5t-60 94.5q-37 41 -84.5 63.5 t-94.5 26.5h-11h-11q-55 0 -107.5 -22.5t-93.5 -67.5q-39 -43 -61.5 -100.5t-22.5 -123.5v-429v-429q0 -23 -13 -34t-30 -11q-16 0 -29.5 11.5t-13.5 33.5v214v214v214v214v140v139q0 14 -7 25.5t-17 17.5q-14 8 -20.5 18.5t-4.5 22.5z" />
<glyph unicode="q" horiz-adv-x="872" d="M41 399v12v11q4 70 30.5 137.5t75.5 120.5q51 55 120 87t145 32q84 0 158.5 -39t125.5 -107v6v7v5v5q0 37 18.5 68.5t51.5 48.5q6 4 12 5t13 1q18 0 30 -15q11 -12 11 -26t-7 -24q-6 -9 -18 -15t-18.5 -17.5t-6.5 -25.5v-567v-568q0 -23 -13 -34t-30 -11 q-16 0 -29.5 11.5t-13.5 33.5v147v146q2 37 2 73v73v216q0 110 -2 220q-2 115 -84 206t-200 91q-127 0 -207 -97.5t-80 -218.5q0 -66 23.5 -124t62.5 -101q41 -45 94 -69q49 -22 100 -21h9q37 0 72.5 10t68.5 31q4 2 7 4t7 2q4 2 8 2h7q16 0 28.5 -13.5t12.5 -29.5 q-2 -8 -7.5 -17.5t-15.5 -17.5q-35 -23 -74 -37t-79 -16q-10 0 -19.5 -1t-19.5 -1q-72 0 -140.5 29.5t-122.5 87.5q-53 59 -80 134q-26 70 -26 140v10z" />
<glyph unicode="r" horiz-adv-x="589" d="M26 763q0 15 11 28q12 14 31 14q6 -2 12 -3t12 -5q35 -18 52.5 -51t19.5 -72q41 59 95 94t114 35q84 0 136 -51.5t52 -137.5v-2v-1q-2 -77 -58.5 -127t-123.5 -50h-3h-3q-33 0 -66 13.5t-59 41.5q-4 4 -6 9l-4 8q-2 4 -2 8v8q0 16 13 28.5t30 12.5q4 0 8 -1t8 -3t8 -5 t8 -7q14 -14 30.5 -21.5t33.5 -7.5q39 0 69.5 26.5t32.5 67.5q0 51 -26.5 78t-77.5 27q-39 0 -76 -25.5t-66 -68.5q-31 -45 -49 -106.5t-18 -133.5v-85v-85v-85v-85q0 -23 -13.5 -34t-29.5 -11t-29.5 11t-13.5 34v317v320q0 14 -7.5 25.5t-19.5 17.5t-18 15q-7 10 -7 25z " />
<glyph unicode="s" horiz-adv-x="585" d="M27 143q0 16 13 28.5t30 12.5q10 0 18 -4t16 -14q23 -29 58 -48.5t74 -27.5q10 -2 19 -3t19 -1t20.5 1t20.5 3q53 8 99.5 40t56.5 85q2 6 2 12v11q0 47 -36 76.5t-81 41.5q-2 2 -5 3t-5 1q-18 6 -36.5 9.5t-37.5 7.5q-2 0 -3 1l-1 1q-20 2 -40.5 7t-39.5 11 q-66 25 -100.5 76t-34.5 111q0 35 11.5 69.5t37.5 65.5q31 37 77 60.5t108 23.5q63 0 116.5 -15.5t104.5 -54.5q6 -4 10 -11t6 -13q2 -2 2 -6v-7q0 -16 -12 -28.5t-31 -12.5q-6 0 -13 2t-15 9q-39 29 -79 40t-89 11q-39 0 -70 -14.5t-49 -36.5q-14 -18 -22.5 -40t-8.5 -44 v-9q0 -4 2 -8q0 -6 1 -10t3 -8q14 -43 54.5 -60.5t85.5 -25.5q6 -2 14 -3t16 -3q14 -2 29.5 -5.5t28.5 -7.5q76 -20 132 -73.5t56 -130.5q0 -8 -1 -17.5t-3 -19.5q-16 -88 -90 -139.5t-158 -59.5q-8 -2 -16 -2h-17q-10 0 -22 1t-23 3q-55 8 -105 37t-85 70q-2 4 -5 8t-3 8 q-2 4 -3 8t-1 8z" />
<glyph unicode="t" horiz-adv-x="534" d="M27 547q0 14 11 27.5t34 13.5h46h44v92v92v91v91q0 23 13 35t30 12q16 0 29.5 -12t13.5 -35v-91v-91v-92v-92h67h66q23 0 35 -13.5t12 -27.5q0 -16 -12.5 -29.5t-34.5 -13.5h-66h-67v-151v-148q0 -45 22.5 -76t63.5 -41q4 0 8 -1t8 -1q4 -2 8 -2h9q33 0 61.5 14.5 t42.5 40.5q8 14 18.5 19.5t20.5 5.5q16 0 29.5 -12.5t13.5 -28.5q0 -6 -2 -12.5t-6 -12.5q-29 -49 -79 -73.5t-104 -24.5h-9h-9q-35 4 -68.5 19.5t-60.5 41.5q-25 27 -39 63t-14 81v148v151h-44h-46q-23 0 -34 13.5t-11 29.5z" />
<glyph unicode="u" horiz-adv-x="772" d="M35 763q0 15 10 28q12 14 31 14q6 -2 12 -3t12 -5q29 -14 46.5 -43t17.5 -62v-385q0 -111 69.5 -166t151.5 -55q84 0 153.5 55.5t69.5 165.5v453q0 23 13.5 35t29.5 12t29.5 -12.5t13.5 -34.5v-649q0 -8 4 -17.5t13 -13.5q14 -8 20 -18.5t4 -22.5q0 -14 -11 -26.5 t-30 -12.5q-4 0 -10 2l-12 4q-25 12 -41.5 34.5t-20.5 49.5q-45 -45 -103 -66.5t-122 -21.5q-115 0 -211 77t-96 228v385q0 10 -4 18.5t-15 12.5q-12 6 -18 15q-6 10 -6 25z" />
<glyph unicode="v" horiz-adv-x="727" d="M33 761v5q0 18 14 30q12 10 26 9h5h4h4q10 -4 18.5 -10.5t12.5 -18.5l248 -635l245 635q6 16 17.5 22.5t23.5 6.5q16 0 29.5 -11.5t13.5 -29.5q0 -4 -1 -9t-3 -10l-287 -737q-6 -10 -17 -16t-24 -6q-12 0 -23 6t-15 16l-287 737q0 2 -1 5.5t-1 5.5q-2 2 -2 5z" />
<glyph unicode="w" horiz-adv-x="1294" d="M24 763q0 15 11 28q12 14 31 14q6 -2 12 -3t12 -5q29 -14 46.5 -43t17.5 -62v-97v-95v-96v-97q0 -100 63.5 -160.5t157.5 -60.5q96 0 159.5 60.5t63.5 160.5v453q0 23 13.5 35t29.5 12q14 0 27.5 -12.5t13.5 -34.5v-453q0 -96 63.5 -158.5t159.5 -62.5h5h8q78 4 143 57.5 t65 155.5v461q0 23 13.5 35t29.5 12t29.5 -12.5t13.5 -34.5v-649q0 -8 5.5 -17.5t13.5 -13.5q12 -6 18 -15.5t6 -19.5q0 -3 1 -5q0 -15 -11 -27q-12 -13 -31 -13q-6 0 -12 2l-12 4q-25 12 -41 34.5t-21 49.5q-45 -45 -103 -66.5t-120 -21.5q-78 0 -150.5 36t-113.5 105 q-43 -70 -115.5 -106.5t-152.5 -36.5q-31 2 -61.5 7t-59.5 18q-78 33 -131 103.5t-53 178.5v97v96v95v97q0 10 -4.5 18.5t-14.5 12.5q-12 6 -18 15q-7 10 -7 25z" />
<glyph unicode="x" horiz-adv-x="829" d="M37 754v3v3v3v3q2 12 13 24.5t32 12.5h3h3h7h5q37 -2 72 -19.5t55 -48.5l42 -58l42 -59l44 -60l42 -58l53 70l52 73l50 71l52 70q6 8 12.5 12.5t12.5 6.5q2 0 6 1t6 1q16 0 29.5 -12.5t13.5 -30.5q0 -6 -3 -12l-7 -15l-57 -77l-56 -76l-56 -78l-56 -78l56 -78l56 -76 l55 -77l56 -78q8 -12 22.5 -19.5t28.5 -9.5q4 -2 8 -2h8h3h3q23 0 35.5 -14.5t12.5 -30.5q0 -14 -11.5 -27.5t-33.5 -13.5h-4h-5h-7h-5q-37 2 -69.5 19.5t-53.5 48.5l-103 143l-104 143l-123 -168l-122 -168q-4 -6 -11.5 -11t-13.5 -7h-5h-7q-18 0 -31.5 11.5t-11.5 27.5v7 q0 3 2 7t4 7t4 8l65 90l66 90l66 90l65 90l-46 65l-46 64l-48 65l-46 64q-8 12 -22.5 19.5t-29.5 9.5q-4 2 -8 2h-8h-3h-3h-2q-20 0 -31.5 12.5t-13.5 24.5z" />
<glyph unicode="y" horiz-adv-x="724" d="M32 763q0 15 11 28q12 14 31 14q6 -2 12 -3t12 -5q29 -14 46.5 -43t17.5 -62v-97v-95v-96v-97q0 -111 69.5 -166t151.5 -55q84 0 153.5 55.5t69.5 165.5v453q0 23 13.5 35t29.5 12t29.5 -12.5t13.5 -34.5v-766q0 -76 -33.5 -145.5t-101.5 -114.5q-35 -23 -75 -36t-81 -15 q-6 -2 -13 -2h-13h-17q-8 0 -16 2q-16 2 -32.5 5t-33.5 7q-16 6 -24 17.5t-8 25.5t11 27.5t30 13.5h4h4q2 0 4 -1t4 -1q18 -4 36.5 -7t37.5 -3q74 0 137 38.5t84 114.5q8 23 10 47.5t2 48.5v19v18q-2 8 -2 18v17q-45 -43 -103.5 -64.5t-119.5 -21.5q-115 0 -211 77t-96 228 v97v96v95v97q0 10 -4 18.5t-15 12.5q-12 6 -18 15q-7 10 -7 25z" />
<glyph unicode="z" horiz-adv-x="768" d="M35 45q0 8 2 14.5t6 10.5l132 160l132 163l131 163l131 161h-200h-203q-12 0 -23.5 -6t-17.5 -19q-6 -12 -15.5 -18t-19.5 -6q-16 -2 -30.5 10t-14.5 31q0 6 2 12l4 12q16 33 48 51.5t67 18.5h123h125h123h122q18 0 30.5 -14.5t12.5 -30.5q0 -6 -3 -12.5t-7 -12.5 l-131 -161l-131 -162l-133 -163l-131 -161h183h181q39 0 71 18.5t50 51.5q8 14 18.5 20t20.5 4q16 0 28.5 -11t12.5 -30q0 -4 -1 -10t-5 -12q-29 -53 -81 -85t-114 -32h-226h-226q-18 0 -30.5 14.5t-12.5 30.5z" />
<glyph unicode="{" />
<glyph unicode="|" />
<glyph unicode="}" />
<glyph unicode="~" />
<glyph unicode="&#xa1;" horiz-adv-x="391" d="M61 897q0 29 10.5 54.5t30.5 43.5q18 18 44 29.5t55 11.5t53.5 -11t44.5 -30q18 -18 29.5 -43.5t11.5 -54.5t-11.5 -54.5t-29.5 -43.5q-20 -18 -45 -29.5t-53 -11.5q-29 0 -54.5 11t-44.5 30q-20 18 -30.5 43.5t-10.5 54.5zM158 -358v1030q0 23 13 35t30 12 q14 0 27.5 -12.5t13.5 -34.5v-1032q0 -20 -13.5 -33t-27.5 -13q-16 0 -29.5 12.5t-13.5 35.5z" />
<glyph unicode="&#xa2;" horiz-adv-x="858" d="M39 754q0 158 97 264t251 129v126v124q0 23 13.5 35t29.5 12q14 0 27.5 -12.5t13.5 -34.5v-61v-60v-61v-60q131 0 239.5 -93t108.5 -231q0 -23 -14 -34t-31 -11q-14 0 -27.5 11.5t-13.5 33.5q0 96 -74.5 163t-164.5 75h-12h-11v-633q66 2 129.5 22.5t114.5 65.5 q4 4 8 7.5t8 3.5q4 2 8 2h9q16 0 27 -13.5t11 -29.5q0 -4 -1 -8.5t-3 -8.5t-5 -8t-7 -8q-55 -51 -129 -78t-149 -31h-12h-9v-78v-77v-78v-78q0 -23 -13.5 -34t-27.5 -11q-16 0 -29.5 11t-13.5 34v80v80v79v78q-143 25 -245.5 135.5t-102.5 260.5zM125 754q0 -115 75.5 -201 t186.5 -109v617q-117 -20 -189.5 -103t-72.5 -204z" />
<glyph unicode="&#xa3;" horiz-adv-x="679" d="M31 707q0 16 11 29.5t34 13.5h15h15q-33 41 -51 92t-18 102q0 35 9 69t28 64q41 72 109.5 106t144.5 34h17q9 0 17 -3q35 -4 69 -15t65 -30q57 -33 95 -93t52 -124q2 -10 4 -19t2 -20v-3v-3q-2 -20 -13 -31.5t-26 -13.5h-3h-3q-14 2 -26.5 12.5t-14.5 30.5q0 10 -2 21 l-4 20q-12 45 -38.5 86t-65.5 64q-29 16 -62 25t-67 9q-51 0 -100.5 -23.5t-78.5 -72.5q-12 -20 -18 -43.5t-6 -48.5v-9q0 -5 2 -9q4 -35 18.5 -69t36.5 -60l21 -24q10 -11 18 -21h44h44h44h44q23 0 34 -13.5t11 -29.5t-11 -29.5t-34 -13.5h-27h-26h-28h-27q6 -8 12 -17.5 l12 -19.5q20 -33 30.5 -68t10.5 -70q0 -8 -1 -16t-1 -16q-4 -25 -13 -48.5t-26 -46.5q6 -2 12.5 -3t14.5 -5q16 -4 33.5 -7t38.5 -3h4h4q45 2 86 21.5t57 62.5q6 16 17.5 23.5t23.5 7.5q16 0 29.5 -11.5t13.5 -29.5q0 -4 -1 -9.5t-3 -9.5q-25 -70 -89.5 -103.5t-135.5 -35.5 h-4h-4q-25 0 -49.5 3t-47.5 11q-16 6 -33.5 11.5t-35.5 5.5q-8 0 -15.5 -1t-15.5 -5q-10 -4 -22.5 -8.5t-26.5 -8.5h-3h-3q-2 -2 -3 -2h-4q-20 2 -31.5 15.5t-9.5 29.5q0 14 9.5 25.5t27.5 15.5q51 10 86 48t35 92v3v3q-2 41 -23.5 77.5t-47.5 69.5q-4 4 -7.5 9t-7.5 10h-25 h-26h-26h-25q-23 0 -34 13.5t-11 29.5z" />
<glyph unicode="&#xa4;" horiz-adv-x="956" d="M43 676q0 16 11.5 29.5t33.5 13.5h48h46q0 4 -1 8t-1 10v8v9v8q0 4 2 8v8v8h-46h-48q-23 0 -34 13.5t-11 29.5t11.5 29.5t33.5 13.5h57h56q41 127 151.5 205t243.5 78q61 0 120.5 -17.5t110.5 -52.5v32v30q0 23 13.5 35t29.5 12t29.5 -12.5t13.5 -34.5v-77v-77 q0 -18 -14 -29.5t-31 -11.5q-8 0 -15 3t-13 10q-47 51 -110.5 77.5t-133.5 26.5q-98 0 -182 -53t-123 -144h246h245q23 0 35 -13t12 -30q0 -16 -12 -29.5t-35 -13.5h-128h-128h-129h-129q0 -4 -1 -8t-1 -8v-10v-8v-9q0 -4 2 -8v-8v-8h110h109h110h110q23 0 34 -13.5 t11 -29.5t-11.5 -29.5t-33.5 -13.5h-104h-103h-105h-104q39 -88 123 -142.5t182 -54.5q70 0 133.5 28t110.5 77q6 6 13 9t15 3q16 0 30.5 -11.5t14.5 -29.5v-77v-77q0 -23 -13 -34t-30 -11q-16 0 -29.5 11.5t-13.5 33.5v64q-51 -35 -110.5 -52.5t-120.5 -17.5 q-133 0 -243.5 77t-151.5 204h-56h-57q-23 0 -34 13.5t-11 29.5z" />
<glyph unicode="&#xa5;" horiz-adv-x="716" d="M33 676q0 16 11 29.5t34 13.5h215l-39 67h-176q-23 0 -34 13.5t-11 29.5t11 29.5t34 13.5h129l-133 244l-4 12q-2 6 -2 13q0 18 14 30.5t31 10.5q10 0 19 -6.5t15 -18.5l211 -381l209 381q6 12 15.5 17.5t19.5 7.5q16 2 31.5 -10.5t15.5 -30.5q0 -6 -1 -12.5t-5 -12.5 l-135 -244h129q23 0 35 -13t12 -30q0 -16 -12.5 -29.5t-34.5 -13.5h-176l-37 -67h213q23 0 35 -13.5t12 -29.5t-12.5 -29.5t-34.5 -13.5h-236v-264q0 -23 -13 -34t-30 -11q-16 0 -29.5 11t-13.5 34v264h-237q-23 0 -34 13.5t-11 29.5z" />
<glyph unicode="&#xa6;" />
<glyph unicode="&#xa7;" />
<glyph unicode="&#xa8;" horiz-adv-x="540" d="M125 1561q0 29 20.5 49t49.5 20t49 -20.5t20 -49t-20.5 -49t-48.5 -20.5q-29 0 -49.5 20.5t-20.5 49.5zM305 1561q0 29 20.5 49t49.5 20t49 -20.5t20 -49t-20.5 -49t-48.5 -20.5q-29 0 -49.5 20.5t-20.5 49.5z" />
<glyph unicode="&#xa9;" />
<glyph unicode="&#xaa;" horiz-adv-x="385" d="M6 1268q0 84 59.5 128t129.5 44q18 0 36.5 -3t34.5 -10q47 -18 80 -58t33 -101v-111v-110q0 -18 -10.5 -28.5t-22.5 -10.5q-14 0 -24.5 10t-10.5 29v6q0 2 0 -15q-14 -14 -38.5 -21t-53.5 -7q-8 0 -15 1t-16 1q-25 4 -47 14t-41 27q-20 16 -31.5 39.5t-15.5 46.5v8v8 q0 41 24.5 78t69.5 51q10 4 21.5 5t24.5 1q35 -2 65.5 -17.5t52.5 -43.5q14 -20 2 -37.5t-30 -17.5q-8 0 -14.5 4t-12.5 12q-10 16 -27.5 24.5t-35.5 8.5q-6 0 -12.5 -1t-12.5 -3q-23 -6 -35 -22.5t-14 -33.5v-4v-4q0 -14 6 -27.5t18 -23.5q16 -14 34 -20.5t38 -4.5 q20 0 37.5 6.5t32.5 18.5q12 10 19 25.5t7 29.5v109q0 53 -36.5 78.5t-81.5 25.5q-6 0 -12.5 -1t-12.5 -3q-8 0 -14 -2l-13 -4q-29 -10 -48 -33.5t-19 -60.5q0 -18 -10.5 -27.5t-22.5 -9.5q-14 0 -24.5 9.5t-10.5 27.5z" />
<glyph unicode="&#xab;" horiz-adv-x="659" d="M20 743v6q0 3 3 5q2 6 5 11t7 9l305 266q4 4 8 7l8 4q4 0 8.5 1t8.5 1q16 0 28.5 -13.5t12.5 -29.5q0 -8 -4 -17.5t-15 -17.5l-268 -234l268 -233q6 -4 10.5 -11.5t6.5 -13.5q2 -2 2 -5v-7q-2 -14 -14.5 -26.5t-28.5 -12.5q-8 0 -15.5 3t-15.5 9l-305 265q-8 6 -11.5 15 t-3.5 19zM246 743v6q0 3 2 5q2 6 5 11t7 9l305 266q4 4 8 7l9 4q4 0 8 1t8 1q16 0 28.5 -13.5t12.5 -29.5q0 -8 -4 -17.5t-14 -17.5l-269 -234l269 -233q6 -4 10 -11.5t6 -13.5q2 -2 2 -5v-7q-2 -14 -14.5 -26.5t-28.5 -12.5q-8 0 -15.5 3t-15.5 9l-305 265q-8 6 -11 15 t-3 19z" />
<glyph unicode="&#xac;" />
<glyph unicode="&#xad;" />
<glyph unicode="&#xae;" />
<glyph unicode="&#xaf;" horiz-adv-x="647" />
<glyph unicode="&#xb0;" />
<glyph unicode="&#xb1;" />
<glyph unicode="&#xb2;" />
<glyph unicode="&#xb3;" />
<glyph unicode="&#xb4;" horiz-adv-x="540" d="M43 1485v3v3q0 14 8 25.5t27 15.5l354 84q2 0 4 1t4 1h2h4q20 -2 30.5 -15.5t10.5 -29.5q0 -12 -8 -23.5t-26 -15.5l-355 -86q-2 0 -4 -1l-2 -1h-4h-4q-18 2 -28.5 13.5t-12.5 25.5z" />
<glyph unicode="&#xb5;" />
<glyph unicode="&#xb6;" />
<glyph unicode="&#xb7;" horiz-adv-x="647" />
<glyph unicode="&#xb8;" horiz-adv-x="540" d="M152 -258q0 18 15 30.5t34 10.5q8 -2 15 -6t13 -13q10 -14 23.5 -19t28.5 -5q23 0 41 14.5t20 38.5v3v1v3v3q0 27 -19.5 44.5t-43.5 17.5q-8 0 -17.5 -3t-19.5 -9q-2 -2 -5.5 -3.5t-5.5 -1.5q-2 -2 -5 -2h-5q-20 0 -35.5 16.5t-9.5 35.5q0 2 1 5t3 5l44 69l42 70 q6 12 15.5 17.5t19.5 5.5q16 0 30.5 -12.5t14.5 -30.5q0 -2 -1 -7.5t-3 -9.5q0 -2 -1 -4t-3 -4l-35 -55q55 -8 90 -50t35 -96v-4v-6q-2 -2 -2 -4v-4v-2q-8 -55 -50 -91t-97 -36h-5h-4q-4 2 -6 2h-4q-27 2 -53.5 17.5t-44.5 37.5q-6 8 -8 15.5t-2 15.5z" />
<glyph unicode="&#xb9;" />
<glyph unicode="&#xba;" horiz-adv-x="454" d="M8 1245q0 90 65.5 151.5t153.5 61.5t153.5 -61.5t65.5 -151.5q0 -88 -64.5 -150.5t-154.5 -62.5q-88 0 -153.5 62.5t-65.5 150.5zM76 1245q0 -61 46 -103t105 -42q61 0 107.5 41t46.5 104.5t-46 104.5t-108 41q-59 0 -105 -41.5t-46 -104.5z" />
<glyph unicode="&#xbb;" horiz-adv-x="659" d="M41 473q0 10 5 18.5t13 16.5l269 233l-269 234q-6 6 -10 12t-6 12q0 2 -1 6.5t-1 6.5q0 16 12.5 28.5t30.5 12.5q8 0 15 -3t16 -10l305 -266q8 -6 11 -15t3 -20v-5q0 -3 -2 -5q-2 -6 -5 -11t-7 -9l-305 -265q-4 -4 -9 -6l-8 -4q-4 -2 -8 -2h-8q-16 0 -28.5 12.5 t-12.5 28.5zM266 473q0 10 5 18.5t14 16.5l268 233l-268 234q-6 6 -10.5 12t-6.5 12q0 2 -1 6.5t-1 6.5q0 16 12.5 28.5t30.5 12.5q8 0 15.5 -3t15.5 -10l305 -266q8 -6 11 -15t3 -20v-5q0 -3 -2 -5q-2 -6 -5 -11t-7 -9l-305 -265q-4 -4 -8 -6l-8 -4q-4 -2 -9 -2h-8 q-16 0 -28.5 12.5t-12.5 28.5z" />
<glyph unicode="&#xbc;" />
<glyph unicode="&#xbd;" />
<glyph unicode="&#xbe;" />
<glyph unicode="&#xbf;" horiz-adv-x="882" d="M59 -37q0 16 2 32l5 32l8 32q4 16 10 33q23 55 60.5 103.5t88.5 85.5l28 19l28 19q43 29 84 61t78 66q4 4 13 16l19 23q4 4 7.5 9.5t5.5 9.5q10 14 17 28.5t7 22.5l4 15.5t2 15.5q2 6 2 13v15q0 14 -2 27.5t-6 28.5q-2 4 -2 9v7q0 18 12.5 29.5t24.5 11.5h3h3h4h2 q12 -2 21.5 -10t13.5 -23q6 -20 9 -39.5t3 -40.5q-2 -63 -29.5 -122.5t-74.5 -106.5q-39 -39 -84 -72l-90 -65q-6 -4 -10 -7t-11 -5l-16 -13l-16 -12q-63 -45 -98 -107.5t-40 -128.5v-8v-8q0 -74 39 -140.5t121 -105.5q12 -6 24.5 -11t24.5 -9q25 -8 50.5 -11.5t48.5 -3.5 q109 0 197.5 66t127.5 174q6 16 17.5 23.5t23.5 7.5q16 0 29.5 -11.5t13.5 -29.5q0 -4 -1 -9t-3 -10q-49 -133 -160.5 -215t-244.5 -82q-29 0 -61 5.5t-62 15.5q-14 4 -29.5 10t-32.5 15q-98 47 -153.5 135t-55.5 190zM420 893q0 29 10 54.5t31 43.5q18 18 43.5 29.5 t54.5 11.5t53.5 -11t44.5 -30q18 -18 29.5 -43.5t11.5 -54.5t-11 -54.5t-30 -43.5q-20 -18 -44.5 -29.5t-53.5 -11.5t-54.5 11t-43.5 30q-18 18 -29.5 43.5t-11.5 54.5z" />
<glyph unicode="&#xc0;" horiz-adv-x="1288" d="M37 31q0 4 1 9t3 9l575 1317q8 18 20.5 28.5t25.5 14.5q2 2 6 2h6q16 0 31.5 -12.5t23.5 -34.5l504 -1317q2 -4 3 -9t1 -9q0 -20 -14.5 -30.5t-30.5 -10.5q-12 0 -22.5 6t-16.5 22l-209 527h-586l-237 -529q-6 -14 -16.5 -20t-22.5 -6q-16 0 -30.5 11.5t-14.5 31.5z M322 1575v2v4v3v3q2 12 12 24.5t28 12.5h9q4 0 6 -2l354 -84q18 -4 26.5 -16.5t8.5 -26.5q0 -16 -11.5 -29.5t-31.5 -13.5h-3q-1 0 -3 2h-3h-3l-355 86q-16 4 -24 13.5t-10 21.5zM393 629h520l-241 649z" />
<glyph unicode="&#xc1;" horiz-adv-x="1288" d="M37 31q0 4 1 9t3 9l575 1317q8 18 20.5 28.5t25.5 14.5q2 2 6 2h6q16 0 31.5 -12.5t23.5 -34.5l504 -1317q2 -4 3 -9t1 -9q0 -20 -14.5 -30.5t-30.5 -10.5q-12 0 -22.5 6t-16.5 22l-209 527h-586l-237 -529q-6 -14 -16.5 -20t-22.5 -6q-16 0 -30.5 11.5t-14.5 31.5z M393 629h520l-241 649zM578 1485v3v3q0 14 8 25.5t26 15.5l355 84q2 0 4 1t4 1h2h4q20 -2 30.5 -15.5t10.5 -29.5q0 -12 -8 -23.5t-27 -15.5l-354 -86q-2 0 -4 -1l-2 -1h-4h-5q-18 2 -28 13.5t-12 25.5z" />
<glyph unicode="&#xc2;" horiz-adv-x="1288" d="M37 31q0 4 1 9t3 9l575 1317q8 18 20.5 28.5t25.5 14.5q2 2 6 2h6q16 0 31.5 -12.5t23.5 -34.5l504 -1317q2 -4 3 -9t1 -9q0 -20 -14.5 -30.5t-30.5 -10.5q-12 0 -22.5 6t-16.5 22l-209 527h-586l-237 -529q-6 -14 -16.5 -20t-22.5 -6q-16 0 -30.5 11.5t-14.5 31.5z M393 629h520l-241 649zM459 1423q0 10 6 20.5t18 16.5l168 86q4 2 9.5 3t11.5 -1h11q5 0 7 -2l168 -86q14 -6 20.5 -16t6.5 -21q0 -16 -12.5 -30.5t-30.5 -14.5h-5q-3 0 -6 2q-4 0 -6 1l-6 3l-147 76l-150 -76l-12 -4q-6 -2 -10 -2q-18 0 -30.5 14.5t-10.5 30.5z" />
<glyph unicode="&#xc3;" horiz-adv-x="1288" d="M37 31q0 4 1 9t3 9l575 1317q8 18 20.5 28.5t25.5 14.5q2 2 6 2h6q16 0 31.5 -12.5t23.5 -34.5l504 -1317q2 -4 3 -9t1 -9q0 -20 -14.5 -30.5t-30.5 -10.5q-12 0 -22.5 6t-16.5 22l-209 527h-586l-237 -529q-6 -14 -16.5 -20t-22.5 -6q-16 0 -30.5 11.5t-14.5 31.5z M393 629h520l-241 649zM436 1485q0 4 1 9t3 9q10 31 33 54.5t53 33.5l27.5 7.5t28.5 3.5q39 0 74.5 -15.5t68.5 -36.5q12 -8 25.5 -15t27.5 -13q6 -2 13.5 -3t13.5 -1q4 0 7 1t7 1q8 2 15.5 7t13.5 13q8 10 17 14.5t18 4.5q16 0 29.5 -12.5t13.5 -28.5q0 -8 -3 -15.5 t-10 -15.5q-20 -27 -49.5 -40t-62.5 -13q-14 0 -29.5 3t-32.5 9q-14 6 -26.5 13l-24.5 14q0 2 -1 2h-1q-16 10 -31.5 18t-31.5 14q-10 4 -20.5 6.5t-20.5 2.5q-20 0 -37 -9.5t-25 -31.5q-6 -16 -17 -23.5t-24 -7.5q-16 0 -29.5 11.5t-13.5 29.5z" />
<glyph unicode="&#xc4;" horiz-adv-x="1288" d="M37 31q0 4 1 9t3 9l575 1317q8 18 20.5 28.5t25.5 14.5q2 2 6 2h6q16 0 31.5 -12.5t23.5 -34.5l504 -1317q2 -4 3 -9t1 -9q0 -20 -14.5 -30.5t-30.5 -10.5q-12 0 -22.5 6t-16.5 22l-209 527h-586l-237 -529q-6 -14 -16.5 -20t-22.5 -6q-16 0 -30.5 11.5t-14.5 31.5z M393 629h520l-241 649zM512 1497q0 29 20.5 49.5t49.5 20.5t49 -20.5t20 -49.5t-20.5 -49.5t-48.5 -20.5q-29 0 -49.5 20.5t-20.5 49.5zM692 1497q0 29 20.5 49.5t49.5 20.5t49 -20.5t20 -49.5t-20 -49.5t-49 -20.5t-49.5 20.5t-20.5 49.5z" />
<glyph unicode="&#xc5;" horiz-adv-x="1288" d="M37 31q0 4 1 9t3 9l575 1317q8 18 20.5 28.5t25.5 14.5q2 2 6 2h6q16 0 31.5 -12.5t23.5 -34.5l504 -1317q2 -4 3 -9t1 -9q0 -20 -14.5 -30.5t-30.5 -10.5q-12 0 -22.5 6t-16.5 22l-209 527h-586l-237 -529q-6 -14 -16.5 -20t-22.5 -6q-16 0 -30.5 11.5t-14.5 31.5z M393 629h520l-241 649zM549 1483q0 53 38 90t91 37t90 -37t37 -90t-37 -91t-90 -38t-91 38t-38 91zM635 1483q0 -18 12 -30.5t31 -12.5q16 0 29.5 12t13.5 31q0 16 -13.5 29.5t-29.5 13.5q-18 0 -30.5 -13.5t-12.5 -29.5z" />
<glyph unicode="&#xc6;" horiz-adv-x="1691" d="M43 20q0 6 3 12.5t5 12.5l160 260l158 258h-40h-42q-23 0 -34 13.5t-11 29.5t11 29.5t34 13.5h68h67l119 193l118 192l117 193l119 192q0 2 2 3t4 3t6 5.5t8 5.5t8.5 3t6.5 1h124h126h126h124q23 0 34 -13.5t11 -29.5t-11.5 -29.5t-33.5 -13.5h-185h-182 q-14 0 -24.5 -9.5t-10.5 -23.5v-336v-336h122h120h120h121q23 0 35.5 -13t12.5 -30q0 -16 -12.5 -29.5t-35.5 -13.5h-121h-120h-120h-122v-221v-223q0 -14 10.5 -23.5t24.5 -9.5h273h274q23 0 35 -13.5t12 -29.5t-12.5 -29.5t-34.5 -13.5h-274h-273q-51 0 -86 35t-35 84v223 v221h-473l-86 -140l-86 -140l-86 -141l-86 -140q-4 -6 -10 -11t-13 -7q-4 -2 -8 -3t-8 -1q-16 2 -29.5 13t-13.5 27zM522 649h420v336v336v8q0 4 2 8z" />
<glyph unicode="&#xc7;" horiz-adv-x="1501" d="M49 791q0 289 211 487.5t494 198.5q152 0 273.5 -40t205.5 -114q86 -76 132 -184.5t46 -241.5q0 -195 -140.5 -339t-336.5 -144q-180 0 -319.5 101t-139.5 296q0 8 1 17.5t1 17.5q14 92 85 169t167 77q23 0 35 -13.5t12 -27.5q0 -16 -12 -29.5t-35 -13.5 q-57 0 -102 -46.5t-60 -101.5q-4 -12 -6 -24.5t-2 -24.5q0 -160 116 -236.5t259 -76.5q162 0 276.5 118.5t114.5 280.5q0 115 -38 206t-109 154q-74 66 -180.5 100t-243.5 34q-248 0 -434.5 -172t-186.5 -428q0 -162 48 -298.5t143 -232.5q88 -90 215 -141t288 -51 q170 0 317.5 79.5t244.5 217.5q6 8 12 12t12 6q2 0 6 1t6 1q16 0 29.5 -12.5t13.5 -30.5q0 -6 -3 -12l-7 -15q-106 -154 -274 -242.5t-357 -88.5q-180 0 -322.5 57t-242.5 162q-104 109 -158.5 259.5t-54.5 328.5zM602 -279q0 18 15.5 30.5t33.5 10.5q8 -2 15.5 -6t13.5 -12 q10 -14 23.5 -19.5t27.5 -5.5q23 0 41.5 14.5t20.5 39.5v3v1v3v3q0 27 -19.5 44t-44.5 17q-8 0 -17.5 -3t-19.5 -9q-2 -2 -5 -3t-5 -1q-2 -2 -5 -2h-5q-20 0 -35.5 16.5t-9.5 34.5q0 2 1 5t3 5l44 71l42 69q6 12 15 17t20 5q16 0 30.5 -12t14.5 -31q0 -2 -1 -6t-3 -8 q0 -2 -1 -4t-4 -4l-34 -58q55 -8 90 -50t35 -95v-4v-6q-2 -2 -2 -4v-5v-2q-8 -55 -50.5 -91t-97.5 -36h-4h-4q-4 2 -6 2h-4q-27 2 -53.5 17.5t-45.5 38.5q-6 8 -8 15t-2 15z" />
<glyph unicode="&#xc8;" horiz-adv-x="784" d="M35 119v1202q0 49 35.5 84t85.5 35h366q23 0 35 -13.5t12 -29.5t-12 -29.5t-35 -13.5h-366q-14 0 -24.5 -9.5t-10.5 -23.5v-672h483q23 0 35 -13t12 -30q0 -16 -12 -29.5t-35 -13.5h-483v-444q0 -14 10 -23.5t25 -9.5h549q23 0 34 -13.5t11 -29.5t-11.5 -29.5 t-33.5 -13.5h-549q-49 0 -85 35t-36 84zM45 1589v2v4v3v4q2 12 12.5 24t28.5 12h8q4 0 6 -2l355 -84q18 -4 26 -16t8 -27q0 -16 -11 -29.5t-32 -13.5h-3q-1 0 -3 2h-3h-3l-354 86q-16 4 -24.5 13.5t-10.5 21.5z" />
<glyph unicode="&#xc9;" horiz-adv-x="784" d="M35 119v1202q0 49 35.5 84t85.5 35h366q23 0 35 -13.5t12 -29.5t-12 -29.5t-35 -13.5h-366q-14 0 -24.5 -9.5t-10.5 -23.5v-672h483q23 0 35 -13t12 -30q0 -16 -12 -29.5t-35 -13.5h-483v-444q0 -14 10 -23.5t25 -9.5h549q23 0 34 -13.5t11 -29.5t-11.5 -29.5 t-33.5 -13.5h-549q-49 0 -85 35t-36 84zM268 1505v3v3q0 14 8.5 25.5t26.5 15.5l354 84q2 0 4.5 1t4.5 1h2h4q20 -2 30.5 -15t10.5 -30q0 -12 -8.5 -23t-26.5 -16l-354 -86q-2 0 -5 -1l-2 -1h-4h-4q-18 2 -28.5 13.5t-12.5 25.5z" />
<glyph unicode="&#xca;" horiz-adv-x="784" d="M35 119v1202q0 49 35.5 84t85.5 35h366q23 0 35 -13.5t12 -29.5t-12 -29.5t-35 -13.5h-366q-14 0 -24.5 -9.5t-10.5 -23.5v-672h483q23 0 35 -13t12 -30q0 -16 -12 -29.5t-35 -13.5h-483v-444q0 -14 10 -23.5t25 -9.5h549q23 0 34 -13.5t11 -29.5t-11.5 -29.5 t-33.5 -13.5h-549q-49 0 -85 35t-36 84zM125 1511q0 10 6 20.5t19 16.5l167 86q4 2 9.5 3t11.5 -1h11q5 0 7 -2l168 -86q14 -6 20.5 -16t6.5 -21q0 -16 -12.5 -30.5t-30.5 -14.5h-5q-3 0 -5 2q-4 0 -6 1l-7 4l-147 75l-150 -75l-12 -5q-6 -2 -10 -2q-18 0 -30.5 14.5 t-10.5 30.5z" />
<glyph unicode="&#xcb;" horiz-adv-x="784" d="M35 119v1202q0 49 35.5 84t85.5 35h366q23 0 35 -13.5t12 -29.5t-12 -29.5t-35 -13.5h-366q-14 0 -24.5 -9.5t-10.5 -23.5v-672h483q23 0 35 -13t12 -30q0 -16 -12 -29.5t-35 -13.5h-483v-444q0 -14 10 -23.5t25 -9.5h549q23 0 34 -13.5t11 -29.5t-11.5 -29.5 t-33.5 -13.5h-549q-49 0 -85 35t-36 84zM166 1540q0 29 20.5 49.5t49.5 20.5t49 -20.5t20 -49.5t-20.5 -49.5t-48.5 -20.5q-29 0 -49.5 20.5t-20.5 49.5zM346 1540q0 29 20.5 49.5t49.5 20.5t49 -20.5t20 -49.5t-20.5 -49.5t-48.5 -20.5q-29 0 -49.5 20.5t-20.5 49.5z" />
<glyph unicode="&#xcc;" horiz-adv-x="167" d="M-315 1612v2v4v3v3q2 12 12 24.5t29 12.5h7q3 0 7 -2l352 -84q18 -4 26.5 -16.5t8.5 -26.5q0 -16 -11.5 -29.5t-31.5 -13.5h-3q-1 0 -3 2h-3h-3l-355 86q-14 4 -22 13.5t-10 21.5zM33 43v1354q0 23 13 35t30 12q16 0 29.5 -12.5t13.5 -34.5v-1354q0 -23 -13.5 -34 t-29.5 -11t-29.5 11t-13.5 34z" />
<glyph unicode="&#xcd;" horiz-adv-x="167" d="M33 43v1354q0 23 13 35t30 12q16 0 29.5 -12.5t13.5 -34.5v-1354q0 -23 -13.5 -34t-29.5 -11t-29.5 11t-13.5 34zM43 1526v3v3q0 14 8 25.5t27 15.5l354 84q2 0 4 1t4 1h2h4q20 -2 30.5 -15.5t10.5 -29.5q0 -12 -8 -23.5t-26 -15.5l-355 -86q-2 0 -4 -1l-2 -1h-4h-4 q-18 2 -28.5 13.5t-12.5 25.5z" />
<glyph unicode="&#xce;" horiz-adv-x="167" d="M-139 1470q0 10 6 20.5t18 16.5l166 86q4 2 9.5 3t11.5 -1h11q5 0 7 -2l168 -86q14 -6 20.5 -16t6.5 -21q0 -16 -12.5 -30.5t-30.5 -14.5h-5q-3 0 -6 2q-4 0 -6 1l-6 4l-147 75l-150 -75q-4 -2 -10 -4.5t-10 -2.5q-18 0 -30.5 14.5t-10.5 30.5zM33 43v1354q0 23 13 35 t30 12q16 0 29.5 -12.5t13.5 -34.5v-1354q0 -23 -13.5 -34t-29.5 -11t-29.5 11t-13.5 34z" />
<glyph unicode="&#xcf;" horiz-adv-x="167" d="M-82 1505q0 29 20.5 49.5t49.5 20.5q27 0 47 -20.5t20 -49t-20.5 -49t-46.5 -20.5q-29 0 -49.5 20t-20.5 49zM33 43v1354q0 23 13 35t30 12q16 0 29.5 -12.5t13.5 -34.5v-1354q0 -23 -13.5 -34t-29.5 -11t-29.5 11t-13.5 34zM96 1505q0 29 20.5 49.5t49.5 20.5 t49.5 -20.5t20.5 -49t-20.5 -49t-49.5 -20.5t-49.5 20t-20.5 49z" />
<glyph unicode="&#xd0;" horiz-adv-x="1542" d="M8 721q0 14 11.5 27.5t33.5 13.5h148v186v185q0 154 112.5 218t247.5 83q53 8 107.5 10t99.5 2q301 0 518 -212t217 -517q0 -303 -215 -518t-520 -215q-115 0 -225.5 34.5t-204.5 100.5q-6 6 -11 12t-8 12q0 2 -1 6.5t-1 6.5q0 16 12.5 29.5t30.5 13.5q6 0 13.5 -3 t15.5 -8q82 -59 179.5 -90.5t199.5 -31.5q268 0 459.5 191.5t191.5 459.5q0 270 -191.5 456.5t-459.5 186.5q-41 0 -94 -2t-111 -10q-104 -14 -191 -61.5t-87 -153.5v-185v-186h168q23 0 35 -13.5t12 -27.5q0 -16 -12.5 -29.5t-34.5 -13.5h-168v-312v-315q0 -23 -13.5 -34 t-27.5 -11q-16 0 -29.5 11.5t-13.5 33.5v315v312h-148q-23 0 -34 13.5t-11 29.5z" />
<glyph unicode="&#xd1;" horiz-adv-x="925" d="M43 25v339v338v338v338q0 29 19.5 45.5t41.5 16.5q16 0 29.5 -8.5t22.5 -24.5l321 -624l320 -625v620v619q0 23 13 35t30 12q16 0 29.5 -12.5t13.5 -34.5v-667v-669q0 -29 -18.5 -43t-41.5 -14h-8q-4 0 -8 2q-12 2 -24.5 11.5t-20.5 25.5l-635 1235v-627v-626 q0 -23 -13.5 -34t-27.5 -11q-16 0 -29.5 11t-13.5 34zM211 1505q0 4 1 9.5t3 9.5q10 31 32.5 54.5t53.5 33.5q14 4 27.5 7t27.5 3q39 0 75 -15.5t69 -35.5q12 -8 25.5 -15.5t27.5 -13.5q6 -2 13 -3t14 -1q4 0 7 1t7 1q8 2 15 7t14 14q8 10 17 14t17 4q16 0 29.5 -12.5 t13.5 -28.5q0 -8 -3 -15t-9 -16q-20 -27 -50 -40t-63 -13q-14 0 -29.5 3t-31.5 9q-14 6 -26.5 13.5t-24.5 13.5q0 2 -1 2h-1q-16 10 -31.5 18.5t-32.5 14.5q-10 4 -20 6t-21 2q-20 0 -36.5 -9t-24.5 -32q-6 -16 -17.5 -23.5t-23.5 -7.5q-16 0 -29.5 11.5t-13.5 29.5z" />
<glyph unicode="&#xd2;" horiz-adv-x="647" />
<glyph unicode="&#xd3;" horiz-adv-x="1732" d="M80 725v11v12q4 133 61.5 262t165.5 227q109 98 253.5 153.5t305.5 55.5q164 0 309.5 -55.5t251.5 -153.5q115 -104 171.5 -239.5t56.5 -276.5v-11v-12q-4 -133 -61.5 -262t-166.5 -227q-111 -100 -251 -152.5t-287 -56.5h-10h-13q-154 0 -299 52t-260 157 q-113 104 -171 239.5t-56 276.5zM164 723q0 -291 215 -464t487 -173t487.5 173t215.5 464t-214 464t-489 173q-272 0 -487 -172t-215 -465zM780 1509v3v4q0 14 8.5 25t26.5 15l354 84q2 0 4.5 1t4.5 1h2h4q20 -2 30.5 -15t10.5 -30q0 -12 -8.5 -23t-26.5 -15l-354 -86 q-2 0 -5 -2l-2 -1h-4h-4q-18 2 -28.5 13.5t-12.5 25.5z" />
<glyph unicode="&#xd4;" horiz-adv-x="1732" d="M80 725v11v12q4 133 61.5 262t165.5 227q109 98 253.5 153.5t305.5 55.5q164 0 309.5 -55.5t251.5 -153.5q115 -104 171.5 -239.5t56.5 -276.5v-11v-12q-4 -133 -61.5 -262t-166.5 -227q-111 -100 -251 -152.5t-287 -56.5h-10h-13q-154 0 -299 52t-260 157 q-113 104 -171 239.5t-56 276.5zM164 723q0 -291 215 -464t487 -173t487.5 173t215.5 464t-214 464t-489 173q-272 0 -487 -172t-215 -465zM664 1511q0 10 6 20.5t18 16.5l168 86q4 2 9 3t12 -1h11q5 0 7 -2l168 -86q14 -6 20.5 -16t6.5 -21q0 -16 -12.5 -30.5t-30.5 -14.5 h-6q-3 0 -5 2q-4 0 -6 1l-6 4l-147 75l-150 -75l-12 -5q-6 -2 -10 -2q-18 0 -30.5 14.5t-10.5 30.5z" />
<glyph unicode="&#xd5;" horiz-adv-x="1732" d="M80 725v11v12q4 133 61.5 262t165.5 227q109 98 253.5 153.5t305.5 55.5q164 0 309.5 -55.5t251.5 -153.5q115 -104 171.5 -239.5t56.5 -276.5v-11v-12q-4 -133 -61.5 -262t-166.5 -227q-111 -100 -251 -152.5t-287 -56.5h-10h-13q-154 0 -299 52t-260 157 q-113 104 -171 239.5t-56 276.5zM164 723q0 -291 215 -464t487 -173t487.5 173t215.5 464t-214 464t-489 173q-272 0 -487 -172t-215 -465zM641 1526q0 4 1 9t3 9q10 31 32.5 54.5t53.5 33.5q14 4 27.5 7t27.5 3q39 0 75 -15t69 -36q12 -8 25.5 -15t27.5 -13q6 -2 13.5 -3 t13.5 -1q4 0 7 1t7 1q8 2 15.5 7t13.5 13q8 10 17 14t17 4q16 0 29.5 -12t13.5 -28q0 -8 -3 -15.5t-9 -15.5q-20 -27 -50 -40t-62 -13q-14 0 -29.5 3t-32.5 9q-14 6 -26.5 13t-24.5 13q0 2 -1 3h-1q-16 10 -31.5 18t-32.5 14q-10 4 -20 6t-21 2q-20 0 -36.5 -9t-24.5 -31 q-6 -16 -17.5 -23.5t-23.5 -7.5q-16 0 -29.5 11.5t-13.5 29.5z" />
<glyph unicode="&#xd6;" horiz-adv-x="1732" d="M80 725v11v12q4 133 61.5 262t165.5 227q109 98 253.5 153.5t305.5 55.5q164 0 309.5 -55.5t251.5 -153.5q115 -104 171.5 -239.5t56.5 -276.5v-11v-12q-4 -133 -61.5 -262t-166.5 -227q-111 -100 -251 -152.5t-287 -56.5h-10h-13q-154 0 -299 52t-260 157 q-113 104 -171 239.5t-56 276.5zM164 723q0 -291 215 -464t487 -173t487.5 173t215.5 464t-214 464t-489 173q-272 0 -487 -172t-215 -465zM731 1552q0 29 20.5 49.5t49.5 20.5t49 -20.5t20 -49t-20.5 -49t-48.5 -20.5q-29 0 -49.5 20t-20.5 49zM911 1552q0 29 20.5 49.5 t49.5 20.5t49.5 -20.5t20.5 -49t-20.5 -49t-49.5 -20.5t-49.5 20t-20.5 49z" />
<glyph unicode="&#xd7;" />
<glyph unicode="&#xd8;" horiz-adv-x="1665" d="M49 725v11v12q6 133 63.5 262t166.5 227t252 153.5t307 55.5q143 0 272 -42t229 -120l144 143q8 8 17 11.5t18 3.5q16 0 29.5 -12.5t11.5 -30.5q0 -8 -3.5 -15.5t-11.5 -15.5l-137 -137q111 -104 165 -237.5t54 -272.5v-11v-12q-4 -133 -61.5 -262t-165.5 -227 q-115 -104 -262.5 -156.5t-300.5 -52.5q-133 0 -262.5 40t-237.5 120l-143 -144q-4 -4 -8.5 -7t-8.5 -3q-4 -2 -8 -3t-8 -1q-16 0 -28.5 13.5t-12.5 29.5q0 4 1 8t3 8q0 4 3 8.5t7 8.5l137 137q-111 102 -166 236.5t-55 273.5zM135 723q0 -137 53.5 -251t143.5 -196l946 947 q-92 66 -206 101.5t-234 35.5q-272 0 -487.5 -172t-215.5 -465zM397 221q94 -63 208 -99t233 -36q272 0 487 173t215 464q0 139 -52 251.5t-142 194.5z" />
<glyph unicode="&#xd9;" horiz-adv-x="1001" d="M47 440v957q0 23 13.5 35t29.5 12q14 0 27.5 -12.5t13.5 -34.5v-957q0 -145 105.5 -249.5t250.5 -104.5t250 103.5t105 248.5v959q0 23 13 33t30 10q16 0 29.5 -10.5t13.5 -32.5v-1264q0 -16 8 -30.5t22.5 -22.5t20.5 -18.5t4 -22.5q0 -14 -11 -26.5t-30 -12.5 q-6 0 -12 2l-12 4q-33 18 -54.5 53t-21.5 74v12v13v10v12q-66 -88 -160 -134t-197 -46h-12h-12q-76 4 -150.5 37t-134.5 92q-59 59 -94 140t-35 171zM250 1569v2v4v3v3q2 12 12 24.5t29 12.5h8q4 0 6 -2l354 -84q18 -4 26.5 -16.5t8.5 -26.5q0 -16 -11 -29.5t-32 -13.5h-3 q-1 0 -3 2h-3h-3l-354 86q-16 4 -24.5 13.5t-10.5 21.5z" />
<glyph unicode="&#xda;" horiz-adv-x="1001" d="M47 440v957q0 23 13.5 35t29.5 12q14 0 27.5 -12.5t13.5 -34.5v-957q0 -145 105.5 -249.5t250.5 -104.5t250 103.5t105 248.5v959q0 23 13 33t30 10q16 0 29.5 -10.5t13.5 -32.5v-1264q0 -16 8 -30.5t22.5 -22.5t20.5 -18.5t4 -22.5q0 -14 -11 -26.5t-30 -12.5 q-6 0 -12 2l-12 4q-33 18 -54.5 53t-21.5 74v12v13v10v12q-66 -88 -160 -134t-197 -46h-12h-12q-76 4 -150.5 37t-134.5 92q-59 59 -94 140t-35 171zM371 1485v3v3q0 14 8 25.5t27 15.5l354 84q2 0 4 1t4 1h2h4q20 -2 30.5 -15.5t10.5 -29.5q0 -12 -8 -23.5t-27 -15.5 l-354 -86q-2 0 -4 -1l-2 -1h-4h-4q-18 2 -28.5 13.5t-12.5 25.5z" />
<glyph unicode="&#xdb;" horiz-adv-x="1001" d="M47 440v957q0 23 13.5 35t29.5 12q14 0 27.5 -12.5t13.5 -34.5v-957q0 -145 105.5 -249.5t250.5 -104.5t250 103.5t105 248.5v959q0 23 13 33t30 10q16 0 29.5 -10.5t13.5 -32.5v-1264q0 -16 8 -30.5t22.5 -22.5t20.5 -18.5t4 -22.5q0 -14 -11 -26.5t-30 -12.5 q-6 0 -12 2l-12 4q-33 18 -54.5 53t-21.5 74v12v13v10v12q-66 -88 -160 -134t-197 -46h-12h-12q-76 4 -150.5 37t-134.5 92q-59 59 -94 140t-35 171zM268 1491q0 10 6.5 20.5t18.5 16.5l168 86q4 2 9 3t11 -1h12q5 0 7 -2l168 -86q14 -6 20 -16.5t6 -20.5q0 -16 -12 -30.5 t-31 -14.5h-5q-3 0 -5 2q-4 0 -6 1l-6 3l-148 76l-149 -76l-13 -4q-6 -2 -10 -2q-18 0 -30.5 14.5t-10.5 30.5z" />
<glyph unicode="&#xdc;" horiz-adv-x="1001" d="M47 440v957q0 23 13.5 35t29.5 12q14 0 27.5 -12.5t13.5 -34.5v-957q0 -145 105.5 -249.5t250.5 -104.5t250 103.5t105 248.5v959q0 23 13 33t30 10q16 0 29.5 -10.5t13.5 -32.5v-1264q0 -16 8 -30.5t22.5 -22.5t20.5 -18.5t4 -22.5q0 -14 -11 -26.5t-30 -12.5 q-6 0 -12 2l-12 4q-33 18 -54.5 53t-21.5 74v12v13v10v12q-66 -88 -160 -134t-197 -46h-12h-12q-76 4 -150.5 37t-134.5 92q-59 59 -94 140t-35 171zM315 1518q0 29 20.5 49t49.5 20t49.5 -20.5t20.5 -49t-20.5 -49t-49.5 -20.5t-49.5 20.5t-20.5 49.5zM496 1518 q0 29 20.5 49t48.5 20q29 0 49.5 -20.5t20.5 -49t-20.5 -49t-49.5 -20.5t-49 20.5t-20 49.5z" />
<glyph unicode="&#xdd;" horiz-adv-x="647" />
<glyph unicode="&#xde;" horiz-adv-x="919" d="M43 1397q0 16 11.5 29.5t33.5 13.5q90 0 153.5 -63.5t63.5 -153.5v-15v-12h93h91q160 0 274 -113.5t114 -273.5q0 -158 -115 -272.5t-273 -114.5q-33 0 -63.5 5t-60.5 17q-16 6 -23.5 17.5t-7.5 23.5q0 16 11 29.5t30 13.5q4 0 9 -1t9 -3q23 -8 47.5 -12t48.5 -4 q119 0 211.5 87t92.5 214q0 125 -89.5 213t-214.5 88h-91h-93v-533v-534q0 -16 -5 -29.5t-38 -13.5t-38 13.5t-5 29.5v590v590q0 53 -39 92t-92 39q-23 0 -34 13.5t-11 29.5z" />
<glyph unicode="&#xdf;" horiz-adv-x="851" d="M39 -4v150v153v304v304q2 197 61.5 319t141.5 175q39 25 75.5 37t69.5 12q113 -2 185.5 -104.5t84.5 -223.5q0 -12 1 -22t1 -21q0 -90 -37.5 -152.5t-84.5 -117.5q-4 -4 -7.5 -8t-5.5 -6q-25 -29 -47 -58.5t-41 -62.5q-4 -8 -6 -15.5t-2 -15.5q0 -18 14.5 -36.5 t36.5 -35.5q29 -20 66 -42l76 -44q72 -45 132 -103t60 -144q0 -14 -2 -28.5t-6 -31.5q-23 -92 -92.5 -134t-151.5 -42h-12h-14q-68 6 -130.5 37t-103.5 84q-6 8 -8 15t-2 14q0 18 13 30.5t30 12.5q10 -2 18 -6.5t17 -14.5q29 -35 74.5 -58.5t97.5 -27.5q4 -2 10 -2h12 q55 0 100.5 26.5t59.5 86.5q4 10 5 21t1 20q0 70 -61.5 114.5t-132.5 83.5q-4 2 -7.5 4t-7.5 4q-70 37 -126 79t-56 106q0 18 5 39.5t19 44.5q16 29 38 56l44 56q2 0 3.5 2t3.5 5q47 55 84.5 113.5t37.5 131.5q0 18 -2 38t-6 38q-16 78 -62 142.5t-118 64.5q-20 0 -45 -8 t-53 -25q-63 -43 -112.5 -147.5t-49.5 -274.5v-304v-304v-153v-150q0 -23 -13.5 -34t-29.5 -11t-29.5 11t-13.5 34z" />
<glyph unicode="&#xe0;" horiz-adv-x="768" d="M35 485q0 154 108.5 237t241.5 83q35 0 71 -6t68 -19q88 -33 148.5 -106.5t60.5 -188.5v-221v-221q0 -23 -13 -34t-30 -11q-16 0 -29.5 11t-13.5 34v20v21q-45 -41 -104.5 -62.5t-122.5 -21.5q-55 0 -108.5 17.5t-94.5 54.5q-41 35 -62.5 79t-25.5 89v11v9q0 76 45 141.5 t129 92.5q10 4 19.5 5t19.5 3t19 2h20q66 0 123 -30t96 -83q2 -4 4 -7t4 -7q0 -4 1 -7t1 -8q-2 -18 -15 -29t-30 -11q-8 0 -17 5t-18 15q-27 37 -65.5 57.5t-81.5 20.5q-14 0 -27.5 -2t-27.5 -6q-55 -16 -85 -59.5t-30 -92.5q0 -33 14.5 -65.5t42.5 -57.5q31 -27 71 -40 t83 -13q45 0 87 15.5t75 41.5q29 25 45 57.5t16 69.5v217q0 117 -82 175.5t-182 58.5q-29 0 -56.5 -4t-54.5 -15q-63 -25 -107 -78t-44 -137q0 -23 -13.5 -34t-29.5 -11t-29.5 11t-13.5 34zM57 961v2v4v3v3q2 12 12.5 24.5t28.5 12.5h8q4 0 7 -2l354 -84q18 -4 26.5 -16.5 t8.5 -26.5q0 -16 -11.5 -29.5t-31.5 -13.5h-3q-1 0 -3 2h-3h-4l-354 86q-16 4 -24.5 13.5t-10.5 21.5z" />
<glyph unicode="&#xe1;" horiz-adv-x="768" d="M35 485q0 154 108.5 237t241.5 83q35 0 71 -6t68 -19q88 -33 148.5 -106.5t60.5 -188.5v-221v-221q0 -23 -13 -34t-30 -11q-16 0 -29.5 11t-13.5 34v20v21q-45 -41 -104.5 -62.5t-122.5 -21.5q-55 0 -108.5 17.5t-94.5 54.5q-41 35 -62.5 79t-25.5 89v11v9q0 76 45 141.5 t129 92.5q10 4 19.5 5t19.5 3t19 2h20q66 0 123 -30t96 -83q2 -4 4 -7t4 -7q0 -4 1 -7t1 -8q-2 -18 -15 -29t-30 -11q-8 0 -17 5t-18 15q-27 37 -65.5 57.5t-81.5 20.5q-14 0 -27.5 -2t-27.5 -6q-55 -16 -85 -59.5t-30 -92.5q0 -33 14.5 -65.5t42.5 -57.5q31 -27 71 -40 t83 -13q45 0 87 15.5t75 41.5q29 25 45 57.5t16 69.5v217q0 117 -82 175.5t-182 58.5q-29 0 -56.5 -4t-54.5 -15q-63 -25 -107 -78t-44 -137q0 -23 -13.5 -34t-29.5 -11t-29.5 11t-13.5 34zM233 883v3v3q0 14 8.5 25.5t26.5 15.5l355 84q2 0 4 1t4 1h2h4q20 -2 30.5 -15.5 t10.5 -29.5q0 -12 -8 -23.5t-27 -15.5l-354 -86q-2 0 -4 -1l-2 -1h-4h-5q-18 2 -28.5 13.5t-12.5 25.5z" />
<glyph unicode="&#xe2;" horiz-adv-x="768" d="M35 485q0 154 108.5 237t241.5 83q35 0 71 -6t68 -19q88 -33 148.5 -106.5t60.5 -188.5v-221v-221q0 -23 -13 -34t-30 -11q-16 0 -29.5 11t-13.5 34v20v21q-45 -41 -104.5 -62.5t-122.5 -21.5q-55 0 -108.5 17.5t-94.5 54.5q-41 35 -62.5 79t-25.5 89v11v9q0 76 45 141.5 t129 92.5q10 4 19.5 5t19.5 3t19 2h20q66 0 123 -30t96 -83q2 -4 4 -7t4 -7q0 -4 1 -7t1 -8q-2 -18 -15 -29t-30 -11q-8 0 -17 5t-18 15q-27 37 -65.5 57.5t-81.5 20.5q-14 0 -27.5 -2t-27.5 -6q-55 -16 -85 -59.5t-30 -92.5q0 -33 14.5 -65.5t42.5 -57.5q31 -27 71 -40 t83 -13q45 0 87 15.5t75 41.5q29 25 45 57.5t16 69.5v217q0 117 -82 175.5t-182 58.5q-29 0 -56.5 -4t-54.5 -15q-63 -25 -107 -78t-44 -137q0 -23 -13.5 -34t-29.5 -11t-29.5 11t-13.5 34zM176 852q0 10 6 20.5t19 16.5l168 86q4 2 9 3t11 -1h11q5 0 8 -2l167 -86 q14 -6 20.5 -16.5t6.5 -20.5q0 -16 -12 -30.5t-31 -14.5h-5q-3 0 -5 2q-4 0 -6 1l-6 3l-148 76l-149 -76l-13 -4q-6 -2 -10 -2q-18 0 -30.5 14.5t-10.5 30.5z" />
<glyph unicode="&#xe3;" horiz-adv-x="768" d="M35 485q0 154 108.5 237t241.5 83q35 0 71 -6t68 -19q88 -33 148.5 -106.5t60.5 -188.5v-221v-221q0 -23 -13 -34t-30 -11q-16 0 -29.5 11t-13.5 34v20v21q-45 -41 -104.5 -62.5t-122.5 -21.5q-55 0 -108.5 17.5t-94.5 54.5q-41 35 -62.5 79t-25.5 89v11v9q0 76 45 141.5 t129 92.5q10 4 19.5 5t19.5 3t19 2h20q66 0 123 -30t96 -83q2 -4 4 -7t4 -7q0 -4 1 -7t1 -8q-2 -18 -15 -29t-30 -11q-8 0 -17 5t-18 15q-27 37 -65.5 57.5t-81.5 20.5q-14 0 -27.5 -2t-27.5 -6q-55 -16 -85 -59.5t-30 -92.5q0 -33 14.5 -65.5t42.5 -57.5q31 -27 71 -40 t83 -13q45 0 87 15.5t75 41.5q29 25 45 57.5t16 69.5v217q0 117 -82 175.5t-182 58.5q-29 0 -56.5 -4t-54.5 -15q-63 -25 -107 -78t-44 -137q0 -23 -13.5 -34t-29.5 -11t-29.5 11t-13.5 34zM150 885q0 4 1 9t3 9q10 31 32.5 54.5t53.5 33.5q14 4 27.5 7t27.5 3q39 0 75 -15 t68 -36q12 -8 25.5 -15t28.5 -13q6 -2 13 -3t13 -1q4 0 7 1t7 1q8 2 15.5 7t13.5 13q8 10 17.5 14t17.5 4q16 0 29.5 -12t13.5 -28q0 -8 -3 -15.5t-9 -15.5q-20 -27 -50 -40t-63 -13q-14 0 -29.5 3t-31.5 9q-14 6 -26.5 13t-25.5 13q0 2 -1 2h-1q-16 10 -31.5 18.5 t-31.5 14.5q-10 4 -20.5 6t-20.5 2q-20 0 -36.5 -9t-25.5 -32q-6 -16 -17 -23t-23 -7q-16 0 -29.5 11.5t-13.5 29.5z" />
<glyph unicode="&#xe4;" horiz-adv-x="768" d="M35 485q0 154 108.5 237t241.5 83q35 0 71 -6t68 -19q88 -33 148.5 -106.5t60.5 -188.5v-221v-221q0 -23 -13 -34t-30 -11q-16 0 -29.5 11t-13.5 34v20v21q-45 -41 -104.5 -62.5t-122.5 -21.5q-55 0 -108.5 17.5t-94.5 54.5q-41 35 -62.5 79t-25.5 89v11v9q0 76 45 141.5 t129 92.5q10 4 19.5 5t19.5 3t19 2h20q66 0 123 -30t96 -83q2 -4 4 -7t4 -7q0 -4 1 -7t1 -8q-2 -18 -15 -29t-30 -11q-8 0 -17 5t-18 15q-27 37 -65.5 57.5t-81.5 20.5q-14 0 -27.5 -2t-27.5 -6q-55 -16 -85 -59.5t-30 -92.5q0 -33 14.5 -65.5t42.5 -57.5q31 -27 71 -40 t83 -13q45 0 87 15.5t75 41.5q29 25 45 57.5t16 69.5v217q0 117 -82 175.5t-182 58.5q-29 0 -56.5 -4t-54.5 -15q-63 -25 -107 -78t-44 -137q0 -23 -13.5 -34t-29.5 -11t-29.5 11t-13.5 34zM236 903q0 29 20 49.5t49 20.5t49.5 -20.5t20.5 -49.5t-20.5 -49t-49.5 -20t-49 20 t-20 49zM416 903q0 29 20.5 49.5t48.5 20.5q29 0 49.5 -20.5t20.5 -49.5t-20.5 -49t-49.5 -20t-49 20t-20 49z" />
<glyph unicode="&#xe5;" horiz-adv-x="768" d="M35 485q0 154 108.5 237t241.5 83q35 0 71 -6t68 -19q88 -33 148.5 -106.5t60.5 -188.5v-221v-221q0 -23 -13 -34t-30 -11q-16 0 -29.5 11t-13.5 34v20v21q-45 -41 -104.5 -62.5t-122.5 -21.5q-55 0 -108.5 17.5t-94.5 54.5q-41 35 -62.5 79t-25.5 89v11v9q0 76 45 141.5 t129 92.5q10 4 19.5 5t19.5 3t19 2h20q66 0 123 -30t96 -83q2 -4 4 -7t4 -7q0 -4 1 -7t1 -8q-2 -18 -15 -29t-30 -11q-8 0 -17 5t-18 15q-27 37 -65.5 57.5t-81.5 20.5q-14 0 -27.5 -2t-27.5 -6q-55 -16 -85 -59.5t-30 -92.5q0 -33 14.5 -65.5t42.5 -57.5q31 -27 71 -40 t83 -13q45 0 87 15.5t75 41.5q29 25 45 57.5t16 69.5v217q0 117 -82 175.5t-182 58.5q-29 0 -56.5 -4t-54.5 -15q-63 -25 -107 -78t-44 -137q0 -23 -13.5 -34t-29.5 -11t-29.5 11t-13.5 34z" />
<glyph unicode="&#xe6;" horiz-adv-x="1595" d="M72 487q0 154 108.5 237t241.5 83q35 0 70.5 -6t68.5 -19q61 -23 110.5 -65.5t76.5 -106.5q59 90 156 141.5t204 51.5q86 0 164 -34t141 -91q16 -14 27.5 -33.5t11.5 -42.5v-5q0 -3 -2 -5q0 -4 -1 -6t-1 -6q-8 -23 -29.5 -35.5t-44.5 -12.5h-206h-207q-23 0 -34.5 13.5 t-11.5 29.5q0 14 11.5 27.5t34.5 13.5h196h197q-51 47 -113.5 74t-132.5 27q-131 0 -234.5 -89t-103.5 -227q0 -137 103.5 -226t234.5 -89q115 0 210 69.5t120 184.5q4 20 16 28.5t27 8.5q16 0 29.5 -11.5t11.5 -31.5v-3v-1v-3v-3q-31 -145 -150 -234.5t-264 -89.5 q-106 0 -200.5 48t-153.5 134q-35 -88 -118 -134t-175 -46q-57 0 -110.5 17.5t-96.5 54.5t-65.5 87t-22.5 103v14q0 7 2 13q4 33 17.5 65.5t35.5 61.5q37 43 89 65.5t110 22.5q16 0 32.5 -2t32.5 -6q43 -10 83 -37t69 -68q2 -4 4 -7t4 -7q0 -4 1 -7t1 -7q0 -18 -14.5 -29.5 t-30.5 -11.5q-8 0 -17.5 5t-17.5 15q-27 37 -65.5 57.5t-81.5 20.5h-13q-7 0 -14 -2q-6 0 -13 -2t-13 -4q-55 -16 -86 -59.5t-31 -94.5v-9q0 -5 2 -9q2 -29 16.5 -55.5t40.5 -47.5q31 -27 71 -40t81 -13q45 0 87 15.5t75 41.5q29 25 46 57.5t17 69.5v55v54v54v54 q0 117 -83 175.5t-183 58.5q-27 0 -54.5 -4t-54.5 -15q-63 -25 -108 -78t-45 -137q0 -23 -13.5 -34t-29.5 -11t-29.5 11t-13.5 34z" />
<glyph unicode="&#xe7;" horiz-adv-x="858" d="M39 401q0 86 31.5 161t91.5 130q57 51 135 81t176 30q131 0 238.5 -93.5t107.5 -228.5q0 -68 -22.5 -125t-63.5 -98q-37 -35 -85 -56.5t-99 -25.5q-8 -2 -15 -2h-16q-43 0 -83 11.5t-75 37.5q-39 29 -61.5 71t-28.5 87q-2 6 -2 13v14q0 43 17.5 82.5t56.5 70.5 q8 6 15.5 8t13.5 2q18 0 30.5 -13t12.5 -30q0 -8 -4 -17t-15 -17q-23 -18 -33 -41t-10 -47q0 -33 16.5 -63t43.5 -52q23 -16 50 -24.5t56 -8.5h7h7q39 2 77 18.5t63 42.5q29 29 45 70t16 92q0 96 -75.5 163t-168.5 73h-8h-8q-82 0 -145.5 -22.5t-108.5 -63.5 q-45 -43 -69.5 -102.5t-24.5 -127.5q0 -137 102.5 -226t233.5 -89h19q9 0 20 2q57 4 113.5 24.5t101.5 59.5q4 4 8 7t8 3q4 2 8 2h9q16 0 28 -12t10 -29q0 -8 -3 -16t-13 -16q-57 -53 -133 -80t-156 -31h-11h-9q-166 0 -294 114.5t-128 286.5zM254 -258q0 18 15.5 30.5 t33.5 10.5q8 -2 15.5 -6t13.5 -13q10 -14 23.5 -19t27.5 -5q23 0 41 14.5t20 38.5v3v1v3v3q0 27 -19 44.5t-44 17.5q-8 0 -17.5 -3t-19.5 -9q-2 -2 -5 -3.5t-5 -1.5q-2 -2 -5 -2h-5q-20 0 -36 16.5t-9 35.5q0 2 1 5t3 5l44 69l42 70q6 12 15 17.5t19 5.5q16 0 31 -12.5 t15 -30.5q0 -2 -1.5 -7.5t-3.5 -9.5q0 -2 -1 -4t-3 -4l-34 -55q55 -8 89.5 -50t34.5 -96v-4v-6q-2 -2 -2 -4v-4v-2q-8 -55 -50 -91t-97 -36h-4h-4q-4 2 -6 2h-5q-27 2 -53 17.5t-45 37.5q-6 8 -8 15.5t-2 15.5z" />
<glyph unicode="&#xe8;" horiz-adv-x="921" d="M41 401q0 172 128 287t296 115q86 0 164 -34t141 -91q16 -14 27.5 -33.5t11.5 -42.5v-5q0 -3 -2 -5q0 -4 -1 -6t-1 -6q-8 -23 -29.5 -35.5t-44.5 -12.5h-103h-104h-103h-104q-23 0 -34 13.5t-11 29.5q0 14 11.5 27.5t33.5 13.5h197h195q-51 47 -112.5 74t-131.5 27 q-131 0 -234.5 -89t-103.5 -227q0 -137 103.5 -226t234.5 -89q115 0 210 69.5t120 184.5q4 20 16 28.5t27 8.5q16 0 29.5 -11.5t11.5 -31.5v-3v-1v-3v-3q-31 -145 -150 -234.5t-264 -89.5q-168 0 -296 114.5t-128 286.5zM180 973v2v4v3v3q2 12 12.5 24.5t28.5 12.5h8 q4 0 7 -2l354 -84q18 -4 26.5 -16.5t8.5 -26.5q0 -16 -11.5 -29.5t-31.5 -13.5h-3q-1 0 -4 2h-3h-3l-354 86q-16 4 -24.5 13.5t-10.5 21.5z" />
<glyph unicode="&#xe9;" horiz-adv-x="921" d="M41 401q0 172 128 287t296 115q86 0 164 -34t141 -91q16 -14 27.5 -33.5t11.5 -42.5v-5q0 -3 -2 -5q0 -4 -1 -6t-1 -6q-8 -23 -29.5 -35.5t-44.5 -12.5h-103h-104h-103h-104q-23 0 -34 13.5t-11 29.5q0 14 11.5 27.5t33.5 13.5h197h195q-51 47 -112.5 74t-131.5 27 q-131 0 -234.5 -89t-103.5 -227q0 -137 103.5 -226t234.5 -89q115 0 210 69.5t120 184.5q4 20 16 28.5t27 8.5q16 0 29.5 -11.5t11.5 -31.5v-3v-1v-3v-3q-31 -145 -150 -234.5t-264 -89.5q-168 0 -296 114.5t-128 286.5zM362 877v3v3q0 14 8.5 25.5t26.5 15.5l355 84 q2 0 4 1t4 1h2h4q20 -2 30.5 -15.5t10.5 -29.5q0 -12 -8 -23.5t-27 -15.5l-354 -86q-2 0 -4 -1l-2 -1h-4h-5q-18 2 -28.5 13.5t-12.5 25.5z" />
<glyph unicode="&#xea;" horiz-adv-x="921" d="M41 401q0 172 128 287t296 115q86 0 164 -34t141 -91q16 -14 27.5 -33.5t11.5 -42.5v-5q0 -3 -2 -5q0 -4 -1 -6t-1 -6q-8 -23 -29.5 -35.5t-44.5 -12.5h-103h-104h-103h-104q-23 0 -34 13.5t-11 29.5q0 14 11.5 27.5t33.5 13.5h197h195q-51 47 -112.5 74t-131.5 27 q-131 0 -234.5 -89t-103.5 -227q0 -137 103.5 -226t234.5 -89q115 0 210 69.5t120 184.5q4 20 16 28.5t27 8.5q16 0 29.5 -11.5t11.5 -31.5v-3v-1v-3v-3q-31 -145 -150 -234.5t-264 -89.5q-168 0 -296 114.5t-128 286.5zM258 872q0 10 6 20.5t19 16.5l168 86q4 2 9 3t11 -1 h11q5 0 7 -2l168 -86q14 -6 20.5 -16t6.5 -21q0 -16 -12.5 -30.5t-30.5 -14.5h-5q-3 0 -5 2q-4 0 -6 1l-7 4l-147 75l-149 -75l-13 -5q-6 -2 -10 -2q-18 0 -30.5 14.5t-10.5 30.5z" />
<glyph unicode="&#xeb;" horiz-adv-x="921" d="M41 401q0 172 128 287t296 115q86 0 164 -34t141 -91q16 -14 27.5 -33.5t11.5 -42.5v-5q0 -3 -2 -5q0 -4 -1 -6t-1 -6q-8 -23 -29.5 -35.5t-44.5 -12.5h-103h-104h-103h-104q-23 0 -34 13.5t-11 29.5q0 14 11.5 27.5t33.5 13.5h197h195q-51 47 -112.5 74t-131.5 27 q-131 0 -234.5 -89t-103.5 -227q0 -137 103.5 -226t234.5 -89q115 0 210 69.5t120 184.5q4 20 16 28.5t27 8.5q16 0 29.5 -11.5t11.5 -31.5v-3v-1v-3v-3q-31 -145 -150 -234.5t-264 -89.5q-168 0 -296 114.5t-128 286.5zM297 903q0 29 20.5 49.5t49.5 20.5t49 -20.5 t20 -49.5t-20.5 -49t-48.5 -20q-29 0 -49.5 20t-20.5 49zM477 903q0 29 20.5 49.5t49.5 20.5t49 -20.5t20 -49.5t-20.5 -49t-48.5 -20q-29 0 -49.5 20t-20.5 49z" />
<glyph unicode="&#xec;" horiz-adv-x="190" d="M-291 991v2v4v3v4q2 12 12.5 24t28.5 12h7q3 0 7 -2l353 -84q18 -4 26.5 -16t8.5 -27q0 -16 -11.5 -29.5t-31.5 -13.5h-4q-1 0 -3 2h-3h-3l-354 86q-14 4 -22.5 13.5t-10.5 21.5zM47 123v160v159v158v160q0 23 13.5 35t29.5 12t29.5 -12.5t13.5 -34.5v-160v-158v-159 v-160q0 -14 6 -25.5t18.5 -17.5t18.5 -15.5t6 -19.5q2 -18 -10 -31.5t-31 -13.5q-6 0 -12 2l-12 4q-33 16 -51.5 48t-18.5 69z" />
<glyph unicode="&#xed;" horiz-adv-x="190" d="M43 891v3v3q0 14 8 25.5t27 15.5l354 84q2 0 4 1t4 1h2h4q20 -2 30.5 -15.5t10.5 -29.5q0 -12 -8 -23.5t-26 -15.5l-355 -86q-2 0 -4 -1l-2 -1h-4h-4q-18 2 -28.5 13.5t-12.5 25.5zM47 123v160v159v158v160q0 23 13.5 35t29.5 12t29.5 -12.5t13.5 -34.5v-160v-158v-159 v-160q0 -14 6 -25.5t18.5 -17.5t18.5 -15.5t6 -19.5q2 -18 -10 -31.5t-31 -13.5q-6 0 -12 2l-12 4q-33 16 -51.5 48t-18.5 69z" />
<glyph unicode="&#xee;" horiz-adv-x="190" d="M-125 840q0 10 6 20t19 17l166 86q4 2 9 3t11 -1h11q5 0 7 -2l168 -86q14 -6 20.5 -16.5t6.5 -20.5q0 -16 -12.5 -30.5t-30.5 -14.5h-5q-3 0 -5 2q-4 0 -6 1l-7 3l-147 76l-149 -76q-4 -2 -10.5 -4t-10.5 -2q-18 0 -30.5 14.5t-10.5 30.5zM47 123v160v159v158v160 q0 23 13.5 35t29.5 12t29.5 -12.5t13.5 -34.5v-160v-158v-159v-160q0 -14 6 -25.5t18.5 -17.5t18.5 -15.5t6 -19.5q2 -18 -10 -31.5t-31 -13.5q-6 0 -12 2l-12 4q-33 16 -51.5 48t-18.5 69z" />
<glyph unicode="&#xef;" horiz-adv-x="190" d="M-63 899q0 29 20 49.5t47 20.5q29 0 49.5 -20.5t20.5 -49.5t-20.5 -49.5t-49.5 -20.5q-27 0 -47 20.5t-20 49.5zM47 123v160v159v158v160q0 23 13.5 35t29.5 12t29.5 -12.5t13.5 -34.5v-160v-158v-159v-160q0 -14 6 -25.5t18.5 -17.5t18.5 -15.5t6 -19.5q2 -18 -10 -31.5 t-31 -13.5q-6 0 -12 2l-12 4q-33 16 -51.5 48t-18.5 69zM115 899q0 29 20.5 49.5t48.5 20.5q29 0 49.5 -20.5t20.5 -49.5t-20.5 -49.5t-49.5 -20.5t-49 20.5t-20 49.5z" />
<glyph unicode="&#xf0;" horiz-adv-x="892" d="M41 401q0 166 120 284t285 118q94 0 178.5 -42t141.5 -114v190v189q0 66 -22.5 127t-73.5 107l-103 -103l-102 -102q-4 -4 -8 -7.5t-8 -3.5q-4 -2 -8.5 -3t-8.5 -1q-16 0 -28.5 12.5t-12.5 28.5q0 4 1 8.5t3 8.5q0 4 3 8t8 8l188 191q-25 12 -51.5 19t-53.5 9q-8 2 -17 2 h-17q-14 0 -29.5 -1t-32.5 -5h-3h-3q-2 -2 -3 -2h-3q-20 0 -30.5 13.5t-10.5 29.5q0 12 9 24.5t30 16.5q20 4 40.5 6t41.5 2h16q8 0 19 -2q41 -4 83 -16t78 -33l46 46l47 46q8 8 17 11.5t17 3.5q16 0 29.5 -12.5t11.5 -30.5q0 -8 -3 -15.5t-11 -15.5l-20 -21l-21 -20 l-20 -21l-21 -20q63 -57 93 -133t30 -160v-156v-155v-158v-156q0 -166 -120 -283.5t-286 -117.5t-285.5 116.5t-119.5 284.5zM125 401q0 -131 95 -223t226 -92t225.5 92t94.5 223q0 133 -94 224.5t-226 91.5q-131 0 -226 -91.5t-95 -224.5z" />
<glyph unicode="&#xf1;" horiz-adv-x="843" d="M39 758q-2 18 10 32.5t31 14.5q6 -2 12 -3t12 -5q31 -16 49.5 -47t20.5 -66q53 59 126 88t149 29q37 0 73.5 -7.5t69.5 -21.5q90 -35 152.5 -118t62.5 -210v-200v-201q0 -23 -13.5 -34t-29.5 -11t-29.5 11t-13.5 34v201v200q0 98 -46 161t-114 89q-27 10 -56.5 16.5 t-58.5 4.5q-29 0 -57.5 -5t-54.5 -16q-63 -27 -110.5 -86t-49.5 -151v-104v-103v-34v-36v-68v-69q0 -20 -13.5 -31.5t-29.5 -11.5t-29.5 11.5t-13.5 31.5v159q0 79 2 158v160v160q0 14 -7 25.5t-20 17.5q-12 6 -18 15.5t-6 19.5zM201 897q0 4 1 9t3 9q10 31 32.5 54.5 t53.5 34.5q14 4 27.5 7t27.5 3q39 0 75 -15.5t68 -35.5q12 -8 25.5 -15.5t28.5 -13.5q6 -2 13 -3t13 -1q4 0 7.5 1t7.5 1q8 2 15 7t13 13q8 10 17.5 14.5t17.5 4.5q16 0 29.5 -12.5t13.5 -28.5q0 -8 -3 -15.5t-9 -15.5q-20 -27 -50 -40t-63 -13q-14 0 -29.5 3t-31.5 9 q-14 6 -26.5 13.5t-24.5 13.5q0 2 -1 2q-17 10 -33 18t-32 15q-10 4 -20.5 6t-20.5 2q-20 0 -36.5 -9.5t-24.5 -31.5q-6 -16 -17.5 -23.5t-23.5 -7.5q-16 0 -29.5 11.5t-13.5 29.5z" />
<glyph unicode="&#xf2;" horiz-adv-x="909" d="M41 401q0 170 123 286t291 116q166 0 289.5 -116t123.5 -286q0 -168 -122.5 -284.5t-290.5 -116.5q-166 0 -290 116.5t-124 284.5zM125 961v2v4v3v3q2 12 12 24.5t29 12.5h8q4 0 6 -2l355 -84q18 -4 26 -16.5t8 -26.5q0 -16 -11 -29.5t-32 -13.5h-3q-1 0 -3 2h-3h-3 l-354 86q-16 4 -24.5 13.5t-10.5 21.5zM127 401q0 -133 98.5 -224t229.5 -91q133 0 231 90t98 225q0 133 -98 224.5t-231 91.5q-131 0 -229.5 -91.5t-98.5 -224.5z" />
<glyph unicode="&#xf3;" horiz-adv-x="909" d="M41 401q0 170 123 286t291 116q166 0 289.5 -116t123.5 -286q0 -168 -122.5 -284.5t-290.5 -116.5q-166 0 -290 116.5t-124 284.5zM127 401q0 -133 98.5 -224t229.5 -91q133 0 231 90t98 225q0 133 -98 224.5t-231 91.5q-131 0 -229.5 -91.5t-98.5 -224.5zM346 868v3v3 q0 14 8 25.5t27 15.5l354 84q2 0 4 1t4 1h2h5q20 -2 30.5 -15t10.5 -30q0 -12 -8.5 -23t-26.5 -15l-355 -87q-2 0 -4 -1l-2 -1h-4h-4q-18 2 -28.5 13.5t-12.5 25.5z" />
<glyph unicode="&#xf4;" horiz-adv-x="909" d="M41 401q0 170 123 286t291 116q166 0 289.5 -116t123.5 -286q0 -168 -122.5 -284.5t-290.5 -116.5q-166 0 -290 116.5t-124 284.5zM127 401q0 -133 98.5 -224t229.5 -91q133 0 231 90t98 225q0 133 -98 224.5t-231 91.5q-131 0 -229.5 -91.5t-98.5 -224.5zM240 852 q0 10 6 20.5t18 16.5l168 86q4 2 9 3t12 -1h11q5 0 7 -2l168 -86q14 -6 20.5 -16.5t6.5 -20.5q0 -16 -12.5 -30.5t-30.5 -14.5h-6q-3 0 -5 2q-4 0 -6 1l-6 3l-147 76l-150 -76l-12 -4q-6 -2 -10 -2q-18 0 -30.5 14.5t-10.5 30.5z" />
<glyph unicode="&#xf5;" horiz-adv-x="909" d="M41 401q0 170 123 286t291 116q166 0 289.5 -116t123.5 -286q0 -168 -122.5 -284.5t-290.5 -116.5q-166 0 -290 116.5t-124 284.5zM127 401q0 -133 98.5 -224t229.5 -91q133 0 231 90t98 225q0 133 -98 224.5t-231 91.5q-131 0 -229.5 -91.5t-98.5 -224.5zM223 879 q0 4 1 9t3 9q10 31 33 54.5t53 33.5q14 4 27.5 7t28.5 3q39 0 74.5 -15t68.5 -36q12 -8 25.5 -15l27.5 -14q6 -2 13.5 -3t13.5 -1q4 0 7 1t7 1q8 2 15.5 7.5t13.5 13.5q8 10 17.5 14t17.5 4q16 0 29.5 -12t13.5 -29q0 -8 -3 -15t-10 -15q-20 -27 -49.5 -40.5t-62.5 -13.5 q-14 0 -29.5 3.5t-32.5 9.5q-14 6 -26.5 13t-24.5 13q0 2 -1 2h-1q-16 10 -31.5 18.5t-31.5 14.5q-10 4 -20.5 6t-20.5 2q-20 0 -37 -9t-25 -32q-6 -16 -17 -23t-24 -7q-16 0 -29.5 11.5t-13.5 29.5z" />
<glyph unicode="&#xf6;" horiz-adv-x="909" d="M41 401q0 170 123 286t291 116q166 0 289.5 -116t123.5 -286q0 -168 -122.5 -284.5t-290.5 -116.5q-166 0 -290 116.5t-124 284.5zM127 401q0 -133 98.5 -224t229.5 -91q133 0 231 90t98 225q0 133 -98 224.5t-231 91.5q-131 0 -229.5 -91.5t-98.5 -224.5zM285 903 q0 29 20.5 49.5t48.5 20.5q29 0 49.5 -20.5t20.5 -49.5t-20.5 -49t-49.5 -20t-49 20t-20 49zM465 903q0 29 20.5 49.5t49.5 20.5t49 -20.5t20 -49.5t-20.5 -49t-48.5 -20q-29 0 -49.5 20t-20.5 49z" />
<glyph unicode="&#xf7;" />
<glyph unicode="&#xf8;" horiz-adv-x="909" d="M41 401q0 170 123 286t291 116q72 0 137 -22.5t119 -63.5l77 80q4 4 8.5 7t8.5 3q4 2 8 3t8 1q18 0 31.5 -13.5t11.5 -29.5q0 -8 -3 -16.5t-11 -16.5l-78 -78q45 -51 70.5 -116.5t25.5 -139.5q0 -168 -122.5 -284.5t-290.5 -116.5q-70 0 -135.5 23.5t-118.5 62.5l-80 -80 q-4 -4 -8 -6t-9 -2q-4 -2 -8 -3t-8 -1q-16 0 -28.5 12t-12.5 29q0 4 1 8t3 8q0 4 3 8l7 9l76 75q-45 53 -70.5 118.5t-25.5 139.5zM127 401q0 -57 19.5 -106t52.5 -90l450 450q-41 29 -91 45.5t-103 16.5q-131 0 -229.5 -91.5t-98.5 -224.5zM260 147q41 -29 91 -45t104 -16 q133 0 231 90t98 225q0 57 -19.5 107.5t-51.5 89.5z" />
<glyph unicode="&#xf9;" horiz-adv-x="772" d="M35 758q-2 18 10 32.5t31 14.5q6 -2 12 -3t12 -5q29 -14 46.5 -43t17.5 -62v-385q0 -111 69.5 -166t151.5 -55q84 0 153.5 55.5t69.5 165.5v453q0 23 13.5 35t29.5 12t29.5 -12.5t13.5 -34.5v-649q0 -8 4 -17.5t13 -13.5q14 -8 20 -18.5t4 -22.5q0 -14 -11 -26.5 t-30 -12.5q-4 0 -10 2l-12 4q-25 12 -41.5 34.5t-20.5 49.5q-45 -45 -103 -66.5t-122 -21.5q-115 0 -211 77t-96 228v385q0 10 -4 18.5t-15 12.5q-12 6 -18 15.5t-6 19.5zM113 930v2v4v3v3q2 12 12 24.5t29 12.5h8q4 0 6 -2l354 -84q18 -4 26.5 -16.5t8.5 -26.5 q0 -16 -11 -29.5t-32 -13.5h-3q-1 0 -3 2h-3h-3l-355 86q-16 4 -24 13.5t-10 21.5z" />
<glyph unicode="&#xfa;" horiz-adv-x="772" d="M35 758q-2 18 10 32.5t31 14.5q6 -2 12 -3t12 -5q29 -14 46.5 -43t17.5 -62v-385q0 -111 69.5 -166t151.5 -55q84 0 153.5 55.5t69.5 165.5v453q0 23 13.5 35t29.5 12t29.5 -12.5t13.5 -34.5v-649q0 -8 4 -17.5t13 -13.5q14 -8 20 -18.5t4 -22.5q0 -14 -11 -26.5 t-30 -12.5q-4 0 -10 2l-12 4q-25 12 -41.5 34.5t-20.5 49.5q-45 -45 -103 -66.5t-122 -21.5q-115 0 -211 77t-96 228v385q0 10 -4 18.5t-15 12.5q-12 6 -18 15.5t-6 19.5zM203 852v3v3q0 14 8 25.5t27 15.5l354 84q2 0 4 1t4 1h2h4q20 -2 30.5 -15.5t10.5 -29.5 q0 -12 -8 -23.5t-27 -15.5l-354 -86q-2 0 -4 -1l-2 -1h-4h-4q-18 2 -28.5 13.5t-12.5 25.5z" />
<glyph unicode="&#xfb;" horiz-adv-x="772" d="M35 758q-2 18 10 32.5t31 14.5q6 -2 12 -3t12 -5q29 -14 46.5 -43t17.5 -62v-385q0 -111 69.5 -166t151.5 -55q84 0 153.5 55.5t69.5 165.5v453q0 23 13.5 35t29.5 12t29.5 -12.5t13.5 -34.5v-649q0 -8 4 -17.5t13 -13.5q14 -8 20 -18.5t4 -22.5q0 -14 -11 -26.5 t-30 -12.5q-4 0 -10 2l-12 4q-25 12 -41.5 34.5t-20.5 49.5q-45 -45 -103 -66.5t-122 -21.5q-115 0 -211 77t-96 228v385q0 10 -4 18.5t-15 12.5q-12 6 -18 15.5t-6 19.5zM166 852q0 10 6 20.5t18 16.5l168 86q4 2 9.5 3t11.5 -1h11q5 0 7 -2l168 -86q14 -6 20.5 -16.5 t6.5 -20.5q0 -16 -12.5 -30.5t-30.5 -14.5h-5q-3 0 -5 2q-4 0 -7 1l-6 3l-147 76l-150 -76l-12 -4q-6 -2 -10 -2q-18 0 -30.5 14.5t-10.5 30.5z" />
<glyph unicode="&#xfc;" horiz-adv-x="772" d="M35 758q-2 18 10 32.5t31 14.5q6 -2 12 -3t12 -5q29 -14 46.5 -43t17.5 -62v-385q0 -111 69.5 -166t151.5 -55q84 0 153.5 55.5t69.5 165.5v453q0 23 13.5 35t29.5 12t29.5 -12.5t13.5 -34.5v-649q0 -8 4 -17.5t13 -13.5q14 -8 20 -18.5t4 -22.5q0 -14 -11 -26.5 t-30 -12.5q-4 0 -10 2l-12 4q-25 12 -41.5 34.5t-20.5 49.5q-45 -45 -103 -66.5t-122 -21.5q-115 0 -211 77t-96 228v385q0 10 -4 18.5t-15 12.5q-12 6 -18 15.5t-6 19.5zM217 879q0 29 20.5 49t49.5 20t49 -20.5t20 -49t-20.5 -49t-48.5 -20.5q-29 0 -49.5 20.5t-20.5 49.5 zM397 879q0 29 20.5 49t49.5 20t49.5 -20.5t20.5 -49t-20.5 -49t-49.5 -20.5t-49.5 20.5t-20.5 49.5z" />
<glyph unicode="&#xfd;" horiz-adv-x="647" />
<glyph unicode="&#xfe;" horiz-adv-x="872" d="M41 1327q0 16 11 28.5t30 12.5q4 0 10 -1t12 -5q16 -8 29.5 -20.5t24.5 -28.5q8 -14 13 -32.5t5 -37.5v-594q55 72 131 109t156 35q72 0 139.5 -29t122.5 -88q53 -59 81 -133t25 -152q0 -76 -26.5 -148.5t-79.5 -132t-123 -89t-143 -27.5q-12 0 -24.5 1t-22.5 3 q-37 2 -73 15.5t-69 33.5q-6 6 -11 12.5t-7 12.5q-2 2 -2 6v6q0 16 12 29.5t31 13.5q6 0 12 -2t12 -6q35 -20 71 -31.5t73 -11.5q55 0 108.5 23.5t92.5 68.5q43 47 64.5 105.5t21.5 119.5t-21.5 119.5t-64.5 103.5q-41 47 -94.5 70t-108.5 23q-53 0 -105.5 -22.5 t-93.5 -68.5q-39 -43 -61.5 -101t-22.5 -124v-858q0 -20 -13 -32.5t-30 -12.5q-16 0 -29.5 12.5t-13.5 34.5v853v853q0 8 -1 14.5t-5 10.5q-2 4 -5 7l-7 7q-2 0 -3 2t-3 2q-14 8 -20.5 18.5t-4.5 22.5z" />
<glyph unicode="&#xff;" horiz-adv-x="724" d="M33 758q-2 18 10 32.5t31 14.5q6 -2 12 -3t12 -5q29 -14 46.5 -43t17.5 -62v-97v-95v-96v-97q0 -111 69.5 -166t151.5 -55q84 0 153.5 55.5t69.5 165.5v453q0 23 13.5 35t29.5 12t29.5 -12.5t13.5 -34.5v-766q0 -76 -33.5 -145.5t-101.5 -114.5q-35 -23 -75 -36t-81 -15 q-6 -2 -13 -2h-13h-17q-8 0 -16 2q-16 2 -32.5 5t-33.5 7q-16 6 -24 17.5t-8 25.5t11 27.5t30 13.5h4h4q2 0 4 -1t4 -1q18 -4 36.5 -7t37.5 -3q74 0 137 38.5t84 114.5q8 23 10 47.5t2 48.5v19v18q-2 8 -2 18v17q-45 -43 -103.5 -64.5t-119.5 -21.5q-115 0 -211 77t-96 228 v97v96v95v97q0 10 -4 18.5t-15 12.5q-12 6 -18 15.5t-6 19.5zM217 872q0 29 20.5 49.5t49.5 20.5t49 -20.5t20 -49t-20.5 -49t-48.5 -20.5q-29 0 -49.5 20t-20.5 49zM397 872q0 29 20.5 49.5t49.5 20.5t49.5 -20.5t20.5 -49t-20.5 -49t-49.5 -20.5t-49.5 20t-20.5 49z" />
<glyph unicode="&#x152;" horiz-adv-x="1824" d="M57 694v12v11q0 139 47.5 271t139.5 235q94 102 216 154.5t249 52.5h19q9 0 17 -3q84 -4 165 -31.5t153 -76.5q4 51 37 86t84 35h182h184q23 0 34 -14.5t11 -30.5q0 -14 -11 -27.5t-34 -13.5h-184h-182q-14 0 -24.5 -9.5t-10.5 -23.5v-672h122h120h119h122q23 0 35 -13 t12 -30q0 -16 -12 -29.5t-35 -13.5h-122h-119h-120h-122v-221v-223q0 -14 10 -23.5t25 -9.5h273h274q23 0 35 -13.5t12 -29.5t-12.5 -29.5t-34.5 -13.5h-274h-273q-47 0 -82 33t-39 78q-72 -49 -153 -77t-165 -32q-8 -2 -17 -2h-19q-127 0 -249 53t-216 156 q-90 98 -136.5 225t-50.5 260zM143 715q0 -123 41 -241t123 -208q82 -88 187.5 -134t216.5 -46q94 0 185 33t167 100v993q-76 66 -167 100t-187 34h-12h-11q-102 -4 -201.5 -50.5t-177.5 -130.5q-80 -86 -120 -198.5t-44 -231.5v-9v-11z" />
<glyph unicode="&#x153;" horiz-adv-x="1492" d="M49 403q0 78 31 152t90 131q57 53 132 85t161 32h9h9q76 -4 147.5 -34t125.5 -83q59 57 137 87t160 30q86 0 164.5 -34t142.5 -91q16 -14 27.5 -33.5t11.5 -42.5v-5q0 -3 -2 -5q0 -4 -1 -6t-1 -6q-8 -23 -30 -35.5t-44 -12.5h-104h-103h-103h-104q-23 0 -34 13.5 t-11 29.5q0 14 11.5 27.5t33.5 13.5h99h98h96h98q-27 23 -55.5 42.5t-60.5 33.5q-20 8 -42 13.5t-44 9.5q-10 0 -21.5 1t-21.5 1q-66 0 -129.5 -24.5t-112.5 -71.5q35 -51 51.5 -106.5t16.5 -115.5q0 -57 -16.5 -112.5t-51.5 -104.5q51 -47 114.5 -71.5t131.5 -24.5h13 q7 0 15 2q47 4 94.5 21.5t88.5 48.5q45 35 74.5 82t41.5 100q4 20 16.5 28.5t26.5 8.5q16 0 28.5 -11.5t12.5 -29.5v-5q0 -3 -2 -7q-14 -70 -52 -130.5t-95 -103.5q-57 -45 -126 -67.5t-140 -22.5q-80 0 -157 29.5t-140 87.5q-57 -57 -134 -87t-157 -30t-157 29.5t-136 87.5 q-61 59 -91 133.5t-30 152.5zM135 399q0 -59 23.5 -116.5t70.5 -104.5q49 -47 110.5 -70.5t125.5 -23.5q66 2 126 25.5t107 72.5q-35 51 -52 107.5t-17 113.5t18.5 112.5t50.5 105.5q-49 47 -110.5 71.5t-126.5 24.5q-63 0 -124 -22.5t-108 -69.5q-47 -45 -71.5 -105 t-22.5 -121zM715 399q0 -8 1 -18t1 -19q4 -29 13 -56t24 -52q12 25 20 49.5t12 48.5q2 12 3.5 24.5t1.5 24.5q0 39 -9.5 76t-27.5 70q-20 -33 -29.5 -71t-9.5 -77z" />
<glyph unicode="&#x178;" horiz-adv-x="1054" d="M47 1401q0 18 14.5 30.5t32.5 10.5q10 0 19.5 -6t15.5 -19l397 -725l400 725q6 12 15 18.5t20 6.5q18 2 32.5 -10.5t14.5 -30.5q-2 -6 -3 -12.5t-6 -12.5l-430 -782v-551q0 -23 -13 -34t-28 -11q-16 0 -29.5 11t-13.5 34v551l-430 782q-2 6 -5 12.5t-3 12.5zM352 1518 q0 29 20.5 49t49.5 20t49.5 -20.5t20.5 -49t-20.5 -49t-49.5 -20.5t-49.5 20.5t-20.5 49.5zM532 1518q0 29 20.5 49t49.5 20t49.5 -20.5t20.5 -49t-20.5 -49t-49.5 -20.5t-49.5 20.5t-20.5 49.5z" />
<glyph unicode="&#x2c6;" horiz-adv-x="540" d="M27 1505q0 4 1 9.5t3 9.5q10 31 32.5 54.5t53.5 33.5q14 4 27.5 7t27.5 3q39 0 75 -15.5t68 -35.5q12 -8 25.5 -15.5t28.5 -13.5q6 -2 13 -3t13 -1q4 0 7.5 1t7.5 1q8 2 15 7t13 14q8 10 17.5 14t17.5 4q16 0 29.5 -12.5t13.5 -28.5q0 -8 -3 -15t-9 -16q-20 -27 -50 -40 t-63 -13q-14 0 -29.5 3t-31.5 9q-14 6 -26.5 13.5t-24.5 13.5q0 2 -1 2h-2q-16 10 -31.5 18.5t-31.5 14.5q-10 4 -20.5 6t-20.5 2q-20 0 -36.5 -9t-24.5 -32q-6 -16 -17.5 -23.5t-23.5 -7.5q-16 0 -29.5 11.5t-13.5 29.5z" />
<glyph unicode="&#x2dc;" horiz-adv-x="540" d="M43 1491q0 10 6 20.5t19 16.5l168 86q4 2 9 3t11 -1h11q5 0 7 -2l168 -86q14 -6 20.5 -16.5t6.5 -20.5q0 -16 -12.5 -30.5t-30.5 -14.5h-5q-3 0 -5 2q-4 0 -6 1l-7 3l-147 76l-150 -76l-12 -4q-6 -2 -10 -2q-18 0 -30.5 14.5t-10.5 30.5z" />
<glyph unicode="&#x2000;" horiz-adv-x="829" />
<glyph unicode="&#x2001;" horiz-adv-x="1660" />
<glyph unicode="&#x2002;" horiz-adv-x="829" />
<glyph unicode="&#x2003;" horiz-adv-x="1660" />
<glyph unicode="&#x2004;" horiz-adv-x="552" />
<glyph unicode="&#x2005;" horiz-adv-x="413" />
<glyph unicode="&#x2006;" horiz-adv-x="276" />
<glyph unicode="&#x2007;" horiz-adv-x="276" />
<glyph unicode="&#x2008;" horiz-adv-x="206" />
<glyph unicode="&#x2009;" horiz-adv-x="331" />
<glyph unicode="&#x200a;" horiz-adv-x="92" />
<glyph unicode="&#x2010;" horiz-adv-x="378" d="M29 657q0 16 11 29.5t34 13.5h227q23 0 35 -13t12 -30q0 -16 -12 -29.5t-35 -13.5h-227q-23 0 -34 13.5t-11 29.5z" />
<glyph unicode="&#x2011;" horiz-adv-x="378" d="M29 657q0 16 11 29.5t34 13.5h227q23 0 35 -13t12 -30q0 -16 -12 -29.5t-35 -13.5h-227q-23 0 -34 13.5t-11 29.5z" />
<glyph unicode="&#x2012;" horiz-adv-x="378" d="M29 657q0 16 11 29.5t34 13.5h227q23 0 35 -13t12 -30q0 -16 -12 -29.5t-35 -13.5h-227q-23 0 -34 13.5t-11 29.5z" />
<glyph unicode="&#x2013;" horiz-adv-x="757" d="M29 739q0 16 11 29.5t34 13.5h596q23 0 35 -13t12 -30q0 -16 -12.5 -29.5t-34.5 -13.5h-596q-23 0 -34 13.5t-11 29.5z" />
<glyph unicode="&#x2014;" horiz-adv-x="1476" d="M49 739q0 16 11.5 29.5t33.5 13.5h1313q23 0 35 -13t12 -30q0 -16 -12 -29.5t-35 -13.5h-1313q-23 0 -34 13.5t-11 29.5z" />
<glyph unicode="&#x2018;" horiz-adv-x="344" d="M18 1235q0 92 31 152.5t115 101.5q6 4 12 5t10 1q18 0 30.5 -14.5t10.5 -30.5q0 -10 -6 -20.5t-20 -16.5q-6 -2 -11.5 -5t-9.5 -7l-18 -11q-8 -5 -17 -14h9h6q66 0 99.5 -43t33.5 -96q0 -51 -34 -95t-101 -44q-57 0 -98.5 41t-41.5 96z" />
<glyph unicode="&#x2019;" horiz-adv-x="344" d="M43 1348q0 53 34 96t101 43q57 0 98 -41t41 -96q0 -92 -30.5 -152.5t-114.5 -101.5l-12 -4q-6 -2 -10 -2q-18 0 -31 14t-10 31q0 10 6 20t20 16q6 4 11.5 6.5t9.5 6.5q10 6 19 12t15 12h-7h-7q-66 0 -99.5 44.5t-33.5 95.5z" />
<glyph unicode="&#x201a;" horiz-adv-x="344" d="M43 139q0 53 34 96.5t101 43.5q57 0 98 -41t41 -97q0 -92 -30.5 -151.5t-114.5 -100.5q-6 -4 -12 -5t-10 -1q-18 0 -31 14.5t-10 30.5q0 10 6 20.5t20 16.5q6 2 11.5 5t9.5 7l19 12q9 5 15 11h-7h-7q-66 0 -99.5 44t-33.5 95z" />
<glyph unicode="&#x201c;" horiz-adv-x="602" d="M18 1235q0 92 31 152.5t115 101.5q6 4 12 5t10 1q18 0 30.5 -14.5t10.5 -30.5q0 -10 -6 -20.5t-20 -16.5q-6 -2 -11.5 -5t-9.5 -7l-18 -11q-8 -5 -17 -14h9h6q66 0 99.5 -43t33.5 -96q0 -51 -34 -95t-101 -44q-57 0 -98.5 41t-41.5 96zM305 1235q0 92 31 152.5t115 101.5 q6 4 12 5t10 1q18 0 30.5 -14.5t10.5 -30.5q0 -10 -6 -20.5t-21 -16.5q-6 -2 -11 -5t-9 -7l-18 -11q-8 -5 -17 -14h8h6q66 0 100 -43t34 -96q0 -51 -34 -95t-102 -44q-57 0 -98 41t-41 96z" />
<glyph unicode="&#x201d;" horiz-adv-x="602" d="M43 1343q0 53 34 96.5t101 43.5q57 0 98 -41t41 -96q0 -92 -30.5 -152.5t-114.5 -101.5l-12 -5q-6 -2 -10 -2q-18 0 -31 14.5t-10 30.5q0 10 6 20.5t20 16.5q6 4 11.5 6.5t9.5 6.5q10 6 19 12t15 12h-7h-7q-66 0 -99.5 44t-33.5 95zM330 1343q0 53 33.5 96.5t101.5 43.5 q57 0 98 -41t41 -96q0 -92 -30.5 -152.5t-114.5 -101.5l-13 -5q-6 -2 -10 -2q-18 0 -30.5 14.5t-10.5 30.5q0 10 6.5 20.5t20.5 16.5q6 4 11 6.5t9 6.5l19.5 12t15.5 12h-7h-7q-66 0 -99.5 44t-33.5 95z" />
<glyph unicode="&#x201e;" horiz-adv-x="638" d="M43 139q0 53 34 96.5t101 43.5q57 0 98 -41t41 -97q0 -92 -30.5 -151.5t-114.5 -100.5q-6 -4 -12 -5t-10 -1q-18 0 -31 14.5t-10 30.5q0 10 6 20.5t20 16.5q6 2 11.5 5t9.5 7l19 12q9 5 15 11h-7h-7q-66 0 -99.5 44t-33.5 95zM350 139q0 53 34 96.5t101 43.5 q57 0 98.5 -41t41.5 -97q0 -92 -31 -151.5t-115 -100.5q-6 -4 -12 -5t-10 -1q-18 0 -30.5 14.5t-10.5 30.5q0 10 6 20.5t20 16.5q6 2 11.5 5t9.5 7l19 12q9 5 16 11h-8h-7q-66 0 -99.5 44t-33.5 95z" />
<glyph unicode="&#x2022;" horiz-adv-x="782" d="M131 750q0 59 22.5 109t59.5 87q41 37 91 59.5t106 22.5q59 0 109 -22.5t87 -59.5q41 -37 61.5 -87t20.5 -109q0 -57 -20.5 -108.5t-61.5 -88.5q-37 -37 -87 -59.5t-109 -22.5q-55 0 -105.5 22.5t-91.5 59.5q-37 37 -59.5 88.5t-22.5 108.5z" />
<glyph unicode="&#x2026;" />
<glyph unicode="&#x202f;" horiz-adv-x="331" />
<glyph unicode="&#x2039;" horiz-adv-x="456" d="M20 743v6q0 3 3 5q2 6 5 11t7 9l305 266q4 4 8 7l8 4q4 0 8.5 1t8.5 1q16 0 28.5 -13.5t12.5 -29.5q0 -8 -4 -17.5t-15 -17.5l-268 -234l268 -233q6 -4 10.5 -11.5t6.5 -13.5q2 -2 2 -5v-7q-2 -14 -14.5 -26.5t-28.5 -12.5q-8 0 -15.5 3t-15.5 9l-305 265q-8 6 -11.5 15 t-3.5 19z" />
<glyph unicode="&#x203a;" horiz-adv-x="456" d="M61 473q0 10 5.5 18.5t13.5 16.5l268 233l-268 234q-6 6 -10 12t-7 12q0 2 -1 6.5t-1 6.5q0 16 12.5 28.5t30.5 12.5q8 0 15.5 -3t15.5 -10l305 -266q8 -6 11.5 -15t3.5 -20v-5q0 -3 -2 -5q-2 -6 -5.5 -11t-7.5 -9l-305 -265q-4 -4 -8 -6l-8 -4q-4 -2 -8 -2h-9 q-16 0 -28.5 12.5t-12.5 28.5z" />
<glyph unicode="&#x205f;" horiz-adv-x="413" />
<glyph unicode="&#x2122;" />
<glyph unicode="&#xe000;" horiz-adv-x="805" d="M0 805h805v-805h-805v805z" />
<glyph unicode="&#xfb01;" horiz-adv-x="1081" d="M938 123v160v159v158v160q0 23 13.5 35t29.5 12t29.5 -12.5t13.5 -34.5v-160v-158v-159v-160q0 -14 6 -25.5t18.5 -17.5t18.5 -15q6 -10 6.5 -25t-10.5 -27q-12 -13 -31 -13q-6 0 -12 2l-12 4q-33 16 -51.5 48t-18.5 69zM938 1022v238q0 23 13.5 34t29.5 11t29.5 -11.5 t13.5 -33.5v-238q0 -23 -13.5 -34t-29.5 -11t-29.5 11t-13.5 34zM48 -52q5 9 15 15q23 14 32 34.5t9 45.5v230v231h-8q-23 0 -34 13t-11 30q0 16 11.5 29.5t33.5 13.5h8v160v157q0 90 29 158t74 117q59 59 135 90q71 29 147 29q5 0 11 -1h7h5q98 -2 189.5 -49t142.5 -137 q2 -2 4 -6t2 -6q2 -4 2 -7v-8q-2 -18 -15.5 -29t-29.5 -11q-10 2 -19.5 7t-17.5 17q-41 72 -115.5 109t-156.5 37h-10h-9q-57 -4 -113.5 -28t-97.5 -67q-35 -37 -56.5 -90t-21.5 -125v-157v-160h138q23 0 35 -13.5t12 -29.5t-12.5 -29.5t-34.5 -13.5h-138v-231v-230 q0 -45 -20 -86t-61 -66q-2 -2 -6.5 -4t-6.5 -2q-4 -2 -7 -2h-7q-18 0 -31 15q-11 12 -10 27q0 10 7 23z" />
<glyph unicode="&#xfb02;" horiz-adv-x="1093" d="M899 1251v5v6q0 16 11.5 28.5t29.5 12.5q4 0 10.5 -1.5t12.5 -5.5q33 -18 52 -50t19 -68v-284v-284v-283v-284q0 -23 -13 -34t-30 -11q-16 0 -29.5 11t-13.5 34v284v283v284v284q0 14 -7 25t-17 18q-10 6 -16.5 14t-8.5 16zM48 -52q5 9 15 15q23 14 32 34.5t9 45.5v230 v231h-8q-23 0 -34 13t-11 30q0 16 11.5 29.5t33.5 13.5h8v160v157q0 90 29 158t74 117q59 59 135 90q71 29 147 29q5 0 11 -1h7h5q98 -2 189.5 -49t142.5 -137q2 -2 4 -6t2 -6q2 -4 2 -7v-8q-2 -18 -15.5 -29t-29.5 -11q-10 2 -19.5 7t-17.5 17q-41 72 -115.5 109t-156.5 37 h-10h-9q-57 -4 -113.5 -28t-97.5 -67q-35 -37 -56.5 -90t-21.5 -125v-157v-160h138q23 0 35 -13.5t12 -29.5t-12.5 -29.5t-34.5 -13.5h-138v-231v-230q0 -45 -20 -86t-61 -66q-2 -2 -6.5 -4t-6.5 -2q-4 -2 -7 -2h-7q-18 0 -31 15q-11 12 -10 27q0 10 7 23z" />
<glyph unicode="&#xfb03;" horiz-adv-x="1972" d="M1829 123v160v159v158v160q0 23 13.5 35t29.5 12t29.5 -12.5t13.5 -34.5v-160v-158v-159v-160q0 -14 6 -25.5t18.5 -17.5t18.5 -15q6 -10 6.5 -25t-10.5 -27q-12 -13 -31 -13q-6 0 -12 2l-12 4q-33 16 -51.5 48t-18.5 69zM1829 1022v238q0 23 13.5 34t29.5 11t29.5 -11.5 t13.5 -33.5v-238q0 -23 -13.5 -34t-29.5 -11t-29.5 11t-13.5 34zM939 -52q5 9 15 15q23 14 32 34.5t9 45.5v230v231h-8q-23 0 -34 13t-11 30q0 16 11.5 29.5t33.5 13.5h8v160v157q0 90 29 158t74 117q59 59 135 90q71 29 147 29q5 0 11 -1h7h5q98 -2 189.5 -49t142.5 -137 q2 -2 4 -6t2 -6q2 -4 2 -7v-8q-2 -18 -15.5 -29t-29.5 -11q-10 2 -19.5 7t-17.5 17q-41 72 -115.5 109t-156.5 37h-10h-9q-57 -4 -113.5 -28t-97.5 -67q-35 -37 -56.5 -90t-21.5 -125v-157v-160h138q23 0 35 -13.5t12 -29.5t-12.5 -29.5t-34.5 -13.5h-138v-231v-230 q0 -45 -20 -86t-61 -66q-2 -2 -6.5 -4t-6.5 -2q-4 -2 -7 -2h-7q-18 0 -31 15q-11 12 -10 27q0 10 7 23zM48 -52q5 9 15 15q23 14 32 34.5t9 45.5v230v231h-8q-23 0 -34 13t-11 30q0 16 11.5 29.5t33.5 13.5h8v160v157q0 90 29 158t74 117q59 59 135 90q71 29 147 29 q5 0 11 -1h7h5q98 -2 189.5 -49t142.5 -137q2 -2 4 -6t2 -6q2 -4 2 -7v-8q-2 -18 -15.5 -29t-29.5 -11q-10 2 -19.5 7t-17.5 17q-41 72 -115.5 109t-156.5 37h-10h-9q-57 -4 -113.5 -28t-97.5 -67q-35 -37 -56.5 -90t-21.5 -125v-157v-160h138q23 0 35 -13.5t12 -29.5 t-12.5 -29.5t-34.5 -13.5h-138v-231v-230q0 -45 -20 -86t-61 -66q-2 -2 -6.5 -4t-6.5 -2q-4 -2 -7 -2h-7q-18 0 -31 15q-11 12 -10 27q0 10 7 23z" />
<glyph unicode="&#xfb04;" horiz-adv-x="1984" d="M1790 1251v5v6q0 16 11.5 28.5t29.5 12.5q4 0 10.5 -1.5t12.5 -5.5q33 -18 52 -50t19 -68v-284v-284v-283v-284q0 -23 -13 -34t-30 -11q-16 0 -29.5 11t-13.5 34v284v283v284v284q0 14 -7 25t-17 18q-10 6 -16.5 14t-8.5 16zM939 -52q5 9 15 15q23 14 32 34.5t9 45.5v230 v231h-8q-23 0 -34 13t-11 30q0 16 11.5 29.5t33.5 13.5h8v160v157q0 90 29 158t74 117q59 59 135 90q71 29 147 29q5 0 11 -1h7h5q98 -2 189.5 -49t142.5 -137q2 -2 4 -6t2 -6q2 -4 2 -7v-8q-2 -18 -15.5 -29t-29.5 -11q-10 2 -19.5 7t-17.5 17q-41 72 -115.5 109t-156.5 37 h-10h-9q-57 -4 -113.5 -28t-97.5 -67q-35 -37 -56.5 -90t-21.5 -125v-157v-160h138q23 0 35 -13.5t12 -29.5t-12.5 -29.5t-34.5 -13.5h-138v-231v-230q0 -45 -20 -86t-61 -66q-2 -2 -6.5 -4t-6.5 -2q-4 -2 -7 -2h-7q-18 0 -31 15q-11 12 -10 27q0 10 7 23zM48 -52q5 9 15 15 q23 14 32 34.5t9 45.5v230v231h-8q-23 0 -34 13t-11 30q0 16 11.5 29.5t33.5 13.5h8v160v157q0 90 29 158t74 117q59 59 135 90q71 29 147 29q5 0 11 -1h7h5q98 -2 189.5 -49t142.5 -137q2 -2 4 -6t2 -6q2 -4 2 -7v-8q-2 -18 -15.5 -29t-29.5 -11q-10 2 -19.5 7t-17.5 17 q-41 72 -115.5 109t-156.5 37h-10h-9q-57 -4 -113.5 -28t-97.5 -67q-35 -37 -56.5 -90t-21.5 -125v-157v-160h138q23 0 35 -13.5t12 -29.5t-12.5 -29.5t-34.5 -13.5h-138v-231v-230q0 -45 -20 -86t-61 -66q-2 -2 -6.5 -4t-6.5 -2q-4 -2 -7 -2h-7q-18 0 -31 15q-11 12 -10 27 q0 10 7 23z" />
</font>
</defs>
</svg>
